<svg xmlns="http://www.w3.org/2000/svg" xmlns:xlink="http://www.w3.org/1999/xlink" width="500" zoomAndPan="magnify" viewBox="0 0 375 374.999991" height="500" preserveAspectRatio="xMidYMid meet" version="1.0"><defs><clipPath id="45e8ce6bfb"><path d="M 17.039062 183.644531 L 121.289062 183.644531 L 121.289062 287.894531 L 17.039062 287.894531 Z M 17.039062 183.644531 " clip-rule="nonzero"/></clipPath></defs><path fill="#8ebf25" d="M 149.402344 168.8125 C 149.402344 168.8125 134.128906 186.871094 144.90625 273.796875 C 144.90625 273.796875 159.082031 255.75 181.359375 265.167969 C 181.359375 265.167969 137.304688 235.976562 153.308594 187.855469 C 169.304688 139.738281 183.703125 150.652344 183.703125 150.652344 L 149.402344 168.8125 " fill-opacity="1" fill-rule="nonzero"/><path fill="#35181d" d="M 282.777344 325.246094 C 300.570312 307.042969 202.726562 254.816406 161.519531 259.628906 C 120.3125 264.429688 23.84375 348.125 81.066406 361.210938 C 138.289062 374.292969 234.34375 374.796875 282.777344 325.246094 " fill-opacity="1" fill-rule="nonzero"/><path fill="#4e2e31" d="M 156.191406 332.371094 C 141.351562 332.367188 128.398438 327.847656 124.347656 313.722656 C 121.316406 303.160156 122.890625 289.859375 130.421875 281.644531 C 137.953125 273.433594 156.203125 267.101562 165.671875 265.996094 C 167.183594 265.820312 168.78125 265.738281 170.460938 265.738281 C 179.027344 265.738281 189.632812 267.945312 200.691406 271.523438 C 198.691406 282.726562 196.5 299.613281 198.828125 311.0625 C 201.855469 309.199219 204.972656 307.734375 208.820312 307.734375 C 208.867188 307.734375 208.910156 307.734375 208.957031 307.734375 C 210.527344 307.75 211.527344 308.351562 212.488281 309.0625 C 212.867188 308.480469 213.277344 307.921875 213.722656 307.390625 C 214.226562 306.996094 214.738281 306.621094 215.261719 306.265625 L 215.25 306.289062 C 217.953125 304.449219 220.949219 303.113281 224.167969 302.378906 C 224.171875 302.378906 224.175781 302.378906 224.179688 302.378906 C 224.1875 302.375 224.195312 302.375 224.203125 302.371094 C 224.210938 302.371094 224.21875 302.367188 224.230469 302.367188 C 224.238281 302.367188 224.242188 302.363281 224.246094 302.363281 C 224.449219 302.316406 224.65625 302.273438 224.867188 302.234375 C 228.949219 301.417969 233.359375 301 237.875 301 C 239.519531 301 241.175781 301.054688 242.839844 301.167969 C 230.144531 308.878906 218.550781 316.488281 208.003906 320.703125 C 197.613281 324.851562 175.328125 332.371094 156.191406 332.371094 " fill-opacity="1" fill-rule="nonzero"/><path fill="#d3d2d2" d="M 81.019531 361.199219 C 81.015625 361.199219 81.007812 361.199219 81.003906 361.195312 C 81.007812 361.199219 81.011719 361.199219 81.019531 361.199219 M 80.972656 361.191406 C 80.964844 361.1875 80.957031 361.1875 80.949219 361.183594 C 80.957031 361.1875 80.964844 361.1875 80.972656 361.191406 M 80.929688 361.179688 C 80.921875 361.179688 80.914062 361.175781 80.898438 361.175781 C 80.914062 361.175781 80.917969 361.179688 80.929688 361.179688 M 80.882812 361.171875 C 80.851562 361.160156 80.816406 361.152344 80.78125 361.144531 C 80.816406 361.152344 80.851562 361.160156 80.882812 361.171875 M 80.769531 361.140625 C 80.761719 361.140625 80.75 361.136719 80.738281 361.132812 C 80.75 361.136719 80.761719 361.140625 80.769531 361.140625 M 80.730469 361.132812 C 80.714844 361.128906 80.699219 361.125 80.691406 361.125 C 80.699219 361.125 80.714844 361.128906 80.730469 361.132812 M 80.6875 361.121094 C 73.523438 359.425781 68.820312 356.601562 66.148438 352.949219 C 68.820312 356.601562 73.523438 359.425781 80.6875 361.121094 M 66.148438 352.949219 C 66.136719 352.929688 66.125 352.914062 66.113281 352.898438 C 66.125 352.914062 66.136719 352.929688 66.148438 352.949219 M 66.105469 352.886719 C 66.101562 352.882812 66.101562 352.878906 66.097656 352.878906 C 66.101562 352.878906 66.101562 352.882812 66.105469 352.886719 M 66.085938 352.859375 C 66.085938 352.855469 66.082031 352.855469 66.082031 352.851562 C 66.082031 352.855469 66.085938 352.855469 66.085938 352.859375 M 66.0625 352.832031 C 66.0625 352.832031 66.0625 352.828125 66.0625 352.828125 C 66.0625 352.832031 66.0625 352.832031 66.0625 352.832031 " fill-opacity="1" fill-rule="nonzero"/><path fill="#2d1417" d="M 150.363281 368.71875 C 125.015625 368.71875 100.746094 365.710938 81.066406 361.210938 C 81.050781 361.207031 81.035156 361.203125 81.019531 361.199219 C 81.011719 361.199219 81.007812 361.199219 81.003906 361.195312 C 80.992188 361.195312 80.980469 361.191406 80.972656 361.191406 C 80.964844 361.1875 80.957031 361.1875 80.949219 361.183594 C 80.941406 361.183594 80.9375 361.183594 80.929688 361.179688 C 80.917969 361.179688 80.914062 361.175781 80.898438 361.175781 C 80.894531 361.171875 80.890625 361.171875 80.882812 361.171875 C 80.851562 361.160156 80.816406 361.152344 80.78125 361.144531 C 80.777344 361.144531 80.773438 361.140625 80.769531 361.140625 C 80.761719 361.140625 80.75 361.136719 80.738281 361.132812 C 80.734375 361.132812 80.734375 361.132812 80.730469 361.132812 C 80.714844 361.128906 80.699219 361.125 80.691406 361.125 C 80.6875 361.121094 80.691406 361.121094 80.6875 361.121094 C 73.523438 359.425781 68.820312 356.601562 66.148438 352.949219 C 66.136719 352.929688 66.125 352.914062 66.113281 352.898438 C 66.109375 352.894531 66.105469 352.890625 66.105469 352.886719 C 66.101562 352.882812 66.101562 352.878906 66.097656 352.878906 C 66.09375 352.871094 66.089844 352.867188 66.085938 352.859375 C 66.085938 352.855469 66.082031 352.855469 66.082031 352.851562 C 66.078125 352.84375 66.070312 352.839844 66.0625 352.832031 C 66.0625 352.832031 66.0625 352.832031 66.0625 352.828125 C 56.023438 338.800781 75.6875 312.769531 101.261719 291.742188 C 93.527344 321.628906 90.457031 342.957031 133.574219 348.308594 C 142.460938 349.414062 150.363281 349.878906 157.480469 349.878906 C 184.878906 349.878906 200.636719 342.929688 216.238281 338.5 C 238.917969 332.054688 261.511719 324.113281 282.730469 313.59375 C 285.472656 318.152344 285.769531 322.183594 282.777344 325.246094 C 251 357.761719 198.722656 368.71875 150.363281 368.71875 " fill-opacity="1" fill-rule="nonzero"/><path fill="#569225" d="M 272.039062 -3.632812 C 274.441406 -7.726562 272.726562 -6.6875 268.4375 -3.9375 C 243.097656 12.3125 210.535156 14.71875 183.246094 26.46875 C 157.601562 37.503906 135.710938 57.664062 123.792969 82.859375 L 123.792969 144.984375 C 125.351562 147.957031 127.085938 150.914062 128.964844 153.855469 C 136.617188 165.8125 136.246094 181.675781 138.554688 184.085938 C 141.804688 170.652344 146.285156 157.53125 151.882812 144.878906 C 152.675781 143.082031 153.5 141.308594 154.34375 139.542969 C 154.214844 139.34375 154.109375 139.128906 154.039062 138.894531 C 148.960938 122.160156 146.339844 101.722656 156.824219 86.507812 C 156.855469 86.460938 153.253906 104.511719 153.804688 113.207031 C 154.246094 120.203125 155.378906 127.203125 157.101562 134.019531 C 167.167969 114.578125 180.195312 97.039062 194.0625 80.125 C 193.894531 79.921875 193.765625 79.691406 193.6875 79.4375 C 192.695312 76.269531 193.746094 72.242188 194.136719 68.972656 C 194.492188 65.972656 195.011719 62.941406 195.761719 60.007812 C 196.542969 56.96875 197.574219 54.003906 198.730469 51.09375 C 199.285156 49.691406 199.910156 48.324219 200.558594 46.960938 C 201.570312 44.816406 204.457031 41.085938 204.429688 41.160156 C 203.226562 44.21875 202.996094 47.792969 202.097656 51.019531 C 201.210938 54.1875 200.511719 57.40625 200.035156 60.664062 C 199.582031 63.796875 199.242188 66.933594 198.929688 70.089844 C 198.789062 71.535156 198.769531 73.054688 198.675781 74.5625 C 205.195312 66.757812 211.851562 59.058594 218.429688 51.347656 C 220.863281 48.496094 223.550781 45.921875 226.136719 43.21875 C 228.710938 40.523438 246.746094 20.175781 246.746094 20.175781 C 246.746094 20.175781 230.472656 42.867188 228.125 46.191406 C 226.730469 48.179688 225.316406 50.132812 223.875 52.058594 C 225.464844 51.601562 227.011719 50.949219 228.554688 50.371094 C 232.4375 48.910156 237.835938 46.757812 240.617188 43.59375 C 240.660156 43.550781 235.527344 50.515625 231.539062 53.105469 C 229.101562 54.699219 223.59375 58.429688 220.515625 57.257812 C 220.335938 57.195312 220.167969 57.105469 220.015625 57.007812 C 219.902344 57.144531 219.792969 57.292969 219.679688 57.433594 C 213.617188 64.816406 207.585938 72.226562 201.65625 79.710938 C 193.933594 89.464844 186.34375 99.316406 179.292969 109.550781 C 187.179688 109.675781 194.996094 109.699219 202.804688 108.253906 C 206.941406 107.484375 211.015625 106.304688 214.78125 104.417969 C 217.957031 102.820312 222.691406 99.785156 224.140625 96.476562 C 224.148438 96.464844 222.976562 100.636719 221.703125 102.492188 C 220.65625 104.03125 219.3125 105.324219 217.820312 106.429688 C 214.179688 109.132812 210.003906 110.914062 205.65625 112.132812 C 196.980469 114.5625 183.988281 115.191406 176.386719 113.847656 C 173.453125 118.253906 170.625 122.726562 167.945312 127.304688 C 157.960938 144.335938 150.597656 162.695312 145.597656 181.769531 C 144.535156 185.816406 143.609375 189.886719 142.804688 193.976562 C 144.914062 196.816406 150.34375 197.074219 151.691406 192.628906 C 155.804688 179.054688 171.695312 172.613281 183.886719 168.296875 C 198.265625 163.207031 213.273438 159.660156 226.746094 152.300781 C 242.378906 143.769531 256.445312 131.074219 263.820312 114.609375 C 267.957031 105.375 269.707031 95.5 268.933594 85.386719 C 268.179688 75.605469 265.890625 66.132812 264.113281 56.511719 C 262.394531 47.199219 261.546875 37.914062 263.34375 28.539062 C 265.152344 19.160156 267.1875 4.628906 272.039062 -3.632812 " fill-opacity="1" fill-rule="nonzero"/><path fill="#8ebf25" d="M 264.113281 56.511719 C 262.394531 47.199219 261.546875 37.914062 263.34375 28.539062 C 264.941406 20.253906 269.394531 2.378906 273.132812 -6.070312 C 260.304688 4.339844 246.746094 20.175781 246.746094 20.175781 C 246.746094 20.175781 230.472656 42.867188 228.125 46.191406 C 226.730469 48.179688 225.316406 50.132812 223.875 52.058594 C 225.464844 51.601562 227.011719 50.949219 228.554688 50.371094 C 232.4375 48.910156 237.835938 46.757812 240.617188 43.59375 C 240.660156 43.550781 235.527344 50.515625 231.539062 53.105469 C 229.101562 54.699219 223.59375 58.429688 220.515625 57.257812 C 220.335938 57.195312 220.167969 57.105469 220.015625 57.007812 C 219.902344 57.144531 219.792969 57.292969 219.679688 57.433594 C 213.617188 64.816406 207.585938 72.226562 201.65625 79.710938 C 193.933594 89.464844 186.34375 99.316406 179.292969 109.550781 C 187.179688 109.675781 194.996094 109.699219 202.804688 108.253906 C 206.941406 107.484375 211.015625 106.304688 214.78125 104.417969 C 217.957031 102.820312 222.691406 99.785156 224.140625 96.476562 C 224.148438 96.464844 222.976562 100.636719 221.703125 102.492188 C 220.65625 104.03125 219.3125 105.324219 217.820312 106.429688 C 214.179688 109.132812 210.003906 110.914062 205.65625 112.132812 C 196.980469 114.5625 183.988281 115.191406 176.386719 113.847656 C 173.453125 118.253906 168.269531 122.292969 165.589844 126.871094 C 155.605469 143.902344 143.558594 165.003906 138.554688 184.085938 C 137.496094 188.128906 141.882812 211.453125 141.078125 215.542969 C 143.1875 218.378906 150.34375 197.074219 151.691406 192.628906 C 155.804688 179.054688 171.695312 172.613281 183.886719 168.296875 C 198.265625 163.207031 213.273438 159.660156 226.746094 152.300781 C 242.378906 143.769531 256.445312 131.074219 263.820312 114.609375 C 267.957031 105.375 269.707031 95.5 268.933594 85.386719 C 268.179688 75.605469 265.890625 66.132812 264.113281 56.511719 " fill-opacity="1" fill-rule="nonzero"/><path fill="#569225" d="M 85.308594 167.890625 C 71.257812 152.085938 66.890625 129.496094 71.667969 109.230469 C 75.648438 92.398438 85.828125 76.351562 87.011719 58.871094 C 87.214844 55.914062 87.320312 54.75 88.410156 57.300781 C 90.59375 62.425781 96.691406 68.429688 100.460938 72.53125 C 104.226562 76.625 108.875 79.453125 113.832031 81.882812 C 118.953125 84.398438 124.191406 86.617188 129.035156 89.664062 C 134.042969 92.8125 138.058594 97.058594 140.953125 102.199219 C 146.097656 111.363281 147.164062 122.347656 145.734375 132.609375 C 144.503906 141.460938 140.953125 149.703125 138.339844 158.183594 C 136.128906 165.382812 133.628906 175.046875 138.5625 181.675781 C 140.175781 183.851562 138.164062 186.300781 136.105469 186.296875 C 134.46875 184.5 132.882812 182.65625 131.355469 180.753906 C 124.15625 171.789062 118.113281 161.976562 113.597656 151.394531 C 112.386719 148.554688 111.269531 145.679688 110.226562 142.78125 C 113.496094 139.695312 117.71875 133.410156 119.585938 128.511719 C 120.527344 126.054688 121.144531 123.488281 121.140625 120.847656 C 121.140625 119.765625 121 118.691406 120.648438 117.660156 C 120.21875 116.429688 118.667969 114.429688 118.671875 114.441406 C 119.722656 116.261719 119.503906 119.535156 119.148438 121.570312 C 118.722656 123.984375 117.859375 126.296875 116.78125 128.496094 C 114.746094 132.640625 112.023438 136.285156 109.222656 139.933594 C 106.875 133.085938 104.898438 126.113281 103.007812 119.117188 C 101.5625 113.75 100.1875 108.355469 98.828125 102.964844 C 98.808594 102.863281 98.777344 102.757812 98.75 102.65625 C 98.847656 102.617188 98.945312 102.574219 99.042969 102.515625 C 100.660156 101.480469 100.820312 97.609375 100.925781 95.921875 C 101.097656 93.15625 99.613281 88.335938 99.621094 88.378906 C 100.136719 90.773438 99.269531 94.039062 98.605469 96.359375 C 98.339844 97.285156 98.109375 98.234375 97.769531 99.132812 C 97.371094 97.792969 96.945312 96.457031 96.503906 95.117188 C 95.757812 92.859375 90.777344 77.382812 90.777344 77.382812 C 90.777344 77.382812 94.050781 92.871094 94.417969 95.011719 C 94.78125 97.15625 95.058594 99.308594 95.546875 101.429688 C 96.871094 107.183594 98.171875 112.964844 99.558594 118.722656 C 98.890625 118.15625 98.1875 117.621094 97.554688 117.054688 C 96.191406 115.808594 94.832031 114.566406 93.527344 113.265625 C 92.164062 111.910156 90.894531 110.460938 89.71875 108.949219 C 88.523438 107.410156 86.929688 106.0625 85.914062 104.4375 C 85.886719 104.390625 86.632812 107.039062 87.285156 108.257812 C 87.703125 109.035156 88.121094 109.800781 88.582031 110.546875 C 89.546875 112.097656 90.582031 113.609375 91.734375 115.03125 C 92.84375 116.402344 94.082031 117.699219 95.367188 118.90625 C 96.765625 120.222656 98.285156 122.113281 100.117188 122.753906 C 100.257812 122.800781 100.414062 122.8125 100.566406 122.808594 C 103.671875 135.160156 107.367188 147.339844 112.980469 158.792969 C 109.1875 157.230469 105.519531 155.332031 102.085938 153.109375 C 97.816406 150.34375 90.613281 142.394531 90.625 142.421875 C 94.109375 152.605469 104.601562 158.480469 114.199219 161.917969 C 114.335938 161.96875 114.472656 161.996094 114.613281 162 C 115.148438 163.007812 115.6875 164.011719 116.25 165.003906 C 120.242188 172.015625 124.828125 178.664062 129.996094 184.84375 C 128.0625 185.089844 120.765625 179.40625 112.5 178.828125 C 101.570312 178.054688 91.757812 175.140625 85.308594 167.890625 " fill-opacity="1" fill-rule="nonzero"/><path fill="#8ebf25" d="M 113.832031 81.882812 C 108.875 79.453125 104.226562 76.625 100.460938 72.53125 C 97.132812 68.902344 90.308594 60.617188 87.644531 55.9375 C 88.066406 65.542969 90.777344 77.382812 90.777344 77.382812 C 90.777344 77.382812 95.757812 92.859375 96.503906 95.117188 C 96.945312 96.457031 97.371094 97.792969 97.769531 99.132812 C 98.109375 98.234375 98.339844 97.285156 98.605469 96.359375 C 99.269531 94.039062 100.136719 90.773438 99.621094 88.378906 C 99.613281 88.335938 101.097656 93.15625 100.925781 95.921875 C 100.820312 97.609375 100.660156 101.480469 99.042969 102.515625 C 98.945312 102.574219 98.847656 102.617188 98.75 102.65625 C 98.777344 102.757812 98.808594 102.863281 98.828125 102.964844 C 100.1875 108.355469 101.5625 113.75 103.007812 119.117188 C 104.898438 126.113281 106.875 133.085938 109.222656 139.933594 C 112.023438 136.285156 114.746094 132.640625 116.78125 128.496094 C 117.859375 126.296875 118.722656 123.984375 119.148438 121.570312 C 119.503906 119.535156 119.722656 116.261719 118.671875 114.441406 C 118.667969 114.429688 120.21875 116.429688 120.648438 117.660156 C 121 118.691406 121.140625 119.765625 121.140625 120.847656 C 121.144531 123.488281 120.527344 126.054688 119.585938 128.511719 C 117.71875 133.410156 113.496094 139.695312 110.226562 142.78125 C 111.269531 145.679688 111.363281 149.507812 112.582031 152.34375 C 117.09375 162.925781 122.789062 175.886719 129.996094 184.84375 C 131.523438 186.746094 143.972656 192.796875 145.609375 194.589844 C 147.671875 194.589844 140.175781 183.851562 138.5625 181.675781 C 133.628906 175.046875 136.128906 165.382812 138.339844 158.183594 C 140.953125 149.703125 144.503906 141.460938 145.734375 132.609375 C 147.164062 122.347656 146.097656 111.363281 140.953125 102.199219 C 138.058594 97.058594 134.042969 92.8125 129.035156 89.664062 C 124.191406 86.617188 118.953125 84.398438 113.832031 81.882812 " fill-opacity="1" fill-rule="nonzero"/><path fill="#978e92" d="M 292.195312 208.980469 L 279.464844 200.183594 L 248.789062 251.507812 L 254.90625 255.734375 L 292.195312 208.980469 " fill-opacity="1" fill-rule="nonzero"/><path fill="#676062" d="M 284.558594 218.558594 C 284.371094 218.410156 284.183594 218.257812 283.992188 218.105469 L 286.90625 214.53125 L 283.90625 212.460938 L 281.390625 216.136719 C 281.199219 216.007812 281.011719 215.878906 280.820312 215.757812 C 278.332031 214.15625 275.695312 212.496094 272.976562 211.035156 L 275.574219 206.6875 L 287.472656 214.90625 L 284.558594 218.558594 " fill-opacity="1" fill-rule="nonzero"/><path fill="#676062" d="M 279.015625 224.222656 C 278.554688 223.433594 278.003906 222.683594 277.371094 221.996094 L 281.390625 216.136719 C 282.269531 216.742188 283.132812 217.414062 283.992188 218.105469 L 279.015625 224.222656 " fill-opacity="1" fill-rule="nonzero"/><path fill="#4a4345" d="M 283.992188 218.105469 C 283.132812 217.414062 282.269531 216.742188 281.390625 216.136719 L 283.90625 212.460938 L 286.90625 214.53125 L 283.992188 218.105469 " fill-opacity="1" fill-rule="nonzero"/><path fill="#6f4323" d="M 332.539062 149.246094 C 329.777344 151.910156 325.375 151.835938 322.703125 149.085938 C 320.03125 146.328125 320.105469 141.9375 322.859375 139.269531 C 325.621094 136.597656 330.023438 136.664062 332.699219 139.421875 C 335.363281 142.175781 335.296875 146.578125 332.539062 149.246094 M 297.464844 215.90625 L 298.421875 203.660156 L 340.269531 152.597656 C 344.996094 145.773438 343.289062 136.417969 336.457031 131.6875 C 329.617188 126.972656 320.085938 128.566406 315.363281 135.390625 L 282.253906 192.492188 L 271.117188 197.695312 L 268.347656 201.6875 L 272.84375 204.800781 L 290.207031 216.792969 L 294.699219 219.898438 L 297.464844 215.90625 " fill-opacity="1" fill-rule="nonzero"/><path fill="#a7a5a6" d="M 271.117188 197.695312 L 272.125 197.226562 L 271.117188 197.695312 M 329.324219 151.007812 C 329.324219 151.003906 329.324219 151.003906 329.320312 151 C 330.484375 150.722656 331.589844 150.152344 332.511719 149.269531 C 331.589844 150.152344 330.484375 150.730469 329.324219 151.007812 M 332.523438 149.261719 C 332.523438 149.257812 332.527344 149.257812 332.527344 149.257812 C 332.527344 149.257812 332.523438 149.257812 332.523438 149.261719 M 334.652344 144.261719 C 334.65625 142.519531 334.003906 140.773438 332.699219 139.421875 C 332.582031 139.304688 332.464844 139.199219 332.347656 139.097656 C 332.351562 139.097656 332.355469 139.097656 332.363281 139.101562 C 332.476562 139.203125 332.585938 139.308594 332.699219 139.421875 C 334.003906 140.773438 334.65625 142.519531 334.652344 144.261719 " fill-opacity="1" fill-rule="nonzero"/><path fill="#4a2b16" d="M 294.699219 219.898438 L 290.207031 216.792969 L 287.472656 214.90625 L 275.574219 206.6875 L 272.84375 204.800781 L 268.347656 201.6875 L 271.117188 197.695312 L 272.125 197.226562 C 273.558594 200.328125 277.324219 202.296875 280.277344 203.832031 C 282.738281 205.117188 285.144531 206.222656 287.566406 206.21875 C 289.144531 206.21875 290.730469 205.75 292.34375 204.550781 C 294.550781 202.914062 295.234375 199.242188 296.402344 196.964844 C 298.5 192.886719 301.898438 189.96875 305.191406 186.894531 C 313.414062 179.230469 321.394531 170.832031 326.792969 160.875 C 328.390625 157.929688 329.886719 154.429688 329.324219 151.007812 C 330.484375 150.730469 331.589844 150.152344 332.511719 149.269531 C 332.519531 149.265625 332.519531 149.261719 332.523438 149.261719 C 332.523438 149.257812 332.527344 149.257812 332.527344 149.257812 C 332.53125 149.253906 332.535156 149.25 332.539062 149.246094 C 333.941406 147.882812 334.652344 146.074219 334.652344 144.261719 C 334.65625 142.519531 334.003906 140.773438 332.699219 139.421875 C 332.585938 139.308594 332.476562 139.203125 332.363281 139.101562 C 334.289062 139.554688 336.101562 140.957031 337.835938 141.722656 C 338.703125 142.105469 339.726562 142.339844 340.742188 142.339844 C 341.445312 142.339844 342.140625 142.230469 342.777344 141.976562 C 343.285156 145.578125 342.503906 149.371094 340.269531 152.597656 L 298.421875 203.660156 L 297.464844 215.90625 L 294.699219 219.898438 " fill-opacity="1" fill-rule="nonzero"/><path fill="#978e92" d="M 208.957031 307.734375 C 210.527344 307.75 211.527344 308.351562 212.488281 309.0625 C 212.867188 308.480469 213.277344 307.921875 213.722656 307.390625 C 216.996094 304.832031 220.761719 303.050781 224.867188 302.234375 C 235.316406 300.148438 247.84375 300.664062 259.019531 304.105469 C 261.617188 302.453125 263.160156 301.402344 263.160156 301.402344 C 263.160156 301.402344 294.394531 249.957031 293.304688 240.808594 C 292.132812 230.996094 279.851562 232.203125 270.957031 226.054688 C 261.601562 219.59375 257.621094 208.121094 247.800781 210.742188 C 239.570312 212.941406 203.085938 259.890625 203.085938 259.890625 C 203.085938 259.890625 195.070312 292.574219 198.828125 311.0625 C 201.894531 309.179688 205.046875 307.703125 208.957031 307.734375 " fill-opacity="1" fill-rule="nonzero"/><path fill="#351e1f" d="M 215.25 306.289062 L 215.261719 306.265625 C 217.964844 304.4375 220.957031 303.113281 224.167969 302.378906 C 220.949219 303.113281 217.953125 304.449219 215.25 306.289062 M 224.179688 302.378906 C 224.1875 302.375 224.195312 302.375 224.203125 302.371094 C 224.195312 302.375 224.1875 302.375 224.179688 302.378906 M 224.230469 302.367188 C 224.234375 302.367188 224.242188 302.363281 224.246094 302.363281 C 224.242188 302.363281 224.238281 302.367188 224.230469 302.367188 M 224.867188 302.234375 C 228.949219 301.417969 233.359375 301 237.875 301 C 239.519531 301 241.175781 301.054688 242.839844 301.167969 C 241.175781 301.054688 239.519531 301 237.875 301 C 233.359375 301 228.949219 301.417969 224.867188 302.234375 " fill-opacity="1" fill-rule="nonzero"/><path fill="#676062" d="M 215.261719 306.265625 L 250.507812 255.40625 C 250.53125 255.421875 250.550781 255.4375 250.574219 255.453125 C 251.277344 255.941406 252.140625 256.160156 253.125 256.160156 C 260.542969 256.160156 274.808594 243.667969 278.46875 238.378906 C 280.121094 235.992188 280.878906 233.253906 280.8125 230.558594 C 287.023438 232.691406 292.535156 234.394531 293.304688 240.808594 C 293.320312 240.964844 293.328125 241.132812 293.328125 241.3125 C 293.332031 251.699219 263.160156 301.402344 263.160156 301.402344 C 263.160156 301.402344 261.617188 302.453125 259.019531 304.105469 C 253.804688 302.5 248.296875 301.53125 242.839844 301.167969 C 241.175781 301.054688 239.519531 301 237.875 301 C 233.359375 301 228.949219 301.417969 224.867188 302.234375 C 224.65625 302.273438 224.449219 302.316406 224.246094 302.363281 C 224.242188 302.363281 224.234375 302.367188 224.230469 302.367188 C 224.21875 302.367188 224.210938 302.371094 224.203125 302.371094 C 224.195312 302.375 224.1875 302.375 224.179688 302.378906 C 224.175781 302.378906 224.171875 302.378906 224.167969 302.378906 C 220.957031 303.113281 217.964844 304.4375 215.261719 306.265625 " fill-opacity="1" fill-rule="nonzero"/><path fill="#b1aaad" d="M 278.46875 238.378906 C 274.320312 244.367188 256.578125 259.597656 250.574219 255.453125 C 244.578125 251.3125 252.601562 229.359375 256.753906 223.375 C 260.902344 217.386719 269.128906 215.886719 275.121094 220.035156 C 281.121094 224.175781 282.617188 232.390625 278.46875 238.378906 " fill-opacity="1" fill-rule="nonzero"/><path fill="#777173" d="M 252.867188 255.027344 C 252.257812 255.027344 251.679688 254.960938 251.136719 254.824219 C 260.15625 250.742188 272.339844 241.769531 272.152344 233.109375 C 272.007812 226.199219 266.167969 222.484375 260.484375 222.484375 C 259.78125 222.484375 259.089844 222.542969 258.402344 222.65625 C 260.796875 220.171875 264.058594 218.855469 267.367188 218.855469 C 269.808594 218.855469 272.265625 219.566406 274.421875 221.054688 C 280.074219 224.957031 281.480469 232.695312 277.574219 238.339844 C 274.21875 243.175781 261.058594 255.027344 252.867188 255.027344 " fill-opacity="1" fill-rule="nonzero"/><g clip-path="url(#45e8ce6bfb)"><path fill="#9bcb26" d="M 121.410156 236.046875 C 121.410156 237.753906 121.324219 239.460938 121.15625 241.160156 C 120.988281 242.859375 120.738281 244.550781 120.40625 246.226562 C 120.074219 247.902344 119.65625 249.558594 119.160156 251.191406 C 118.664062 252.828125 118.089844 254.433594 117.4375 256.011719 C 116.78125 257.589844 116.054688 259.132812 115.246094 260.640625 C 114.441406 262.148438 113.566406 263.613281 112.617188 265.035156 C 111.667969 266.453125 110.648438 267.824219 109.566406 269.144531 C 108.480469 270.464844 107.335938 271.730469 106.125 272.941406 C 104.917969 274.148438 103.652344 275.292969 102.332031 276.378906 C 101.011719 277.460938 99.640625 278.480469 98.21875 279.429688 C 96.800781 280.378906 95.335938 281.253906 93.828125 282.058594 C 92.320312 282.867188 90.777344 283.59375 89.199219 284.25 C 87.621094 284.902344 86.015625 285.476562 84.378906 285.972656 C 82.746094 286.46875 81.089844 286.886719 79.414062 287.21875 C 77.738281 287.550781 76.046875 287.800781 74.347656 287.96875 C 72.648438 288.136719 70.941406 288.222656 69.234375 288.222656 C 67.523438 288.222656 65.820312 288.136719 64.121094 287.96875 C 62.417969 287.800781 60.730469 287.550781 59.054688 287.21875 C 57.378906 286.886719 55.722656 286.46875 54.089844 285.972656 C 52.453125 285.476562 50.847656 284.902344 49.269531 284.25 C 47.6875 283.59375 46.144531 282.867188 44.640625 282.058594 C 43.132812 281.253906 41.667969 280.378906 40.246094 279.429688 C 38.828125 278.480469 37.457031 277.460938 36.136719 276.378906 C 34.8125 275.292969 33.550781 274.148438 32.339844 272.941406 C 31.132812 271.730469 29.988281 270.464844 28.902344 269.144531 C 27.820312 267.824219 26.800781 266.453125 25.851562 265.035156 C 24.902344 263.613281 24.027344 262.148438 23.21875 260.640625 C 22.414062 259.132812 21.683594 257.589844 21.03125 256.011719 C 20.378906 254.433594 19.800781 252.828125 19.304688 251.191406 C 18.808594 249.558594 18.394531 247.902344 18.0625 246.226562 C 17.730469 244.550781 17.476562 242.859375 17.3125 241.160156 C 17.144531 239.460938 17.058594 237.753906 17.058594 236.046875 C 17.058594 234.339844 17.144531 232.632812 17.3125 230.933594 C 17.476562 229.230469 17.730469 227.542969 18.0625 225.867188 C 18.394531 224.191406 18.808594 222.535156 19.304688 220.902344 C 19.800781 219.265625 20.378906 217.660156 21.03125 216.082031 C 21.683594 214.5 22.414062 212.957031 23.21875 211.453125 C 24.027344 209.945312 24.902344 208.480469 25.851562 207.058594 C 26.800781 205.640625 27.820312 204.269531 28.902344 202.949219 C 29.988281 201.625 31.132812 200.363281 32.339844 199.152344 C 33.550781 197.945312 34.8125 196.800781 36.136719 195.714844 C 37.457031 194.632812 38.828125 193.613281 40.246094 192.664062 C 41.667969 191.714844 43.132812 190.839844 44.640625 190.03125 C 46.144531 189.226562 47.6875 188.496094 49.269531 187.84375 C 50.847656 187.191406 52.453125 186.613281 54.089844 186.117188 C 55.722656 185.621094 57.378906 185.207031 59.054688 184.875 C 60.730469 184.542969 62.417969 184.289062 64.121094 184.125 C 65.820312 183.957031 67.523438 183.871094 69.234375 183.871094 C 70.941406 183.871094 72.648438 183.957031 74.347656 184.125 C 76.046875 184.289062 77.738281 184.542969 79.414062 184.875 C 81.089844 185.207031 82.746094 185.621094 84.378906 186.117188 C 86.015625 186.613281 87.621094 187.191406 89.199219 187.84375 C 90.777344 188.496094 92.320312 189.226562 93.828125 190.03125 C 95.335938 190.839844 96.800781 191.714844 98.21875 192.664062 C 99.640625 193.613281 101.011719 194.632812 102.332031 195.714844 C 103.652344 196.800781 104.917969 197.945312 106.125 199.152344 C 107.335938 200.363281 108.480469 201.625 109.566406 202.949219 C 110.648438 204.269531 111.667969 205.640625 112.617188 207.058594 C 113.566406 208.480469 114.441406 209.945312 115.246094 211.453125 C 116.054688 212.957031 116.78125 214.5 117.4375 216.082031 C 118.089844 217.660156 118.664062 219.265625 119.160156 220.902344 C 119.65625 222.535156 120.074219 224.191406 120.40625 225.867188 C 120.738281 227.542969 120.988281 229.230469 121.15625 230.933594 C 121.324219 232.632812 121.410156 234.339844 121.410156 236.046875 Z M 121.410156 236.046875 " fill-opacity="1" fill-rule="nonzero"/></g><path fill="#f0eee2" d="M 112.902344 236.046875 C 112.902344 237.476562 112.832031 238.902344 112.695312 240.328125 C 112.554688 241.75 112.34375 243.164062 112.066406 244.566406 C 111.785156 245.96875 111.4375 247.355469 111.023438 248.722656 C 110.609375 250.09375 110.128906 251.4375 109.578125 252.757812 C 109.03125 254.078125 108.421875 255.371094 107.746094 256.632812 C 107.074219 257.894531 106.339844 259.117188 105.542969 260.308594 C 104.75 261.496094 103.898438 262.644531 102.992188 263.75 C 102.082031 264.855469 101.125 265.914062 100.113281 266.925781 C 99.101562 267.9375 98.042969 268.898438 96.9375 269.804688 C 95.832031 270.710938 94.683594 271.5625 93.496094 272.355469 C 92.304688 273.152344 91.082031 273.886719 89.820312 274.558594 C 88.558594 275.234375 87.265625 275.84375 85.945312 276.390625 C 84.625 276.941406 83.28125 277.421875 81.910156 277.835938 C 80.542969 278.25 79.15625 278.597656 77.753906 278.878906 C 76.351562 279.15625 74.9375 279.367188 73.515625 279.507812 C 72.089844 279.644531 70.664062 279.714844 69.234375 279.714844 C 67.804688 279.714844 66.378906 279.644531 64.953125 279.507812 C 63.53125 279.367188 62.117188 279.15625 60.714844 278.878906 C 59.3125 278.597656 57.925781 278.25 56.558594 277.835938 C 55.1875 277.421875 53.84375 276.941406 52.523438 276.390625 C 51.199219 275.84375 49.910156 275.234375 48.648438 274.558594 C 47.386719 273.886719 46.160156 273.152344 44.972656 272.355469 C 43.785156 271.5625 42.636719 270.710938 41.53125 269.804688 C 40.425781 268.898438 39.367188 267.9375 38.355469 266.925781 C 37.34375 265.914062 36.382812 264.855469 35.476562 263.75 C 34.570312 262.644531 33.71875 261.496094 32.925781 260.308594 C 32.128906 259.117188 31.394531 257.894531 30.722656 256.632812 C 30.046875 255.371094 29.4375 254.078125 28.886719 252.757812 C 28.339844 251.4375 27.859375 250.09375 27.445312 248.722656 C 27.03125 247.355469 26.683594 245.96875 26.402344 244.566406 C 26.125 243.164062 25.914062 241.75 25.773438 240.328125 C 25.632812 238.902344 25.5625 237.476562 25.5625 236.046875 C 25.5625 234.617188 25.632812 233.191406 25.773438 231.765625 C 25.914062 230.34375 26.125 228.929688 26.402344 227.527344 C 26.683594 226.125 27.03125 224.738281 27.445312 223.371094 C 27.859375 222 28.339844 220.65625 28.886719 219.335938 C 29.4375 218.011719 30.046875 216.722656 30.722656 215.460938 C 31.394531 214.199219 32.128906 212.972656 32.925781 211.785156 C 33.71875 210.597656 34.570312 209.449219 35.476562 208.34375 C 36.382812 207.238281 37.34375 206.179688 38.355469 205.167969 C 39.367188 204.15625 40.425781 203.195312 41.53125 202.289062 C 42.636719 201.382812 43.785156 200.53125 44.972656 199.738281 C 46.160156 198.941406 47.386719 198.207031 48.648438 197.535156 C 49.910156 196.859375 51.199219 196.25 52.523438 195.699219 C 53.84375 195.152344 55.1875 194.671875 56.558594 194.257812 C 57.925781 193.84375 59.3125 193.496094 60.714844 193.214844 C 62.117188 192.9375 63.53125 192.726562 64.953125 192.585938 C 66.378906 192.445312 67.804688 192.375 69.234375 192.375 C 70.664062 192.375 72.089844 192.445312 73.515625 192.585938 C 74.9375 192.726562 76.351562 192.9375 77.753906 193.214844 C 79.15625 193.496094 80.542969 193.84375 81.910156 194.257812 C 83.28125 194.671875 84.625 195.152344 85.945312 195.699219 C 87.265625 196.25 88.558594 196.859375 89.820312 197.535156 C 91.082031 198.207031 92.304688 198.941406 93.496094 199.738281 C 94.683594 200.53125 95.832031 201.382812 96.9375 202.289062 C 98.042969 203.195312 99.101562 204.15625 100.113281 205.167969 C 101.125 206.179688 102.082031 207.238281 102.992188 208.34375 C 103.898438 209.449219 104.75 210.597656 105.542969 211.785156 C 106.339844 212.972656 107.074219 214.199219 107.746094 215.460938 C 108.421875 216.722656 109.03125 218.011719 109.578125 219.335938 C 110.128906 220.65625 110.609375 222 111.023438 223.371094 C 111.4375 224.738281 111.785156 226.125 112.066406 227.527344 C 112.34375 228.929688 112.554688 230.34375 112.695312 231.765625 C 112.832031 233.191406 112.902344 234.617188 112.902344 236.046875 Z M 112.902344 236.046875 " fill-opacity="1" fill-rule="nonzero"/><path fill="#f36c62" d="M 85.535156 191.398438 C 85.554688 191.355469 85.554688 191.3125 85.578125 191.273438 C 86.492188 188.792969 85.035156 186.082031 82.46875 185.457031 C 80.574219 184.996094 78.34375 184.496094 76.195312 184.121094 C 73.550781 183.644531 71.089844 185.625 71.003906 188.292969 L 71.003906 188.4375 C 70.921875 190.648438 72.484375 192.585938 74.675781 192.960938 C 76.59375 193.292969 78.65625 193.753906 80.363281 194.148438 C 82.53125 194.691406 84.761719 193.503906 85.535156 191.398438 Z M 85.535156 191.398438 " fill-opacity="1" fill-rule="nonzero"/><path fill="#9bcb26" d="M 60.5 236.839844 C 60.5 235.566406 60.042969 234.609375 59.101562 234.609375 C 58.601562 234.609375 58.1875 234.984375 57.875 235.441406 C 57.539062 235.941406 57.375 236.527344 57.375 236.839844 L 53.621094 236.839844 L 53.621094 220.851562 L 64.398438 220.851562 L 64.398438 225.269531 L 57.457031 225.269531 L 57.457031 231.585938 C 57.957031 231.210938 58.5 230.878906 59.101562 230.667969 C 59.394531 230.542969 59.730469 230.503906 60.019531 230.542969 C 62.335938 230.542969 63.5625 231.855469 64.230469 233.316406 C 64.898438 234.753906 64.980469 236.339844 64.980469 236.816406 L 64.980469 243.59375 C 64.980469 245.03125 64.898438 246.96875 64.105469 248.59375 C 63.3125 250.242188 61.835938 251.535156 59.144531 251.535156 C 56.371094 251.535156 54.976562 250.261719 54.183594 248.429688 C 53.390625 246.65625 53.308594 244.382812 53.308594 242.363281 L 57.769531 242.363281 L 57.769531 243.550781 C 57.769531 245.074219 57.851562 246.15625 58.0625 246.738281 C 58.269531 247.367188 58.601562 247.65625 59.144531 247.65625 C 59.605469 247.65625 59.980469 247.367188 60.1875 246.78125 C 60.394531 246.199219 60.519531 245.136719 60.519531 243.59375 L 60.519531 236.839844 Z M 60.5 236.839844 " fill-opacity="1" fill-rule="nonzero"/><path fill="#9bcb26" d="M 73.550781 232.835938 C 73.507812 234.191406 73.007812 235.148438 72.195312 235.859375 C 71.777344 236.234375 71.152344 236.402344 70.378906 236.402344 C 68.734375 236.402344 67.984375 235.566406 67.523438 234.628906 C 67.273438 234.128906 67.148438 233.546875 67.148438 232.859375 L 67.148438 224.0625 C 67.148438 222.746094 67.648438 221.832031 68.503906 221.082031 C 68.921875 220.703125 69.546875 220.539062 70.359375 220.539062 C 71.964844 220.539062 72.671875 221.457031 73.132812 222.308594 C 73.382812 222.808594 73.507812 223.394531 73.550781 224.039062 Z M 69.214844 251.222656 L 80.363281 220.871094 L 83.011719 220.871094 L 71.984375 251.222656 Z M 71.070312 224.039062 C 71.070312 223.664062 70.941406 223.332031 70.777344 223.082031 C 70.691406 222.957031 70.566406 222.914062 70.359375 222.914062 C 69.902344 222.914062 69.777344 223.207031 69.652344 223.5 C 69.609375 223.664062 69.566406 223.832031 69.609375 224.039062 L 69.609375 232.835938 C 69.566406 233.296875 69.652344 233.941406 70.359375 233.941406 C 70.984375 233.941406 71.070312 233.273438 71.070312 232.835938 Z M 85.136719 248.03125 C 85.097656 249.386719 84.597656 250.304688 83.785156 251.011719 C 83.367188 251.386719 82.742188 251.554688 81.96875 251.554688 C 80.324219 251.554688 79.574219 250.679688 79.113281 249.824219 C 78.863281 249.324219 78.738281 248.742188 78.738281 248.054688 L 78.738281 239.257812 C 78.738281 237.945312 79.238281 236.984375 80.09375 236.234375 C 80.511719 235.859375 81.136719 235.691406 81.949219 235.691406 C 83.554688 235.691406 84.261719 236.609375 84.722656 237.464844 C 84.972656 238.007812 85.097656 238.570312 85.136719 239.234375 Z M 82.679688 239.234375 C 82.679688 238.859375 82.554688 238.527344 82.386719 238.277344 C 82.304688 238.152344 82.179688 238.109375 81.96875 238.109375 C 81.511719 238.109375 81.386719 238.402344 81.261719 238.695312 C 81.21875 238.859375 81.179688 239.027344 81.21875 239.234375 L 81.21875 248.03125 C 81.179688 248.492188 81.304688 248.742188 81.511719 248.992188 C 81.59375 249.117188 81.761719 249.199219 81.96875 249.199219 C 82.34375 249.199219 82.46875 248.90625 82.59375 248.617188 C 82.636719 248.449219 82.679688 248.242188 82.679688 248.03125 Z M 82.679688 239.234375 " fill-opacity="1" fill-rule="nonzero"/></svg>