<svg xmlns="http://www.w3.org/2000/svg" xmlns:xlink="http://www.w3.org/1999/xlink" width="500" zoomAndPan="magnify" viewBox="0 0 375 374.999991" height="500" preserveAspectRatio="xMidYMid meet" version="1.0"><defs><g/></defs><path fill="#aee3df" d="M 296.035156 108.496094 L 187.457031 217.019531 L 78.878906 108.496094 L 187.457031 -0.0195312 L 296.035156 108.496094 " fill-opacity="1" fill-rule="nonzero"/><path fill="#aee3df" d="M 296.035156 108.496094 C 236.070312 48.5625 138.84375 48.5625 78.878906 108.496094 C 18.914062 168.429688 18.914062 265.605469 78.878906 325.535156 C 138.84375 385.46875 236.074219 385.464844 296.039062 325.53125 C 356 265.605469 356 168.429688 296.035156 108.496094 " fill-opacity="1" fill-rule="nonzero"/><path fill="#d9e938" d="M 53.316406 291.691406 C 79.5625 338.683594 129.78125 370.480469 187.457031 370.480469 C 245.136719 370.480469 295.351562 338.683594 321.601562 291.691406 L 53.316406 291.691406 " fill-opacity="1" fill-rule="nonzero"/><path fill="#ffffff" d="M 187.457031 370.488281 C 166.085938 370.488281 145.738281 366.125 127.25 358.238281 C 130.621094 359.671875 134.039062 360.984375 137.484375 362.164062 C 151.171875 366.875 165.734375 369.703125 180.863281 370.34375 C 183.0625 370.4375 185.257812 370.484375 187.457031 370.484375 C 189.574219 370.484375 191.6875 370.4375 193.800781 370.355469 C 208.601562 369.75 222.867188 367.054688 236.296875 362.550781 C 237.542969 362.136719 238.78125 361.703125 240.015625 361.253906 C 223.625 367.226562 205.921875 370.488281 187.457031 370.488281 M 44.925781 274.214844 C 38.34375 257.835938 34.496094 240.058594 33.96875 221.457031 C 34.484375 239.410156 38.140625 257.296875 44.925781 274.214844 M 33.972656 212.40625 C 34.449219 196.363281 37.390625 180.933594 42.425781 166.492188 C 37.257812 181.351562 34.441406 196.851562 33.972656 212.40625 " fill-opacity="1" fill-rule="nonzero"/><path fill="#c6ece7" d="M 187.457031 370.484375 C 185.257812 370.484375 183.0625 370.4375 180.863281 370.34375 C 183.054688 370.4375 185.246094 370.480469 187.457031 370.480469 C 189.582031 370.480469 191.695312 370.4375 193.800781 370.355469 C 191.6875 370.4375 189.574219 370.484375 187.457031 370.484375 M 236.296875 362.550781 C 272.769531 350.320312 303.125 324.769531 321.601562 291.691406 L 319.695312 291.691406 C 320.828125 290.8125 321.953125 289.925781 323.0625 289.019531 C 305.363281 322.25 275.800781 348.214844 240.015625 361.253906 C 238.78125 361.703125 237.542969 362.136719 236.296875 362.550781 M 137.484375 362.164062 C 134.039062 360.984375 130.621094 359.671875 127.25 358.238281 C 89.875 342.296875 60.109375 311.96875 44.925781 274.214844 C 38.140625 257.296875 34.484375 239.410156 33.96875 221.457031 C 33.925781 219.980469 33.90625 218.503906 33.90625 217.019531 C 33.90625 215.472656 33.929688 213.9375 33.972656 212.40625 C 34.441406 196.851562 37.257812 181.351562 42.425781 166.492188 C 51.875 139.417969 68.703125 115.796875 90.5 98.035156 C 79.058594 119.507812 72.554688 144.007812 72.554688 170.03125 C 72.554688 219.570312 96.042969 263.632812 132.492188 291.691406 L 53.316406 291.691406 C 71.597656 324.425781 101.519531 349.789062 137.484375 362.164062 " fill-opacity="1" fill-rule="nonzero"/><path fill="#e4ef72" d="M 187.457031 370.480469 C 185.246094 370.480469 183.054688 370.4375 180.863281 370.34375 C 165.734375 369.703125 151.171875 366.875 137.484375 362.164062 C 101.519531 349.789062 71.597656 324.425781 53.316406 291.691406 L 132.492188 291.691406 C 158.40625 311.640625 190.871094 323.5 226.109375 323.5 C 261.332031 323.5 293.785156 311.632812 319.695312 291.691406 L 321.601562 291.691406 C 303.125 324.769531 272.769531 350.320312 236.296875 362.550781 C 222.867188 367.054688 208.601562 369.75 193.800781 370.355469 C 191.695312 370.4375 189.582031 370.480469 187.457031 370.480469 " fill-opacity="1" fill-rule="nonzero"/><path fill="#ffffff" d="M 105.363281 226.007812 C 105.363281 207.898438 90.675781 193.21875 72.554688 193.21875 C 54.4375 193.21875 39.746094 207.898438 39.746094 226.007812 C 39.746094 244.113281 54.4375 258.800781 72.554688 258.800781 C 90.675781 258.800781 105.363281 244.113281 105.363281 226.007812 " fill-opacity="1" fill-rule="nonzero"/><path fill="#ffffff" d="M 138.171875 235.53125 C 138.171875 222.683594 127.75 212.265625 114.894531 212.265625 C 102.035156 212.265625 91.613281 222.683594 91.613281 235.53125 C 91.613281 248.382812 102.035156 258.800781 114.894531 258.800781 C 127.75 258.800781 138.171875 248.382812 138.171875 235.53125 " fill-opacity="1" fill-rule="nonzero"/><path fill="#ffffff" d="M 51.441406 243.082031 C 51.441406 234.398438 44.402344 227.359375 35.714844 227.359375 C 27.03125 227.359375 19.988281 234.398438 19.988281 243.082031 C 19.988281 251.761719 27.03125 258.800781 35.714844 258.800781 C 44.402344 258.800781 51.441406 251.761719 51.441406 243.082031 " fill-opacity="1" fill-rule="nonzero"/><path fill="#ffffff" d="M 118.414062 239.046875 L 33.5625 239.046875 L 33.5625 258.800781 L 118.414062 258.800781 L 118.414062 239.046875 " fill-opacity="1" fill-rule="nonzero"/><path fill="#ffffff" d="M 322.121094 71.109375 C 322.121094 53 307.425781 38.320312 289.3125 38.320312 C 271.191406 38.320312 256.503906 53 256.503906 71.109375 C 256.503906 89.21875 271.191406 103.898438 289.3125 103.898438 C 307.425781 103.898438 322.121094 89.21875 322.121094 71.109375 " fill-opacity="1" fill-rule="nonzero"/><path fill="#ffffff" d="M 354.925781 80.632812 C 354.925781 67.78125 344.5 57.363281 331.644531 57.363281 C 318.789062 57.363281 308.367188 67.78125 308.367188 80.632812 C 308.367188 93.480469 318.789062 103.898438 331.644531 103.898438 C 344.5 103.898438 354.925781 93.480469 354.925781 80.632812 " fill-opacity="1" fill-rule="nonzero"/><path fill="#ffffff" d="M 268.195312 88.179688 C 268.195312 79.496094 261.15625 72.46875 252.46875 72.46875 C 243.785156 72.46875 236.746094 79.496094 236.746094 88.179688 C 236.746094 96.859375 243.785156 103.898438 252.46875 103.898438 C 261.15625 103.898438 268.195312 96.859375 268.195312 88.179688 " fill-opacity="1" fill-rule="nonzero"/><path fill="#ffffff" d="M 335.167969 84.148438 L 250.320312 84.148438 L 250.320312 103.898438 L 335.167969 103.898438 L 335.167969 84.148438 " fill-opacity="1" fill-rule="nonzero"/><path fill="#d9e938" d="M 143.5625 97.164062 C 143.5625 97.164062 192.84375 80.148438 187.941406 122.769531 L 143.5625 97.164062 " fill-opacity="1" fill-rule="nonzero"/><path fill="#b4dc18" d="M 143.5625 97.164062 C 143.5625 97.164062 153.457031 148.320312 187.941406 122.769531 L 143.5625 97.164062 " fill-opacity="1" fill-rule="nonzero"/><path fill="#d9e938" d="M 232.65625 97.164062 C 232.65625 97.164062 183.382812 80.148438 188.28125 122.769531 L 232.65625 97.164062 " fill-opacity="1" fill-rule="nonzero"/><path fill="#b4dc18" d="M 232.65625 97.164062 C 232.65625 97.164062 222.765625 148.320312 188.28125 122.769531 L 232.65625 97.164062 " fill-opacity="1" fill-rule="nonzero"/><path fill="#d9e938" d="M 135.121094 156.898438 C 135.121094 156.898438 194.25 136.480469 188.367188 187.625 L 135.121094 156.898438 " fill-opacity="1" fill-rule="nonzero"/><path fill="#b4dc18" d="M 135.121094 156.898438 C 135.121094 156.898438 146.988281 218.289062 188.367188 187.625 L 135.121094 156.898438 " fill-opacity="1" fill-rule="nonzero"/><path fill="#d9e938" d="M 242.441406 156.898438 C 242.441406 156.898438 183.3125 136.480469 189.191406 187.625 L 242.441406 156.898438 " fill-opacity="1" fill-rule="nonzero"/><path fill="#b4dc18" d="M 242.441406 156.898438 C 242.441406 156.898438 230.574219 218.289062 189.191406 187.625 L 242.441406 156.898438 " fill-opacity="1" fill-rule="nonzero"/><path fill="#d9e938" d="M 123.316406 210.429688 C 123.316406 210.429688 194.273438 185.925781 187.214844 247.300781 L 123.316406 210.429688 " fill-opacity="1" fill-rule="nonzero"/><path fill="#b4dc18" d="M 123.316406 210.429688 C 123.316406 210.429688 137.554688 284.097656 187.214844 247.300781 L 123.316406 210.429688 " fill-opacity="1" fill-rule="nonzero"/><path fill="#d9e938" d="M 251.601562 210.429688 C 251.601562 210.429688 180.644531 185.925781 187.707031 247.300781 L 251.601562 210.429688 " fill-opacity="1" fill-rule="nonzero"/><path fill="#b4dc18" d="M 251.601562 210.429688 C 251.601562 210.429688 237.367188 284.097656 187.707031 247.300781 L 251.601562 210.429688 " fill-opacity="1" fill-rule="nonzero"/><path fill="#b4dc18" d="M 191.78125 291.691406 L 183.140625 291.691406 L 183.140625 121.4375 L 191.78125 121.4375 L 191.78125 291.691406 " fill-opacity="1" fill-rule="nonzero"/><g fill="#ffffff" fill-opacity="1"><g transform="translate(31.425002, 345.374977)"><g><path d="M 3.03125 0.09375 C 2.644531 0.09375 2.304688 0.0195312 2.015625 -0.125 C 1.734375 -0.28125 1.515625 -0.492188 1.359375 -0.765625 C 1.203125 -1.046875 1.125 -1.359375 1.125 -1.703125 C 1.125 -2.046875 1.203125 -2.351562 1.359375 -2.625 C 1.515625 -2.894531 1.734375 -3.109375 2.015625 -3.265625 C 2.304688 -3.421875 2.644531 -3.5 3.03125 -3.5 C 3.414062 -3.5 3.753906 -3.421875 4.046875 -3.265625 C 4.335938 -3.117188 4.554688 -2.90625 4.703125 -2.625 C 4.859375 -2.351562 4.9375 -2.046875 4.9375 -1.703125 C 4.9375 -1.179688 4.765625 -0.75 4.421875 -0.40625 C 4.078125 -0.0703125 3.613281 0.09375 3.03125 0.09375 Z M 3.03125 0.09375 "/></g></g></g></svg>