<svg xmlns="http://www.w3.org/2000/svg" xmlns:xlink="http://www.w3.org/1999/xlink" width="500" zoomAndPan="magnify" viewBox="0 0 375 374.999991" height="500" preserveAspectRatio="xMidYMid meet" version="1.0"><defs><clipPath id="119b6a3700"><path d="M 150.902344 147.089844 L 166.648438 147.089844 L 166.648438 211.679688 L 150.902344 211.679688 Z M 150.902344 147.089844 " clip-rule="nonzero"/></clipPath><clipPath id="1e50830556"><path d="M 158.632812 211.679688 C 158.589844 196.871094 156.40625 183.570312 154.105469 169.488281 C 152.957031 162.496094 151.796875 155.421875 150.902344 148.070312 L 158.855469 147.089844 C 159.742188 154.335938 160.882812 161.300781 162.015625 168.195312 C 164.265625 181.964844 166.601562 196.203125 166.648438 211.65625 Z M 158.632812 211.679688 " clip-rule="nonzero"/></clipPath><clipPath id="8efa341b08"><path d="M 158.632812 211.679688 C 158.589844 196.871094 156.40625 183.570312 154.105469 169.488281 C 152.957031 162.496094 151.796875 155.421875 150.902344 148.070312 L 158.855469 147.089844 C 159.742188 154.335938 160.882812 161.300781 162.015625 168.195312 C 164.265625 181.964844 166.601562 196.203125 166.648438 211.65625 L 158.632812 211.679688 " clip-rule="nonzero"/></clipPath><linearGradient x1="-0.00000203775" gradientTransform="matrix(15.746647, 0, 0, 15.740609, 150.903718, 179.385516)" y1="0" x2="0.999986" gradientUnits="userSpaceOnUse" y2="0" id="c05ffaf406"><stop stop-opacity="1" stop-color="rgb(24.299622%, 47.499084%, 18.798828%)" offset="0"/><stop stop-opacity="1" stop-color="rgb(24.494934%, 47.645569%, 18.798828%)" offset="0.015625"/><stop stop-opacity="1" stop-color="rgb(24.694824%, 47.795105%, 18.797302%)" offset="0.03125"/><stop stop-opacity="1" stop-color="rgb(24.699402%, 47.799683%, 18.600464%)" offset="0.0625"/><stop stop-opacity="1" stop-color="rgb(24.797058%, 47.895813%, 18.4021%)" offset="0.0703125"/><stop stop-opacity="1" stop-color="rgb(24.996948%, 48.095703%, 18.400574%)" offset="0.078125"/><stop stop-opacity="1" stop-color="rgb(25.099182%, 48.199463%, 18.597412%)" offset="0.09375"/><stop stop-opacity="1" stop-color="rgb(25.099182%, 48.199463%, 18.795776%)" offset="0.125"/><stop stop-opacity="1" stop-color="rgb(25.19989%, 48.300171%, 18.798828%)" offset="0.140625"/><stop stop-opacity="1" stop-color="rgb(25.402832%, 48.500061%, 18.798828%)" offset="0.15625"/><stop stop-opacity="1" stop-color="rgb(25.700378%, 48.599243%, 18.798828%)" offset="0.171875"/><stop stop-opacity="1" stop-color="rgb(25.897217%, 48.79303%, 18.798828%)" offset="0.1875"/><stop stop-opacity="1" stop-color="rgb(25.900269%, 48.99292%, 18.798828%)" offset="0.203125"/><stop stop-opacity="1" stop-color="rgb(26.097107%, 48.999023%, 18.798828%)" offset="0.21875"/><stop stop-opacity="1" stop-color="rgb(26.295471%, 48.999023%, 18.798828%)" offset="0.25"/><stop stop-opacity="1" stop-color="rgb(26.493835%, 49.194336%, 18.798828%)" offset="0.265625"/><stop stop-opacity="1" stop-color="rgb(26.693726%, 49.394226%, 18.798828%)" offset="0.28125"/><stop stop-opacity="1" stop-color="rgb(26.699829%, 49.398804%, 18.798828%)" offset="0.3125"/><stop stop-opacity="1" stop-color="rgb(26.795959%, 49.49646%, 18.798828%)" offset="0.320312"/><stop stop-opacity="1" stop-color="rgb(26.99585%, 49.69635%, 18.798828%)" offset="0.328125"/><stop stop-opacity="1" stop-color="rgb(27.099609%, 49.798584%, 18.798828%)" offset="0.34375"/><stop stop-opacity="1" stop-color="rgb(27.099609%, 49.803162%, 18.798828%)" offset="0.359375"/><stop stop-opacity="1" stop-color="rgb(27.099609%, 50.003052%, 18.798828%)" offset="0.375"/><stop stop-opacity="1" stop-color="rgb(27.200317%, 50.198364%, 18.798828%)" offset="0.390625"/><stop stop-opacity="1" stop-color="rgb(27.400208%, 50.19989%, 18.798828%)" offset="0.40625"/><stop stop-opacity="1" stop-color="rgb(27.644348%, 50.392151%, 18.798828%)" offset="0.4375"/><stop stop-opacity="1" stop-color="rgb(27.793884%, 50.592041%, 18.798828%)" offset="0.46875"/><stop stop-opacity="1" stop-color="rgb(27.900696%, 50.700378%, 18.798828%)" offset="0.476562"/><stop stop-opacity="1" stop-color="rgb(28.100586%, 50.900269%, 18.798828%)" offset="0.484375"/><stop stop-opacity="1" stop-color="rgb(28.199768%, 50.999451%, 18.798828%)" offset="0.5"/><stop stop-opacity="1" stop-color="rgb(28.199768%, 50.999451%, 18.798828%)" offset="0.515625"/><stop stop-opacity="1" stop-color="rgb(28.297424%, 51.098633%, 18.798828%)" offset="0.523438"/><stop stop-opacity="1" stop-color="rgb(28.497314%, 51.298523%, 18.798828%)" offset="0.53125"/><stop stop-opacity="1" stop-color="rgb(28.599548%, 51.399231%, 18.798828%)" offset="0.5625"/><stop stop-opacity="1" stop-color="rgb(28.601074%, 51.400757%, 18.798828%)" offset="0.578125"/><stop stop-opacity="1" stop-color="rgb(28.797913%, 51.597595%, 18.798828%)" offset="0.59375"/><stop stop-opacity="1" stop-color="rgb(28.996277%, 51.795959%, 18.798828%)" offset="0.625"/><stop stop-opacity="1" stop-color="rgb(28.999329%, 51.799011%, 18.798828%)" offset="0.640625"/><stop stop-opacity="1" stop-color="rgb(28.999329%, 51.898193%, 18.798828%)" offset="0.648438"/><stop stop-opacity="1" stop-color="rgb(29.000854%, 52.098083%, 18.798828%)" offset="0.65625"/><stop stop-opacity="1" stop-color="rgb(29.197693%, 52.198792%, 18.798828%)" offset="0.6875"/><stop stop-opacity="1" stop-color="rgb(29.493713%, 52.272034%, 18.798828%)" offset="0.695312"/><stop stop-opacity="1" stop-color="rgb(29.696655%, 52.42157%, 18.798828%)" offset="0.703125"/><stop stop-opacity="1" stop-color="rgb(29.798889%, 52.49939%, 18.798828%)" offset="0.71875"/><stop stop-opacity="1" stop-color="rgb(29.798889%, 52.49939%, 18.798828%)" offset="0.75"/><stop stop-opacity="1" stop-color="rgb(29.899597%, 52.600098%, 18.798828%)" offset="0.765625"/><stop stop-opacity="1" stop-color="rgb(30.102539%, 52.799988%, 18.798828%)" offset="0.78125"/><stop stop-opacity="1" stop-color="rgb(30.400085%, 52.89917%, 18.798828%)" offset="0.796875"/><stop stop-opacity="1" stop-color="rgb(30.596924%, 53.092957%, 18.798828%)" offset="0.8125"/><stop stop-opacity="1" stop-color="rgb(30.696106%, 53.292847%, 18.798828%)" offset="0.820312"/><stop stop-opacity="1" stop-color="rgb(30.89447%, 53.29895%, 18.798828%)" offset="0.828125"/><stop stop-opacity="1" stop-color="rgb(30.801392%, 53.29895%, 18.798828%)" offset="0.84375"/><stop stop-opacity="1" stop-color="rgb(30.702209%, 53.29895%, 18.798828%)" offset="0.851562"/><stop stop-opacity="1" stop-color="rgb(30.899048%, 53.303528%, 18.798828%)" offset="0.859375"/><stop stop-opacity="1" stop-color="rgb(30.999756%, 53.503418%, 18.798828%)" offset="0.875"/><stop stop-opacity="1" stop-color="rgb(31.193542%, 53.69873%, 18.798828%)" offset="0.890625"/><stop stop-opacity="1" stop-color="rgb(31.393433%, 53.701782%, 18.798828%)" offset="0.90625"/><stop stop-opacity="1" stop-color="rgb(31.399536%, 53.900146%, 18.798828%)" offset="0.921875"/><stop stop-opacity="1" stop-color="rgb(31.399536%, 54.096985%, 18.798828%)" offset="0.9375"/><stop stop-opacity="1" stop-color="rgb(31.495667%, 54.098511%, 18.798828%)" offset="0.945312"/><stop stop-opacity="1" stop-color="rgb(31.695557%, 54.098511%, 18.798828%)" offset="0.953125"/><stop stop-opacity="1" stop-color="rgb(31.799316%, 54.098511%, 18.798828%)" offset="0.96875"/><stop stop-opacity="1" stop-color="rgb(31.799316%, 54.199219%, 18.798828%)" offset="0.976562"/><stop stop-opacity="1" stop-color="rgb(31.803894%, 54.399109%, 18.798828%)" offset="0.984375"/><stop stop-opacity="1" stop-color="rgb(32.003784%, 54.499817%, 18.798828%)" offset="1"/></linearGradient><clipPath id="f2e8bfa1e2"><path d="M 156 84 L 324.941406 84 L 324.941406 336.855469 L 156 336.855469 Z M 156 84 " clip-rule="nonzero"/></clipPath><clipPath id="3492d93dd6"><path d="M 324.792969 84.117188 C 277.882812 98.777344 156.640625 95.324219 156.085938 234.804688 L 156.074219 336.820312 L 166.65625 336.820312 L 166.65625 235.371094 C 326.367188 229.542969 314.445312 94.46875 324.792969 84.117188 Z M 324.792969 84.117188 " clip-rule="nonzero"/></clipPath><clipPath id="4f02123308"><path d="M 324.796875 84.117188 C 277.882812 98.777344 156.644531 95.324219 156.085938 234.804688 L 156.078125 336.820312 L 166.65625 336.820312 L 166.65625 235.371094 C 326.367188 229.542969 314.445312 94.46875 324.796875 84.117188 " clip-rule="nonzero"/></clipPath><clipPath id="813940fe8a"><path d="M 283.792969 10.410156 L 46.609375 147.292969 L 198.648438 410.53125 L 435.832031 273.644531 Z M 283.792969 10.410156 " clip-rule="nonzero"/></clipPath><linearGradient x1="-0.349291" gradientTransform="matrix(83.108244, 143.892514, -143.947705, 83.076383, 193.68399, 129.426937)" y1="0" x2="1.47582" gradientUnits="userSpaceOnUse" y2="0" id="131d448f3a"><stop stop-opacity="1" stop-color="rgb(24.299622%, 47.499084%, 18.798828%)" offset="0"/><stop stop-opacity="1" stop-color="rgb(24.299622%, 47.499084%, 18.798828%)" offset="0.125"/><stop stop-opacity="1" stop-color="rgb(24.299622%, 47.499084%, 18.798828%)" offset="0.1875"/><stop stop-opacity="1" stop-color="rgb(24.487305%, 47.639465%, 18.798828%)" offset="0.203125"/><stop stop-opacity="1" stop-color="rgb(24.687195%, 47.790527%, 18.798828%)" offset="0.21875"/><stop stop-opacity="1" stop-color="rgb(24.890137%, 47.990417%, 18.791199%)" offset="0.234375"/><stop stop-opacity="1" stop-color="rgb(25.090027%, 48.190308%, 18.791199%)" offset="0.25"/><stop stop-opacity="1" stop-color="rgb(25.271606%, 48.371887%, 18.798828%)" offset="0.265625"/><stop stop-opacity="1" stop-color="rgb(25.471497%, 48.571777%, 18.798828%)" offset="0.273438"/><stop stop-opacity="1" stop-color="rgb(25.686646%, 48.599243%, 18.798828%)" offset="0.28125"/><stop stop-opacity="1" stop-color="rgb(25.886536%, 48.786926%, 18.798828%)" offset="0.296875"/><stop stop-opacity="1" stop-color="rgb(26.071167%, 48.986816%, 18.798828%)" offset="0.304687"/><stop stop-opacity="1" stop-color="rgb(26.271057%, 48.999023%, 18.798828%)" offset="0.3125"/><stop stop-opacity="1" stop-color="rgb(26.298523%, 48.999023%, 18.798828%)" offset="0.328125"/><stop stop-opacity="1" stop-color="rgb(26.475525%, 49.176025%, 18.621826%)" offset="0.335938"/><stop stop-opacity="1" stop-color="rgb(26.675415%, 49.375916%, 18.59436%)" offset="0.34375"/><stop stop-opacity="1" stop-color="rgb(26.699829%, 49.398804%, 18.769836%)" offset="0.359375"/><stop stop-opacity="1" stop-color="rgb(26.879883%, 49.580383%, 18.798828%)" offset="0.367188"/><stop stop-opacity="1" stop-color="rgb(27.079773%, 49.780273%, 18.798828%)" offset="0.375"/><stop stop-opacity="1" stop-color="rgb(27.288818%, 49.987793%, 18.798828%)" offset="0.40625"/><stop stop-opacity="1" stop-color="rgb(27.488708%, 50.37384%, 18.798828%)" offset="0.421875"/><stop stop-opacity="1" stop-color="rgb(27.648926%, 50.584412%, 18.798828%)" offset="0.4375"/><stop stop-opacity="1" stop-color="rgb(27.973938%, 50.773621%, 18.798828%)" offset="0.453125"/><stop stop-opacity="1" stop-color="rgb(28.173828%, 50.973511%, 18.798828%)" offset="0.46875"/><stop stop-opacity="1" stop-color="rgb(28.388977%, 51.18866%, 18.798828%)" offset="0.484375"/><stop stop-opacity="1" stop-color="rgb(28.588867%, 51.38855%, 18.798828%)" offset="0.5"/><stop stop-opacity="1" stop-color="rgb(28.75824%, 51.557922%, 18.798828%)" offset="0.515625"/><stop stop-opacity="1" stop-color="rgb(28.95813%, 51.757812%, 18.798828%)" offset="0.53125"/><stop stop-opacity="1" stop-color="rgb(28.999329%, 51.96228%, 18.798828%)" offset="0.546875"/><stop stop-opacity="1" stop-color="rgb(29.176331%, 52.16217%, 18.798828%)" offset="0.5625"/><stop stop-opacity="1" stop-color="rgb(29.544067%, 52.325439%, 18.798828%)" offset="0.578125"/><stop stop-opacity="1" stop-color="rgb(29.766846%, 52.474976%, 18.798828%)" offset="0.59375"/><stop stop-opacity="1" stop-color="rgb(29.951477%, 52.49939%, 18.798828%)" offset="0.601562"/><stop stop-opacity="1" stop-color="rgb(30.151367%, 52.668762%, 18.798828%)" offset="0.609375"/><stop stop-opacity="1" stop-color="rgb(30.198669%, 52.868652%, 18.798828%)" offset="0.625"/><stop stop-opacity="1" stop-color="rgb(30.374146%, 52.89917%, 18.798828%)" offset="0.640625"/><stop stop-opacity="1" stop-color="rgb(30.743408%, 53.067017%, 18.798828%)" offset="0.648437"/><stop stop-opacity="1" stop-color="rgb(30.799866%, 53.266907%, 18.798828%)" offset="0.65625"/><stop stop-opacity="1" stop-color="rgb(30.793762%, 53.460693%, 18.798828%)" offset="0.664062"/><stop stop-opacity="1" stop-color="rgb(30.961609%, 53.660583%, 18.798828%)" offset="0.671875"/><stop stop-opacity="1" stop-color="rgb(31.150818%, 53.69873%, 18.798828%)" offset="0.679688"/><stop stop-opacity="1" stop-color="rgb(31.350708%, 53.69873%, 18.798828%)" offset="0.6875"/><stop stop-opacity="1" stop-color="rgb(31.399536%, 53.860474%, 18.798828%)" offset="0.695312"/><stop stop-opacity="1" stop-color="rgb(31.399536%, 54.060364%, 18.798828%)" offset="0.703125"/><stop stop-opacity="1" stop-color="rgb(31.575012%, 54.098511%, 18.798828%)" offset="0.71875"/><stop stop-opacity="1" stop-color="rgb(31.774902%, 54.244995%, 18.798828%)" offset="0.726562"/><stop stop-opacity="1" stop-color="rgb(31.799316%, 54.444885%, 18.798828%)" offset="0.734375"/><stop stop-opacity="1" stop-color="rgb(31.976318%, 54.499817%, 18.798828%)" offset="0.75"/><stop stop-opacity="1" stop-color="rgb(32.176208%, 54.499817%, 18.798828%)" offset="1"/></linearGradient><clipPath id="8b2f22227f"><path d="M 36.320312 121.089844 L 145.277344 121.089844 L 145.277344 235.558594 L 36.320312 235.558594 Z M 36.320312 121.089844 " clip-rule="nonzero"/></clipPath><clipPath id="305a760169"><path d="M 36.320312 121.089844 C 59.628906 125.15625 127.652344 125.1875 145.277344 235.375 C 69.46875 240.589844 36.320312 121.089844 36.320312 121.089844 Z M 36.320312 121.089844 " clip-rule="nonzero"/></clipPath><clipPath id="9b2bbfd847"><path d="M 36.320312 121.089844 C 59.628906 125.15625 127.652344 125.1875 145.277344 235.375 C 69.46875 240.589844 36.320312 121.089844 36.320312 121.089844 " clip-rule="nonzero"/></clipPath><linearGradient x1="-0.000159176" gradientTransform="matrix(0, -114.453427, 114.497319, 0, 90.798121, 235.541958)" y1="0" x2="0.999999" gradientUnits="userSpaceOnUse" y2="0" id="a941275e23"><stop stop-opacity="1" stop-color="rgb(24.299622%, 47.499084%, 18.798828%)" offset="0"/><stop stop-opacity="1" stop-color="rgb(24.423218%, 47.592163%, 18.798828%)" offset="0.015625"/><stop stop-opacity="1" stop-color="rgb(24.623108%, 47.743225%, 18.798828%)" offset="0.03125"/><stop stop-opacity="1" stop-color="rgb(24.803162%, 47.799683%, 18.693542%)" offset="0.0625"/><stop stop-opacity="1" stop-color="rgb(25.003052%, 47.897339%, 18.592834%)" offset="0.078125"/><stop stop-opacity="1" stop-color="rgb(25.099182%, 48.097229%, 18.696594%)" offset="0.09375"/><stop stop-opacity="1" stop-color="rgb(25.170898%, 48.271179%, 18.798828%)" offset="0.125"/><stop stop-opacity="1" stop-color="rgb(25.419617%, 48.471069%, 18.798828%)" offset="0.15625"/><stop stop-opacity="1" stop-color="rgb(25.747681%, 48.64502%, 18.798828%)" offset="0.171875"/><stop stop-opacity="1" stop-color="rgb(25.898743%, 48.84491%, 18.798828%)" offset="0.1875"/><stop stop-opacity="1" stop-color="rgb(25.930786%, 48.999023%, 18.798828%)" offset="0.203125"/><stop stop-opacity="1" stop-color="rgb(26.130676%, 48.999023%, 18.798828%)" offset="0.21875"/><stop stop-opacity="1" stop-color="rgb(26.304626%, 49.005127%, 18.798828%)" offset="0.25"/><stop stop-opacity="1" stop-color="rgb(26.506042%, 49.205017%, 18.798828%)" offset="0.3125"/><stop stop-opacity="1" stop-color="rgb(26.863098%, 49.563599%, 18.798828%)" offset="0.328125"/><stop stop-opacity="1" stop-color="rgb(27.062988%, 49.763489%, 18.798828%)" offset="0.34375"/><stop stop-opacity="1" stop-color="rgb(27.235413%, 49.934387%, 18.798828%)" offset="0.375"/><stop stop-opacity="1" stop-color="rgb(27.435303%, 50.135803%, 18.798828%)" offset="0.40625"/><stop stop-opacity="1" stop-color="rgb(27.520752%, 50.227356%, 18.798828%)" offset="0.421875"/><stop stop-opacity="1" stop-color="rgb(27.670288%, 50.427246%, 18.798828%)" offset="0.4375"/><stop stop-opacity="1" stop-color="rgb(27.886963%, 50.686646%, 18.798828%)" offset="0.46875"/><stop stop-opacity="1" stop-color="rgb(28.086853%, 50.886536%, 18.798828%)" offset="0.5"/><stop stop-opacity="1" stop-color="rgb(28.260803%, 51.060486%, 18.798828%)" offset="0.515625"/><stop stop-opacity="1" stop-color="rgb(28.460693%, 51.260376%, 18.798828%)" offset="0.53125"/><stop stop-opacity="1" stop-color="rgb(28.599548%, 51.399231%, 18.798828%)" offset="0.5625"/><stop stop-opacity="1" stop-color="rgb(28.599548%, 51.423645%, 18.798828%)" offset="0.578125"/><stop stop-opacity="1" stop-color="rgb(28.620911%, 51.623535%, 18.798828%)" offset="0.59375"/><stop stop-opacity="1" stop-color="rgb(28.820801%, 51.799011%, 18.798828%)" offset="0.625"/><stop stop-opacity="1" stop-color="rgb(29.182434%, 51.982117%, 18.798828%)" offset="0.65625"/><stop stop-opacity="1" stop-color="rgb(29.382324%, 52.182007%, 18.798828%)" offset="0.6875"/><stop stop-opacity="1" stop-color="rgb(29.556274%, 52.316284%, 18.798828%)" offset="0.703125"/><stop stop-opacity="1" stop-color="rgb(29.756165%, 52.467346%, 18.798828%)" offset="0.71875"/><stop stop-opacity="1" stop-color="rgb(29.930115%, 52.630615%, 18.798828%)" offset="0.75"/><stop stop-opacity="1" stop-color="rgb(30.189514%, 52.830505%, 18.798828%)" offset="0.78125"/><stop stop-opacity="1" stop-color="rgb(30.458069%, 52.946472%, 18.798828%)" offset="0.8125"/><stop stop-opacity="1" stop-color="rgb(30.639648%, 53.187561%, 18.798828%)" offset="0.84375"/><stop stop-opacity="1" stop-color="rgb(30.839539%, 53.540039%, 18.798828%)" offset="0.875"/><stop stop-opacity="1" stop-color="rgb(31.025696%, 53.72467%, 18.798828%)" offset="0.90625"/><stop stop-opacity="1" stop-color="rgb(31.144714%, 53.845215%, 18.798828%)" offset="0.921875"/><stop stop-opacity="1" stop-color="rgb(31.347656%, 54.017639%, 18.798828%)" offset="0.9375"/><stop stop-opacity="1" stop-color="rgb(31.626892%, 54.112244%, 18.798828%)" offset="0.96875"/><stop stop-opacity="1" stop-color="rgb(31.799316%, 54.31366%, 18.798828%)" offset="0.984375"/><stop stop-opacity="1" stop-color="rgb(31.811523%, 54.499817%, 18.798828%)" offset="0.992188"/><stop stop-opacity="1" stop-color="rgb(32.011414%, 54.499817%, 18.798828%)" offset="1"/></linearGradient><clipPath id="60b4cfda8a"><path d="M 86.371094 0 L 170 0 L 170 150.84375 L 86.371094 150.84375 Z M 86.371094 0 " clip-rule="nonzero"/></clipPath><clipPath id="b39624776c"><path d="M 91.992188 0.078125 C 91.992188 0.078125 59.785156 117.40625 151.203125 149.394531 C 151.972656 149.660156 152.683594 149.976562 153.476562 150.234375 C 153.433594 150.074219 153.390625 149.875 153.355469 149.707031 C 153.398438 149.78125 153.429688 149.90625 153.476562 149.957031 C 154.820312 151.457031 156.027344 150.4375 156.753906 149.113281 C 156.753906 149.234375 156.753906 149.355469 156.75 149.46875 C 202.164062 44.453125 118.308594 14.105469 91.992188 0.078125 Z M 91.992188 0.078125 " clip-rule="nonzero"/></clipPath><clipPath id="cb589cc858"><path d="M 91.992188 0.078125 C 91.992188 0.078125 59.785156 117.40625 151.203125 149.394531 C 151.972656 149.660156 152.683594 149.976562 153.472656 150.234375 C 153.433594 150.074219 153.390625 149.875 153.355469 149.707031 C 153.394531 149.78125 153.429688 149.910156 153.472656 149.957031 C 154.820312 151.457031 156.027344 150.4375 156.753906 149.113281 C 156.753906 149.238281 156.753906 149.359375 156.75 149.46875 C 202.164062 44.453125 118.304688 14.105469 91.992188 0.078125 " clip-rule="nonzero"/></clipPath><clipPath id="3e4b1d389f"><path d="M -5.789062 113.613281 L 166.570312 213.085938 L 267.738281 37.921875 L 95.378906 -61.550781 Z M -5.789062 113.613281 " clip-rule="nonzero"/></clipPath><linearGradient x1="-0.309714" gradientTransform="matrix(51.444507, -89.070341, 89.104498, 51.424785, 97.864649, 120.696957)" y1="0" x2="1.366317" gradientUnits="userSpaceOnUse" y2="0" id="b006221dab"><stop stop-opacity="1" stop-color="rgb(24.299622%, 47.499084%, 18.798828%)" offset="0"/><stop stop-opacity="1" stop-color="rgb(24.299622%, 47.499084%, 18.798828%)" offset="0.125"/><stop stop-opacity="1" stop-color="rgb(24.317932%, 47.512817%, 18.798828%)" offset="0.1875"/><stop stop-opacity="1" stop-color="rgb(24.517822%, 47.662354%, 18.798828%)" offset="0.203125"/><stop stop-opacity="1" stop-color="rgb(24.752808%, 47.853088%, 18.798828%)" offset="0.21875"/><stop stop-opacity="1" stop-color="rgb(24.952698%, 48.052979%, 18.798828%)" offset="0.25"/><stop stop-opacity="1" stop-color="rgb(25.230408%, 48.330688%, 18.798828%)" offset="0.265625"/><stop stop-opacity="1" stop-color="rgb(25.494385%, 48.530579%, 18.798828%)" offset="0.28125"/><stop stop-opacity="1" stop-color="rgb(25.762939%, 48.704529%, 18.798828%)" offset="0.296875"/><stop stop-opacity="1" stop-color="rgb(26.054382%, 48.904419%, 18.798828%)" offset="0.3125"/><stop stop-opacity="1" stop-color="rgb(26.254272%, 48.999023%, 18.798828%)" offset="0.328125"/><stop stop-opacity="1" stop-color="rgb(26.361084%, 49.061584%, 18.798828%)" offset="0.335938"/><stop stop-opacity="1" stop-color="rgb(26.560974%, 49.261475%, 18.798828%)" offset="0.34375"/><stop stop-opacity="1" stop-color="rgb(26.699829%, 49.398804%, 18.798828%)" offset="0.359375"/><stop stop-opacity="1" stop-color="rgb(26.699829%, 49.543762%, 18.798828%)" offset="0.367188"/><stop stop-opacity="1" stop-color="rgb(26.811218%, 49.743652%, 18.798828%)" offset="0.375"/><stop stop-opacity="1" stop-color="rgb(27.011108%, 49.798584%, 18.798828%)" offset="0.390625"/><stop stop-opacity="1" stop-color="rgb(27.099609%, 49.835205%, 18.798828%)" offset="0.398438"/><stop stop-opacity="1" stop-color="rgb(27.102661%, 50.035095%, 18.798828%)" offset="0.40625"/><stop stop-opacity="1" stop-color="rgb(27.272034%, 50.19989%, 18.798828%)" offset="0.414062"/><stop stop-opacity="1" stop-color="rgb(27.468872%, 50.19989%, 18.798828%)" offset="0.421875"/><stop stop-opacity="1" stop-color="rgb(27.558899%, 50.27771%, 18.798828%)" offset="0.4375"/><stop stop-opacity="1" stop-color="rgb(27.708435%, 50.4776%, 18.798828%)" offset="0.453125"/><stop stop-opacity="1" stop-color="rgb(27.960205%, 50.759888%, 18.798828%)" offset="0.46875"/><stop stop-opacity="1" stop-color="rgb(28.160095%, 50.959778%, 18.798828%)" offset="0.484375"/><stop stop-opacity="1" stop-color="rgb(28.283691%, 51.083374%, 18.798828%)" offset="0.492188"/><stop stop-opacity="1" stop-color="rgb(28.483582%, 51.283264%, 18.798828%)" offset="0.5"/><stop stop-opacity="1" stop-color="rgb(28.599548%, 51.533508%, 18.798828%)" offset="0.53125"/><stop stop-opacity="1" stop-color="rgb(28.707886%, 51.733398%, 18.798828%)" offset="0.539062"/><stop stop-opacity="1" stop-color="rgb(28.907776%, 51.799011%, 18.798828%)" offset="0.546875"/><stop stop-opacity="1" stop-color="rgb(28.999329%, 51.806641%, 18.798828%)" offset="0.5625"/><stop stop-opacity="1" stop-color="rgb(29.139709%, 52.006531%, 18.798828%)" offset="0.578125"/><stop stop-opacity="1" stop-color="rgb(29.3396%, 52.198792%, 18.798828%)" offset="0.59375"/><stop stop-opacity="1" stop-color="rgb(29.464722%, 52.24762%, 18.798828%)" offset="0.601562"/><stop stop-opacity="1" stop-color="rgb(29.664612%, 52.398682%, 18.798828%)" offset="0.609375"/><stop stop-opacity="1" stop-color="rgb(29.798889%, 52.49939%, 18.798828%)" offset="0.625"/><stop stop-opacity="1" stop-color="rgb(29.949951%, 52.648926%, 18.798828%)" offset="0.632812"/><stop stop-opacity="1" stop-color="rgb(30.149841%, 52.848816%, 18.798828%)" offset="0.640625"/><stop stop-opacity="1" stop-color="rgb(30.255127%, 52.89917%, 18.798828%)" offset="0.65625"/><stop stop-opacity="1" stop-color="rgb(30.455017%, 53.088379%, 18.798828%)" offset="0.671875"/><stop stop-opacity="1" stop-color="rgb(30.651855%, 53.288269%, 18.798828%)" offset="0.6875"/><stop stop-opacity="1" stop-color="rgb(30.851746%, 53.379822%, 18.798828%)" offset="0.703125"/><stop stop-opacity="1" stop-color="rgb(31.045532%, 53.579712%, 18.798828%)" offset="0.710937"/><stop stop-opacity="1" stop-color="rgb(31.245422%, 53.69873%, 18.798828%)" offset="0.71875"/><stop stop-opacity="1" stop-color="rgb(31.399536%, 53.866577%, 18.798828%)" offset="0.734375"/><stop stop-opacity="1" stop-color="rgb(31.503296%, 54.066467%, 18.798828%)" offset="0.75"/><stop stop-opacity="1" stop-color="rgb(31.703186%, 54.136658%, 18.798828%)" offset="0.765625"/><stop stop-opacity="1" stop-color="rgb(31.993103%, 54.336548%, 18.798828%)" offset="0.78125"/><stop stop-opacity="1" stop-color="rgb(32.192993%, 54.499817%, 18.798828%)" offset="0.8125"/><stop stop-opacity="1" stop-color="rgb(32.199097%, 54.499817%, 18.798828%)" offset="0.875"/><stop stop-opacity="1" stop-color="rgb(32.199097%, 54.499817%, 18.798828%)" offset="1"/></linearGradient><clipPath id="a2f5f6bab0"><path d="M 137.144531 227.105469 L 164 227.105469 L 164 267.949219 L 137.144531 267.949219 Z M 137.144531 227.105469 " clip-rule="nonzero"/></clipPath><clipPath id="1b763ba3e1"><path d="M 163.980469 267.949219 L 155.960938 267.695312 C 156.171875 260.925781 152.699219 253.859375 150.066406 249.125 C 148.402344 246.148438 146.476562 243.15625 144.308594 240.214844 C 143.191406 238.691406 141.925781 237.367188 140.65625 236.03125 C 139.449219 234.761719 138.25 233.492188 137.144531 232.109375 L 143.402344 227.105469 C 144.375 228.316406 145.425781 229.417969 146.476562 230.523438 C 147.964844 232.097656 149.441406 233.675781 150.765625 235.472656 C 153.132812 238.679688 155.246094 241.960938 157.0625 245.226562 C 160.15625 250.785156 164.257812 259.1875 163.980469 267.949219 Z M 163.980469 267.949219 " clip-rule="nonzero"/></clipPath><clipPath id="16b402219c"><path d="M 163.980469 267.949219 L 155.960938 267.695312 C 156.171875 260.925781 152.699219 253.859375 150.066406 249.125 C 148.402344 246.148438 146.476562 243.15625 144.308594 240.214844 C 143.191406 238.691406 141.925781 237.367188 140.65625 236.03125 C 139.449219 234.761719 138.25 233.492188 137.144531 232.109375 L 143.402344 227.105469 C 144.375 228.316406 145.425781 229.417969 146.476562 230.523438 C 147.964844 232.097656 149.441406 233.675781 150.765625 235.472656 C 153.132812 238.679688 155.246094 241.960938 157.0625 245.226562 C 160.15625 250.785156 164.257812 259.1875 163.980469 267.949219 " clip-rule="nonzero"/></clipPath><linearGradient x1="0.0000127028" gradientTransform="matrix(26.851134, 0, 0, 26.84084, 137.143159, 247.527859)" y1="0" x2="1.000571" gradientUnits="userSpaceOnUse" y2="0" id="b7c12ae4cb"><stop stop-opacity="1" stop-color="rgb(24.299622%, 47.499084%, 18.798828%)" offset="0"/><stop stop-opacity="1" stop-color="rgb(24.493408%, 47.644043%, 18.798828%)" offset="0.015625"/><stop stop-opacity="1" stop-color="rgb(24.693298%, 47.793579%, 18.798828%)" offset="0.03125"/><stop stop-opacity="1" stop-color="rgb(24.699402%, 47.799683%, 18.605042%)" offset="0.0625"/><stop stop-opacity="1" stop-color="rgb(24.891663%, 47.990417%, 18.405151%)" offset="0.078125"/><stop stop-opacity="1" stop-color="rgb(25.091553%, 48.190308%, 18.585205%)" offset="0.09375"/><stop stop-opacity="1" stop-color="rgb(25.099182%, 48.199463%, 18.785095%)" offset="0.125"/><stop stop-opacity="1" stop-color="rgb(25.291443%, 48.391724%, 18.798828%)" offset="0.15625"/><stop stop-opacity="1" stop-color="rgb(25.669861%, 48.591614%, 18.798828%)" offset="0.171875"/><stop stop-opacity="1" stop-color="rgb(25.87738%, 48.770142%, 18.798828%)" offset="0.1875"/><stop stop-opacity="1" stop-color="rgb(26.069641%, 48.970032%, 18.798828%)" offset="0.21875"/><stop stop-opacity="1" stop-color="rgb(26.269531%, 48.999023%, 18.798828%)" offset="0.25"/><stop stop-opacity="1" stop-color="rgb(26.463318%, 49.163818%, 18.634033%)" offset="0.265625"/><stop stop-opacity="1" stop-color="rgb(26.663208%, 49.363708%, 18.603516%)" offset="0.28125"/><stop stop-opacity="1" stop-color="rgb(26.699829%, 49.577332%, 18.766785%)" offset="0.3125"/><stop stop-opacity="1" stop-color="rgb(26.860046%, 49.777222%, 18.798828%)" offset="0.328125"/><stop stop-opacity="1" stop-color="rgb(27.059937%, 49.798584%, 18.798828%)" offset="0.34375"/><stop stop-opacity="1" stop-color="rgb(27.099609%, 49.954224%, 18.798828%)" offset="0.375"/><stop stop-opacity="1" stop-color="rgb(27.276611%, 50.15564%, 18.798828%)" offset="0.40625"/><stop stop-opacity="1" stop-color="rgb(27.587891%, 50.3479%, 18.798828%)" offset="0.421875"/><stop stop-opacity="1" stop-color="rgb(27.761841%, 50.547791%, 18.798828%)" offset="0.4375"/><stop stop-opacity="1" stop-color="rgb(27.799988%, 50.59967%, 18.798828%)" offset="0.46875"/><stop stop-opacity="1" stop-color="rgb(27.94342%, 50.743103%, 18.798828%)" offset="0.484375"/><stop stop-opacity="1" stop-color="rgb(28.143311%, 50.942993%, 18.798828%)" offset="0.5"/><stop stop-opacity="1" stop-color="rgb(28.337097%, 51.13678%, 18.798828%)" offset="0.53125"/><stop stop-opacity="1" stop-color="rgb(28.536987%, 51.33667%, 18.798828%)" offset="0.5625"/><stop stop-opacity="1" stop-color="rgb(28.599548%, 51.528931%, 18.798828%)" offset="0.578125"/><stop stop-opacity="1" stop-color="rgb(28.726196%, 51.728821%, 18.798828%)" offset="0.59375"/><stop stop-opacity="1" stop-color="rgb(28.926086%, 51.799011%, 18.798828%)" offset="0.625"/><stop stop-opacity="1" stop-color="rgb(28.999329%, 51.919556%, 18.798828%)" offset="0.640625"/><stop stop-opacity="1" stop-color="rgb(29.119873%, 52.119446%, 18.798828%)" offset="0.65625"/><stop stop-opacity="1" stop-color="rgb(29.319763%, 52.198792%, 18.798828%)" offset="0.6875"/><stop stop-opacity="1" stop-color="rgb(29.51355%, 52.284241%, 18.798828%)" offset="0.703125"/><stop stop-opacity="1" stop-color="rgb(29.71344%, 52.435303%, 18.798828%)" offset="0.71875"/><stop stop-opacity="1" stop-color="rgb(29.911804%, 52.610779%, 18.798828%)" offset="0.75"/><stop stop-opacity="1" stop-color="rgb(30.111694%, 52.810669%, 18.798828%)" offset="0.78125"/><stop stop-opacity="1" stop-color="rgb(30.303955%, 52.89917%, 18.798828%)" offset="0.796875"/><stop stop-opacity="1" stop-color="rgb(30.505371%, 52.998352%, 18.798828%)" offset="0.8125"/><stop stop-opacity="1" stop-color="rgb(30.700684%, 53.198242%, 18.798828%)" offset="0.84375"/><stop stop-opacity="1" stop-color="rgb(30.79834%, 53.396606%, 18.798828%)" offset="0.859375"/><stop stop-opacity="1" stop-color="rgb(30.897522%, 53.596497%, 18.798828%)" offset="0.875"/><stop stop-opacity="1" stop-color="rgb(31.108093%, 53.69873%, 18.798828%)" offset="0.90625"/><stop stop-opacity="1" stop-color="rgb(31.199646%, 53.788757%, 18.798828%)" offset="0.921875"/><stop stop-opacity="1" stop-color="rgb(31.289673%, 53.988647%, 18.798828%)" offset="0.9375"/><stop stop-opacity="1" stop-color="rgb(31.481934%, 54.098511%, 18.798828%)" offset="0.953125"/><stop stop-opacity="1" stop-color="rgb(31.681824%, 54.182434%, 18.798828%)" offset="0.96875"/><stop stop-opacity="1" stop-color="rgb(31.881714%, 54.382324%, 18.798828%)" offset="1"/></linearGradient></defs><path fill="#593d29" d="M 33.1875 374.039062 C 33.1875 274.71875 128.4375 244.160156 161.351562 333.488281 C 200.746094 278.242188 234.265625 333.488281 234.265625 333.488281 C 234.265625 308.820312 333.605469 242.988281 333.605469 374.039062 L 33.1875 374.039062 " fill-opacity="1" fill-rule="nonzero"/><path fill="#f2f2f0" d="M 47.28125 353.9375 C 47.28125 353.9375 47.078125 352.300781 46.734375 349.457031 C 46.519531 348.042969 46.527344 346.289062 46.644531 344.226562 C 46.644531 342.140625 46.914062 339.828125 47.402344 337.355469 C 47.710938 334.820312 48.609375 332.230469 49.441406 329.4375 C 50.527344 326.761719 51.476562 323.773438 53.109375 321.054688 C 54.5625 318.226562 56.265625 315.425781 58.199219 312.707031 C 59.152344 311.351562 60.238281 310.085938 61.257812 308.75 C 61.878906 308.019531 62.078125 307.605469 63.042969 306.609375 L 64.746094 304.875 C 66.832031 302.601562 70.015625 300.460938 72.800781 298.367188 C 75.734375 296.65625 78.5625 294.925781 81.554688 293.769531 C 84.5 292.5 87.390625 291.417969 90.296875 290.847656 C 91.734375 290.527344 93.101562 290.136719 94.457031 289.898438 C 95.839844 289.800781 97.183594 289.707031 98.46875 289.625 C 101.007812 289.273438 103.375 289.578125 105.441406 289.945312 C 107.503906 290.167969 109.246094 290.542969 110.59375 291.273438 C 113.335938 292.46875 114.734375 293.183594 114.734375 293.183594 C 114.734375 293.183594 113.105469 293.066406 110.265625 292.832031 C 108.925781 292.546875 107.234375 292.761719 105.335938 293.011719 C 103.453125 293.167969 101.394531 293.429688 99.148438 294.164062 C 96.902344 294.699219 94.550781 295.457031 92.113281 296.554688 C 89.628906 297.394531 87.195312 298.816406 84.640625 300.105469 C 82.050781 301.304688 79.734375 303.28125 77.160156 304.75 C 74.953125 306.589844 72.667969 307.988281 70.402344 310.542969 L 68.65625 312.21875 C 68.453125 312.351562 67.746094 313.28125 67.3125 313.769531 C 66.34375 314.964844 65.304688 316.113281 64.390625 317.332031 C 62.613281 319.796875 60.6875 322.117188 59.191406 324.589844 C 56.023438 329.4375 53.519531 334.257812 51.800781 338.621094 C 50.003906 342.996094 48.96875 346.691406 48.3125 349.542969 C 47.660156 352.332031 47.28125 353.9375 47.28125 353.9375 " fill-opacity="1" fill-rule="nonzero"/><path fill="#f2f2f0" d="M 247.601562 352 C 247.601562 352 247.101562 350.78125 246.363281 348.648438 C 245.902344 347.617188 245.773438 346.203125 245.582031 344.515625 C 245.285156 342.800781 245.4375 340.960938 245.632812 338.914062 C 245.742188 336.847656 246.394531 334.726562 247.015625 332.445312 C 247.875 330.292969 248.644531 327.886719 250.007812 325.730469 C 251.203125 323.460938 252.695312 321.296875 254.339844 319.183594 C 255.984375 317.234375 258.066406 314.964844 259.890625 313.355469 C 261.605469 311.660156 264.117188 310.015625 266.292969 308.398438 C 268.613281 307.011719 270.914062 305.695312 273.300781 304.785156 C 277.964844 302.726562 282.699219 301.90625 286.65625 301.597656 C 288.621094 301.292969 290.464844 301.539062 292.054688 301.53125 C 293.648438 301.519531 295.03125 301.769531 296.167969 301.949219 C 298.425781 302.3125 299.6875 302.59375 299.6875 302.59375 C 299.6875 302.59375 298.4375 302.9375 296.246094 303.542969 C 295.167969 303.792969 293.859375 304.109375 292.394531 304.578125 C 290.949219 305.082031 289.277344 305.402344 287.566406 306.109375 C 285.847656 306.773438 283.964844 307.34375 282.105469 308.25 C 280.199219 309.023438 278.3125 310.0625 276.375 311.125 C 274.390625 312.082031 272.628906 313.632812 270.675781 314.777344 C 268.925781 316.234375 267.160156 317.351562 265.300781 319.261719 C 263.273438 320.960938 261.898438 322.390625 260.230469 324.191406 C 258.804688 325.984375 257.152344 327.613281 255.964844 329.472656 C 254.621094 331.234375 253.589844 333.066406 252.492188 334.804688 C 251.703125 336.613281 250.613281 338.289062 250.089844 339.976562 C 249.527344 341.652344 248.839844 343.210938 248.632812 344.605469 C 248.367188 345.996094 247.894531 347.285156 247.933594 348.441406 C 247.769531 350.691406 247.601562 352 247.601562 352 " fill-opacity="1" fill-rule="nonzero"/><path fill="#674c2a" d="M 106.191406 351.96875 C 94.203125 357.261719 73.023438 356.3125 71.011719 339.742188 C 69.488281 327.28125 82.179688 313.855469 92.683594 309.199219 C 105.8125 303.363281 124.296875 300.535156 128.910156 317.886719 C 133.003906 333.300781 118.761719 346.414062 106.191406 351.96875 " fill-opacity="1" fill-rule="nonzero"/><path fill="#674c2a" d="M 214.332031 334.296875 C 214.042969 335.242188 213.609375 336.238281 213.035156 337.285156 C 205.53125 350.964844 169.058594 351.96875 178.339844 331.1875 C 185.238281 315.714844 219.464844 317.867188 214.332031 334.296875 " fill-opacity="1" fill-rule="nonzero"/><path fill="#674c2a" d="M 300.589844 352.554688 C 289.8125 358.292969 274.039062 358.90625 268.996094 349.445312 C 264.730469 341.4375 268.066406 330.058594 274.03125 323.957031 C 280.160156 317.683594 289.683594 314.652344 297.832031 318.835938 C 304.253906 322.117188 312.527344 333.3125 310.964844 340.882812 C 309.996094 345.625 305.898438 349.71875 300.589844 352.554688 " fill-opacity="1" fill-rule="nonzero"/><g clip-path="url(#119b6a3700)"><g clip-path="url(#1e50830556)"><g clip-path="url(#8efa341b08)"><path fill="url(#c05ffaf406)" d="M 150.902344 147.089844 L 150.902344 211.679688 L 166.648438 211.679688 L 166.648438 147.089844 Z M 150.902344 147.089844 " fill-rule="nonzero"/></g></g></g><g clip-path="url(#f2e8bfa1e2)"><g clip-path="url(#3492d93dd6)"><g clip-path="url(#4f02123308)"><g clip-path="url(#813940fe8a)"><path fill="url(#131d448f3a)" d="M 282.722656 11.027344 L 46.609375 147.292969 L 198.292969 409.914062 L 434.40625 273.644531 Z M 282.722656 11.027344 " fill-rule="nonzero"/></g></g></g></g><g clip-path="url(#8b2f22227f)"><g clip-path="url(#305a760169)"><g clip-path="url(#9b2bbfd847)"><path fill="url(#a941275e23)" d="M 36.320312 235.558594 L 145.277344 235.558594 L 145.277344 121.089844 L 36.320312 121.089844 Z M 36.320312 235.558594 " fill-rule="nonzero"/></g></g></g><g clip-path="url(#60b4cfda8a)"><g clip-path="url(#b39624776c)"><g clip-path="url(#cb589cc858)"><g clip-path="url(#3e4b1d389f)"><path fill="url(#b006221dab)" d="M 21.058594 113.152344 L 149.109375 187.054688 L 235.332031 37.769531 L 107.28125 -36.132812 Z M 21.058594 113.152344 " fill-rule="nonzero"/></g></g></g></g><path fill="#346229" d="M 164.480469 223.429688 C 164.480469 223.429688 165.273438 220.421875 166.859375 215.222656 C 168.554688 210.078125 170.699219 202.566406 174.253906 193.894531 C 175.871094 189.488281 178.144531 184.90625 180.4375 180.019531 C 183.042969 175.277344 185.589844 170.132812 189.070312 165.292969 C 192.234375 160.25 196.179688 155.480469 200.242188 150.71875 C 202.421875 148.480469 204.632812 146.210938 206.839844 143.9375 C 209.417969 141.339844 211.652344 139.816406 214.078125 137.699219 C 218.597656 133.636719 224.488281 130.371094 229.804688 126.933594 C 235.324219 123.988281 240.785156 121.160156 246.21875 118.9375 C 257.039062 114.261719 267.355469 110.875 276.09375 107.804688 C 280.453125 106.261719 284.472656 104.847656 288.015625 103.59375 C 291.601562 102.414062 294.625 101.164062 297.105469 100.085938 C 302.105469 98.027344 305.046875 96.9375 305.046875 96.9375 C 305.046875 96.9375 302.457031 98.648438 297.789062 101.484375 C 295.480469 102.921875 292.628906 104.617188 289.238281 106.316406 C 285.863281 108.074219 282.09375 110.175781 277.839844 112.050781 C 269.449219 116.113281 259.425781 120.304688 249.167969 125.34375 C 243.929688 127.695312 238.941406 130.820312 233.722656 133.59375 C 228.898438 136.886719 223.851562 139.601562 219.160156 143.890625 C 216.898438 145.800781 214.007812 147.84375 212.265625 149.632812 C 210.140625 151.75 208.039062 153.863281 205.9375 155.949219 C 202.085938 160.425781 198.011719 164.632812 194.832031 169.328125 C 191.367188 173.816406 188.507812 178.519531 185.65625 182.890625 C 183.136719 187.488281 180.449219 191.6875 178.40625 195.824219 C 174.105469 203.972656 170.628906 210.878906 168.300781 215.792969 C 165.929688 220.675781 164.480469 223.429688 164.480469 223.429688 " fill-opacity="1" fill-rule="nonzero"/><path fill="#346229" d="M 176.839844 197.066406 C 176.839844 197.066406 177.34375 195.792969 178.347656 193.652344 C 178.71875 192.535156 179.949219 191.503906 181.136719 190.125 C 182.363281 188.632812 184.0625 187.824219 185.894531 186.53125 C 187.808594 185.644531 189.945312 184.46875 192.316406 183.917969 C 194.664062 183.195312 197.183594 182.640625 199.820312 182.382812 C 202.441406 182.152344 205.175781 181.863281 207.929688 182.058594 L 210 182.152344 L 212.199219 182.433594 L 216.148438 182.976562 C 218.722656 183.324219 221.417969 184.023438 224.078125 184.765625 C 226.835938 185.464844 229.191406 186.304688 231.566406 186.988281 C 233.957031 187.6875 236.242188 188.539062 238.304688 189 C 240.40625 189.464844 242.386719 190.28125 244.277344 190.519531 C 246.152344 190.832031 247.917969 191.21875 249.492188 191.5625 C 251.082031 191.707031 252.457031 191.84375 253.597656 191.945312 C 255.964844 192.226562 257.308594 192.394531 257.308594 192.394531 C 257.308594 192.394531 256.0625 192.851562 253.746094 193.527344 C 252.601562 193.839844 251.175781 194.332031 249.523438 194.628906 C 247.875 194.796875 245.972656 194.996094 243.886719 195.101562 C 241.78125 195.359375 239.554688 195.039062 237.144531 194.875 C 234.671875 194.730469 232.316406 194.34375 229.882812 193.839844 C 227.421875 193.34375 224.78125 192.925781 222.476562 192.335938 C 220.089844 191.738281 217.628906 191.175781 214.929688 190.890625 L 211.015625 190.210938 L 209.304688 189.914062 L 207.453125 189.769531 C 205.007812 189.5625 202.570312 189.40625 200.242188 189.40625 C 197.898438 189.453125 195.648438 189.46875 193.53125 189.746094 C 191.402344 189.90625 189.507812 190.445312 187.660156 190.761719 C 186.058594 191.46875 184.144531 191.738281 183.007812 192.523438 C 181.835938 193.324219 180.414062 193.632812 179.628906 194.578125 C 177.886719 196.191406 176.839844 197.066406 176.839844 197.066406 " fill-opacity="1" fill-rule="nonzero"/><path fill="#346229" d="M 200.875 160.023438 C 200.875 160.023438 202.007812 159.074219 203.976562 157.421875 C 205.023438 156.664062 206.105469 155.5625 207.710938 154.6875 C 209.25 153.75 211.015625 152.664062 213.023438 151.574219 C 215.078125 150.671875 217.324219 149.6875 219.753906 148.757812 C 222.367188 148.027344 224.640625 147.285156 227.988281 146.6875 C 230.714844 146.523438 233.410156 146.050781 236.363281 146.101562 C 239.402344 146.351562 242.699219 146.476562 245.621094 146.921875 C 248.5 147.457031 251.359375 148 254.199219 148.53125 C 255.570312 148.792969 256.933594 149.085938 258.285156 149.417969 L 260.105469 149.824219 L 262.125 150.160156 C 264.746094 150.46875 267.484375 151.335938 269.664062 151.3125 C 271.9375 151.34375 274.128906 151.90625 276.183594 151.703125 C 278.226562 151.566406 280.160156 151.527344 281.90625 151.496094 C 283.613281 151.238281 285.117188 151.015625 286.34375 150.832031 C 288.90625 150.519531 290.359375 150.332031 290.359375 150.332031 C 290.359375 150.332031 289.132812 151.109375 286.84375 152.347656 C 285.699219 152.941406 284.320312 153.761719 282.632812 154.46875 C 280.917969 155.035156 278.9375 155.671875 276.730469 156.265625 C 274.546875 157 271.984375 157 269.320312 157.285156 C 266.519531 157.65625 264.101562 157.292969 261.347656 157.164062 L 259.3125 157.035156 L 257.035156 156.773438 C 255.644531 156.597656 254.238281 156.394531 252.820312 156.144531 C 250.058594 155.722656 247.246094 155.277344 244.433594 154.839844 C 241.664062 154.328125 239.1875 154.199219 236.585938 153.824219 C 233.765625 153.792969 230.988281 153.75 228.304688 153.71875 C 225.855469 153.996094 223.484375 154.277344 221.226562 154.53125 C 218.933594 155.070312 216.707031 155.480469 214.625 155.867188 C 212.65625 156.480469 210.785156 156.960938 209.101562 157.40625 C 207.402344 157.796875 205.953125 158.460938 204.734375 158.820312 C 202.269531 159.585938 200.875 160.023438 200.875 160.023438 " fill-opacity="1" fill-rule="nonzero"/><path fill="#346229" d="M 248.957031 122.96875 C 248.957031 122.96875 252.40625 122.035156 257.578125 121.21875 C 258.878906 121.03125 260.28125 120.828125 261.765625 120.6875 C 263.273438 120.613281 264.726562 120.101562 266.292969 119.90625 C 269.40625 119.316406 272.703125 118.910156 276.007812 118.5 C 279.269531 117.78125 282.53125 117.019531 285.65625 116.535156 C 287.183594 116.167969 288.800781 116.210938 290.140625 115.691406 C 291.527344 115.261719 292.859375 114.933594 294.101562 114.628906 C 299.085938 113.4375 302.722656 112.957031 302.722656 112.957031 C 302.722656 112.957031 299.957031 115.09375 295.355469 117.832031 C 294.207031 118.519531 292.945312 119.246094 291.570312 119.9375 C 290.246094 120.769531 288.664062 121.09375 287.089844 121.625 C 283.921875 122.65625 280.46875 123.542969 277.011719 124.429688 C 273.453125 124.75 269.878906 125.082031 266.550781 125.1875 C 263.199219 125.445312 260.199219 125.03125 257.597656 124.660156 C 252.417969 123.882812 248.957031 122.96875 248.957031 122.96875 " fill-opacity="1" fill-rule="nonzero"/><path fill="#68b330" d="M 162.804688 217.757812 C 162.804688 217.757812 162.769531 214.753906 162.910156 209.523438 C 162.859375 206.902344 163.375 203.753906 163.921875 200.066406 C 164.308594 196.339844 165.265625 192.261719 166.601562 187.898438 C 167.621094 183.402344 169.761719 178.914062 171.695312 174.011719 C 174.117188 169.390625 176.332031 164.207031 179.667969 159.554688 C 182.691406 154.65625 186.273438 149.9375 190.097656 145.28125 C 192.046875 142.984375 194.175781 140.832031 196.21875 138.582031 C 197.351562 137.445312 198.113281 136.398438 199.535156 135.1875 L 202.851562 132.175781 C 207.058594 128.203125 212.589844 124.464844 217.609375 121.175781 C 220.230469 119.664062 222.828125 118.167969 225.40625 116.683594 C 228.089844 115.441406 230.738281 114.226562 233.355469 113.023438 C 238.953125 110.59375 243.917969 109.472656 248.878906 107.804688 C 253.652344 106.308594 258.585938 104.765625 262.910156 103.730469 C 271.574219 101.460938 278.898438 99.90625 283.976562 98.667969 C 289.074219 97.496094 292.023438 96.9375 292.023438 96.9375 C 292.023438 96.9375 289.277344 98.175781 284.429688 100.160156 C 279.550781 102.054688 272.660156 105.003906 264.261719 108.125 C 260.019531 109.664062 255.867188 111.503906 250.972656 113.40625 C 246.363281 115.371094 240.851562 117.230469 236.296875 119.429688 C 233.886719 120.679688 231.421875 121.960938 228.941406 123.242188 C 226.578125 124.710938 224.179688 126.199219 221.757812 127.699219 C 217.050781 130.9375 212.609375 133.894531 208.1875 138.148438 L 204.832031 141.105469 C 203.945312 141.78125 202.851562 143.09375 201.875 144.0625 C 199.898438 146.171875 197.820312 148.1875 195.941406 150.34375 C 192.292969 154.742188 188.53125 158.949219 185.5 163.480469 C 182.160156 167.804688 179.683594 172.460938 177.011719 176.695312 C 174.898438 181.207031 172.355469 185.269531 170.925781 189.417969 C 169.253906 193.484375 167.722656 197.210938 166.839844 200.652344 C 165.773438 204.066406 164.792969 207.074219 164.457031 209.691406 C 163.476562 214.832031 162.804688 217.757812 162.804688 217.757812 " fill-opacity="1" fill-rule="nonzero"/><path fill="#68b330" d="M 99.027344 9.652344 C 99.027344 9.652344 99.457031 10.011719 100.238281 10.679688 C 100.957031 11.441406 102.332031 12.160156 103.84375 13.125 C 107.121094 14.914062 112.160156 17.5625 117.65625 21.007812 C 120.449219 22.742188 123.519531 24.503906 126.621094 26.679688 C 129.664062 28.996094 132.925781 31.421875 136.1875 34.0625 C 137.839844 35.375 139.511719 36.707031 141.210938 38.066406 C 143.152344 40 144.183594 41.324219 145.683594 43.046875 C 148.605469 46.035156 151.015625 50.21875 153.496094 54.222656 C 156.015625 58.257812 157.285156 62.542969 159.195312 66.621094 C 160.699219 70.800781 161.679688 75.082031 162.8125 79.140625 C 163.539062 83.285156 164.195312 87.304688 164.644531 91.113281 C 164.894531 94.949219 165.015625 98.582031 165.109375 101.902344 C 164.988281 105.25 164.703125 108.304688 164.457031 110.984375 C 164.332031 113.679688 163.707031 115.992188 163.40625 117.886719 C 162.675781 121.6875 162.140625 123.800781 162.140625 123.800781 C 162.140625 123.800781 161.964844 121.578125 161.847656 117.769531 C 161.757812 115.867188 161.894531 113.578125 161.476562 110.949219 C 161.144531 108.324219 160.808594 105.382812 160.519531 102.191406 C 159.921875 99.019531 159.292969 95.605469 158.730469 91.996094 C 157.851562 88.457031 156.925781 84.726562 155.96875 80.867188 C 154.671875 77.136719 153.324219 73.289062 151.960938 69.375 C 150.152344 65.742188 148.792969 61.585938 146.582031 58.273438 C 144.527344 54.835938 142.8125 51.292969 139.761719 48.023438 C 138.480469 46.441406 137.210938 44.871094 135.953125 43.324219 C 134.433594 41.953125 132.941406 40.609375 131.464844 39.277344 C 128.496094 36.648438 125.722656 33.972656 123.046875 31.449219 C 120.167969 29.050781 117.457031 26.785156 114.941406 24.703125 C 109.964844 20.417969 105.820312 16.863281 102.921875 14.371094 C 99.902344 11.660156 99.171875 9.585938 99.027344 9.652344 " fill-opacity="1" fill-rule="nonzero"/><path fill="#68b330" d="M 45.972656 127.605469 C 45.972656 127.605469 48.121094 127.9375 51.816406 128.707031 C 55.46875 129.554688 60.792969 130.542969 67.023438 132.117188 C 67.808594 132.3125 68.605469 132.511719 69.417969 132.703125 C 70.773438 133.074219 71.148438 133.347656 72.082031 133.679688 C 73.675781 134.351562 75.332031 135.039062 77.023438 135.753906 C 78.71875 136.46875 80.457031 137.203125 82.238281 137.953125 C 83.992188 138.8125 85.714844 140.050781 87.507812 141.128906 C 91.015625 143.433594 95 145.507812 98.09375 148.5625 C 101.265625 151.539062 104.984375 154.074219 107.742188 157.570312 C 110.546875 161.050781 113.679688 164.039062 116.121094 167.90625 C 118.492188 171.386719 120.671875 174.882812 122.804688 178.304688 C 124.714844 182.023438 126.414062 185.675781 128.027344 189.117188 C 129.84375 192.464844 130.480469 196.035156 131.574219 199.117188 C 132.460938 202.265625 133.601562 205.039062 133.804688 207.730469 C 134.183594 210.347656 134.511719 212.632812 134.792969 214.515625 C 135.285156 218.261719 135.460938 220.390625 135.460938 220.390625 C 135.460938 220.390625 134.589844 218.371094 133.265625 214.871094 C 132.625 213.128906 131.847656 211.011719 130.953125 208.59375 C 130.222656 206.125 128.511719 203.660156 127.273438 200.785156 C 125.777344 198.015625 124.683594 194.746094 122.679688 191.792969 C 120.824219 188.765625 118.851562 185.601562 116.96875 182.269531 C 114.621094 179.03125 112.203125 175.675781 109.75 172.273438 C 107.648438 169.050781 104.457031 166.136719 101.875 163.007812 C 99.398438 159.6875 95.972656 157.304688 93.089844 154.464844 C 90.207031 151.539062 86.964844 149.457031 83.917969 147.175781 C 82.359375 146.074219 80.929688 144.910156 79.347656 143.863281 C 77.675781 142.925781 76.015625 142 74.410156 141.101562 C 72.808594 140.207031 71.25 139.332031 69.738281 138.480469 C 69.097656 138.121094 68.035156 137.425781 67.773438 137.375 C 66.988281 137.058594 66.242188 136.746094 65.5 136.4375 C 59.5625 134.015625 54.734375 131.660156 51.300781 130.167969 C 47.882812 128.605469 45.972656 127.605469 45.972656 127.605469 " fill-opacity="1" fill-rule="nonzero"/><path fill="#528b30" d="M 96.777344 21.5 C 96.777344 21.5 75.316406 104.636719 147.113281 137.335938 C 145.113281 77.574219 96.777344 21.5 96.777344 21.5 " fill-opacity="1" fill-rule="nonzero"/><path fill="#346229" d="M 107.046875 27.679688 C 107.046875 27.679688 108.523438 29.207031 110.925781 31.992188 C 113.238281 34.859375 116.867188 38.667969 120.636719 43.730469 C 124.460938 48.773438 128.945312 54.660156 133.023438 61.484375 C 135.0625 64.890625 137.472656 68.230469 139.214844 72.066406 C 141.085938 75.820312 142.988281 79.632812 144.886719 83.445312 C 146.390625 87.460938 147.878906 91.464844 149.351562 95.417969 C 151.050781 99.28125 151.484375 103.503906 152.570312 107.34375 C 153.546875 111.242188 154.417969 115.015625 154.628906 118.695312 C 155.035156 122.347656 155.316406 125.796875 155.566406 128.972656 C 156 132.125 155.570312 135.074219 155.488281 137.65625 C 155.339844 140.230469 155.21875 142.46875 155.109375 144.324219 C 154.875 148.003906 154.628906 150.082031 154.628906 150.082031 C 154.628906 150.082031 154.167969 147.996094 153.554688 144.375 C 153.261719 142.566406 152.914062 140.375 152.511719 137.863281 C 152.035156 135.378906 151.84375 132.53125 151 129.519531 C 150.257812 126.503906 149.46875 123.25 148.753906 119.800781 C 148.164062 116.324219 146.855469 112.824219 145.75 109.160156 C 144.519531 105.523438 143.675781 101.664062 142.039062 97.96875 C 140.570312 94.230469 139.058594 90.441406 137.554688 86.644531 C 134.054688 79.242188 130.707031 71.761719 126.921875 64.984375 C 125.054688 61.59375 123.503906 58.171875 121.671875 55.109375 C 119.894531 52.015625 118.296875 49.03125 116.824219 46.277344 C 113.855469 40.722656 111.375 36.097656 109.636719 32.867188 C 107.925781 29.605469 107.046875 27.679688 107.046875 27.679688 " fill-opacity="1" fill-rule="nonzero"/><path fill="#346229" d="M 110.050781 102.273438 C 110.078125 102.207031 110.542969 103.082031 111.679688 103.941406 C 112.632812 104.832031 114.554688 105.734375 116.742188 106.710938 C 117.867188 107.1875 119.097656 107.699219 120.386719 108.25 C 121.703125 108.761719 123.09375 109.308594 124.515625 109.871094 C 127.472656 110.988281 130.515625 112.398438 133.574219 113.777344 C 135.0625 114.449219 136.550781 115.121094 138.011719 115.792969 C 139.558594 116.4375 141.007812 117.34375 142.449219 118.125 C 145.277344 119.824219 147.824219 121.71875 149.582031 123.84375 C 150.519531 124.832031 151.234375 125.855469 151.699219 126.886719 C 152.222656 127.863281 152.679688 128.675781 152.839844 129.464844 C 153.261719 130.992188 153.371094 131.8125 153.371094 131.8125 C 153.371094 131.8125 152.734375 131.148438 151.824219 130.039062 C 150.921875 128.933594 149.324219 127.664062 147.304688 126.441406 C 145.347656 125.164062 142.8125 124.035156 140.066406 122.847656 C 137.160156 121.675781 134.054688 120.429688 130.949219 119.175781 C 127.945312 117.675781 124.933594 116.195312 122.210938 114.613281 C 120.921875 113.925781 119.390625 113 118.25 112.167969 C 117.023438 111.34375 115.894531 110.480469 114.890625 109.601562 C 112.839844 107.894531 111.464844 106.082031 110.703125 104.582031 C 109.984375 103.152344 110.15625 102.261719 110.050781 102.273438 " fill-opacity="1" fill-rule="nonzero"/><path fill="#346229" d="M 96.777344 33.183594 C 96.777344 33.183594 97.042969 33.835938 97.417969 34.988281 C 97.527344 35.625 98.066406 36.148438 98.421875 36.8125 C 98.757812 37.460938 99.472656 38.113281 100.019531 38.890625 C 101.242188 40.398438 103.035156 41.863281 104.9375 43.417969 C 105.878906 44.210938 106.933594 44.945312 107.972656 45.734375 C 109.074219 46.554688 110.003906 47.246094 111.203125 47.96875 C 113.445312 49.546875 115.671875 50.710938 117.890625 52.199219 C 120.09375 53.605469 122.042969 55.210938 123.558594 56.746094 C 125.074219 58.261719 126.046875 59.835938 126.5625 60.957031 C 127.09375 62.085938 127.332031 62.71875 127.332031 62.71875 C 127.332031 62.71875 126.820312 62.246094 125.941406 61.417969 C 125.179688 60.511719 123.714844 59.597656 122.121094 58.484375 C 120.515625 57.335938 118.375 56.414062 116.144531 55.257812 C 113.929688 54.175781 111.273438 52.816406 108.988281 51.316406 C 104.28125 48.15625 100.191406 44.070312 98.164062 40.140625 C 97.660156 39.15625 97.207031 38.316406 97.035156 37.34375 C 96.875 36.441406 96.5625 35.703125 96.652344 35.097656 C 96.699219 33.886719 96.777344 33.183594 96.777344 33.183594 " fill-opacity="1" fill-rule="nonzero"/><path fill="#346229" d="M 99.28125 66.230469 C 99.28125 66.230469 99.957031 66.886719 101.132812 68.039062 C 102.246094 69.296875 104.054688 70.578125 106.296875 72.085938 C 110.753906 75.140625 117.65625 77.464844 124.484375 80.652344 C 131.15625 83.695312 138.125 87.386719 141.914062 92 C 142.957031 93.023438 143.65625 94.175781 144.183594 95.257812 C 144.800781 96.265625 145.234375 97.175781 145.425781 98.019531 C 145.90625 99.628906 146.109375 100.519531 146.109375 100.519531 C 146.109375 100.519531 145.601562 99.734375 144.730469 98.363281 C 143.953125 96.972656 142.363281 95.285156 140.324219 93.609375 C 136.289062 90.089844 129.542969 87.421875 122.773438 84.273438 C 116.171875 81.234375 109.148438 77.929688 104.902344 73.859375 C 102.753906 71.964844 101.28125 69.859375 100.507812 68.496094 C 99.730469 67.054688 99.28125 66.230469 99.28125 66.230469 " fill-opacity="1" fill-rule="nonzero"/><g clip-path="url(#a2f5f6bab0)"><g clip-path="url(#1b763ba3e1)"><g clip-path="url(#16b402219c)"><path fill="url(#b7c12ae4cb)" d="M 137.144531 227.105469 L 137.144531 267.949219 L 164.007812 267.949219 L 164.007812 227.105469 Z M 137.144531 227.105469 " fill-rule="nonzero"/></g></g></g><path fill="#346229" d="M 168.027344 229.605469 C 168.027344 229.605469 170.394531 229.128906 174.527344 228.492188 C 176.597656 228.191406 179.109375 227.824219 181.992188 227.402344 C 184.90625 227.117188 188.058594 226.203125 191.46875 225.398438 C 194.800781 224.621094 198.40625 223.78125 202.226562 222.890625 C 206.097656 221.527344 210.160156 220.085938 214.371094 218.597656 C 218.710938 217.335938 222.664062 215.175781 226.957031 213.527344 C 229.078125 212.652344 231.21875 211.773438 233.359375 210.890625 L 239.65625 207.933594 C 244.199219 206.117188 247.695312 203.628906 251.707031 201.539062 C 255.386719 198.867188 259.386719 196.796875 262.710938 193.976562 C 266.207031 191.382812 269.527344 188.777344 272.503906 186.089844 C 275.609375 183.539062 278.292969 180.824219 280.902344 178.4375 C 283.523438 176.066406 285.699219 173.65625 287.804688 171.660156 C 289.90625 169.65625 291.605469 167.792969 293.007812 166.25 C 295.855469 163.207031 297.582031 161.515625 297.582031 161.515625 C 297.582031 161.515625 296.433594 163.613281 294.242188 167.199219 C 293.148438 168.992188 291.808594 171.164062 290.105469 173.550781 C 288.417969 175.933594 286.6875 178.800781 284.308594 181.527344 C 282.015625 184.328125 279.648438 187.488281 276.652344 190.402344 C 275.199219 191.910156 273.707031 193.457031 272.1875 195.039062 C 270.527344 196.496094 268.84375 197.976562 267.121094 199.480469 C 263.757812 202.601562 259.769531 205.234375 255.859375 208.066406 C 251.644531 210.417969 247.277344 213.425781 242.988281 215.210938 L 236.304688 218.183594 C 234.042969 219.0625 231.800781 219.9375 229.566406 220.800781 C 225.117188 222.46875 220.695312 224.308594 216.386719 225.335938 C 212.066406 226.464844 207.898438 227.566406 203.929688 228.59375 C 199.375 229.28125 195.683594 229.5625 191.976562 229.949219 C 188.347656 230.355469 185.046875 230.644531 182.136719 230.363281 C 179.230469 230.238281 176.691406 230.128906 174.605469 230.046875 C 170.421875 229.835938 168.027344 229.605469 168.027344 229.605469 " fill-opacity="1" fill-rule="nonzero"/><path fill="#346229" d="M 76.324219 187.71875 C 76.324219 187.71875 80.296875 190.546875 85.742188 195.273438 C 88.445312 197.625 91.425781 200.722656 94.679688 203.671875 C 96.28125 205.183594 97.988281 206.683594 99.613281 208.3125 C 101.253906 209.941406 103.171875 211.167969 104.9375 212.640625 L 107.585938 214.832031 L 108.242188 215.378906 C 108.269531 215.414062 108.65625 215.699219 108.375 215.511719 L 108.753906 215.738281 L 110.292969 216.632812 C 112.347656 217.71875 114.269531 219.191406 116.203125 220.109375 C 119.996094 221.792969 123.59375 223.542969 127.003906 224.765625 C 130.328125 226.132812 133.101562 227.273438 135.050781 228.078125 C 137 228.886719 138.09375 229.441406 138.09375 229.441406 C 138.09375 229.441406 133.242188 229.300781 126.054688 228.082031 C 122.460938 227.609375 118.25 226.378906 113.695312 224.765625 C 111.515625 223.886719 109.535156 222.796875 107.4375 221.683594 L 105.875 220.839844 L 105.488281 220.628906 C 104.9375 220.300781 105.128906 220.371094 104.902344 220.222656 L 104.183594 219.660156 L 101.242188 217.355469 C 99.359375 215.734375 97.289062 214.269531 95.625 212.53125 C 93.953125 210.804688 92.398438 209 90.863281 207.316406 C 87.777344 203.917969 85.417969 200.542969 83.246094 197.628906 C 78.945312 191.824219 76.324219 187.71875 76.324219 187.71875 " fill-opacity="1" fill-rule="nonzero"/><path fill="#528b30" d="M 226.632812 176.316406 C 222.441406 175.25 218.175781 174.585938 213.730469 174.976562 C 208.835938 175.40625 202.960938 178.238281 198.28125 178.085938 C 194.519531 177.96875 193.117188 176.375 196.566406 172.734375 C 212.222656 156.203125 234.921875 160.363281 254.953125 162.382812 C 261.507812 163.039062 271.425781 165.121094 269.816406 173.863281 C 268.933594 178.667969 263.363281 180.96875 258.804688 181.902344 C 247.246094 184.265625 237.160156 179 226.632812 176.316406 " fill-opacity="1" fill-rule="nonzero"/><path fill="#528b30" d="M 283.210938 145.527344 C 280.28125 146.125 277.148438 146.117188 274.320312 146.003906 C 269.007812 145.769531 264.035156 144.71875 258.964844 143.6875 C 252.894531 142.449219 246.34375 141.140625 240.136719 141.355469 C 238.433594 141.417969 230.550781 143.476562 231.585938 139.652344 C 232.257812 137.136719 239.949219 134.34375 242.160156 133.457031 C 246.597656 131.683594 251.421875 131 256.152344 130.574219 C 263.796875 129.882812 271.574219 129.75 279.351562 128.980469 C 282.6875 128.648438 287.566406 128.085938 290.648438 129.648438 C 295.449219 132.082031 293.101562 139.765625 289.609375 142.667969 C 287.78125 144.171875 285.5625 145.039062 283.210938 145.527344 " fill-opacity="1" fill-rule="nonzero"/><path fill="#528b30" d="M 226.992188 199.777344 C 230.988281 201.097656 233.835938 202.691406 231.925781 204.332031 C 229.289062 206.585938 225.542969 205.472656 222.460938 205.890625 C 219.816406 206.246094 217.480469 206.890625 214.765625 207.058594 C 207.28125 207.527344 199.742188 208.457031 192.601562 210.828125 C 189.042969 211.996094 174.335938 223.308594 173.433594 215.296875 C 172.628906 208.117188 186.578125 198.4375 192.128906 196.15625 C 199.199219 193.238281 206.464844 194.78125 213.609375 196.546875 C 214.792969 196.835938 221.851562 198.078125 226.992188 199.777344 " fill-opacity="1" fill-rule="nonzero"/><path fill="#528b30" d="M 53.53125 140.75 C 66.71875 144.441406 103.511719 147.441406 128.503906 220.503906 C 88.238281 220.59375 53.53125 140.75 53.53125 140.75 " fill-opacity="1" fill-rule="nonzero"/><path fill="#4a3328" d="M 174.832031 355.679688 C 171.671875 368.074219 156.625 374.941406 141.195312 371.019531 C 125.765625 367.082031 115.8125 353.859375 118.980469 341.457031 C 122.140625 329.0625 137.195312 322.191406 152.636719 326.132812 C 168.058594 330.046875 178.003906 343.277344 174.832031 355.679688 " fill-opacity="1" fill-rule="nonzero"/><path fill="#4a3328" d="M 338.460938 374.203125 C 326.066406 374.527344 307.785156 366.527344 319.945312 352.03125 C 325.5625 345.316406 333.253906 340.804688 342.023438 340.09375 C 354.042969 339.097656 370.933594 340.609375 365.765625 356.414062 C 361.628906 369.070312 351.300781 373.871094 338.460938 374.203125 " fill-opacity="1" fill-rule="nonzero"/><path fill="#4a3328" d="M 33.21875 373.160156 C 22.71875 373.433594 4.183594 367.53125 10.375 353.753906 C 16.011719 341.214844 32.117188 336.867188 43.824219 345.101562 C 49.015625 348.746094 54.867188 355.527344 53.53125 362.394531 C 51.753906 371.601562 40.910156 372.96875 33.21875 373.160156 " fill-opacity="1" fill-rule="nonzero"/><path fill="#4a3328" d="M 233.902344 370.082031 C 215.605469 374.925781 214.886719 353.683594 229.007812 348.355469 C 235.511719 345.902344 244.515625 347.226562 246.109375 354.824219 C 247.917969 363.359375 241.21875 368.144531 233.902344 370.082031 " fill-opacity="1" fill-rule="nonzero"/><path fill="#4a3328" d="M 269.339844 364.171875 C 269.339844 364.171875 270.34375 364.082031 272.066406 364.082031 C 273.769531 364.089844 276.261719 364.195312 278.988281 364.128906 C 280.355469 364.128906 281.8125 364.214844 283.320312 364.015625 C 284.828125 363.800781 286.410156 363.847656 287.972656 363.535156 C 289.539062 363.1875 291.121094 362.734375 292.738281 362.511719 C 294.007812 362.035156 296.394531 361.441406 297.722656 360.757812 C 300.664062 359.667969 303.785156 358.003906 306.316406 356.238281 C 307.703125 355.429688 308.667969 354.296875 309.886719 353.441406 C 310.9375 352.429688 311.78125 351.367188 312.734375 350.429688 C 313.492188 349.328125 314.183594 348.339844 314.796875 347.449219 C 315.519531 346.550781 315.757812 345.617188 316.183594 344.886719 C 316.960938 343.347656 317.425781 342.472656 317.425781 342.472656 C 317.425781 342.472656 317.589844 343.414062 317.746094 345.191406 C 317.746094 346.054688 318.035156 347.214844 317.714844 348.402344 C 317.492188 349.621094 317.296875 351.09375 316.800781 352.59375 C 316.148438 353.996094 315.546875 355.679688 314.542969 357.199219 C 313.410156 358.597656 312.445312 360.417969 310.871094 361.625 C 308.015625 364.511719 304.429688 366.625 300.347656 368.316406 C 298.1875 369.164062 296.824219 369.363281 294.546875 370.023438 C 292.484375 370.324219 290.414062 370.394531 288.46875 370.550781 C 286.503906 370.695312 284.632812 370.148438 282.886719 369.945312 C 281.113281 369.792969 279.550781 369.148438 278.136719 368.628906 C 275.226562 367.695312 273.152344 366.488281 271.660156 365.613281 C 270.167969 364.746094 269.339844 364.171875 269.339844 364.171875 " fill-opacity="1" fill-rule="nonzero"/><path fill="#4a3328" d="M 176.839844 352.261719 C 176.878906 352.148438 177.476562 353.34375 178.953125 354.199219 C 180.34375 355.117188 182.648438 355.847656 185.488281 356.089844 C 188.347656 356.304688 191.75 356.1875 195.335938 355.65625 C 197.128906 355.449219 198.9375 354.949219 200.71875 354.570312 C 202.601562 354.066406 203.917969 353.636719 205.382812 352.664062 C 207.339844 351.667969 208.914062 350.636719 210.324219 349.621094 C 211.761719 348.570312 213.308594 347.449219 214.636719 346.300781 C 215.835938 345.027344 217.289062 343.980469 218.203125 342.683594 C 219.316406 341.476562 220.199219 340.269531 220.875 339.03125 C 221.738281 337.84375 222.121094 336.632812 222.5625 335.515625 C 223.082031 334.394531 223.355469 333.359375 223.410156 332.480469 C 223.730469 330.621094 223.914062 329.570312 223.914062 329.570312 C 223.914062 329.570312 224.34375 330.503906 224.996094 332.386719 C 225.390625 333.332031 225.691406 334.519531 225.609375 335.914062 C 225.648438 337.328125 225.75 339.015625 225.175781 340.660156 C 224.960938 341.523438 224.726562 342.429688 224.488281 343.355469 C 224.117188 344.214844 223.648438 345.074219 223.199219 345.976562 C 222.371094 347.867188 221.0625 349.476562 219.714844 351.203125 C 218.242188 352.785156 216.800781 354.453125 214.921875 355.847656 C 213.015625 357.316406 211.132812 358.636719 209.382812 359.601562 C 207.28125 360.867188 204.542969 361.695312 202.402344 362.101562 C 200.140625 362.5625 197.910156 362.65625 195.785156 362.671875 C 191.535156 362.675781 187.53125 361.886719 184.3125 360.503906 C 181.050781 359.199219 178.71875 357.078125 177.722656 355.195312 C 176.691406 353.351562 176.992188 352.261719 176.839844 352.261719 " fill-opacity="1" fill-rule="nonzero"/><path fill="#4a3328" d="M 70.65625 359.277344 C 70.65625 359.277344 71.898438 359.675781 74.011719 360.476562 C 75.023438 360.992188 76.371094 361.253906 77.804688 361.460938 C 79.246094 361.695312 80.695312 362.0625 82.558594 362.09375 C 86.132812 362.386719 90.324219 362.421875 94.769531 361.957031 C 97 361.878906 99.269531 361.402344 101.570312 361.070312 C 103.898438 360.855469 106.117188 360.074219 108.394531 359.585938 C 110.648438 358.8125 112.492188 358.421875 114.847656 357.253906 C 117.152344 356.179688 118.972656 355.410156 120.992188 354.269531 C 125.011719 352.210938 128.472656 349.855469 131.511719 347.808594 C 132.867188 346.660156 134.371094 345.765625 135.429688 344.730469 C 136.488281 343.707031 137.628906 342.929688 138.324219 342.109375 C 139.886719 340.5 140.773438 339.585938 140.773438 339.585938 C 140.773438 339.585938 140.433594 340.804688 139.664062 342.988281 C 138.792969 345.109375 137.183594 348.042969 134.683594 351.140625 C 132.136719 354.152344 128.816406 357.496094 124.707031 360.273438 C 122.726562 361.636719 120.285156 363.253906 118.09375 364.269531 C 116.035156 365.398438 113.042969 366.417969 110.542969 367.304688 C 107.894531 367.792969 105.265625 368.550781 102.644531 368.730469 C 100.019531 369.0625 97.445312 369.117188 94.941406 368.988281 C 89.972656 368.90625 85.3125 367.957031 81.542969 366.566406 C 79.660156 366.078125 77.914062 365.027344 76.484375 364.21875 C 74.96875 363.449219 73.878906 362.648438 73.136719 361.808594 C 71.535156 360.234375 70.65625 359.277344 70.65625 359.277344 " fill-opacity="1" fill-rule="nonzero"/></svg>