<svg xmlns="http://www.w3.org/2000/svg" xmlns:xlink="http://www.w3.org/1999/xlink" width="500" zoomAndPan="magnify" viewBox="0 0 375 374.999991" height="500" preserveAspectRatio="xMidYMid meet" version="1.0"><defs><g/><clipPath id="25a2b01531"><path d="M 93 18 L 368.578125 18 L 368.578125 375 L 93 375 Z M 93 18 " clip-rule="nonzero"/></clipPath><clipPath id="ea38be2301"><path d="M 115 18 L 368.578125 18 L 368.578125 313 L 115 313 Z M 115 18 " clip-rule="nonzero"/></clipPath><clipPath id="3259327f8c"><path d="M 6.328125 199 L 94 199 L 94 288 L 6.328125 288 Z M 6.328125 199 " clip-rule="nonzero"/></clipPath></defs><g fill="#000000" fill-opacity="1"><g transform="translate(181.982805, 202.499987)"><g><path d="M 5.515625 0.171875 C 4.816406 0.171875 4.203125 0.03125 3.671875 -0.25 C 3.148438 -0.53125 2.75 -0.914062 2.46875 -1.40625 C 2.1875 -1.90625 2.046875 -2.46875 2.046875 -3.09375 C 2.046875 -3.71875 2.1875 -4.273438 2.46875 -4.765625 C 2.75 -5.265625 3.148438 -5.65625 3.671875 -5.9375 C 4.203125 -6.226562 4.816406 -6.375 5.515625 -6.375 C 6.210938 -6.375 6.820312 -6.234375 7.34375 -5.953125 C 7.875 -5.671875 8.28125 -5.28125 8.5625 -4.78125 C 8.84375 -4.289062 8.984375 -3.734375 8.984375 -3.109375 C 8.984375 -2.160156 8.664062 -1.375 8.03125 -0.75 C 7.40625 -0.132812 6.566406 0.171875 5.515625 0.171875 Z M 5.515625 0.171875 "/></g></g></g><g clip-path="url(#25a2b01531)"><path fill="#953528" d="M 93.769531 218.738281 L 93.769531 349.929688 C 93.769531 363.730469 104.953125 374.917969 118.75 374.917969 L 343.59375 374.917969 C 357.390625 374.917969 368.578125 363.730469 368.578125 349.929688 L 368.578125 43.8125 C 368.578125 30.011719 357.390625 18.824219 343.59375 18.824219 L 118.75 18.824219 C 104.953125 18.824219 93.769531 30.011719 93.769531 43.8125 Z M 93.769531 218.738281 " fill-opacity="1" fill-rule="nonzero"/></g><g clip-path="url(#ea38be2301)"><path fill="#c64635" d="M 343.59375 18.824219 L 118.75 18.824219 C 117.707031 18.824219 116.707031 19.003906 115.695312 19.128906 C 115.691406 20.070312 115.628906 21.003906 115.628906 21.945312 C 115.628906 170.324219 225.683594 292.921875 368.578125 312.707031 L 368.578125 43.8125 C 368.578125 30.011719 357.390625 18.824219 343.59375 18.824219 Z M 343.59375 18.824219 " fill-opacity="1" fill-rule="nonzero"/></g><path fill="#d9d5ca" d="M 118.75 264.546875 L 118.75 337.433594 C 118.75 344.339844 124.339844 349.929688 131.242188 349.929688 L 331.105469 349.929688 C 338.003906 349.929688 343.59375 344.339844 343.59375 337.433594 L 343.59375 56.304688 C 343.59375 49.402344 338.003906 43.8125 331.105469 43.8125 L 131.242188 43.8125 C 124.339844 43.8125 118.75 49.402344 118.75 56.304688 Z M 118.75 264.546875 " fill-opacity="1" fill-rule="nonzero"/><g clip-path="url(#3259327f8c)"><path fill="#5490f5" d="M 43.800781 199.996094 L 6.328125 262.335938 L 43.800781 256.21875 L 56.292969 287.457031 L 93.769531 218.738281 Z M 43.800781 199.996094 " fill-opacity="1" fill-rule="nonzero"/></g><path fill="#81b4fc" d="M 143.734375 199.996094 L 181.207031 262.335938 L 143.734375 256.21875 L 131.242188 287.457031 L 93.769531 218.738281 Z M 143.734375 199.996094 " fill-opacity="1" fill-rule="nonzero"/><path fill="#e8e4d8" d="M 118.75 64.679688 C 136.28125 184.886719 226.632812 281.402344 343.59375 308.105469 L 343.59375 56.304688 C 343.59375 49.402344 338.003906 43.8125 331.105469 43.8125 L 131.242188 43.8125 C 124.339844 43.8125 118.75 49.402344 118.75 56.304688 Z M 118.75 64.679688 " fill-opacity="1" fill-rule="nonzero"/><path fill="#d5d6d8" d="M 287.382812 62.554688 L 174.960938 62.554688 C 168.058594 62.554688 162.46875 56.960938 162.46875 50.058594 L 162.46875 12.574219 C 162.46875 5.671875 168.058594 0.0820312 174.960938 0.0820312 L 287.382812 0.0820312 C 294.285156 0.0820312 299.875 5.671875 299.875 12.574219 L 299.875 50.058594 C 299.875 56.960938 294.285156 62.554688 287.382812 62.554688 Z M 287.382812 62.554688 " fill-opacity="1" fill-rule="nonzero"/><path fill="#ffc239" d="M 168.714844 143.769531 C 168.871094 185.527344 135.339844 219.019531 93.769531 218.738281 C 51.960938 218.449219 18.464844 185.28125 18.820312 143.769531 C 19.175781 102.367188 52.378906 68.800781 93.769531 68.800781 C 135.15625 68.800781 168.558594 102.367188 168.714844 143.769531 Z M 168.714844 143.769531 " fill-opacity="1" fill-rule="nonzero"/><path fill="#ffd55d" d="M 149.980469 143.769531 C 149.980469 145.609375 149.890625 147.449219 149.707031 149.28125 C 149.527344 151.113281 149.257812 152.933594 148.898438 154.738281 C 148.539062 156.542969 148.09375 158.328125 147.558594 160.089844 C 147.023438 161.851562 146.40625 163.585938 145.699219 165.285156 C 144.996094 166.988281 144.210938 168.648438 143.339844 170.273438 C 142.472656 171.898438 141.527344 173.476562 140.503906 175.007812 C 139.484375 176.539062 138.386719 178.015625 137.21875 179.4375 C 136.050781 180.863281 134.816406 182.222656 133.515625 183.527344 C 132.214844 184.828125 130.851562 186.0625 129.429688 187.230469 C 128.003906 188.398438 126.527344 189.496094 124.996094 190.519531 C 123.464844 191.542969 121.890625 192.488281 120.265625 193.355469 C 118.640625 194.222656 116.980469 195.011719 115.277344 195.714844 C 113.578125 196.417969 111.847656 197.039062 110.085938 197.574219 C 108.324219 198.109375 106.539062 198.554688 104.734375 198.914062 C 102.929688 199.273438 101.109375 199.542969 99.277344 199.722656 C 97.445312 199.90625 95.609375 199.996094 93.769531 199.996094 C 91.925781 199.996094 90.089844 199.90625 88.257812 199.722656 C 86.425781 199.542969 84.605469 199.273438 82.800781 198.914062 C 80.996094 198.554688 79.210938 198.109375 77.449219 197.574219 C 75.6875 197.039062 73.957031 196.417969 72.257812 195.714844 C 70.554688 195.011719 68.894531 194.222656 67.269531 193.355469 C 65.644531 192.488281 64.070312 191.542969 62.539062 190.519531 C 61.007812 189.496094 59.53125 188.398438 58.109375 187.230469 C 56.683594 186.0625 55.320312 184.828125 54.019531 183.527344 C 52.71875 182.222656 51.484375 180.863281 50.316406 179.4375 C 49.148438 178.015625 48.050781 176.539062 47.03125 175.007812 C 46.007812 173.476562 45.0625 171.898438 44.195312 170.273438 C 43.324219 168.648438 42.539062 166.988281 41.835938 165.285156 C 41.132812 163.585938 40.511719 161.851562 39.976562 160.089844 C 39.441406 158.328125 38.996094 156.542969 38.636719 154.738281 C 38.277344 152.933594 38.007812 151.113281 37.828125 149.28125 C 37.648438 147.449219 37.554688 145.609375 37.554688 143.769531 C 37.554688 141.925781 37.648438 140.089844 37.828125 138.257812 C 38.007812 136.425781 38.277344 134.605469 38.636719 132.800781 C 38.996094 130.992188 39.441406 129.210938 39.976562 127.449219 C 40.511719 125.683594 41.132812 123.953125 41.835938 122.253906 C 42.539062 120.550781 43.324219 118.886719 44.195312 117.265625 C 45.0625 115.640625 46.007812 114.0625 47.03125 112.53125 C 48.050781 111 49.148438 109.523438 50.316406 108.101562 C 51.484375 106.675781 52.71875 105.3125 54.019531 104.011719 C 55.320312 102.710938 56.683594 101.472656 58.109375 100.304688 C 59.53125 99.136719 61.007812 98.042969 62.539062 97.019531 C 64.070312 95.996094 65.644531 95.050781 67.269531 94.183594 C 68.894531 93.3125 70.554688 92.527344 72.257812 91.824219 C 73.957031 91.117188 75.6875 90.5 77.449219 89.964844 C 79.210938 89.429688 80.996094 88.984375 82.800781 88.625 C 84.605469 88.265625 86.425781 87.996094 88.257812 87.8125 C 90.089844 87.632812 91.925781 87.542969 93.769531 87.542969 C 95.609375 87.542969 97.445312 87.632812 99.277344 87.8125 C 101.109375 87.996094 102.929688 88.265625 104.734375 88.625 C 106.539062 88.984375 108.324219 89.429688 110.085938 89.964844 C 111.847656 90.5 113.578125 91.117188 115.277344 91.824219 C 116.980469 92.527344 118.640625 93.3125 120.265625 94.183594 C 121.890625 95.050781 123.464844 95.996094 124.996094 97.019531 C 126.527344 98.042969 128.003906 99.136719 129.429688 100.304688 C 130.851562 101.472656 132.214844 102.710938 133.515625 104.011719 C 134.816406 105.3125 136.050781 106.675781 137.21875 108.101562 C 138.386719 109.523438 139.484375 111 140.503906 112.53125 C 141.527344 114.0625 142.472656 115.640625 143.339844 117.265625 C 144.210938 118.886719 144.996094 120.550781 145.699219 122.253906 C 146.40625 123.953125 147.023438 125.683594 147.558594 127.449219 C 148.09375 129.210938 148.539062 130.992188 148.898438 132.800781 C 149.257812 134.605469 149.527344 136.425781 149.707031 138.257812 C 149.890625 140.089844 149.980469 141.925781 149.980469 143.769531 Z M 149.980469 143.769531 " fill-opacity="1" fill-rule="nonzero"/><path fill="#f4ac1c" d="M 81.277344 168.757812 C 80.945312 168.757812 80.609375 168.734375 80.277344 168.675781 C 78.296875 168.351562 76.59375 167.101562 75.691406 165.304688 L 63.203125 140.3125 L 74.375 134.722656 L 82.988281 151.960938 L 120.582031 114.355469 L 129.410156 123.191406 L 85.691406 166.921875 C 84.511719 168.109375 82.917969 168.757812 81.277344 168.757812 Z M 81.277344 168.757812 " fill-opacity="1" fill-rule="nonzero"/><path fill="#f1f1f3" d="M 287.382812 0.0820312 L 181.207031 0.0820312 L 181.207031 31.316406 C 181.207031 38.21875 186.796875 43.8125 193.699219 43.8125 L 299.875 43.8125 L 299.875 12.574219 C 299.875 5.671875 294.285156 0.0820312 287.382812 0.0820312 Z M 287.382812 0.0820312 " fill-opacity="1" fill-rule="nonzero"/><path fill="#c64635" d="M 204.109375 137.523438 C 202.253906 137.523438 200.5 136.695312 199.3125 135.273438 L 188.902344 122.777344 L 198.496094 114.78125 L 204.105469 121.515625 L 220.125 102.285156 L 229.71875 110.285156 L 208.902344 135.273438 C 207.71875 136.695312 205.960938 137.523438 204.109375 137.523438 Z M 204.109375 137.523438 " fill-opacity="1" fill-rule="nonzero"/><path fill="#c64635" d="M 204.109375 199.996094 C 202.253906 199.996094 200.5 199.171875 199.3125 197.75 L 188.902344 185.257812 L 198.496094 177.261719 L 204.105469 183.996094 L 220.125 164.765625 L 229.71875 172.761719 L 208.902344 197.75 C 207.71875 199.171875 205.960938 199.996094 204.109375 199.996094 Z M 204.109375 199.996094 " fill-opacity="1" fill-rule="nonzero"/><path fill="#88857c" d="M 243.664062 106.285156 L 324.859375 106.285156 L 324.859375 118.78125 L 243.664062 118.78125 Z M 243.664062 106.285156 " fill-opacity="1" fill-rule="nonzero"/><path fill="#88857c" d="M 243.664062 125.027344 L 324.859375 125.027344 L 324.859375 137.523438 L 243.664062 137.523438 Z M 243.664062 125.027344 " fill-opacity="1" fill-rule="nonzero"/><path fill="#88857c" d="M 243.664062 168.757812 L 324.859375 168.757812 L 324.859375 181.253906 L 243.664062 181.253906 Z M 243.664062 168.757812 " fill-opacity="1" fill-rule="nonzero"/><path fill="#88857c" d="M 243.664062 187.5 L 324.859375 187.5 L 324.859375 199.996094 L 243.664062 199.996094 Z M 243.664062 187.5 " fill-opacity="1" fill-rule="nonzero"/><path fill="#c64635" d="M 204.109375 262.46875 C 202.253906 262.46875 200.5 261.644531 199.3125 260.226562 L 188.902344 247.730469 L 198.496094 239.726562 L 204.105469 246.460938 L 220.125 227.234375 L 229.71875 235.234375 L 208.902344 260.226562 C 207.71875 261.644531 205.960938 262.46875 204.109375 262.46875 Z M 204.109375 262.46875 " fill-opacity="1" fill-rule="nonzero"/><path fill="#c64635" d="M 204.109375 324.941406 C 202.253906 324.941406 200.5 324.117188 199.3125 322.699219 L 188.902344 310.203125 L 198.496094 302.199219 L 204.105469 308.933594 L 220.125 289.707031 L 229.71875 297.707031 L 208.902344 322.699219 C 207.71875 324.117188 205.960938 324.941406 204.109375 324.941406 Z M 204.109375 324.941406 " fill-opacity="1" fill-rule="nonzero"/><path fill="#88857c" d="M 243.664062 231.230469 L 324.859375 231.230469 L 324.859375 243.726562 L 243.664062 243.726562 Z M 243.664062 231.230469 " fill-opacity="1" fill-rule="nonzero"/><path fill="#88857c" d="M 243.664062 249.972656 L 324.859375 249.972656 L 324.859375 262.46875 L 243.664062 262.46875 Z M 243.664062 249.972656 " fill-opacity="1" fill-rule="nonzero"/><path fill="#88857c" d="M 243.664062 293.703125 L 324.859375 293.703125 L 324.859375 306.199219 L 243.664062 306.199219 Z M 243.664062 293.703125 " fill-opacity="1" fill-rule="nonzero"/><path fill="#88857c" d="M 243.664062 312.445312 L 324.859375 312.445312 L 324.859375 324.941406 L 243.664062 324.941406 Z M 243.664062 312.445312 " fill-opacity="1" fill-rule="nonzero"/></svg>