<svg xmlns="http://www.w3.org/2000/svg" xmlns:xlink="http://www.w3.org/1999/xlink" width="500" zoomAndPan="magnify" viewBox="0 0 375 374.999991" height="500" preserveAspectRatio="xMidYMid meet" version="1.0"><defs><clipPath id="a8af9aa4b0"><path d="M 9 155 L 366 155 L 366 323.714844 L 9 323.714844 Z M 9 155 " clip-rule="nonzero"/></clipPath></defs><path fill="#98c43d" d="M 332.515625 316.109375 L 42.199219 316.109375 C 26.648438 316.109375 14.859375 302.074219 17.550781 286.757812 L 35.589844 183.929688 C 37.691406 171.957031 48.085938 163.226562 60.238281 163.226562 L 313 163.226562 C 325.023438 163.226562 335.34375 171.773438 337.585938 183.585938 L 357.101562 286.414062 C 360.027344 301.832031 348.207031 316.109375 332.515625 316.109375 Z M 332.515625 316.109375 " fill-opacity="1" fill-rule="nonzero"/><g clip-path="url(#a8af9aa4b0)"><path fill="#15395d" d="M 332.515625 323.785156 L 42.199219 323.785156 C 32.511719 323.785156 23.386719 319.527344 17.160156 312.113281 C 10.929688 304.695312 8.320312 294.96875 9.992188 285.429688 L 28.035156 182.601562 C 30.785156 166.929688 44.328125 155.554688 60.238281 155.554688 L 313 155.554688 C 328.6875 155.554688 342.199219 166.742188 345.125 182.15625 L 364.640625 284.984375 C 366.460938 294.585938 363.933594 304.410156 357.699219 311.9375 C 351.464844 319.464844 342.289062 323.785156 332.515625 323.785156 Z M 60.238281 170.898438 C 51.792969 170.898438 44.605469 176.9375 43.144531 185.253906 L 25.105469 288.082031 C 24.214844 293.144531 25.601562 298.308594 28.910156 302.246094 C 32.214844 306.179688 37.058594 308.4375 42.199219 308.4375 L 332.515625 308.4375 C 337.703125 308.4375 342.574219 306.148438 345.882812 302.152344 C 349.191406 298.15625 350.53125 292.941406 349.566406 287.84375 L 330.050781 185.019531 C 328.496094 176.835938 321.328125 170.898438 313 170.898438 Z M 60.238281 170.898438 " fill-opacity="1" fill-rule="nonzero"/></g><path fill="#f9f8ce" d="M 230.285156 150.980469 C 227.089844 154.933594 219.277344 153.96875 214.558594 155.199219 C 211.980469 158.882812 206.019531 160.019531 202.066406 161.976562 C 195.648438 164.304688 188.945312 167.238281 181.984375 166.628906 C 181.742188 171.753906 175.609375 172.109375 171.78125 173.257812 C 168.6875 178.199219 163.507812 183.046875 157.277344 182.542969 C 151.269531 182.167969 146.945312 176.230469 147.574219 170.398438 C 147.777344 167.398438 148.945312 164.671875 150.566406 162.183594 C 151.351562 157.164062 153.902344 152.582031 153.503906 147.429688 C 146.757812 146.9375 138.441406 147.269531 133.445312 142.019531 C 131.429688 139.484375 131.523438 135.628906 134.015625 133.460938 C 132.042969 132.386719 132.078125 129.640625 133.554688 128.140625 C 136 125.5625 139.976562 125.660156 143.277344 125.273438 C 149.027344 125.046875 154.699219 123.644531 160.457031 123.804688 C 168.117188 123.792969 175.753906 123.804688 183.300781 125.210938 C 188.949219 125.25 194.5625 125.816406 200.152344 126.566406 C 205.800781 127.707031 211.304688 129.511719 216.839844 131.097656 C 222.324219 132.40625 228.171875 133.171875 233.082031 136.085938 C 241.085938 139.960938 238.863281 149.890625 230.285156 150.980469 Z M 230.285156 150.980469 " fill-opacity="1" fill-rule="nonzero"/><path fill="#6a4f42" d="M 290.222656 243.667969 C 288.160156 243.644531 282.8125 243.386719 281.757812 245.480469 C 279.5 250.960938 275.414062 256.066406 269.992188 258.640625 C 266.242188 260.003906 262.09375 260.5 258.117188 260.402344 C 255.890625 260.148438 253.84375 259.128906 251.746094 258.417969 C 249.226562 257.542969 246.355469 256.96875 243.738281 256.769531 C 241.484375 256.421875 239.210938 257.125 236.988281 256.839844 C 235.914062 256.496094 235.324219 255.4375 234.863281 254.484375 C 232.472656 248.316406 232.761719 241.304688 229.625 235.390625 C 228.789062 238.988281 228.019531 242.65625 226.847656 246.152344 C 226.078125 247.894531 223.886719 247.160156 222.378906 247.40625 C 215.789062 247.289062 209.449219 250.21875 202.855469 249.621094 C 199.414062 249.074219 196.597656 246.832031 193.539062 245.316406 C 191.140625 244.128906 188.472656 243.5625 185.796875 243.738281 C 177.511719 244.269531 167.886719 249.085938 163.484375 238.917969 C 162.878906 237.777344 162.582031 236.445312 161.765625 235.429688 C 157.871094 237.289062 155.480469 240.972656 151.867188 243.140625 C 149.46875 244.054688 148.636719 241.683594 148.785156 239.722656 C 148.800781 239.574219 148.769531 239.355469 148.734375 239.21875 L 148.730469 239.21875 C 144.375 240.109375 140.804688 242.96875 136.839844 244.785156 C 134.503906 245.71875 132.003906 246.078125 129.589844 246.753906 C 124.53125 247.867188 119.445312 250.550781 114.167969 249.648438 C 111.972656 249.207031 110.582031 247.4375 109.320312 245.730469 C 106.707031 242.921875 102.421875 243.8125 98.996094 243.351562 C 91.117188 242.429688 83.265625 242.59375 75.4375 243.671875 C 70.828125 244.082031 66.523438 244.390625 63.09375 240.660156 C 62.082031 239.65625 60.648438 238.144531 61.410156 236.628906 C 61.707031 236.121094 62.300781 235.914062 62.792969 235.644531 C 65.910156 233.929688 68.964844 232.101562 71.9375 230.15625 C 75.925781 227.542969 79.273438 224.125 83.03125 221.21875 C 89.488281 215.898438 95.617188 209.867188 100.835938 203.382812 C 103.554688 199.742188 106.296875 196.152344 108.304688 192.054688 C 109.042969 189.886719 109.53125 187.613281 110.71875 185.605469 C 112.308594 182.390625 114.417969 179.472656 116.066406 176.292969 C 117.441406 173.464844 118.597656 170.535156 119.644531 167.621094 C 120.273438 165.890625 120.582031 164.085938 120.992188 162.296875 C 121.632812 159.824219 122.515625 157.40625 123.066406 154.90625 C 123.496094 151.96875 124.320312 149.121094 124.992188 146.238281 C 125.578125 141.757812 126.082031 137.167969 127.816406 132.960938 C 129.046875 130.566406 130.738281 125.886719 134.03125 127.253906 C 134.558594 126.984375 135.097656 126.746094 135.523438 126.484375 C 136.734375 125.75 138.355469 126.199219 139.597656 126.292969 C 144.375 126.417969 149.363281 126.382812 154.109375 126.171875 C 158.589844 126.199219 162.96875 124.101562 167.414062 125.367188 C 171.109375 126.386719 174.832031 127.390625 178.652344 127.816406 C 181.132812 127.933594 183.625 127.757812 186.101562 128.085938 C 189.671875 128.171875 193.335938 127.835938 196.820312 128.792969 C 199.847656 130.128906 202.703125 131.832031 205.925781 132.613281 C 209.382812 133.074219 212.839844 132.933594 216.179688 134.015625 C 222.851562 136.363281 217.539062 141.582031 212.667969 140.992188 C 205.433594 140.628906 198.429688 137.039062 191.082031 138.589844 C 186.113281 139.484375 180.996094 139.019531 176.160156 137.703125 C 174.382812 137.578125 172.570312 137.859375 170.824219 137.363281 C 169.394531 136.929688 167.894531 136.390625 166.648438 135.632812 C 164.433594 134.585938 162.167969 133.660156 160.078125 132.355469 C 159.558594 132.121094 159.097656 131.65625 159.226562 131.035156 C 159.820312 129.289062 162.550781 129.699219 164.035156 129.636719 C 165.402344 129.664062 165.390625 131.707031 164.035156 131.71875 C 163.410156 131.707031 162.792969 131.707031 162.171875 131.730469 C 163.722656 132.648438 165.386719 133.339844 166.941406 134.210938 C 169.019531 135.320312 170.101562 136.726562 172.617188 135.644531 C 174.949219 134.714844 177.230469 133.496094 179.824219 133.867188 C 182.648438 134.011719 185.5625 134.429688 188 135.949219 C 190.597656 136.84375 193.382812 135.945312 196.054688 136.042969 C 198.890625 136.175781 201.734375 136.453125 204.519531 137 C 207.847656 137.640625 214.101562 140.0625 216.847656 137.613281 C 217.722656 136.664062 216.175781 135.960938 215.492188 135.507812 C 211.921875 133.894531 207.867188 134.511719 204.21875 133.265625 C 201.816406 132.296875 199.429688 131.246094 197.089844 130.144531 C 196.046875 129.546875 194.839844 129.535156 193.679688 129.421875 C 191.722656 129.171875 189.753906 129.144531 187.785156 129.226562 C 185.164062 129.109375 182.554688 128.847656 179.921875 128.96875 C 176.34375 128.894531 172.84375 127.96875 169.378906 127.140625 C 167.6875 126.65625 165.957031 126.207031 164.179688 126.34375 C 162.316406 126.476562 160.625 127.210938 158.832031 127.640625 C 156.066406 128.265625 153.222656 128.472656 150.390625 128.597656 C 146.304688 128.570312 142.167969 128.992188 138.113281 128.394531 C 137.671875 128.71875 137.234375 129.054688 136.800781 129.402344 C 137.066406 130.503906 135.8125 131.722656 135.058594 132.445312 C 136.742188 134.695312 139.371094 135.140625 141.9375 135.660156 C 143.625 136.15625 145.367188 136.476562 147.128906 136.417969 C 149.140625 136.289062 150.90625 135.605469 152.878906 135.398438 C 155.144531 135.046875 154.632812 137.65625 156.324219 138.078125 C 157.996094 138.167969 159.445312 137.175781 160.996094 136.699219 C 163.652344 135.808594 162.984375 140.242188 163.035156 141.757812 C 162.105469 151.378906 161.296875 161.046875 161.980469 170.726562 C 163.390625 165.5 164.789062 160.265625 166.515625 155.136719 C 167.632812 151.957031 169.046875 148.878906 170 145.644531 C 170.199219 144.539062 170.664062 143.667969 171.941406 143.921875 C 175 144.699219 177.765625 143.09375 180.734375 142.722656 C 182.542969 142.480469 184.4375 142.441406 186.234375 142.609375 C 187.90625 142.542969 189.542969 143.195312 190.554688 144.558594 C 191.058594 145.09375 191.292969 145.703125 191.691406 146.125 C 191.992188 146.101562 192.292969 146.089844 192.582031 146.175781 C 193.457031 146.464844 193.90625 147.363281 194.261719 148.152344 C 195.324219 150.589844 196.246094 153.085938 197.019531 155.628906 C 198.167969 152.859375 198.777344 149.910156 199.5 147.011719 C 199.695312 146.28125 199.785156 145.398438 200.507812 145.035156 C 204.273438 145.011719 208.074219 144.601562 211.839844 144.433594 C 214.253906 144.734375 216.433594 146 218.8125 146.484375 C 220.835938 146.925781 222.957031 146.652344 224.792969 145.699219 C 225.789062 145.25 226.65625 144.351562 227.804688 144.367188 C 228.496094 144.382812 229.292969 144.582031 229.949219 144.324219 C 232.027344 143.367188 233.578125 141.667969 235.558594 140.5625 C 237.949219 138.863281 238.789062 140.9375 239.03125 143.074219 C 239.667969 145.984375 240.734375 148.792969 241.074219 151.773438 C 242.355469 163.609375 248.875 162.890625 251.144531 172.589844 C 252.445312 176.742188 251.691406 181.226562 253.148438 185.328125 C 256.34375 193.027344 256.855469 198.320312 264.5 203.09375 C 267.285156 205.128906 270.484375 206.429688 273.445312 208.15625 C 277.714844 211.335938 282.21875 214.527344 285.34375 218.898438 C 287.0625 221.335938 288.320312 224.074219 290.183594 226.40625 C 292.75 229.570312 295.8125 232.289062 298.71875 235.128906 C 300.421875 236.738281 302.9375 237.351562 304.414062 239.171875 C 306.625 244.398438 293.09375 243.621094 290.222656 243.667969 Z M 219.34375 141.789062 C 220.101562 144.273438 222.859375 143.390625 224.554688 142.488281 C 226.257812 141.726562 227.917969 140.34375 228.027344 138.351562 C 228.128906 137.34375 227.722656 136.375 226.878906 135.808594 C 226.226562 135.21875 225.742188 134.472656 225.121094 133.855469 C 224.914062 133.632812 224.40625 133.742188 224.449219 134.160156 C 224.476562 134.433594 224.660156 134.6875 224.792969 134.921875 C 226.230469 137.074219 225.46875 137.523438 223.328125 138.332031 C 221.472656 138.867188 218.757812 139.152344 219.34375 141.789062 Z M 216.726562 254.527344 C 213.554688 253.367188 210.347656 254.378906 207.113281 254.820312 C 206.179688 254.230469 205.234375 253.667969 204.234375 253.195312 C 201.425781 251.636719 198.355469 250.789062 195.265625 249.992188 C 193.839844 249.542969 192.492188 248.808594 190.984375 248.644531 C 188.890625 247.878906 186.742188 247.125 184.472656 247.316406 C 178.90625 248.066406 172.808594 247.859375 167.890625 250.90625 C 164.214844 250.773438 160.292969 251.28125 157.003906 252.941406 C 153.824219 255.644531 155.722656 259.453125 159.414062 260.246094 C 161.914062 261.726562 166.488281 262.085938 169.199219 260.546875 C 170.9375 260.65625 172.59375 261.152344 174.234375 261.710938 C 177.605469 262.738281 181.128906 263.265625 184.648438 263.34375 C 189.042969 263.566406 193.324219 262.414062 197.300781 260.617188 C 199.996094 260.882812 202.652344 260.566406 205.308594 261.246094 C 207.941406 261.625 210.546875 262.476562 213.210938 262.519531 C 213.753906 262.46875 214.253906 262.15625 214.589844 261.722656 C 215.308594 261.585938 216.015625 261.402344 216.695312 261.160156 C 220.148438 259.957031 220.242188 255.710938 216.726562 254.527344 Z M 160.042969 249.257812 C 161.757812 249.441406 163.371094 247.90625 162.503906 246.203125 C 161.402344 244.125 158.398438 243.898438 156.464844 244.84375 C 155.199219 245.421875 154.625 247.203125 155.652344 248.261719 C 156.789062 249.398438 158.574219 249.023438 160.042969 249.257812 Z M 143.453125 257.949219 C 142.46875 257.476562 141.257812 258.117188 140.976562 259.132812 C 139.898438 260.605469 141.492188 262.183594 142.914062 262.578125 C 146.507812 263.320312 146.414062 258.976562 143.453125 257.949219 Z M 143.453125 257.949219 " fill-opacity="1" fill-rule="nonzero"/><path fill="#98c43d" d="M 232.433594 67.152344 C 232.191406 68.015625 231.3125 68.457031 230.6875 69.027344 C 228.980469 70.417969 227.210938 71.855469 225.167969 72.710938 C 224.511719 73.148438 223.5625 73.378906 223.101562 73.996094 C 223.03125 74.550781 223.136719 75.082031 223.335938 75.589844 C 225.132812 76.808594 226.886719 78.519531 226.855469 80.777344 C 226.9375 81.929688 227.191406 83.097656 226.976562 84.25 C 226.332031 86.449219 223.617188 87.363281 221.546875 87.132812 C 217.953125 86.746094 214.902344 84.570312 211.871094 82.769531 C 210.753906 83.34375 209.609375 82.371094 208.640625 81.882812 C 206.609375 80.671875 204.546875 79.507812 202.582031 78.210938 C 201.640625 79.65625 200.496094 80.769531 198.859375 79.441406 C 198.070312 79.40625 196.941406 78.851562 197.238281 77.898438 C 195.410156 75.878906 193.757812 73.734375 192.398438 71.371094 C 191.535156 72.550781 190.371094 73.488281 189.832031 74.886719 C 189.679688 75.730469 188.992188 76.445312 188.144531 76.617188 C 184.253906 77.152344 181.996094 73.367188 179.652344 70.945312 C 178.492188 69.714844 177.632812 71.976562 176.976562 72.710938 C 177.433594 75.082031 174.75 76.214844 172.910156 76.769531 C 170.714844 77.1875 169.851562 74.316406 171.597656 73.144531 C 171.339844 72.648438 171.15625 72.121094 170.980469 71.589844 C 169.300781 71.410156 167.628906 71.617188 165.984375 71.976562 C 166.234375 72.679688 166.457031 73.390625 166.503906 74.144531 C 166.632812 75.78125 166.316406 77.421875 166.484375 79.046875 C 166.484375 79.046875 166.484375 79.054688 166.488281 79.058594 C 166.566406 79.421875 166.632812 79.792969 166.6875 80.160156 C 166.734375 80.332031 166.792969 80.5 166.855469 80.671875 C 167.199219 82.644531 167.929688 84.492188 168.589844 86.375 C 168.820312 87.210938 169.054688 88.050781 169.292969 88.890625 C 169.730469 89.4375 170.160156 89.988281 170.515625 90.570312 C 171.636719 91.664062 172.863281 92.710938 173.84375 93.933594 C 175.171875 95.035156 176.351562 98.199219 177.019531 99.078125 C 178.136719 101.164062 180.175781 103.109375 180.832031 105.425781 C 181.769531 106.445312 182.59375 107.558594 183.175781 108.828125 C 184.808594 112.546875 185.46875 116.582031 186.414062 120.519531 C 186.839844 121.714844 187.085938 122.964844 187.378906 124.203125 C 187.625 124.90625 187.90625 125.601562 188.1875 126.292969 C 188.320312 126.484375 188.445312 126.679688 188.566406 126.875 C 188.671875 126.78125 188.804688 126.714844 188.949219 126.695312 C 189.761719 126.632812 189.679688 127.558594 189.875 128.101562 C 190.96875 131.085938 192.886719 133.6875 193.980469 136.679688 C 194.078125 136.921875 194.171875 137.167969 194.265625 137.414062 C 195.132812 139.15625 195.957031 140.921875 196.53125 142.777344 C 196.675781 142.945312 196.761719 143.171875 196.734375 143.457031 C 196.867188 143.945312 196.980469 144.4375 197.078125 144.941406 C 197.253906 145.957031 197.640625 147.398438 197.300781 148.429688 C 197.609375 150.089844 198.441406 151.816406 198.152344 153.492188 C 198.074219 153.699219 197.949219 153.871094 197.796875 154.003906 C 197.828125 154.269531 197.859375 154.53125 197.886719 154.792969 C 197.933594 155.113281 197.980469 155.433594 198.027344 155.753906 C 198.046875 155.894531 198.046875 156.027344 198.03125 156.152344 C 198.03125 156.15625 198.03125 156.160156 198.03125 156.160156 C 198.171875 157.648438 198.269531 159.140625 198.292969 160.640625 C 198.472656 164.296875 197.875 167.921875 198 171.582031 C 198 171.667969 197.996094 171.757812 198 171.84375 C 198.023438 171.917969 198.035156 172 198.023438 172.078125 C 197.921875 174.621094 198.636719 177.132812 198.652344 179.683594 C 198.75 182 198.511719 184.3125 198.445312 186.628906 C 198.542969 190.800781 197.914062 194.917969 197.082031 198.992188 C 197.082031 199.050781 197.082031 199.105469 197.082031 199.164062 C 197.1875 200.789062 197.21875 202.417969 197.15625 204.046875 C 196.746094 208.730469 196.96875 213.449219 196.425781 218.113281 C 195.976562 222.273438 194.636719 226.257812 193.25 230.1875 C 192.699219 231.199219 192.144531 234.144531 191.035156 235.023438 C 190.96875 235.234375 190.898438 235.445312 190.824219 235.65625 C 189.710938 238.769531 187.847656 241.5 186.734375 244.605469 C 187.007812 244.492188 187.359375 244.578125 187.546875 244.835938 C 187.355469 245.132812 187.175781 245.445312 187 245.746094 C 186.648438 246.347656 186.324219 246.960938 186.007812 247.585938 C 185.9375 247.726562 185.867188 247.871094 185.796875 248.011719 C 185.246094 248.765625 184.609375 249.652344 184.289062 250.566406 C 184.21875 250.667969 184.152344 250.769531 184.082031 250.875 C 183.996094 251.003906 183.910156 251.132812 183.828125 251.261719 C 183.648438 251.207031 183.46875 251.15625 183.289062 251.105469 C 182.511719 250.875 181.722656 250.683594 180.945312 250.457031 C 180.148438 250.222656 179.363281 249.976562 178.578125 249.714844 C 178.277344 248.792969 178.429688 247.769531 179.285156 246.867188 C 181.226562 244.164062 182.964844 241.4375 184.0625 238.296875 C 186.429688 233.441406 188.46875 228.445312 190.199219 223.328125 C 190.585938 222.3125 191 221.308594 191.378906 220.289062 C 191.558594 219.679688 191.820312 218.769531 192.324219 218.410156 C 192.765625 216.5625 193.269531 214.722656 193.71875 212.878906 C 193.75 212.757812 193.785156 212.636719 193.816406 212.511719 C 193.867188 211.613281 193.929688 210.71875 194 209.820312 C 193.65625 209.21875 193.59375 208.453125 193.363281 207.800781 C 193.121094 207.179688 192.785156 206.597656 192.445312 206.019531 C 191.78125 206.078125 191.074219 205.648438 190.996094 204.882812 C 190.902344 203.96875 190.851562 203.042969 190.898438 202.121094 C 190.308594 200.957031 190.699219 199.363281 191.59375 198.453125 C 191.816406 198.074219 192.046875 197.597656 192.335938 197.171875 C 192.628906 196.542969 192.976562 195.949219 193.375 195.398438 C 193.574219 195.054688 193.6875 194.636719 193.921875 194.316406 C 193.96875 193.972656 194.007812 193.632812 194.042969 193.285156 C 193.855469 188.113281 193.777344 182.933594 194.585938 177.808594 C 194.585938 177.808594 194.585938 177.804688 194.585938 177.800781 C 193.960938 172.226562 196.246094 166.804688 195.933594 161.238281 C 195.984375 159.953125 195.921875 158.710938 195.847656 157.476562 C 195.371094 157.328125 194.960938 156.960938 194.808594 156.332031 C 194.015625 153.089844 193.789062 149.804688 193.453125 146.53125 C 193.023438 144.824219 192.566406 143.128906 191.96875 141.511719 C 191.5 140.238281 190.644531 139.269531 189.703125 138.328125 C 188.023438 135.980469 187.132812 133.304688 185.835938 130.761719 C 185.273438 129.558594 185.058594 128.273438 184.859375 126.980469 C 184.5625 126.359375 184.28125 125.726562 184.035156 125.082031 C 183.117188 122.617188 182.742188 120 181.992188 117.488281 C 181.386719 114.90625 180.867188 112.292969 179.589844 109.945312 C 178.589844 108.851562 177.507812 107.824219 176.492188 106.742188 C 172.550781 103.558594 171.847656 102.789062 171.339844 98.335938 C 171.191406 98.152344 171.039062 97.964844 170.886719 97.789062 C 169.148438 95.578125 167.386719 93.398438 165.59375 91.238281 C 165.15625 90.710938 164.640625 90.195312 164.488281 89.503906 C 164.371094 89 164.546875 88.515625 164.867188 88.175781 C 164.394531 87.304688 164.039062 86.382812 163.925781 85.367188 C 163.929688 84.425781 164.066406 83.496094 164.199219 82.5625 C 164.011719 81.804688 163.855469 81.042969 163.726562 80.28125 C 163.003906 80.714844 162.171875 81.003906 161.394531 81.246094 C 161.734375 81.5625 162.109375 81.996094 162.167969 82.460938 C 162.691406 83.050781 163.75 83.089844 163.78125 84.070312 C 163.820312 85.113281 162.710938 86.035156 161.695312 85.636719 C 161.328125 85.824219 160.898438 85.84375 160.484375 85.824219 C 158.941406 85.855469 157.4375 85.292969 155.90625 85.464844 C 155.757812 85.476562 155.609375 85.484375 155.460938 85.484375 C 155.53125 89.511719 158.867188 93.917969 155.039062 97.242188 C 151.367188 100.199219 146.859375 96.789062 142.765625 97.59375 C 142.765625 97.589844 142.765625 97.589844 142.765625 97.589844 C 142.765625 98.082031 142.648438 98.582031 142.433594 99.015625 C 142.433594 99.023438 142.429688 99.027344 142.429688 99.027344 C 143.148438 100.058594 142.332031 101.316406 141.648438 102.117188 C 140.871094 103.097656 139.507812 104.460938 138.3125 103.277344 C 138.019531 103.332031 137.730469 103.363281 137.445312 103.355469 C 137.128906 103.347656 136.8125 103.226562 136.554688 103.023438 C 134.773438 103.253906 132.953125 103.40625 131.15625 103.316406 C 131.253906 103.628906 131.273438 103.972656 131.203125 104.320312 C 130.875 106.59375 126.785156 110.925781 125.117188 107.597656 C 124.042969 107.910156 123.035156 107.347656 122.011719 107.242188 C 120.734375 108.089844 119.644531 109.25 118.269531 109.984375 C 117.015625 110.699219 115.777344 111.785156 114.277344 111.816406 C 111.1875 111.578125 112.101562 105.4375 113.53125 103.785156 C 110.75 101.976562 110.144531 98.035156 113.507812 96.515625 C 109.199219 91.71875 113.878906 86.261719 119.53125 87.957031 C 118.882812 86.957031 118.035156 85.992188 117.945312 84.75 C 117.832031 83.511719 118.949219 82.460938 120.160156 82.480469 C 122.035156 80.257812 125.238281 78.554688 128.070312 80.007812 C 130.933594 80.308594 133.09375 80.703125 135.417969 79.019531 C 133.535156 76.804688 131.933594 74.265625 134.144531 72.207031 C 131.464844 72.035156 128.789062 71.808594 126.132812 71.398438 C 125.800781 71.574219 125.457031 71.726562 125.101562 71.863281 C 124.3125 72.171875 123.488281 72.402344 122.671875 72.644531 C 120.4375 77.644531 112.511719 79.703125 107.484375 79.09375 C 107.417969 79.066406 107.351562 79.039062 107.289062 79.007812 C 105.539062 79.230469 103.792969 79.113281 102.058594 78.90625 C 102.160156 81.429688 96.765625 82.1875 95.167969 83.847656 C 92.015625 85.585938 86.777344 89.792969 82.667969 89.792969 C 81.949219 89.792969 81.269531 89.664062 80.636719 89.371094 C 78.667969 88.410156 78.359375 85.792969 79.617188 84.125 C 81.382812 81.757812 84.203125 80.601562 86.621094 79.058594 C 90.355469 75.457031 91.125 71.492188 97.234375 71.964844 C 100.617188 71.21875 102.824219 68.332031 105.738281 66.734375 C 108.933594 64.910156 112.21875 63.058594 115.777344 62.0625 C 117.03125 61.707031 118.316406 61.777344 119.597656 61.84375 C 120.570312 61.898438 121.535156 61.949219 122.488281 61.816406 C 123.296875 52.425781 133.796875 57.710938 137.671875 62.011719 C 140.054688 60.222656 142.796875 60.707031 143.988281 63.542969 C 145.378906 64.296875 147.066406 64.898438 147.890625 66.335938 C 148.074219 66.261719 148.257812 66.1875 148.441406 66.121094 C 148.441406 65.644531 148.511719 65.167969 148.65625 64.714844 C 147.765625 64.257812 146.925781 63.734375 146.539062 62.785156 C 146 61.265625 147.203125 59.914062 148.472656 59.273438 C 149.703125 58.652344 151.066406 58.585938 152.40625 58.777344 C 153.589844 58.851562 154.652344 59.53125 155.761719 59.835938 C 155.832031 59.945312 155.917969 60.046875 156.023438 60.136719 C 156.074219 60.183594 156.128906 60.222656 156.179688 60.257812 C 156.183594 60.261719 156.1875 60.261719 156.1875 60.261719 C 156.191406 60.265625 156.195312 60.265625 156.195312 60.265625 C 156.773438 60.648438 157.5 60.65625 158.1875 60.582031 C 158.921875 59.644531 159.890625 59.207031 161.277344 60.003906 C 162.550781 60.128906 163.828125 60.652344 164.464844 61.820312 C 164.902344 62.488281 164.847656 63.363281 164.453125 63.992188 C 164.457031 63.992188 164.460938 63.992188 164.464844 63.992188 C 164.886719 63.992188 165.300781 63.910156 165.691406 63.75 C 165.539062 64.445312 165.324219 65.140625 165.203125 65.796875 C 165.902344 65.921875 166.609375 66.058594 167.28125 66.28125 C 167.390625 66.261719 167.5 66.25 167.605469 66.234375 C 168.398438 65.492188 169.363281 64.996094 170.339844 64.578125 C 170.851562 63.558594 170.632812 62.414062 170.523438 61.332031 C 170.382812 59.914062 170.421875 58.484375 170.511719 57.0625 C 170.457031 51.738281 176.210938 48.4375 180.996094 48.214844 C 182.207031 47.871094 183.429688 47.578125 184.675781 47.941406 C 186.375 43.476562 184.917969 37.800781 188.742188 34.28125 C 192.730469 30.804688 198.796875 33.535156 201.492188 37.367188 C 204.15625 33.320312 210.136719 34.023438 213.164062 37.269531 C 215.390625 39.320312 216.371094 42.402344 218.691406 44.335938 C 219.179688 44.734375 219.769531 44.613281 220.363281 44.492188 C 220.652344 44.433594 220.941406 44.375 221.222656 44.378906 C 222.640625 44.285156 224.171875 44.691406 225.167969 45.753906 C 225.613281 46.332031 225.882812 47.027344 226.34375 47.601562 C 226.988281 48.238281 227.640625 48.878906 228.050781 49.699219 C 228.480469 50.566406 228.777344 51.527344 228.917969 52.484375 C 229.019531 54.132812 228.296875 55.738281 227.671875 57.230469 C 227.605469 57.351562 227.535156 57.480469 227.464844 57.597656 C 228.703125 58.511719 230.25 58.742188 231.597656 59.4375 C 232.792969 60.195312 233.828125 61.386719 233.910156 62.855469 C 234.167969 64.472656 233.910156 66.199219 232.433594 67.152344 Z M 232.433594 67.152344 " fill-opacity="1" fill-rule="nonzero"/><path fill="#f9f8ce" d="M 221.726562 55.339844 C 222.191406 55.808594 222.160156 56.597656 221.628906 57.007812 C 219.871094 58.035156 217.703125 58.136719 215.742188 58.578125 C 213.777344 58.980469 211.792969 59.304688 209.785156 59.257812 C 204.523438 59.167969 199.292969 57.550781 194.015625 58.308594 C 196.542969 58.769531 199.128906 58.5625 201.632812 59.105469 C 204.296875 59.914062 206.640625 61.574219 209.359375 62.292969 C 210.789062 62.734375 212.234375 63.128906 213.683594 63.507812 C 215.847656 64.128906 215.042969 67.300781 212.851562 66.828125 C 209.859375 66.199219 206.902344 65.246094 204.296875 63.621094 C 202.886719 62.773438 201.671875 61.546875 200.066406 61.058594 C 195.917969 60.085938 191.742188 59.351562 187.472656 59.558594 C 185.285156 60.128906 183.046875 60.667969 180.773438 60.375 C 179.382812 60.171875 178.007812 59.949219 176.609375 60.253906 C 176.0625 60.324219 175.488281 60.449219 174.9375 60.453125 C 174.101562 60.453125 173.800781 59.332031 174.511719 58.90625 C 177.132812 57.667969 180.105469 57.640625 182.867188 56.886719 C 186.429688 55.410156 189.378906 52.757812 192.839844 51.105469 C 199.347656 48.371094 206.445312 50.699219 212.824219 52.699219 C 214.886719 53.6875 217.035156 54.390625 219.332031 54.554688 C 220.15625 54.664062 221.109375 54.71875 221.726562 55.339844 Z M 208.457031 71.839844 C 205.050781 70.410156 202.277344 67.546875 198.652344 66.691406 C 197.730469 65.941406 196.917969 67.535156 197.996094 67.902344 C 201.101562 69.929688 203.691406 72.726562 207.125 74.253906 C 208.710938 75.125 210.027344 72.703125 208.457031 71.839844 Z M 132.855469 98.871094 C 134.085938 97.824219 135.457031 96.949219 136.980469 96.394531 C 141.164062 95.449219 145.589844 93.273438 147.234375 89.042969 C 147.734375 87.757812 147.710938 86.339844 147.914062 84.992188 C 148.054688 83.722656 148.777344 82.519531 148.761719 81.246094 C 147.792969 78.960938 142.625 86.074219 141.507812 86.855469 C 139.128906 88.769531 136.464844 90.5 135.25 93.429688 C 134.527344 94.523438 130.40625 97.507812 131.644531 98.804688 C 131.960938 99.113281 132.503906 99.160156 132.855469 98.871094 Z M 194.714844 136.414062 C 193.554688 133.167969 191.480469 130.371094 189.808594 127.386719 C 189.164062 126.125 188.546875 124.851562 187.941406 123.570312 C 188.050781 123.3125 188.082031 123.003906 187.976562 122.667969 C 187.03125 119.882812 186.230469 117.039062 185.035156 114.34375 C 184.320312 112.761719 183.550781 111.207031 182.746094 109.671875 C 182.359375 108.566406 181.933594 107.46875 181.4375 106.402344 C 179.722656 102.589844 177.644531 98.964844 175.324219 95.5 C 174.066406 93.359375 172.6875 91.292969 171.167969 89.320312 C 170.757812 88.941406 168.703125 85.585938 167.785156 85.417969 C 167.289062 84.71875 166.71875 84.128906 166.179688 84.410156 C 165.867188 84.746094 165.855469 85.304688 165.871094 85.742188 C 166.039062 86.152344 166.585938 85.941406 166.511719 85.53125 C 168.375 88.925781 168.929688 92.933594 171.226562 96.101562 C 172.613281 97.878906 173.59375 99.335938 174.554688 101.402344 C 177.929688 105.625 180.25 110.554688 182.402344 115.503906 C 182.402344 115.503906 182.402344 115.496094 182.398438 115.492188 C 182.394531 115.484375 182.390625 115.472656 182.386719 115.464844 C 182.453125 115.605469 182.507812 115.75 182.570312 115.894531 C 182.664062 116.269531 182.757812 116.640625 182.847656 117.019531 C 184.183594 121.238281 185.929688 125.355469 188.175781 129.164062 C 189.804688 131.898438 191.992188 134.289062 193.195312 137.261719 C 194.289062 140.699219 196.394531 144.0625 196.878906 147.710938 C 197.03125 148.863281 197.191406 149.996094 197.214844 151.164062 C 197.230469 151.605469 197.597656 151.976562 198.035156 152.011719 C 200.15625 152.050781 198.582031 146.335938 198.15625 145.035156 C 196.941406 142.179688 195.734375 139.359375 194.714844 136.414062 Z M 262.863281 235.390625 C 260.839844 230.871094 259.214844 226.1875 257.390625 221.589844 C 255.632812 217.644531 253.351562 213.953125 250.707031 210.550781 C 248.546875 207.714844 246.109375 205.078125 244.316406 201.984375 C 242.640625 198.992188 241.242188 195.796875 240.28125 192.5 C 239.039062 187.785156 239.628906 182.914062 239.601562 178.117188 C 239.296875 174.8125 239.148438 171.414062 238.039062 168.261719 C 237.90625 167.960938 237.777344 167.660156 237.644531 167.355469 C 236.707031 166.171875 235.769531 164.992188 234.828125 163.816406 C 234.652344 163.644531 234.476562 163.472656 234.304688 163.296875 C 234.855469 165.078125 235.335938 166.878906 235.726562 168.710938 C 236.222656 172.125 236.332031 175.609375 236.414062 179.054688 C 235.554688 186.730469 236.839844 194.5 240.625 201.273438 C 243.847656 207.722656 249.320312 212.691406 252.730469 219.039062 C 255.910156 224.582031 257.796875 230.726562 260.789062 236.382812 C 261.015625 236.84375 261.390625 237.03125 261.769531 237.03125 C 262.523438 237.03125 263.277344 236.277344 262.863281 235.390625 Z M 143.007812 165.953125 C 142.875 165.539062 142.8125 165.101562 142.835938 164.648438 C 142.886719 163.660156 142.9375 162.671875 142.988281 161.683594 C 142.089844 165.445312 140.871094 169.113281 138.171875 172.042969 C 134.972656 175.503906 131.125 178.332031 128.414062 182.238281 C 125.410156 186.179688 122.105469 189.992188 120.136719 194.597656 C 118.144531 199.800781 116.277344 205.089844 112.917969 209.621094 C 110.5625 213.152344 108.34375 216.792969 105.492188 219.957031 C 103.78125 221.835938 101.964844 223.613281 100.273438 225.511719 C 98.886719 227.0625 96.789062 229.363281 98.992188 231.1875 C 99.5 231.5625 99.992188 231.722656 100.457031 231.722656 C 101.628906 231.722656 102.652344 230.71875 103.460938 229.714844 C 104.5625 228.523438 105.644531 227.3125 106.730469 226.105469 C 110.226562 222.5 112.820312 218.222656 115.121094 213.796875 C 117.757812 209.546875 120.21875 205.171875 121.527344 200.3125 C 123.128906 193.085938 127.371094 187.101562 131.671875 181.199219 C 137.046875 174.742188 140.839844 172.628906 143.007812 165.953125 Z M 149.324219 183.75 C 146.753906 189.019531 145.53125 194.773438 144.28125 200.460938 C 142.925781 204.449219 141.695312 208.535156 139.519531 212.171875 C 137.949219 215.195312 135.457031 217.464844 133.003906 219.746094 C 130.40625 222.464844 128.199219 225.554688 126.316406 228.800781 C 125.84375 229.660156 123.121094 234.621094 124.734375 234.875 C 125.738281 234.90625 125.421875 233.578125 125.820312 232.875 C 127.417969 228.964844 130.09375 225.582031 132.796875 222.378906 C 134.472656 220.425781 136.523438 219.007812 138.265625 217.09375 C 142.546875 212.007812 145.199219 205.683594 146.851562 199.292969 C 147.816406 194.214844 148.714844 189.148438 150.804688 184.378906 C 151.195312 183.378906 149.734375 182.816406 149.324219 183.75 Z M 149.324219 183.75 " fill-opacity="1" fill-rule="nonzero"/><path fill="#010101" d="M 215.914062 258.917969 C 215.347656 260.570312 213.324219 259.457031 212.101562 259.335938 C 210.347656 258.871094 208.511719 258.511719 206.949219 257.554688 C 204.890625 256.082031 203.410156 254.183594 201.257812 252.75 C 198.011719 250.625 194.171875 249.601562 190.378906 248.988281 C 189.21875 248.769531 187.726562 248.773438 187.074219 247.617188 C 187 247.449219 186.949219 247.273438 186.910156 247.089844 C 186.152344 248.5625 185.382812 250.027344 184.589844 251.476562 C 184.34375 251.933594 183.746094 252.089844 183.304688 251.835938 C 182.859375 251.585938 182.695312 251 182.945312 250.550781 C 183.667969 249.277344 184.398438 248.007812 185.089844 246.714844 C 187.738281 241.492188 190.613281 236.390625 192.589844 230.847656 C 196.488281 218.875 197.164062 206.152344 197.265625 193.632812 C 197.800781 180.488281 197.535156 167.335938 197.433594 154.179688 C 197.558594 146.417969 195.644531 138.640625 191.40625 132.046875 C 189.410156 129.539062 188.640625 126.375 187.082031 123.613281 C 185.402344 120.046875 185.109375 116.050781 184.375 112.230469 C 183.523438 108.421875 180.945312 105.292969 178.84375 102.101562 C 177.171875 99.847656 176.167969 97.199219 174.527344 94.929688 C 174.503906 92.394531 177.824219 99.601562 178.652344 100.632812 C 180.863281 103.929688 184.160156 106.585938 185.566406 110.390625 C 186.820312 114.285156 186.691406 118.570312 188.558594 122.289062 C 190.378906 125.019531 191.324219 128.234375 193.445312 130.769531 C 197.945312 137.433594 199.777344 145.496094 199.519531 153.46875 C 199.507812 163.402344 199.730469 173.328125 199.65625 183.261719 C 199.453125 187.636719 199.144531 191.84375 199.039062 196.308594 C 198.628906 203.804688 198.394531 211.355469 196.957031 218.761719 C 196.085938 223.664062 195.007812 228.546875 193.320312 233.238281 C 191.855469 236.777344 190.261719 240.273438 188.578125 243.722656 C 188.589844 243.90625 188.542969 244.09375 188.433594 244.210938 C 188.140625 244.976562 187.859375 245.882812 188.25 246.679688 C 188.847656 247.046875 189.65625 246.878906 190.335938 247 C 192.523438 247.1875 194.675781 247.632812 196.777344 248.277344 C 199.324219 249.078125 201.839844 250.175781 203.917969 251.886719 C 205.785156 253.339844 207.457031 255.203125 209.769531 255.9375 C 211.507812 256.5 213.265625 256.996094 215.042969 257.433594 C 215.683594 257.589844 216.078125 258.285156 215.914062 258.917969 Z M 233.441406 69.394531 C 230.964844 71.832031 227.53125 72.8125 224.707031 74.757812 C 225.277344 76.179688 226.601562 77.183594 227.425781 78.464844 C 229.222656 80.988281 229.316406 85.566406 226.214844 87.105469 C 222.816406 89.03125 219.09375 87.375 215.792969 86.074219 C 213.191406 85.097656 210.554688 84.144531 208.136719 82.75 C 206.359375 81.804688 204.917969 80.34375 203.203125 79.3125 C 200.617188 83 197.589844 79.941406 195.328125 77.675781 C 193.765625 76.171875 193.257812 74.03125 192.117188 72.269531 C 190.894531 74.542969 190.449219 77.324219 187.308594 77.589844 C 183.476562 77.910156 181.390625 74.023438 178.882812 71.855469 C 177.734375 73.289062 177.1875 75.324219 175.476562 76.234375 C 174.078125 76.953125 172.109375 77.113281 170.902344 75.949219 C 170.117188 75.15625 170.097656 74.042969 170.011719 73.003906 C 169.953125 72.582031 169.894531 72.074219 169.507812 71.820312 C 169.199219 71.667969 168.832031 71.546875 168.46875 71.507812 C 167.726562 72.214844 167.386719 73.257812 166.796875 74.085938 C 166.800781 74.277344 166.8125 74.480469 166.824219 74.683594 C 167.355469 75.027344 167.632812 76.136719 167.78125 76.703125 C 168.625 79.589844 168.15625 82.644531 169.441406 85.433594 C 170.144531 86.820312 170.957031 88.105469 172.074219 89.199219 C 172.335938 89.496094 172.261719 89.980469 171.964844 90.214844 C 171.6875 90.4375 171.273438 90.425781 171.015625 90.175781 C 170.402344 89.59375 169.777344 89.019531 169.199219 88.394531 C 167.898438 87.074219 166.667969 85.558594 166.699219 83.601562 C 166.59375 81.4375 166.871094 79.097656 166.40625 76.964844 C 165.53125 77.453125 165.40625 76.046875 165.351562 75.457031 C 165.1875 74.1875 165.355469 72.796875 165.894531 71.601562 C 166.015625 71.160156 166.242188 70.800781 166.53125 70.519531 C 166.898438 70.042969 167.351562 69.632812 167.902344 69.328125 C 170.160156 68.023438 172.726562 67.289062 175.328125 67.523438 C 176.875 66.953125 178.253906 65.957031 179.472656 64.851562 C 181.320312 62.839844 183.972656 62.058594 186.414062 61.027344 C 190.136719 59.488281 194.179688 59.464844 198.140625 59.332031 C 200.234375 59.144531 202.355469 59.378906 204.425781 58.941406 C 206.410156 58.460938 208.328125 57.695312 210.363281 57.417969 C 212.074219 57.125 213.78125 56.851562 215.511719 56.722656 C 215.945312 56.695312 215.929688 57.367188 215.527344 57.371094 C 214.347656 57.460938 213.179688 57.617188 212.011719 57.804688 C 208.492188 58.125 205.257812 59.871094 201.707031 59.878906 C 196.058594 60.078125 190.132812 59.703125 184.984375 62.445312 C 183.765625 63.019531 182.507812 63.484375 181.398438 64.285156 C 179.652344 65.761719 178.007812 67.429688 175.878906 68.363281 C 174.003906 68.761719 172.21875 69.335938 170.53125 70.207031 C 170.675781 70.292969 170.816406 70.386719 170.945312 70.496094 C 171.886719 71.316406 171.964844 72.621094 171.996094 73.78125 C 172.023438 74.253906 172.164062 74.792969 172.667969 74.949219 C 173.464844 75.164062 174.367188 74.96875 174.992188 74.425781 C 177.046875 71.839844 177.960938 67.65625 181.136719 72.269531 C 184.199219 76.214844 188.441406 78.917969 190.171875 72.285156 C 190.480469 71.28125 191.496094 70.132812 192.613281 70.761719 C 193.933594 71.671875 194.226562 73.429688 194.949219 74.769531 C 196.097656 76.753906 197.796875 78.46875 199.816406 79.558594 C 199.871094 79.59375 200.09375 79.667969 200.21875 79.679688 C 201.355469 79.664062 201.582031 78.207031 202.433594 77.699219 C 203.699219 77.074219 204.835938 78.402344 205.777344 79.078125 C 207.546875 80.566406 209.527344 81.785156 211.644531 82.710938 C 215.175781 83.976562 218.953125 86.097656 222.785156 86.214844 C 225.808594 85.90625 227.292969 84.03125 226.6875 81.035156 C 226.351562 79.394531 225.105469 78.199219 224.191406 76.863281 C 223.617188 76.058594 222.722656 74.882812 223.355469 73.882812 C 225.632812 71.496094 229.046875 70.511719 231.429688 68.226562 C 233.78125 66.417969 234.574219 62.167969 231.597656 60.589844 C 230.320312 59.648438 228.464844 59.304688 227.613281 57.902344 C 227.007812 55.644531 227.675781 53.210938 227.261719 50.894531 C 227.164062 48.421875 226.339844 46.304688 223.574219 46.085938 C 222.453125 46.175781 221.296875 46.472656 220.1875 46.082031 C 218.390625 45.410156 217.167969 43.753906 215.820312 42.453125 C 213.261719 39.441406 212.960938 35.644531 208.285156 35.039062 C 205.574219 34.316406 203.472656 36.210938 201.65625 37.964844 C 200.195312 39.234375 199.222656 36.710938 198.324219 35.902344 C 196.871094 34.332031 194.691406 32.894531 192.46875 33.339844 C 189.664062 34.097656 187.472656 36.597656 186.542969 39.285156 C 185.511719 44.199219 186.597656 51.394531 179.050781 49.335938 C 177.460938 48.9375 175.824219 49.691406 174.53125 50.625 C 173.542969 51.410156 172.222656 52.113281 171.507812 53.246094 C 170.988281 54.464844 171.339844 55.890625 171.101562 57.183594 C 170.703125 59.046875 170.167969 60.964844 171.277344 62.71875 C 171.582031 63.28125 172.421875 64.460938 171.152344 64.449219 C 169.640625 64.613281 168.488281 65.8125 167.5 66.886719 C 167.378906 67.019531 167.164062 67.019531 167.039062 66.902344 C 166.972656 66.839844 166.941406 66.757812 166.9375 66.675781 C 166.78125 66.605469 166.632812 66.488281 166.480469 66.410156 C 165.78125 66.152344 165.035156 66.445312 164.285156 66.589844 C 162.15625 66.914062 164.128906 63.773438 164.183594 62.820312 C 164.316406 61.605469 163.230469 60.8125 162.195312 60.390625 C 161.863281 60.265625 161.601562 60.21875 161.234375 60.273438 C 159.855469 60.570312 158.453125 60.894531 157.03125 60.746094 C 155.957031 60.757812 155.128906 60.0625 154.160156 59.769531 C 151.710938 59.339844 148.617188 59.882812 147.023438 61.933594 C 147.425781 62.449219 148.003906 62.90625 148.617188 63.171875 C 149.382812 63.5 150.507812 63.523438 150.886719 64.386719 C 150.984375 64.625 150.957031 64.882812 150.9375 65.132812 C 150.945312 65.160156 150.949219 65.1875 150.960938 65.21875 C 152.402344 65.640625 153.785156 66.457031 154.964844 67.328125 C 156.125 68.488281 157.300781 69.660156 157.996094 71.191406 C 158.5625 71.882812 157.648438 72.90625 156.902344 72.421875 C 156.089844 71.953125 155.605469 71.058594 154.992188 70.351562 C 154.046875 69.105469 152.675781 68.445312 151.273438 67.847656 C 150.140625 67.132812 148.773438 67.109375 147.476562 67.273438 C 146.359375 67.800781 146.023438 69.277344 145.050781 70.027344 C 143.113281 71.867188 140.289062 70.089844 138.015625 70.753906 C 136.117188 71.398438 134.402344 72.933594 133.433594 74.664062 C 133.507812 75.777344 134.695312 76.550781 135.273438 77.460938 C 136.386719 78.628906 136.507812 80.40625 134.570312 80.628906 C 133.746094 80.75 132.917969 80.921875 132.085938 80.976562 C 129.8125 80.917969 127.632812 79.632812 125.3125 80.089844 C 123.316406 80.800781 117.421875 82.53125 119.773438 85.429688 C 122.945312 88.683594 117.953125 88.449219 115.847656 89.226562 C 112.820312 90 110.941406 93.132812 114.15625 95.144531 C 114.792969 95.527344 115.210938 96.324219 114.789062 97.027344 C 113.863281 98.152344 110.53125 99.058594 112.765625 100.847656 C 113.773438 101.265625 114.503906 101.859375 114.171875 103.070312 C 113.554688 104.882812 113.542969 106.808594 113.851562 108.6875 C 113.996094 109.273438 114.09375 110.042969 114.6875 110.347656 C 116.539062 110.015625 117.6875 108.050781 119.324219 107.207031 C 120.605469 106.433594 122.1875 106.320312 123.578125 106.871094 C 124.640625 107.210938 125.625 107.894531 126.761719 107.9375 C 128.570312 107.585938 129.316406 105.777344 129.988281 104.277344 C 131.363281 101.253906 134.816406 102.851562 137.34375 102.667969 C 140.535156 102.542969 141.460938 101.328125 142.417969 98.464844 C 143.863281 95.902344 146.214844 97.589844 148.21875 98.261719 C 149.105469 98.449219 150.015625 98.234375 150.902344 98.132812 C 152.074219 97.933594 153.347656 97.929688 154.371094 97.261719 C 155.472656 96.4375 155.847656 94.976562 155.9375 93.648438 C 156.039062 92.164062 156.222656 90.667969 155.941406 89.195312 C 155.746094 87.835938 154.710938 86.554688 155 85.164062 C 156.097656 83.160156 159.097656 85.085938 160.773438 85.296875 C 162.179688 85.769531 163.433594 84.625 162.414062 83.3125 C 161.289062 81.726562 159.542969 80.710938 158.195312 79.324219 C 157.539062 78.734375 157.855469 77.660156 158.773438 77.65625 C 159.757812 77.644531 160.90625 78.535156 161.769531 77.722656 C 163.078125 76.144531 161.117188 74.941406 159.847656 74.210938 C 159.335938 73.988281 159.679688 73.441406 160.035156 73.316406 C 160.089844 73.207031 160.203125 73.128906 160.332031 73.128906 C 160.511719 73.128906 160.660156 73.285156 160.65625 73.457031 C 160.65625 73.519531 160.632812 73.574219 160.601562 73.625 C 161.96875 74.011719 163.554688 74.933594 163.894531 76.394531 C 163.929688 76.703125 163.902344 77.019531 163.84375 77.328125 C 164.761719 78.042969 165.117188 80.46875 165.488281 81.304688 C 165.9375 82.574219 166.710938 83.992188 165.902344 85.285156 C 165.914062 85.507812 165.851562 85.71875 165.648438 85.859375 C 165.546875 86.574219 165.195312 87.195312 165.058594 87.863281 C 164.941406 88.335938 165.585938 89.332031 165.605469 89.933594 C 167.128906 91.921875 169.476562 93.28125 170.789062 95.453125 C 171.8125 96.808594 171.523438 98.464844 171.347656 100.015625 C 171.574219 101.75 172.8125 103.226562 174.214844 104.191406 C 175.929688 105.195312 177.957031 105.945312 178.976562 107.78125 C 180.800781 110.605469 181.449219 113.949219 182.070312 117.203125 C 182.839844 120.453125 184.050781 123.582031 185.574219 126.554688 C 188.417969 132.625 191.570312 138.589844 194.089844 144.808594 C 195.222656 149.582031 196.101562 154.476562 196.496094 159.371094 C 196.53125 169.316406 194.335938 179.160156 194.757812 189.121094 C 194.597656 190.882812 194.820312 192.71875 194.460938 194.441406 C 194.117188 195.128906 193.433594 195.570312 192.964844 196.167969 C 192.039062 197.324219 191.472656 198.761719 191.375 200.242188 C 191.34375 201.257812 191.417969 202.15625 191.738281 203.167969 C 192.539062 204.976562 194.234375 206.378906 194.269531 208.503906 C 194.347656 211.148438 193.574219 213.71875 193.082031 216.289062 C 192.632812 218.980469 192.378906 221.714844 191.335938 224.261719 C 189.304688 229.113281 186.832031 233.769531 184.800781 238.632812 C 183.378906 241.609375 182.097656 244.789062 179.832031 247.242188 C 178.382812 248.671875 176.324219 249.167969 174.566406 250.09375 C 172.035156 251.601562 169.511719 253.191406 167.25 255.085938 C 166.214844 255.824219 165.46875 257.292969 164.15625 257.484375 C 162.980469 257.546875 162.285156 255.949219 163.152344 255.140625 C 166.136719 252.136719 169.90625 250.074219 173.65625 248.171875 C 175.652344 247.246094 178.019531 246.867188 179.429688 245.007812 C 182.035156 241.625 183.527344 237.644531 185.230469 233.734375 C 186.761719 229.839844 189 226.253906 190.320312 222.273438 C 190.933594 220.449219 191.148438 218.359375 191.480469 216.433594 C 191.953125 213.816406 192.746094 211.265625 192.710938 208.558594 C 192.621094 207.023438 191.480469 205.917969 190.679688 204.703125 C 188.695312 200.902344 190.125 196.550781 192.980469 193.675781 C 192.980469 193.675781 192.972656 193.679688 192.972656 193.679688 C 193.160156 189.777344 192.960938 185.890625 192.800781 181.992188 C 192.980469 175.417969 194.027344 168.878906 194.5625 162.328125 C 194.824219 157.039062 193.445312 151.847656 192.6875 146.640625 C 191.507812 142.214844 189.007812 138.25 187.183594 134.066406 C 185.167969 130.382812 183.222656 126.625 181.765625 122.679688 C 180.496094 119.21875 180.121094 115.699219 178.957031 112.171875 C 178.359375 110.679688 177.695312 109.136719 176.519531 107.996094 C 175.664062 107.328125 174.613281 106.972656 173.707031 106.390625 C 171.519531 105.035156 169.605469 102.726562 169.457031 100.078125 C 169.507812 98.671875 170.246094 97.3125 169.339844 96.003906 C 169.039062 94.660156 164.011719 90.484375 163.886719 88.921875 C 163.496094 88.28125 163.203125 87.589844 163.121094 86.847656 C 160.859375 87.949219 158.542969 86.21875 156.316406 85.820312 C 158.109375 89.457031 158.953125 97.683594 153.988281 99.117188 C 152.136719 99.457031 150.183594 99.703125 148.304688 99.511719 C 146.902344 99.316406 145.75 98.121094 144.308594 98.230469 C 143.597656 98.371094 143.203125 99.035156 143 99.675781 C 142.3125 103.101562 139.042969 104.066406 135.9375 103.757812 C 134.585938 103.730469 133.148438 103.171875 131.84375 103.703125 C 130.132812 104.957031 130.121094 107.4375 128.507812 108.835938 C 126.601562 111.359375 123.851562 108.984375 121.515625 108.945312 C 119.140625 109.679688 118.007812 112.667969 115.324219 112.898438 C 110.328125 113 111.015625 106.238281 112.191406 102.996094 C 108.84375 101.800781 109.285156 97.839844 112.082031 96.242188 C 108.074219 92 113.625 86.285156 118.402344 86.699219 C 114.261719 82.179688 121.445312 78.804688 125.144531 77.816406 C 127.335938 77.328125 129.5 78.1875 131.480469 79.039062 C 132.484375 79.273438 133.605469 79.226562 134.640625 79.25 C 133.644531 78.25 132.304688 77.632812 131.363281 76.582031 C 130.332031 75.195312 130.652344 73.75 131.496094 72.445312 C 129.59375 72.472656 127.6875 71.9375 125.796875 72.378906 C 123.242188 73.699219 122.742188 77.0625 120.289062 78.585938 C 116.714844 81.273438 112.050781 82.695312 107.597656 82.089844 C 105.996094 81.847656 104.503906 80.976562 102.871094 80.984375 C 101.976562 81.875 101.515625 83.253906 100.457031 84.058594 C 99.703125 84.710938 98.867188 85.230469 97.996094 85.714844 C 96.148438 86.835938 94.046875 87.164062 91.957031 87.484375 C 90.5625 87.949219 89.167969 88.414062 87.734375 88.738281 C 85.894531 89.3125 84.082031 90.027344 82.398438 90.976562 C 81.246094 91.722656 80.105469 92.667969 78.726562 92.910156 C 75.59375 93.296875 74.699219 90.417969 76.398438 88.140625 C 78 85.300781 79.15625 81.574219 82.101562 79.742188 C 83.570312 78.824219 85.230469 78.296875 86.832031 77.664062 C 88.519531 77.0625 89.257812 75.328125 90.292969 74.011719 C 91.539062 72.371094 93.496094 71.40625 95.464844 70.941406 C 95.90625 70.835938 96.347656 70.820312 96.796875 70.820312 C 96.886719 70.800781 96.976562 70.785156 97.066406 70.761719 C 99.261719 70.027344 101.246094 68.761719 103.246094 67.621094 C 103.683594 67.425781 104.109375 67.203125 104.535156 66.980469 C 104.707031 66.820312 104.882812 66.65625 105.058594 66.496094 C 106.199219 65.472656 107.585938 64.792969 108.960938 64.140625 C 109.433594 63.804688 109.894531 63.449219 110.339844 63.0625 C 112.265625 61.964844 114.574219 61.605469 116.777344 61.816406 C 117.234375 61.785156 117.691406 61.765625 118.15625 61.777344 C 118.773438 61.761719 119.394531 61.78125 120.015625 61.816406 C 120.585938 61.628906 121.070312 61.320312 121.339844 60.730469 C 121.660156 59.878906 121.742188 58.894531 122.351562 58.179688 C 126.3125 54.773438 135.101562 57.957031 137.808594 61.917969 C 142.816406 59.640625 143.679688 62.074219 146.285156 65.664062 C 146.292969 65.65625 146.300781 65.652344 146.304688 65.644531 C 147.449219 64.976562 148.652344 64.820312 149.835938 64.976562 C 149.832031 64.933594 149.820312 64.886719 149.804688 64.839844 C 148.527344 64.261719 144.890625 63.140625 146.285156 61.203125 C 147.726562 59.804688 149.621094 59.113281 151.601562 58.902344 C 152.808594 58.753906 154.089844 58.722656 155.257812 59.113281 C 156.082031 59.476562 157.023438 59.605469 157.925781 59.574219 C 159.441406 59.621094 161.035156 58.632812 162.523438 59.214844 C 165.890625 60.765625 165.660156 62.722656 164.308594 65.707031 C 165.238281 65.507812 166.339844 65.195312 167.167969 65.832031 C 167.320312 65.792969 167.441406 65.824219 167.535156 65.890625 C 168.453125 64.941406 169.523438 64.074219 170.820312 63.789062 C 168.324219 61.019531 170.082031 58.808594 170.265625 55.777344 C 170.285156 54.617188 170.246094 53.269531 171.046875 52.320312 C 172.226562 51.082031 173.664062 50.070312 175.117188 49.171875 C 177.199219 47.664062 179.480469 48.652344 181.765625 48.488281 C 182.273438 48.363281 182.785156 48.203125 183.191406 47.835938 C 183.542969 47.449219 183.628906 46.890625 183.804688 46.410156 C 184.765625 43.457031 184.0625 40.136719 185.507812 37.328125 C 189.332031 30.253906 196.191406 29.75 200.78125 36.445312 C 202.234375 34.519531 204.453125 32.890625 206.960938 33.007812 C 209.464844 33.105469 212.183594 33.855469 213.800781 35.886719 C 215.230469 37.589844 215.730469 39.882812 217.273438 41.496094 C 218.765625 42.828125 220.265625 45.152344 222.542969 44.15625 C 230.324219 42.910156 230.238281 51.148438 230.082031 56.613281 C 231.566406 57.457031 233.199219 58.15625 234.445312 59.355469 C 237.152344 62.164062 236.332031 67.011719 233.441406 69.394531 Z M 164.390625 86.429688 C 164.34375 86.4375 164.300781 86.449219 164.253906 86.449219 C 164.289062 86.539062 164.3125 86.636719 164.320312 86.746094 C 164.355469 86.640625 164.371094 86.535156 164.390625 86.429688 Z M 145.800781 66.109375 C 145.71875 66.023438 145.648438 65.9375 145.585938 65.867188 C 143.472656 63.164062 142.390625 60.617188 138.625 63.027344 C 136.851562 64.40625 135.824219 61.570312 134.46875 60.816406 C 132.082031 59.335938 129.226562 57.871094 126.332031 58.148438 C 125.285156 58.3125 123.734375 58.273438 123.269531 59.425781 C 122.851562 61.371094 122.253906 62.957031 120.023438 63.273438 C 119.402344 63.28125 117.648438 63.839844 117.003906 63.417969 C 115.769531 63.390625 114.527344 63.449219 113.316406 63.6875 C 112.1875 63.96875 111.144531 64.417969 110.125 64.929688 C 109.050781 65.652344 107.964844 66.492188 106.925781 67.257812 C 106.066406 67.757812 105.179688 68.207031 104.292969 68.652344 C 103.445312 69.34375 102.585938 70.019531 101.609375 70.53125 C 100.78125 70.890625 99.921875 71.242188 99.042969 71.476562 C 98.007812 72.015625 96.933594 72.46875 95.777344 72.679688 C 95.339844 72.75 94.710938 72.8125 94.320312 72.589844 C 94.304688 72.597656 94.285156 72.605469 94.265625 72.613281 C 91.714844 73.84375 91.371094 76.929688 89.574219 78.871094 C 88.910156 79.625 87.996094 80.03125 87.082031 80.394531 C 82.886719 81.542969 81.875 83.335938 80.796875 86.425781 C 85.359375 82.832031 90.28125 79.703125 95.269531 76.730469 C 102.4375 72.789062 110.367188 70.386719 118.007812 67.515625 C 118.828125 67.238281 119.664062 67.027344 120.503906 66.816406 C 120.675781 66.773438 120.859375 66.871094 120.90625 67.042969 C 120.949219 67.210938 120.851562 67.398438 120.679688 67.445312 C 120.09375 67.589844 119.515625 67.746094 118.933594 67.910156 C 111.070312 70.546875 103.269531 73.488281 96.125 77.785156 C 91.65625 80.585938 87.523438 83.929688 83.363281 87.207031 C 85.261719 86.523438 87.246094 86.066406 89.171875 85.46875 C 91.503906 84.324219 94.128906 83.972656 96.332031 82.527344 C 97.113281 82.066406 98.019531 81.761719 98.695312 81.136719 C 99.203125 80.554688 99.542969 79.835938 100.058594 79.265625 C 101.898438 76.953125 105.039062 77.945312 107.417969 78.707031 C 111.222656 79.457031 115.160156 78.167969 118.449219 76.28125 C 120.148438 75.398438 120.992188 73.636719 122.226562 72.273438 C 124.929688 68.796875 128.675781 70.839844 132.285156 70.492188 C 132.640625 70.429688 132.9375 70.4375 133.191406 70.488281 C 133.78125 69.941406 134.386719 69.453125 134.910156 69.058594 C 136.402344 68.128906 138.222656 67.703125 139.949219 68.117188 C 141.15625 68.328125 142.4375 68.796875 143.625 68.785156 C 144.636719 68.199219 145.027344 66.96875 145.800781 66.109375 Z M 153.058594 75.425781 C 153.160156 75.257812 153.300781 75.101562 153.375 74.917969 C 153.402344 73.246094 149.691406 75.375 149.003906 75.78125 C 143.625 78.667969 140.695312 84.171875 136.710938 88.511719 C 135.074219 89.960938 132.902344 90.457031 131.121094 91.679688 C 130.367188 92.179688 117.0625 100.917969 121.042969 100.398438 C 124.234375 97.375 127.65625 94.703125 131.328125 92.320312 C 133.449219 90.867188 136.152344 90.328125 137.839844 88.292969 C 140.09375 85.757812 141.832031 82.792969 144.269531 80.417969 C 146.664062 78.175781 149.371094 75.859375 152.582031 74.964844 C 152.230469 75.304688 152.765625 75.800781 153.058594 75.425781 Z M 153.058594 75.425781 " fill-opacity="1" fill-rule="nonzero"/></svg>