<svg xmlns="http://www.w3.org/2000/svg" xmlns:xlink="http://www.w3.org/1999/xlink" width="500" zoomAndPan="magnify" viewBox="0 0 375 374.999991" height="500" preserveAspectRatio="xMidYMid meet" version="1.0"><defs><clipPath id="b234863122"><path d="M 94 200 L 362.15625 200 L 362.15625 375 L 94 375 Z M 94 200 " clip-rule="nonzero"/></clipPath><clipPath id="4d36b55c7d"><path d="M 12.65625 184 L 362.15625 184 L 362.15625 217 L 12.65625 217 Z M 12.65625 184 " clip-rule="nonzero"/></clipPath></defs><path fill="#296f47" d="M 17.59375 227.199219 C 19.304688 223.808594 35.199219 222.925781 53.175781 227.558594 C 71.15625 232.195312 87.152344 237.777344 102.066406 248.597656 C 102.066406 248.597656 111.21875 248.738281 119.539062 249.472656 C 127.855469 250.207031 131.183594 250.359375 137.140625 254.640625 C 143.105469 258.925781 149.226562 264.261719 148.902344 265.058594 C 148.578125 265.859375 145.066406 264.253906 140.886719 265.191406 C 136.710938 266.128906 131.554688 269.617188 131.054688 270.089844 C 130.554688 270.5625 147.273438 286.683594 159.121094 293.097656 C 170.960938 299.519531 183.859375 299.652344 188 297.121094 C 192.144531 294.589844 194.007812 287.421875 196.039062 280.085938 C 198.074219 272.753906 200.578125 270.773438 207.996094 265.488281 C 215.410156 260.207031 220.035156 256.921875 221.402344 257.097656 C 222.769531 257.269531 219.308594 265.347656 216.648438 273.671875 C 213.984375 282.007812 216.070312 285.011719 210.429688 293.816406 C 210.429688 293.816406 218.1875 295.210938 224.117188 303.699219 C 230.046875 312.199219 231.488281 312.410156 237.050781 317.296875 C 242.613281 322.1875 244.40625 323.835938 236.542969 323.222656 C 228.679688 322.609375 220.019531 322.660156 213.378906 321.644531 C 206.734375 320.628906 206.628906 318.410156 201.53125 314.082031 C 196.433594 309.753906 195.496094 307.949219 193.210938 307.96875 C 190.933594 307.984375 184.007812 311.726562 175.757812 315.152344 C 167.511719 318.578125 158.804688 322.371094 144.136719 324.992188 C 144.136719 324.992188 146.257812 328.59375 150.011719 331.976562 C 153.769531 335.355469 157.203125 336.417969 157.011719 337.257812 C 156.824219 338.097656 149.976562 337.039062 141.921875 335.121094 C 133.875 333.203125 131.894531 328.699219 130.054688 327.601562 C 130.054688 327.601562 119.574219 327.839844 111.648438 327.367188 C 103.722656 326.894531 97.8125 325.867188 97.8125 325.867188 C 97.8125 325.867188 100.308594 334.867188 103.53125 339.464844 C 106.742188 344.066406 111.28125 348.5 111.183594 349.578125 C 111.085938 350.65625 101.566406 348.550781 91.917969 343.691406 C 82.265625 338.828125 80.628906 338.003906 76.855469 331.652344 C 73.070312 325.308594 71.207031 320.382812 70.855469 319.726562 C 70.496094 319.070312 63.824219 315.957031 52.039062 304.242188 C 40.25 292.527344 31.976562 282.742188 25.308594 268.511719 C 18.628906 254.292969 14.382812 233.585938 17.59375 227.199219 Z M 17.59375 227.199219 " fill-opacity="1" fill-rule="evenodd"/><g clip-path="url(#b234863122)"><path fill="#296f47" d="M 204.507812 350.085938 C 203.511719 346.40625 204.605469 343.199219 208.625 342.242188 C 212.644531 341.289062 216.890625 341.402344 217.652344 344.398438 C 218.40625 347.40625 216.136719 351.652344 212.90625 352.511719 C 209.675781 353.371094 205.269531 352.90625 204.507812 350.085938 Z M 165.285156 360.6875 C 164.980469 356.167969 166.5625 351.804688 172.5 352.617188 C 178.4375 353.433594 183.78125 355.570312 186.3125 357.535156 C 189.15625 359.742188 189.273438 363.308594 185.636719 364.683594 C 182.167969 365.988281 181.257812 367.695312 177.054688 369.011719 C 172.851562 370.316406 165.714844 366.96875 165.285156 360.6875 Z M 206.882812 374.339844 C 206.882812 374.339844 196.792969 374.960938 196.433594 368.207031 C 196.074219 361.449219 203.535156 359.09375 212.109375 360.046875 C 220.683594 361.003906 226.445312 360.230469 226.339844 355.097656 C 226.234375 349.964844 230.773438 344.496094 237.734375 343.820312 C 244.695312 343.136719 259.601562 343.679688 270.242188 328.53125 C 280.871094 313.390625 281.582031 295.953125 269.128906 287.515625 C 256.675781 279.078125 254.1875 279.191406 252.917969 266.3125 C 251.648438 253.433594 249.382812 241.261719 230.28125 240.929688 C 211.183594 240.605469 190.839844 247.160156 167.753906 239.292969 C 147.640625 232.429688 130.214844 220.8125 109.34375 214.785156 C 106.261719 213.890625 103.101562 213.128906 99.851562 212.515625 C 74.578125 207.75 155.242188 200.808594 155.242188 200.808594 L 362.191406 200.40625 C 362.183594 290.375 294.199219 364.570312 206.882812 374.339844 Z M 206.882812 374.339844 " fill-opacity="1" fill-rule="evenodd"/></g><path fill="#71c247" d="M 105.894531 29.285156 C 105.675781 27.9375 105.367188 26.5625 105.875 25.246094 C 106.875 22.644531 109.492188 22.855469 110.808594 20.824219 C 112.3125 18.5 111.824219 15.441406 113.503906 13.183594 C 115.667969 10.28125 118.488281 12.777344 121.035156 11.15625 C 122.769531 10.054688 123.617188 7.96875 125.597656 7.136719 C 127.175781 6.480469 129.320312 7.496094 130.710938 6.488281 C 133.382812 4.550781 134.546875 1.5625 138.148438 0.765625 C 140.179688 0.3125 141.542969 1.527344 143.472656 1.46875 C 146.089844 1.378906 148.777344 0.433594 151.210938 1.941406 C 154.453125 3.957031 153.945312 8.066406 156.546875 10.308594 C 158.71875 12.183594 162.152344 10.5625 164.460938 12.261719 C 165.628906 13.128906 166.398438 14.433594 166.738281 15.828125 C 166.921875 16.589844 166.933594 17.84375 167.519531 18.449219 C 168.621094 19.578125 171.222656 18.929688 172.570312 20.023438 C 174.078125 21.242188 173.253906 23.265625 174.148438 24.675781 C 174.890625 25.84375 176.609375 25.929688 177.351562 27.339844 C 177.964844 28.515625 176.992188 30.136719 177.640625 31.074219 C 178.5 32.308594 180.03125 32.617188 180.46875 34.308594 C 180.804688 35.578125 180.453125 36.925781 179.980469 38.109375 C 179.789062 38.589844 179.148438 39.539062 179.324219 40.082031 C 179.558594 40.808594 180.996094 40.773438 181.574219 40.871094 C 182.949219 41.089844 184 41.632812 184.351562 43.070312 C 184.953125 45.558594 183.535156 47.441406 183.238281 49.761719 C 182.914062 52.261719 185.644531 53.609375 183.625 57.746094 C 182.546875 59.953125 180.488281 61.039062 178.667969 62.300781 C 178.832031 63.449219 178.816406 64.691406 178.648438 65.839844 C 178.351562 67.847656 176.023438 68.59375 174.972656 70.089844 C 173.632812 71.984375 173.457031 74.699219 171.496094 76.171875 C 169.339844 77.785156 166.765625 76.53125 164.390625 76.707031 C 162.761719 76.828125 161.652344 78.230469 160.101562 78.625 C 158.664062 78.992188 157.148438 78.5625 155.714844 78.824219 C 153.210938 79.289062 152.429688 83.410156 149.664062 84.25 C 147.019531 85.054688 145.632812 82.585938 143.375 82.585938 C 143.339844 82.585938 143.304688 82.585938 143.269531 82.585938 C 143.445312 98.128906 143.613281 126.929688 144.136719 146.574219 C 144.699219 168.023438 145.617188 205.121094 145.617188 205.121094 C 145.617188 205.121094 138.488281 219.867188 138.4375 202.300781 C 138.382812 184.730469 139.425781 142.796875 139.234375 121.382812 C 139.085938 104.796875 138.910156 91.320312 138.8125 84.328125 C 138.65625 84.363281 138.496094 84.398438 138.339844 84.417969 C 135.78125 84.671875 135.40625 82.347656 133.46875 81.859375 C 132.0625 81.5 130.78125 82.890625 129.320312 82.425781 C 127.585938 81.875 127.21875 79.589844 125.683594 78.757812 C 123.707031 77.679688 121.105469 79.519531 119.414062 77.328125 C 117.875 75.320312 118.582031 72.527344 116.4375 70.703125 C 114.625 69.160156 111.945312 70.292969 110.097656 68.941406 C 108.371094 67.679688 108.625 65.113281 107.066406 63.808594 C 105.265625 62.292969 102.320312 63.546875 101.035156 60.785156 C 100.105469 58.8125 101.804688 56.632812 100.886719 54.722656 C 99.738281 52.363281 97.398438 51.488281 96.902344 48.613281 C 96.304688 45.144531 99.371094 43.8125 100.359375 40.976562 C 101.5 37.707031 99.800781 34.992188 102.363281 31.886719 C 103.300781 30.714844 104.570312 29.933594 105.894531 29.285156 Z M 105.894531 29.285156 " fill-opacity="1" fill-rule="evenodd"/><path fill="#71c247" d="M 23.261719 75.445312 C 23.359375 73.164062 23.820312 70.886719 24.953125 68.890625 C 26.167969 66.734375 27.988281 64.964844 30.25 63.921875 C 31.746094 63.230469 33.804688 63.046875 35.023438 61.863281 C 36.082031 60.820312 36.300781 58.875 36.886719 57.550781 C 37.84375 55.386719 39.367188 53.320312 41.40625 52.066406 C 42.808594 51.199219 44.496094 50.71875 46.152344 50.746094 C 46.863281 50.753906 47.851562 51.261719 48.527344 51.113281 C 49.164062 50.972656 49.960938 49.21875 50.453125 48.746094 C 52.046875 47.214844 54.304688 46.101562 56.511719 45.890625 C 59.382812 45.617188 62.011719 47.265625 63.519531 49.621094 C 64.070312 50.480469 64.316406 52.074219 65.164062 52.671875 C 67.511719 54.328125 70.507812 53.917969 72.527344 56.484375 C 73.246094 57.386719 73.703125 58.535156 73.84375 59.679688 C 73.902344 60.234375 73.648438 61.433594 74 61.890625 C 74.410156 62.433594 76.328125 62.082031 76.925781 62.144531 C 79.105469 62.363281 81.296875 63.097656 82.390625 65.148438 C 84.078125 68.320312 81.792969 71.027344 82.320312 74.023438 C 82.417969 74.578125 84.140625 74.699219 84.570312 74.925781 C 85.699219 75.523438 86.480469 76.582031 86.898438 77.773438 C 87.433594 79.273438 87.214844 80.796875 86.742188 82.277344 C 86.53125 82.945312 85.847656 84.117188 86.085938 84.84375 C 86.285156 85.457031 87.523438 85.519531 88.019531 85.660156 C 89.324219 86.027344 90.457031 86.789062 91.253906 87.894531 C 93.039062 90.375 90.910156 92.101562 90.839844 94.546875 C 90.796875 95.839844 91.628906 96.9375 91.417969 98.296875 C 90.917969 101.570312 88.160156 104.4375 85.523438 106.199219 C 80.078125 109.835938 71.109375 111.628906 64.734375 108.746094 C 64.097656 109.429688 63.386719 110.042969 62.421875 110.394531 C 60.960938 110.921875 59.734375 110.195312 58.308594 110.367188 C 58.105469 110.394531 57.914062 110.421875 57.730469 110.464844 C 57.878906 118.429688 58.4375 128.121094 58.902344 141.535156 C 59.628906 162.230469 60.53125 193.519531 60.53125 193.519531 C 60.53125 193.519531 52.230469 207.398438 51.632812 192.785156 C 51.039062 178.167969 53.316406 166.148438 53.226562 148.421875 C 53.175781 136.75 52.984375 121.234375 52.851562 112.007812 C 52.011719 112.183594 51.117188 112.234375 50.109375 112.023438 C 48.402344 111.675781 46.984375 109.753906 45.441406 109.589844 C 44.566406 109.492188 43.570312 110.308594 42.753906 110.554688 C 41.019531 111.078125 39.066406 111.035156 37.484375 110.105469 C 34.941406 108.609375 34.679688 104.839844 32.359375 103.535156 C 31.433594 103.007812 30.066406 103.605469 29.15625 103.902344 C 27.34375 104.488281 24.976562 105.296875 23.148438 104.339844 C 20.160156 102.789062 21.125 98.433594 20.335938 95.78125 C 19.015625 91.355469 14.136719 89.367188 14.460938 84.144531 C 14.742188 79.519531 19.050781 76.777344 23.261719 75.445312 Z M 23.261719 75.445312 " fill-opacity="1" fill-rule="evenodd"/><g clip-path="url(#4d36b55c7d)"><path fill="#71c247" d="M 362.171875 200.414062 C 362.171875 200.679688 362.105469 200.941406 361.964844 201.203125 C 361.824219 201.464844 361.613281 201.726562 361.332031 201.988281 C 361.050781 202.25 360.703125 202.511719 360.28125 202.773438 C 359.863281 203.03125 359.375 203.292969 358.816406 203.550781 C 358.257812 203.808594 357.632812 204.066406 356.9375 204.320312 C 356.242188 204.574219 355.480469 204.828125 354.648438 205.078125 C 353.820312 205.332031 352.921875 205.582031 351.957031 205.828125 C 350.996094 206.078125 349.964844 206.320312 348.871094 206.566406 C 347.777344 206.808594 346.617188 207.046875 345.394531 207.285156 C 344.171875 207.523438 342.886719 207.757812 341.539062 207.988281 C 340.191406 208.222656 338.78125 208.449219 337.308594 208.675781 C 335.839844 208.902344 334.308594 209.125 332.722656 209.34375 C 331.132812 209.5625 329.484375 209.777344 327.78125 209.988281 C 326.078125 210.199219 324.320312 210.40625 322.503906 210.609375 C 320.691406 210.8125 318.824219 211.011719 316.902344 211.207031 C 314.980469 211.402344 313.011719 211.589844 310.988281 211.777344 C 308.964844 211.964844 306.894531 212.144531 304.777344 212.320312 C 302.65625 212.5 300.492188 212.671875 298.28125 212.835938 C 296.070312 213.003906 293.816406 213.164062 291.519531 213.320312 C 289.222656 213.480469 286.882812 213.628906 284.503906 213.777344 C 282.128906 213.921875 279.710938 214.0625 277.257812 214.199219 C 274.804688 214.332031 272.316406 214.464844 269.796875 214.585938 C 267.273438 214.710938 264.71875 214.828125 262.132812 214.941406 C 259.546875 215.054688 256.933594 215.160156 254.292969 215.261719 C 251.648438 215.363281 248.980469 215.457031 246.289062 215.546875 C 243.597656 215.632812 240.882812 215.714844 238.144531 215.792969 C 235.40625 215.867188 232.652344 215.9375 229.878906 216.003906 C 227.105469 216.066406 224.3125 216.125 221.507812 216.175781 C 218.703125 216.226562 215.886719 216.273438 213.058594 216.308594 C 210.226562 216.347656 207.390625 216.382812 204.542969 216.40625 C 201.699219 216.433594 198.847656 216.453125 195.988281 216.464844 C 193.132812 216.476562 190.273438 216.484375 187.414062 216.484375 C 184.554688 216.484375 181.695312 216.476562 178.839844 216.464844 C 175.984375 216.453125 173.132812 216.433594 170.285156 216.40625 C 167.4375 216.382812 164.601562 216.347656 161.773438 216.308594 C 158.945312 216.273438 156.125 216.226562 153.320312 216.175781 C 150.515625 216.125 147.726562 216.066406 144.953125 216.003906 C 142.179688 215.9375 139.421875 215.867188 136.683594 215.792969 C 133.949219 215.714844 131.234375 215.632812 128.539062 215.546875 C 125.847656 215.457031 123.179688 215.363281 120.539062 215.261719 C 117.894531 215.160156 115.28125 215.054688 112.695312 214.941406 C 110.109375 214.828125 107.554688 214.710938 105.035156 214.585938 C 102.511719 214.464844 100.023438 214.332031 97.570312 214.199219 C 95.117188 214.0625 92.703125 213.921875 90.324219 213.777344 C 87.945312 213.628906 85.609375 213.480469 83.3125 213.320312 C 81.015625 213.164062 78.761719 213.003906 76.550781 212.835938 C 74.339844 212.671875 72.171875 212.5 70.054688 212.320312 C 67.933594 212.144531 65.863281 211.964844 63.84375 211.777344 C 61.820312 211.589844 59.847656 211.402344 57.925781 211.207031 C 56.007812 211.011719 54.140625 210.8125 52.324219 210.609375 C 50.511719 210.40625 48.75 210.199219 47.046875 209.988281 C 45.34375 209.777344 43.699219 209.5625 42.109375 209.34375 C 40.519531 209.125 38.988281 208.902344 37.519531 208.675781 C 36.050781 208.449219 34.640625 208.222656 33.292969 207.988281 C 31.941406 207.757812 30.65625 207.523438 29.433594 207.285156 C 28.210938 207.046875 27.054688 206.808594 25.957031 206.566406 C 24.863281 206.320312 23.835938 206.078125 22.871094 205.828125 C 21.910156 205.582031 21.011719 205.332031 20.179688 205.078125 C 19.351562 204.828125 18.589844 204.574219 17.894531 204.320312 C 17.199219 204.066406 16.570312 203.808594 16.015625 203.550781 C 15.457031 203.292969 14.96875 203.03125 14.546875 202.773438 C 14.128906 202.511719 13.777344 202.25 13.496094 201.988281 C 13.21875 201.726562 13.007812 201.464844 12.867188 201.203125 C 12.726562 200.941406 12.65625 200.679688 12.65625 200.414062 C 12.65625 200.152344 12.726562 199.890625 12.867188 199.625 C 13.007812 199.363281 13.21875 199.101562 13.496094 198.839844 C 13.777344 198.578125 14.128906 198.316406 14.546875 198.058594 C 14.96875 197.796875 15.457031 197.539062 16.015625 197.28125 C 16.570312 197.023438 17.199219 196.765625 17.894531 196.511719 C 18.589844 196.253906 19.351562 196.003906 20.179688 195.75 C 21.011719 195.5 21.910156 195.25 22.871094 195 C 23.835938 194.753906 24.863281 194.507812 25.957031 194.265625 C 27.054688 194.023438 28.210938 193.78125 29.433594 193.542969 C 30.65625 193.308594 31.941406 193.070312 33.292969 192.839844 C 34.640625 192.609375 36.050781 192.378906 37.519531 192.152344 C 38.988281 191.929688 40.519531 191.707031 42.109375 191.488281 C 43.699219 191.269531 45.34375 191.054688 47.046875 190.84375 C 48.75 190.632812 50.511719 190.425781 52.324219 190.222656 C 54.140625 190.015625 56.007812 189.820312 57.925781 189.625 C 59.847656 189.429688 61.820312 189.238281 63.84375 189.050781 C 65.863281 188.867188 67.933594 188.683594 70.054688 188.507812 C 72.171875 188.332031 74.339844 188.160156 76.550781 187.992188 C 78.761719 187.828125 81.015625 187.664062 83.3125 187.507812 C 85.609375 187.351562 87.945312 187.199219 90.324219 187.054688 C 92.703125 186.90625 95.117188 186.765625 97.570312 186.632812 C 100.023438 186.496094 102.511719 186.367188 105.035156 186.242188 C 107.554688 186.121094 110.109375 186 112.695312 185.886719 C 115.28125 185.777344 117.894531 185.667969 120.539062 185.570312 C 123.179688 185.46875 125.847656 185.375 128.539062 185.285156 C 131.234375 185.195312 133.949219 185.113281 136.683594 185.039062 C 139.421875 184.960938 142.179688 184.890625 144.953125 184.828125 C 147.726562 184.761719 150.515625 184.707031 153.320312 184.65625 C 156.125 184.601562 158.945312 184.558594 161.773438 184.519531 C 164.601562 184.480469 167.4375 184.449219 170.285156 184.421875 C 173.132812 184.398438 175.984375 184.378906 178.839844 184.363281 C 181.695312 184.351562 184.554688 184.347656 187.414062 184.347656 C 190.273438 184.347656 193.132812 184.351562 195.988281 184.363281 C 198.847656 184.378906 201.699219 184.398438 204.542969 184.421875 C 207.390625 184.449219 210.226562 184.480469 213.058594 184.519531 C 215.886719 184.558594 218.703125 184.601562 221.507812 184.65625 C 224.3125 184.707031 227.105469 184.761719 229.878906 184.828125 C 232.652344 184.890625 235.40625 184.960938 238.144531 185.039062 C 240.882812 185.113281 243.597656 185.195312 246.289062 185.285156 C 248.980469 185.375 251.648438 185.46875 254.292969 185.570312 C 256.933594 185.667969 259.546875 185.777344 262.132812 185.886719 C 264.71875 186 267.273438 186.121094 269.796875 186.242188 C 272.316406 186.367188 274.804688 186.496094 277.257812 186.632812 C 279.710938 186.765625 282.128906 186.90625 284.503906 187.054688 C 286.882812 187.199219 289.222656 187.351562 291.519531 187.507812 C 293.816406 187.664062 296.070312 187.828125 298.28125 187.992188 C 300.492188 188.160156 302.65625 188.332031 304.777344 188.507812 C 306.894531 188.683594 308.964844 188.867188 310.988281 189.050781 C 313.011719 189.238281 314.980469 189.429688 316.902344 189.625 C 318.824219 189.820312 320.691406 190.015625 322.503906 190.222656 C 324.320312 190.425781 326.078125 190.632812 327.78125 190.84375 C 329.484375 191.054688 331.132812 191.269531 332.722656 191.488281 C 334.308594 191.707031 335.839844 191.929688 337.308594 192.152344 C 338.78125 192.378906 340.191406 192.609375 341.539062 192.839844 C 342.886719 193.070312 344.171875 193.308594 345.394531 193.542969 C 346.617188 193.78125 347.777344 194.023438 348.871094 194.265625 C 349.964844 194.507812 350.996094 194.753906 351.957031 195 C 352.921875 195.25 353.820312 195.5 354.648438 195.75 C 355.480469 196.003906 356.242188 196.253906 356.9375 196.511719 C 357.632812 196.765625 358.257812 197.023438 358.816406 197.28125 C 359.375 197.539062 359.863281 197.796875 360.28125 198.058594 C 360.703125 198.316406 361.050781 198.578125 361.332031 198.839844 C 361.613281 199.101562 361.824219 199.363281 361.964844 199.625 C 362.105469 199.890625 362.171875 200.152344 362.171875 200.414062 Z M 362.171875 200.414062 " fill-opacity="1" fill-rule="nonzero"/></g><path fill="#228c22" d="M 234.144531 8.117188 C 235.246094 8.808594 236.523438 10.710938 238.003906 12.777344 C 239.476562 14.855469 241.183594 16.285156 242.804688 18.113281 C 244.425781 19.945312 244.714844 20.429688 245.667969 22.792969 C 246.621094 25.167969 247.078125 25.824219 244.242188 25.929688 C 241.410156 26.035156 240.914062 25.648438 239.40625 24.476562 C 237.898438 23.300781 236.691406 23.695312 234.273438 23.617188 C 231.859375 23.539062 230.527344 23.300781 229.074219 22.75 C 227.621094 22.199219 227.164062 22.152344 226.671875 23.074219 C 226.191406 23.996094 224.027344 29.550781 223.285156 37.988281 C 222.539062 46.414062 220.921875 58.542969 220.761719 65.402344 C 220.605469 72.261719 218.242188 83.050781 216.636719 88.796875 C 215.035156 94.535156 214.5 97.902344 214.796875 99.90625 C 215.085938 101.921875 216.742188 104.761719 217.953125 108.320312 C 219.152344 111.875 218.308594 112.191406 216.515625 116.800781 C 214.71875 121.398438 212.46875 127.648438 211.367188 131.644531 C 210.253906 135.636719 209.832031 139.203125 209.738281 145.828125 C 209.632812 152.453125 208.660156 152.722656 207.589844 155.421875 C 206.523438 158.121094 206.601562 161.722656 206.664062 169.511719 C 206.726562 177.300781 207.390625 185.230469 207.976562 187.210938 C 208.574219 189.191406 210.824219 189.796875 211.875 190.769531 C 212.914062 191.75 213.203125 193.511719 210 193.660156 C 206.792969 193.808594 204.394531 194.046875 204.195312 193.351562 C 203.984375 192.667969 204.230469 188.988281 204.167969 187.816406 C 204.105469 186.632812 203.109375 186.011719 202.914062 184.898438 C 202.722656 183.785156 202.871094 177.503906 202.214844 169.75 C 201.550781 161.976562 201.433594 160.75 201.382812 155.632812 C 201.332031 150.515625 200.734375 152.050781 200.683594 148.421875 C 200.621094 144.792969 200.820312 141.808594 200.820312 141.808594 C 200.820312 141.808594 199.097656 148.972656 199.183594 153.453125 C 199.28125 157.929688 198.464844 159.4375 197.871094 161.714844 C 197.265625 163.984375 197.046875 166.496094 197.144531 175.644531 C 197.242188 184.773438 196.601562 184.3125 197.25 185.878906 C 197.886719 187.457031 197.476562 188.164062 198.414062 189 C 199.351562 189.832031 201.539062 191.503906 201.574219 192.597656 C 201.609375 193.695312 200.3125 193.738281 197.878906 193.941406 C 195.445312 194.140625 193.316406 193.851562 193.175781 193.203125 C 193.039062 192.554688 193.5625 190.375 193.5 189.324219 C 193.441406 188.261719 192.96875 188.421875 192.644531 187.070312 C 192.308594 185.722656 192.398438 185.640625 192.679688 181.683594 C 192.957031 177.722656 192.609375 173.375 192.714844 168.144531 C 192.816406 162.921875 193.089844 157.648438 192.914062 154.527344 C 192.738281 151.402344 192.363281 147.125 192.511719 142.972656 C 192.667969 138.828125 192.40625 133.507812 192.285156 132.949219 C 192.171875 132.394531 190.367188 132.976562 186.8125 133.132812 C 183.253906 133.289062 181.863281 132.421875 179.246094 132.246094 C 176.625 132.070312 176.003906 133.175781 173.839844 136.445312 C 171.679688 139.710938 167.71875 141.945312 165.984375 145.347656 C 164.253906 148.753906 163.929688 153.949219 164.148438 158.796875 C 164.367188 163.640625 162.902344 166.171875 162.683594 169.03125 C 162.457031 171.886719 163.796875 176.503906 164.980469 182.339844 C 166.160156 188.164062 166.609375 189.035156 167.1875 189.855469 C 167.773438 190.679688 170.074219 192.519531 170.242188 193.835938 C 170.398438 195.148438 167.140625 194.949219 165.417969 194.824219 C 163.699219 194.710938 162.9375 194.675781 162.886719 193.921875 C 162.832031 193.160156 162.851562 192.460938 163.234375 192.125 C 163.621094 191.792969 163.515625 191.539062 162.808594 190.304688 C 162.097656 189.066406 161.941406 188.121094 161.328125 185.46875 C 160.714844 182.8125 159.503906 175.671875 158.867188 170.386719 C 158.21875 165.097656 157.746094 165.429688 157.359375 163.0625 C 156.957031 160.6875 156.265625 156.957031 155.925781 156.914062 C 155.582031 156.878906 154.644531 159.585938 154.367188 162.273438 C 154.085938 164.964844 153.925781 165.367188 153.304688 166.988281 C 152.683594 168.617188 153.417969 168.582031 152.261719 174.355469 C 151.109375 180.132812 150.878906 188.386719 151.074219 189.261719 C 151.265625 190.136719 153.65625 191.320312 154.503906 192.785156 C 155.371094 194.246094 155.144531 194.832031 151.652344 194.824219 C 148.148438 194.816406 146.867188 194.597656 146.695312 193.941406 C 146.519531 193.28125 146.597656 191.460938 146.730469 190.453125 C 146.859375 189.4375 146.003906 189.820312 146.132812 188.558594 C 146.273438 187.296875 147.148438 182.664062 147.734375 177.527344 C 148.324219 172.402344 148.558594 171.992188 148.550781 167.433594 C 148.53125 162.863281 147.867188 154.914062 148.394531 152.863281 C 148.925781 150.824219 151.351562 148.035156 153.488281 143.917969 C 155.625 139.800781 155.671875 139.816406 154.707031 135.777344 C 153.742188 131.746094 151.292969 122.574219 151.34375 115.484375 C 151.34375 115.484375 147.261719 122.941406 144.425781 137.609375 C 144.425781 137.609375 146.632812 139.652344 146.054688 143.234375 C 145.476562 146.820312 144.101562 146.292969 143.953125 149.261719 C 143.796875 152.234375 144.222656 153.398438 142.585938 155.449219 C 140.308594 158.332031 142.351562 154.652344 141.886719 153.101562 C 141.371094 151.375 140.609375 150.058594 140.976562 147.0625 C 141.34375 144.066406 141.203125 144.261719 141.054688 142.105469 C 140.90625 139.949219 141.34375 138.765625 143.199219 137.363281 C 143.199219 137.363281 145.40625 126.402344 147.492188 119.246094 C 149.539062 112.21875 150.722656 108.257812 152.289062 105.679688 C 153.855469 103.097656 158.042969 99.242188 161.5625 97.648438 C 165.074219 96.050781 169.566406 94.625 178.402344 89.648438 C 187.238281 84.671875 187.152344 83.121094 188.167969 81.613281 C 189.183594 80.097656 189.796875 77.425781 193.675781 73.710938 C 197.554688 69.992188 199.5625 68.53125 200.925781 66.761719 C 202.292969 64.992188 206.925781 56.683594 208.414062 45.453125 C 209.894531 34.210938 213.441406 23.660156 214.703125 19.628906 C 215.953125 15.601562 217.363281 14.136719 218.96875 12.175781 C 218.96875 12.175781 217.835938 11.007812 217.425781 9.109375 C 217.015625 7.207031 216.796875 6.199219 217.445312 5.902344 C 218.089844 5.601562 220.386719 5.199219 222.375 7.136719 C 222.375 7.136719 224.097656 5.996094 224.441406 5.699219 C 224.78125 5.402344 224.703125 5.304688 224.597656 4.21875 C 224.5 3.140625 223.6875 1.609375 223.855469 1.34375 C 224.011719 1.082031 224.84375 0.355469 225.632812 0.539062 C 226.417969 0.722656 226.296875 1.851562 226.570312 2.949219 C 226.847656 4.042969 227.078125 4.945312 227.496094 4.929688 C 227.917969 4.917969 228.03125 4.324219 227.882812 3.414062 C 227.722656 2.5 226.988281 0.757812 227.339844 0.449219 C 227.6875 0.144531 229.160156 0.03125 229.710938 0.925781 C 230.265625 1.816406 230.21875 3.5 230.640625 4.894531 C 231.0625 6.296875 231.429688 6.785156 231.789062 6.980469 C 232.128906 7.1875 233.292969 7.582031 234.144531 8.117188 Z M 234.144531 8.117188 " fill-opacity="1" fill-rule="evenodd"/><path fill="#115f32" d="M 320.683594 130.003906 C 321.398438 130.074219 322.371094 130.25 323.195312 130.644531 C 324.753906 131.378906 325.269531 132.535156 326.953125 135.375 C 328.652344 138.214844 330.9375 140.105469 333.679688 143.542969 C 336.417969 146.976562 338.75 150.085938 339.929688 154.03125 C 341.113281 157.972656 341.410156 159.269531 340.183594 162.238281 C 338.949219 165.210938 337.015625 165.59375 335.410156 165.640625 C 333.816406 165.691406 333.074219 164.957031 332.304688 164.132812 C 331.53125 163.308594 331.417969 162.722656 331.523438 162.003906 C 331.628906 161.285156 332.46875 160.652344 332.425781 159.839844 C 332.390625 159.023438 332.339844 158.453125 330.972656 158.578125 C 329.613281 158.691406 329.351562 158.382812 328.109375 157.824219 C 326.863281 157.261719 326.148438 156.964844 325.148438 157.261719 C 324.160156 157.5625 324.203125 158.410156 324.894531 160.058594 C 325.585938 161.695312 325.628906 161.074219 325.796875 162.6875 C 325.960938 164.308594 326.636719 167.015625 328.46875 169.066406 C 330.289062 171.113281 333.941406 173.164062 338.328125 172.769531 C 342.714844 172.367188 344.0625 170.984375 345.746094 169.054688 C 347.425781 167.128906 349.625 163.378906 349.78125 158.042969 C 349.949219 152.714844 347.46875 145.8125 345.078125 140.640625 C 342.6875 135.480469 340.9375 130.636719 340.089844 126.324219 C 339.246094 122.011719 338.75 118.789062 337.984375 117.175781 C 337.222656 115.566406 337.835938 114.566406 336.945312 109.40625 C 336.058594 104.253906 334.40625 98.023438 331.882812 94.800781 C 329.359375 91.566406 323.675781 84.835938 315.332031 81.671875 C 306.996094 78.511719 304.070312 79.886719 299.917969 82.191406 C 299.917969 82.191406 295.066406 80.019531 288.917969 78.46875 C 282.761719 76.914062 282.625 77.898438 281.878906 79.660156 C 281.132812 81.417969 280.117188 82.707031 278.65625 83.671875 C 277.195312 84.636719 276.082031 85.117188 275.496094 86.808594 C 274.90625 88.507812 274.09375 88.851562 273.734375 89.71875 C 273.375 90.585938 274.058594 92.207031 274.058594 92.207031 C 274.058594 92.207031 265.609375 95.429688 260.421875 96.65625 C 255.238281 97.882812 244.933594 96.480469 236.296875 96.367188 C 227.664062 96.253906 218.414062 98.066406 206.953125 108.933594 C 195.488281 119.796875 195.558594 123.886719 193.011719 132.765625 C 190.460938 141.640625 190.960938 150.71875 191.121094 154.96875 C 191.277344 159.214844 192.265625 168.820312 192.265625 168.820312 C 192.265625 168.820312 190.550781 169.730469 191.058594 173.796875 C 191.566406 177.863281 192.609375 179.886719 192.816406 181.65625 C 193.035156 183.425781 193.773438 180.746094 194.664062 178.378906 C 195.550781 176.023438 196.164062 174.242188 195.867188 171.824219 C 195.558594 169.414062 194.0625 169.476562 193.929688 168.582031 C 193.800781 167.6875 191.863281 151.4375 194.691406 141.859375 C 194.691406 141.859375 195.09375 149.726562 196.96875 156.0625 C 198.84375 162.40625 200.972656 168.882812 201.792969 173.269531 C 202.617188 177.660156 202.878906 180.789062 202.992188 186.914062 C 203.109375 193.039062 202.230469 196.894531 202.601562 198.144531 C 202.96875 199.40625 203.117188 200.503906 205.445312 201.011719 C 207.777344 201.511719 214.359375 201.160156 215.726562 200.816406 C 217.09375 200.484375 216.601562 198.207031 216.15625 196.472656 C 215.699219 194.746094 214.738281 194.300781 214.78125 192.703125 C 214.824219 191.109375 215.253906 182.488281 217.207031 177.503906 C 217.207031 177.503906 218.03125 181.382812 218.195312 185.675781 C 218.363281 189.960938 218.554688 196.507812 218.976562 197.960938 C 219.394531 199.425781 219.667969 200.1875 222.066406 200.695312 C 224.464844 201.195312 231.007812 200.6875 232.03125 200.300781 C 233.046875 199.914062 232.445312 196.324219 231.316406 193.949219 C 230.183594 191.574219 230.019531 190.53125 230.335938 185.257812 C 230.621094 180.367188 231.945312 171.203125 233.976562 167.242188 C 237.226562 167.515625 241.859375 167.285156 246.246094 166.734375 C 252.332031 165.972656 259.496094 162.964844 262.824219 161.757812 C 266.152344 160.558594 269.828125 160.75 270.390625 162.203125 C 270.949219 163.660156 273.164062 168.574219 273.777344 173.726562 C 274.382812 178.886719 275.722656 187.113281 275.425781 190.503906 C 275.128906 193.90625 274.847656 197.875 275.195312 198.679688 C 275.554688 199.496094 278.339844 200.363281 283.972656 200.238281 C 289.601562 200.117188 289.226562 198.890625 288.988281 197.332031 C 288.746094 195.761719 287.222656 193.484375 287.019531 192.285156 C 286.816406 191.082031 287.238281 185.851562 287.964844 180.386719 C 288.691406 174.917969 289.058594 170.449219 289.339844 172.359375 C 289.628906 174.269531 292.546875 180.191406 292.886719 181.699219 C 293.21875 183.199219 293.753906 185.363281 293.097656 188.121094 C 292.441406 190.882812 292.328125 192.363281 291.921875 194.035156 C 291.519531 195.710938 292.0625 197.191406 292.964844 197.933594 C 293.875 198.679688 296.957031 199.179688 300.15625 198.96875 C 303.359375 198.757812 304.960938 199.074219 305.472656 197.542969 C 305.980469 196.007812 304.515625 192.054688 304.734375 190.023438 C 304.953125 187.992188 306.84375 183.699219 306.109375 177.144531 C 305.375 170.589844 302.292969 160.234375 301.707031 156.195312 C 301.117188 152.144531 301.242188 143.714844 302.765625 141.253906 C 304.296875 138.792969 308.421875 132.597656 309.316406 132.160156 C 310.207031 131.722656 313.246094 131.390625 314.097656 131.441406 C 314.945312 131.492188 316.714844 135.542969 321.074219 139.84375 C 325.445312 144.144531 332.234375 146.773438 332.398438 146.125 C 332.566406 145.476562 326.691406 142.753906 323.414062 137.039062 C 321.839844 134.28125 321.050781 131.644531 320.683594 130.003906 Z M 320.683594 130.003906 " fill-opacity="1" fill-rule="evenodd"/><path fill="#115f32" d="M 126.054688 105.8125 C 126.054688 105.8125 127.367188 104.902344 129.160156 104.332031 C 130.949219 103.761719 133.382812 103.875 133.847656 103.964844 C 134.300781 104.050781 133.917969 105.855469 132.832031 107.644531 C 131.746094 109.429688 131.195312 109.300781 130.582031 109.414062 C 129.96875 109.527344 129.25 109.484375 129.347656 110.089844 C 129.433594 110.691406 131.691406 114.144531 132.226562 117.117188 C 132.753906 120.085938 132.507812 126.515625 132.480469 129.566406 C 132.464844 132.617188 132.9375 133.300781 132.707031 136.113281 C 132.480469 138.925781 132.253906 138.992188 132.570312 141.796875 C 132.882812 144.601562 133.410156 146.546875 131.972656 148.894531 C 130.546875 151.242188 128.207031 152.839844 126.210938 157.59375 C 124.214844 162.351562 122.4375 167.996094 122.050781 170.605469 C 121.675781 173.226562 121.578125 177.484375 121.4375 182.839844 C 121.296875 188.191406 121.070312 191.277344 121.007812 193.589844 C 120.949219 195.902344 121.9375 197.050781 122.058594 198.339844 C 122.191406 199.625 120.125 199.765625 118.476562 199.765625 C 116.832031 199.765625 116.605469 198.792969 116.824219 197.367188 C 117.042969 195.9375 117.101562 197.148438 117.382812 193.132812 C 117.65625 189.121094 117.558594 185.5625 117.410156 182.261719 C 117.261719 178.957031 116.894531 174.699219 116.710938 171.492188 C 116.515625 168.277344 117.058594 163.253906 116.605469 161.195312 C 116.605469 161.195312 116.527344 160.558594 115.167969 160.714844 C 113.8125 160.871094 113.382812 160.828125 113.523438 165.0625 C 113.660156 169.292969 113.40625 171.808594 113.800781 173.472656 C 114.195312 175.136719 114.222656 176.207031 113.941406 178.730469 C 113.660156 181.261719 113.355469 184.636719 113.3125 188.8125 C 113.257812 192.992188 113.335938 195.621094 113.582031 196.429688 C 113.835938 197.234375 114.414062 198.25 114.292969 199.441406 C 114.167969 200.632812 111.070312 200.082031 110.011719 199.898438 C 108.949219 199.714844 109.328125 198.207031 109.476562 196.945312 C 109.625 195.691406 109.878906 191.425781 110.035156 187.359375 C 110.195312 183.292969 110 178.464844 109.816406 176.996094 C 109.632812 175.515625 108.898438 174.925781 108.484375 172.839844 C 108.074219 170.757812 108.1875 168.996094 107.722656 166.832031 C 107.261719 164.667969 106.296875 161.414062 105.964844 161.433594 C 105.632812 161.449219 102.242188 162.273438 99.878906 162.34375 C 97.511719 162.414062 94.851562 161.53125 94.160156 161.714844 C 93.46875 161.90625 92.792969 164.921875 89.632812 168.898438 C 86.46875 172.875 85.628906 173.585938 85.824219 176.371094 C 86.015625 179.160156 86.183594 181.472656 87.152344 186.546875 C 88.125 191.617188 88.976562 194.472656 89.253906 195.007812 C 89.542969 195.535156 92.144531 197.636719 92.375 198.925781 C 92.601562 200.214844 90.175781 199.878906 88.351562 199.757812 C 86.53125 199.636719 86.214844 199.363281 86.121094 198.128906 C 86.023438 196.894531 85.867188 196.59375 85.148438 193.351562 C 84.429688 190.121094 83.019531 183.6875 82.128906 180.621094 C 81.234375 177.554688 81.199219 177.921875 80.28125 176.09375 C 79.367188 174.261719 78.894531 173.289062 79.769531 170.992188 C 80.648438 168.695312 83.449219 163.894531 83.125 163.675781 C 82.800781 163.449219 80.28125 166.148438 77.992188 169.109375 C 75.707031 172.070312 72.144531 175.285156 71.15625 177.597656 C 70.171875 179.914062 69.804688 183.136719 69.261719 188.980469 C 68.71875 194.824219 68.984375 195.875 69.316406 196.359375 C 69.648438 196.832031 70.867188 198.390625 70.75 199.066406 C 70.636719 199.742188 67.871094 199.84375 66.925781 199.582031 C 65.980469 199.320312 66.234375 199.582031 66.128906 196.578125 C 66.023438 193.570312 65.917969 186.878906 65.804688 182.59375 C 65.691406 178.308594 65.460938 175.398438 65.996094 174.558594 C 66.53125 173.71875 67.964844 172.472656 70.09375 169.308594 C 72.222656 166.136719 73.195312 161.636719 73.160156 159.714844 C 73.132812 157.789062 71.890625 152.863281 71.441406 149.753906 C 71.441406 149.753906 69.65625 150.628906 68.9375 149.929688 C 68.21875 149.238281 68.710938 146.371094 69.527344 144.296875 C 70.339844 142.21875 74.769531 137.8125 78.222656 135.367188 C 81.671875 132.929688 87.363281 130.257812 90.289062 129.941406 C 93.214844 129.628906 98.679688 130.679688 104.132812 131.644531 C 109.597656 132.605469 109.851562 132.554688 113.015625 131.40625 C 116.175781 130.265625 117.402344 129.066406 119.265625 128.191406 C 121.140625 127.304688 120.535156 126.246094 120.753906 124.78125 C 120.972656 123.320312 120.660156 122.433594 120.089844 122.476562 C 119.511719 122.523438 117.933594 122.292969 115.351562 122.25 C 112.769531 122.207031 111.59375 122.179688 110.429688 121.875 C 109.265625 121.566406 109.011719 121.707031 108.722656 120.332031 C 108.433594 118.957031 108.371094 118.113281 108.800781 117.648438 C 109.230469 117.195312 111.640625 115.828125 112.472656 114.871094 C 113.304688 113.917969 113.75 112.304688 114.703125 110.710938 C 115.660156 109.117188 116.988281 108.125 117.402344 107.660156 C 117.8125 107.195312 117.945312 105.15625 117.769531 104.246094 C 117.59375 103.34375 116.304688 100.449219 115.167969 98.503906 C 114.03125 96.570312 112.164062 95.902344 110.65625 95.367188 C 109.152344 94.835938 105.261719 95.273438 103.511719 95.253906 C 101.761719 95.226562 100.253906 93.589844 98.835938 92.328125 C 97.425781 91.066406 96.496094 89.613281 95.628906 88.316406 C 94.765625 87.027344 94.449219 86.351562 94.648438 86.308594 C 94.851562 86.265625 95.867188 87.300781 97.191406 88.570312 C 98.511719 89.847656 99.695312 91.320312 100.902344 91.855469 C 102.109375 92.390625 103.109375 92.265625 103.503906 92.300781 C 103.503906 92.300781 103.460938 91.953125 102.871094 90.726562 C 102.296875 89.507812 102.085938 89.183594 101.761719 87.316406 C 101.445312 85.449219 101.09375 83.59375 101.359375 83.503906 C 101.621094 83.417969 102.25 85.746094 103.09375 87.464844 C 103.933594 89.183594 105.316406 91.117188 106.191406 91.792969 C 107.066406 92.46875 109.222656 92.871094 109.503906 92.792969 C 109.78125 92.714844 109.292969 92.082031 108.785156 90.875 C 108.265625 89.664062 108.03125 88.175781 107.953125 86.914062 C 107.875 85.652344 107.933594 85.398438 108.230469 85.878906 C 108.539062 86.363281 108.890625 87.492188 109.492188 89.050781 C 110.097656 90.609375 110.132812 90.636719 110.9375 91.503906 C 111.742188 92.371094 112.910156 93.25 113.589844 94.011719 C 114.265625 94.773438 114.84375 95.808594 115.011719 94.660156 C 115.175781 93.511719 114.976562 92.941406 114.609375 91.820312 C 114.238281 90.699219 113.960938 89.847656 114.179688 89.621094 C 114.398438 89.394531 115.054688 90.496094 115.9375 91.988281 C 116.824219 93.476562 116.953125 93.667969 117.410156 95.789062 C 117.867188 97.910156 118.03125 98.792969 118.617188 100.625 C 119.207031 102.457031 120.238281 104.515625 120.238281 104.515625 C 120.238281 104.515625 120.34375 103.132812 120.78125 102.464844 C 121.21875 101.792969 122.445312 101.019531 122.613281 101.046875 C 122.777344 101.074219 122.980469 102 123.328125 102.851562 C 123.679688 103.710938 124.242188 104.839844 124.242188 104.839844 C 124.242188 104.839844 125.886719 102.859375 126.507812 101.765625 C 127.128906 100.667969 127.070312 100.574219 126.964844 98.601562 C 126.859375 96.640625 126.542969 94.921875 126.726562 94.710938 C 126.910156 94.511719 128.128906 97.007812 128.339844 97.613281 C 128.339844 97.613281 128.539062 97.804688 128.96875 96.859375 C 129.398438 95.910156 129.933594 95.210938 129.828125 94.230469 C 129.722656 93.25 128.875 91.953125 128.3125 91.425781 C 127.742188 90.890625 125.386719 91.1875 123.25 91.109375 C 121.113281 91.03125 121.027344 91.164062 119.625 90.46875 C 118.222656 89.769531 117.21875 88.886719 117.324219 88.78125 C 117.425781 88.664062 118.976562 89.359375 120.414062 89.691406 C 121.851562 90.023438 122.945312 89.867188 124.582031 89.59375 C 126.210938 89.324219 126.972656 89.375 127.050781 89.175781 C 127.128906 88.964844 126.421875 87.972656 125.027344 86.597656 C 123.644531 85.222656 122.304688 84.242188 121.054688 83.375 C 119.800781 82.496094 119.082031 82.050781 119.207031 81.875 C 119.328125 81.707031 121.332031 82.558594 122.714844 83.179688 C 124.101562 83.792969 124.792969 84.582031 126.726562 86.316406 C 128.671875 88.042969 130.351562 90.085938 130.492188 90.136719 C 130.632812 90.191406 130.90625 88.246094 130.710938 87.464844 C 130.511719 86.6875 129.773438 85.78125 129.039062 84.671875 C 128.304688 83.566406 127.304688 82.367188 127.566406 82.199219 C 127.839844 82.042969 129.984375 84.09375 131.078125 85.265625 C 132.183594 86.441406 132.324219 86.929688 132.578125 89.042969 C 132.832031 91.152344 132.402344 93.574219 132.304688 94.378906 C 132.253906 94.816406 131.027344 97.4375 129.566406 100.082031 C 128.121094 102.738281 126.054688 105.8125 126.054688 105.8125 Z M 126.054688 105.8125 " fill-opacity="1" fill-rule="evenodd"/></svg>