<svg xmlns="http://www.w3.org/2000/svg" xmlns:xlink="http://www.w3.org/1999/xlink" width="500" zoomAndPan="magnify" viewBox="0 0 375 374.999991" height="500" preserveAspectRatio="xMidYMid meet" version="1.0"><defs><clipPath id="b8ac874519"><path d="M 0.46875 187 L 374.71875 187 L 374.71875 375 L 0.46875 375 Z M 0.46875 187 " clip-rule="nonzero"/></clipPath></defs><path fill="#2e7d32" d="M 173.199219 103.128906 L 201.988281 103.128906 L 201.988281 200.65625 L 173.199219 200.65625 Z M 173.199219 103.128906 " fill-opacity="1" fill-rule="nonzero"/><path fill="#2e7d32" d="M 201.988281 118.292969 C 144.410156 118.292969 120.582031 103.457031 106.1875 67.488281 C 91.792969 31.519531 71.824219 12.949219 71.824219 12.949219 C 136.359375 0.363281 153.503906 17.222656 173.871094 35.5 C 200.949219 59.796875 201.988281 118.292969 201.988281 118.292969 Z M 201.988281 118.292969 " fill-opacity="1" fill-rule="nonzero"/><path fill="#1b5e20" d="M 185.011719 103.359375 L 198.226562 103.359375 C 177.96875 74.507812 160.828125 54.722656 129.414062 38.324219 C 126.777344 36.949219 123.511719 37.964844 122.132812 40.605469 C 120.75 43.25 121.773438 46.507812 124.414062 47.886719 C 152 62.289062 167.695312 79.308594 185.015625 103.359375 Z M 185.011719 103.359375 " fill-opacity="1" fill-rule="nonzero"/><g clip-path="url(#b8ac874519)"><path fill="#6d4c41" d="M 0.46875 187.859375 L 374.71875 187.859375 L 374.71875 374.890625 L 0.46875 374.890625 Z M 0.46875 187.859375 " fill-opacity="1" fill-rule="nonzero"/></g><path fill="#388e3c" d="M 288.351562 75.136719 C 274.535156 109.667969 234.230469 117.652344 180.179688 118.226562 C 177.878906 118.296875 175.574219 118.296875 173.199219 118.296875 C 173.199219 118.296875 172.984375 115.0625 173.199219 109.882812 C 173.632812 92.761719 177.734375 54.707031 204.148438 40.464844 C 241.5 20.394531 255.824219 25.644531 288.351562 0.828125 C 288.351562 0.828125 302.746094 39.167969 288.351562 75.136719 Z M 288.351562 75.136719 " fill-opacity="1" fill-rule="nonzero"/><path fill="#2e7d32" d="M 263.378906 57.371094 C 257.550781 63.195312 246.824219 69.742188 234.519531 77.367188 C 216.09375 88.589844 193.496094 102.472656 180.179688 118.226562 C 177.878906 118.296875 175.574219 118.296875 173.199219 118.296875 C 173.199219 118.296875 172.984375 115.0625 173.199219 109.882812 C 187.59375 93.40625 210.265625 79.523438 228.832031 68.160156 C 240.636719 60.894531 250.785156 54.707031 255.75 49.742188 C 257.835938 47.65625 261.292969 47.65625 263.378906 49.742188 C 265.46875 51.828125 265.46875 55.28125 263.378906 57.367188 Z M 263.378906 57.371094 " fill-opacity="1" fill-rule="nonzero"/><path fill="#f5f5f5" d="M 59.453125 146.101562 C 59.179688 143.128906 56.496094 140.875 53.585938 141.226562 L 33.238281 143.101562 C 44.660156 124.785156 60.394531 109.550781 79.238281 98.707031 C 81.824219 97.222656 82.707031 93.921875 81.222656 91.339844 C 79.738281 88.75 76.433594 87.875 73.851562 89.355469 C 55.09375 100.148438 39.269531 115.023438 27.230469 132.757812 L 25.882812 118.21875 C 25.609375 115.25 22.988281 113.015625 20.015625 113.34375 C 17.046875 113.617188 14.859375 116.242188 15.136719 119.207031 L 17.976562 149.929688 C 18.109375 151.355469 18.800781 152.667969 19.898438 153.582031 C 20.875 154.390625 22.097656 154.828125 23.351562 154.828125 C 23.515625 154.828125 23.679688 154.820312 23.847656 154.804688 L 54.578125 151.964844 C 57.546875 151.691406 59.734375 149.0625 59.457031 146.101562 Z M 59.453125 146.101562 " fill-opacity="1" fill-rule="nonzero"/><path fill="#f5f5f5" d="M 135.804688 295.441406 C 134.804688 292.640625 131.71875 291.160156 128.90625 292.171875 C 126.097656 293.175781 124.632812 296.261719 125.632812 299.066406 L 133.386719 320.804688 C 97.828125 309.46875 68.234375 283.265625 53.082031 249.046875 C 51.878906 246.328125 48.6875 245.09375 45.960938 246.296875 C 43.238281 247.503906 42.003906 250.691406 43.210938 253.417969 C 58.851562 288.734375 88.707031 316.152344 124.8125 329.261719 L 108.554688 335.054688 C 105.746094 336.054688 104.277344 339.140625 105.28125 341.949219 C 106.070312 344.152344 108.148438 345.53125 110.367188 345.53125 C 110.964844 345.53125 111.578125 345.433594 112.179688 345.21875 L 143.808594 333.949219 C 146.613281 332.949219 148.082031 329.859375 147.078125 327.054688 Z M 135.804688 295.441406 " fill-opacity="1" fill-rule="nonzero"/><path fill="#f5f5f5" d="M 341.148438 246.839844 C 340.046875 245.925781 338.632812 245.472656 337.199219 245.617188 L 304.539062 248.636719 C 301.570312 248.910156 299.382812 251.535156 299.664062 254.5 C 299.933594 257.472656 302.582031 259.65625 305.53125 259.375 L 327.765625 257.324219 C 303.871094 295.675781 262.101562 319.140625 216.382812 319.140625 C 213.402344 319.140625 210.984375 321.558594 210.984375 324.535156 C 210.984375 327.515625 213.402344 329.929688 216.382812 329.929688 C 263.957031 329.929688 307.550781 306.414062 333.824219 267.710938 L 335.34375 284.132812 C 335.597656 286.929688 337.953125 289.03125 340.707031 289.03125 C 340.875 289.03125 341.042969 289.023438 341.210938 289.007812 C 344.179688 288.734375 346.367188 286.105469 346.089844 283.140625 L 343.070312 250.492188 C 342.9375 249.066406 342.246094 247.753906 341.148438 246.839844 Z M 341.148438 246.839844 " fill-opacity="1" fill-rule="nonzero"/><path fill="#f5f5f5" d="M 358.152344 148.925781 C 350.761719 130.234375 339.398438 113.421875 325.058594 99.550781 L 343.648438 98.945312 C 346.628906 98.851562 348.964844 96.355469 348.867188 93.378906 C 348.769531 90.398438 346.207031 87.933594 343.296875 88.160156 L 311.300781 89.203125 C 308.320312 89.300781 305.984375 91.792969 306.082031 94.773438 L 307.125 126.753906 C 307.222656 129.671875 309.617188 131.972656 312.515625 131.972656 C 312.578125 131.972656 312.636719 131.972656 312.695312 131.96875 C 315.675781 131.875 318.011719 129.378906 317.914062 126.402344 L 317.28125 107.023438 C 330.652344 119.882812 341.238281 135.507812 348.117188 152.894531 C 348.953125 155.015625 350.988281 156.308594 353.132812 156.308594 C 353.796875 156.308594 354.46875 156.1875 355.121094 155.925781 C 357.894531 154.835938 359.25 151.699219 358.152344 148.925781 Z M 358.152344 148.925781 " fill-opacity="1" fill-rule="nonzero"/><path fill="#5d4037" d="M 223.578125 236.414062 L 151.609375 236.414062 C 148.628906 236.414062 146.210938 234 146.210938 231.019531 C 146.210938 228.042969 148.628906 225.625 151.609375 225.625 L 223.578125 225.625 C 226.558594 225.625 228.976562 228.042969 228.976562 231.019531 C 228.976562 234 226.558594 236.414062 223.578125 236.414062 Z M 223.578125 236.414062 " fill-opacity="1" fill-rule="nonzero"/><path fill="#5d4037" d="M 108.425781 236.414062 L 79.636719 236.414062 C 76.65625 236.414062 74.238281 234 74.238281 231.019531 C 74.238281 228.042969 76.65625 225.625 79.636719 225.625 L 108.425781 225.625 C 111.40625 225.625 113.824219 228.042969 113.824219 231.019531 C 113.824219 234 111.40625 236.414062 108.425781 236.414062 Z M 108.425781 236.414062 " fill-opacity="1" fill-rule="nonzero"/><path fill="#5d4037" d="M 295.550781 236.414062 L 266.761719 236.414062 C 263.78125 236.414062 261.363281 234 261.363281 231.019531 C 261.363281 228.042969 263.78125 225.625 266.761719 225.625 L 295.550781 225.625 C 298.53125 225.625 300.949219 228.042969 300.949219 231.019531 C 300.949219 234 298.53125 236.414062 295.550781 236.414062 Z M 295.550781 236.414062 " fill-opacity="1" fill-rule="nonzero"/><path fill="#5d4037" d="M 212.785156 279.578125 L 162.402344 279.578125 C 159.421875 279.578125 157.007812 277.160156 157.007812 274.183594 C 157.007812 271.203125 159.421875 268.785156 162.402344 268.785156 L 212.785156 268.785156 C 215.765625 268.785156 218.179688 271.203125 218.179688 274.183594 C 218.179688 277.160156 215.765625 279.578125 212.785156 279.578125 Z M 212.785156 279.578125 " fill-opacity="1" fill-rule="nonzero"/></svg>