<svg xmlns="http://www.w3.org/2000/svg" xmlns:xlink="http://www.w3.org/1999/xlink" width="500" zoomAndPan="magnify" viewBox="0 0 375 374.999991" height="500" preserveAspectRatio="xMidYMid meet" version="1.0"><defs><clipPath id="ac67e13027"><path d="M 7 281 L 54 281 L 54 316 L 7 316 Z M 7 281 " clip-rule="nonzero"/></clipPath><clipPath id="3046e4d23e"><path d="M 37.132812 29.519531 L 200.035156 51.714844 L 158.621094 359.007812 L -4.28125 336.8125 Z M 37.132812 29.519531 " clip-rule="nonzero"/></clipPath><clipPath id="dca56b7977"><path d="M 176.703125 139.148438 C 174.867188 132.585938 159.351562 120.679688 162.203125 102.394531 C 167.585938 67.878906 148.265625 36.261719 122.40625 43.792969 C 107.664062 48.085938 105.070312 72.722656 98.199219 82.390625 C 86.6875 98.589844 51.535156 148.101562 44.277344 185.453125 C 32.117188 248.058594 -5.289062 304.785156 -1.203125 325.394531 C 4.171875 352.519531 59.308594 333.585938 104.175781 318.890625 C 122.234375 312.976562 139.90625 321.5 149.273438 312.609375 C 181.671875 281.855469 180.933594 154.269531 176.703125 139.148438 Z M 176.703125 139.148438 " clip-rule="evenodd"/></clipPath><clipPath id="3a0420f38f"><path d="M 24 299 L 42 299 L 42 340 L 24 340 Z M 24 299 " clip-rule="nonzero"/></clipPath><clipPath id="3655c553a7"><path d="M 37.132812 29.519531 L 200.035156 51.714844 L 158.621094 359.007812 L -4.28125 336.8125 Z M 37.132812 29.519531 " clip-rule="nonzero"/></clipPath><clipPath id="5ae697b211"><path d="M 176.703125 139.148438 C 174.867188 132.585938 159.351562 120.679688 162.203125 102.394531 C 167.585938 67.878906 148.265625 36.261719 122.40625 43.792969 C 107.664062 48.085938 105.070312 72.722656 98.199219 82.390625 C 86.6875 98.589844 51.535156 148.101562 44.277344 185.453125 C 32.117188 248.058594 -5.289062 304.785156 -1.203125 325.394531 C 4.171875 352.519531 59.308594 333.585938 104.175781 318.890625 C 122.234375 312.976562 139.90625 321.5 149.273438 312.609375 C 181.671875 281.855469 180.933594 154.269531 176.703125 139.148438 Z M 176.703125 139.148438 " clip-rule="evenodd"/></clipPath><clipPath id="ee7624fda6"><path d="M 32 195 L 120 195 L 120 272 L 32 272 Z M 32 195 " clip-rule="nonzero"/></clipPath><clipPath id="e804f244f3"><path d="M 37.132812 29.519531 L 200.035156 51.714844 L 158.621094 359.007812 L -4.28125 336.8125 Z M 37.132812 29.519531 " clip-rule="nonzero"/></clipPath><clipPath id="bd13c5114c"><path d="M 176.703125 139.148438 C 174.867188 132.585938 159.351562 120.679688 162.203125 102.394531 C 167.585938 67.878906 148.265625 36.261719 122.40625 43.792969 C 107.664062 48.085938 105.070312 72.722656 98.199219 82.390625 C 86.6875 98.589844 51.535156 148.101562 44.277344 185.453125 C 32.117188 248.058594 -5.289062 304.785156 -1.203125 325.394531 C 4.171875 352.519531 59.308594 333.585938 104.175781 318.890625 C 122.234375 312.976562 139.90625 321.5 149.273438 312.609375 C 181.671875 281.855469 180.933594 154.269531 176.703125 139.148438 Z M 176.703125 139.148438 " clip-rule="evenodd"/></clipPath><clipPath id="4cb385d03a"><path d="M 61 193 L 144 193 L 144 275 L 61 275 Z M 61 193 " clip-rule="nonzero"/></clipPath><clipPath id="ae52d8e169"><path d="M 37.132812 29.519531 L 200.035156 51.714844 L 158.621094 359.007812 L -4.28125 336.8125 Z M 37.132812 29.519531 " clip-rule="nonzero"/></clipPath><clipPath id="9588c19c41"><path d="M 176.703125 139.148438 C 174.867188 132.585938 159.351562 120.679688 162.203125 102.394531 C 167.585938 67.878906 148.265625 36.261719 122.40625 43.792969 C 107.664062 48.085938 105.070312 72.722656 98.199219 82.390625 C 86.6875 98.589844 51.535156 148.101562 44.277344 185.453125 C 32.117188 248.058594 -5.289062 304.785156 -1.203125 325.394531 C 4.171875 352.519531 59.308594 333.585938 104.175781 318.890625 C 122.234375 312.976562 139.90625 321.5 149.273438 312.609375 C 181.671875 281.855469 180.933594 154.269531 176.703125 139.148438 Z M 176.703125 139.148438 " clip-rule="evenodd"/></clipPath><clipPath id="6cc0781b1d"><path d="M 68 234 L 106 234 L 106 331 L 68 331 Z M 68 234 " clip-rule="nonzero"/></clipPath><clipPath id="bbdf281356"><path d="M 37.132812 29.519531 L 200.035156 51.714844 L 158.621094 359.007812 L -4.28125 336.8125 Z M 37.132812 29.519531 " clip-rule="nonzero"/></clipPath><clipPath id="b61646eaf9"><path d="M 176.703125 139.148438 C 174.867188 132.585938 159.351562 120.679688 162.203125 102.394531 C 167.585938 67.878906 148.265625 36.261719 122.40625 43.792969 C 107.664062 48.085938 105.070312 72.722656 98.199219 82.390625 C 86.6875 98.589844 51.535156 148.101562 44.277344 185.453125 C 32.117188 248.058594 -5.289062 304.785156 -1.203125 325.394531 C 4.171875 352.519531 59.308594 333.585938 104.175781 318.890625 C 122.234375 312.976562 139.90625 321.5 149.273438 312.609375 C 181.671875 281.855469 180.933594 154.269531 176.703125 139.148438 Z M 176.703125 139.148438 " clip-rule="evenodd"/></clipPath><clipPath id="590ee64b41"><path d="M 100 270 L 154 270 L 154 314 L 100 314 Z M 100 270 " clip-rule="nonzero"/></clipPath><clipPath id="a812150a52"><path d="M 37.132812 29.519531 L 200.035156 51.714844 L 158.621094 359.007812 L -4.28125 336.8125 Z M 37.132812 29.519531 " clip-rule="nonzero"/></clipPath><clipPath id="fdb6734dad"><path d="M 176.703125 139.148438 C 174.867188 132.585938 159.351562 120.679688 162.203125 102.394531 C 167.585938 67.878906 148.265625 36.261719 122.40625 43.792969 C 107.664062 48.085938 105.070312 72.722656 98.199219 82.390625 C 86.6875 98.589844 51.535156 148.101562 44.277344 185.453125 C 32.117188 248.058594 -5.289062 304.785156 -1.203125 325.394531 C 4.171875 352.519531 59.308594 333.585938 104.175781 318.890625 C 122.234375 312.976562 139.90625 321.5 149.273438 312.609375 C 181.671875 281.855469 180.933594 154.269531 176.703125 139.148438 Z M 176.703125 139.148438 " clip-rule="evenodd"/></clipPath><clipPath id="79b2555b9b"><path d="M 121 264 L 168 264 L 168 311 L 121 311 Z M 121 264 " clip-rule="nonzero"/></clipPath><clipPath id="6442a8b208"><path d="M 37.132812 29.519531 L 200.035156 51.714844 L 158.621094 359.007812 L -4.28125 336.8125 Z M 37.132812 29.519531 " clip-rule="nonzero"/></clipPath><clipPath id="94e7687fe1"><path d="M 176.703125 139.148438 C 174.867188 132.585938 159.351562 120.679688 162.203125 102.394531 C 167.585938 67.878906 148.265625 36.261719 122.40625 43.792969 C 107.664062 48.085938 105.070312 72.722656 98.199219 82.390625 C 86.6875 98.589844 51.535156 148.101562 44.277344 185.453125 C 32.117188 248.058594 -5.289062 304.785156 -1.203125 325.394531 C 4.171875 352.519531 59.308594 333.585938 104.175781 318.890625 C 122.234375 312.976562 139.90625 321.5 149.273438 312.609375 C 181.671875 281.855469 180.933594 154.269531 176.703125 139.148438 Z M 176.703125 139.148438 " clip-rule="evenodd"/></clipPath><clipPath id="25819fa7ff"><path d="M 124 291 L 146 291 L 146 340 L 124 340 Z M 124 291 " clip-rule="nonzero"/></clipPath><clipPath id="f9a4153e06"><path d="M 37.132812 29.519531 L 200.035156 51.714844 L 158.621094 359.007812 L -4.28125 336.8125 Z M 37.132812 29.519531 " clip-rule="nonzero"/></clipPath><clipPath id="3b1eb4c57e"><path d="M 176.703125 139.148438 C 174.867188 132.585938 159.351562 120.679688 162.203125 102.394531 C 167.585938 67.878906 148.265625 36.261719 122.40625 43.792969 C 107.664062 48.085938 105.070312 72.722656 98.199219 82.390625 C 86.6875 98.589844 51.535156 148.101562 44.277344 185.453125 C 32.117188 248.058594 -5.289062 304.785156 -1.203125 325.394531 C 4.171875 352.519531 59.308594 333.585938 104.175781 318.890625 C 122.234375 312.976562 139.90625 321.5 149.273438 312.609375 C 181.671875 281.855469 180.933594 154.269531 176.703125 139.148438 Z M 176.703125 139.148438 " clip-rule="evenodd"/></clipPath><clipPath id="cb6236f968"><path d="M 89 110 L 108 110 L 108 127 L 89 127 Z M 89 110 " clip-rule="nonzero"/></clipPath><clipPath id="ed97e308ce"><path d="M 37.132812 29.519531 L 200.035156 51.714844 L 158.621094 359.007812 L -4.28125 336.8125 Z M 37.132812 29.519531 " clip-rule="nonzero"/></clipPath><clipPath id="72d8fdd05d"><path d="M 176.703125 139.148438 C 174.867188 132.585938 159.351562 120.679688 162.203125 102.394531 C 167.585938 67.878906 148.265625 36.261719 122.40625 43.792969 C 107.664062 48.085938 105.070312 72.722656 98.199219 82.390625 C 86.6875 98.589844 51.535156 148.101562 44.277344 185.453125 C 32.117188 248.058594 -5.289062 304.785156 -1.203125 325.394531 C 4.171875 352.519531 59.308594 333.585938 104.175781 318.890625 C 122.234375 312.976562 139.90625 321.5 149.273438 312.609375 C 181.671875 281.855469 180.933594 154.269531 176.703125 139.148438 Z M 176.703125 139.148438 " clip-rule="evenodd"/></clipPath><clipPath id="8d5985b0de"><path d="M 96 108 L 113 108 L 113 126 L 96 126 Z M 96 108 " clip-rule="nonzero"/></clipPath><clipPath id="9261e532bd"><path d="M 37.132812 29.519531 L 200.035156 51.714844 L 158.621094 359.007812 L -4.28125 336.8125 Z M 37.132812 29.519531 " clip-rule="nonzero"/></clipPath><clipPath id="8da55f2293"><path d="M 176.703125 139.148438 C 174.867188 132.585938 159.351562 120.679688 162.203125 102.394531 C 167.585938 67.878906 148.265625 36.261719 122.40625 43.792969 C 107.664062 48.085938 105.070312 72.722656 98.199219 82.390625 C 86.6875 98.589844 51.535156 148.101562 44.277344 185.453125 C 32.117188 248.058594 -5.289062 304.785156 -1.203125 325.394531 C 4.171875 352.519531 59.308594 333.585938 104.175781 318.890625 C 122.234375 312.976562 139.90625 321.5 149.273438 312.609375 C 181.671875 281.855469 180.933594 154.269531 176.703125 139.148438 Z M 176.703125 139.148438 " clip-rule="evenodd"/></clipPath><clipPath id="cd7be0dd5d"><path d="M 97 118 L 105 118 L 105 138 L 97 138 Z M 97 118 " clip-rule="nonzero"/></clipPath><clipPath id="5507e3f7f1"><path d="M 37.132812 29.519531 L 200.035156 51.714844 L 158.621094 359.007812 L -4.28125 336.8125 Z M 37.132812 29.519531 " clip-rule="nonzero"/></clipPath><clipPath id="7098e32f3f"><path d="M 176.703125 139.148438 C 174.867188 132.585938 159.351562 120.679688 162.203125 102.394531 C 167.585938 67.878906 148.265625 36.261719 122.40625 43.792969 C 107.664062 48.085938 105.070312 72.722656 98.199219 82.390625 C 86.6875 98.589844 51.535156 148.101562 44.277344 185.453125 C 32.117188 248.058594 -5.289062 304.785156 -1.203125 325.394531 C 4.171875 352.519531 59.308594 333.585938 104.175781 318.890625 C 122.234375 312.976562 139.90625 321.5 149.273438 312.609375 C 181.671875 281.855469 180.933594 154.269531 176.703125 139.148438 Z M 176.703125 139.148438 " clip-rule="evenodd"/></clipPath><clipPath id="328787d26a"><path d="M 112 63 L 149 63 L 149 90 L 112 90 Z M 112 63 " clip-rule="nonzero"/></clipPath><clipPath id="24f8cb8c3b"><path d="M 37.132812 29.519531 L 200.035156 51.714844 L 158.621094 359.007812 L -4.28125 336.8125 Z M 37.132812 29.519531 " clip-rule="nonzero"/></clipPath><clipPath id="488874c7ba"><path d="M 176.703125 139.148438 C 174.867188 132.585938 159.351562 120.679688 162.203125 102.394531 C 167.585938 67.878906 148.265625 36.261719 122.40625 43.792969 C 107.664062 48.085938 105.070312 72.722656 98.199219 82.390625 C 86.6875 98.589844 51.535156 148.101562 44.277344 185.453125 C 32.117188 248.058594 -5.289062 304.785156 -1.203125 325.394531 C 4.171875 352.519531 59.308594 333.585938 104.175781 318.890625 C 122.234375 312.976562 139.90625 321.5 149.273438 312.609375 C 181.671875 281.855469 180.933594 154.269531 176.703125 139.148438 Z M 176.703125 139.148438 " clip-rule="evenodd"/></clipPath><clipPath id="a877de0ba6"><path d="M 124 77 L 137 77 L 137 110 L 124 110 Z M 124 77 " clip-rule="nonzero"/></clipPath><clipPath id="d54522b695"><path d="M 37.132812 29.519531 L 200.035156 51.714844 L 158.621094 359.007812 L -4.28125 336.8125 Z M 37.132812 29.519531 " clip-rule="nonzero"/></clipPath><clipPath id="74089f9151"><path d="M 176.703125 139.148438 C 174.867188 132.585938 159.351562 120.679688 162.203125 102.394531 C 167.585938 67.878906 148.265625 36.261719 122.40625 43.792969 C 107.664062 48.085938 105.070312 72.722656 98.199219 82.390625 C 86.6875 98.589844 51.535156 148.101562 44.277344 185.453125 C 32.117188 248.058594 -5.289062 304.785156 -1.203125 325.394531 C 4.171875 352.519531 59.308594 333.585938 104.175781 318.890625 C 122.234375 312.976562 139.90625 321.5 149.273438 312.609375 C 181.671875 281.855469 180.933594 154.269531 176.703125 139.148438 Z M 176.703125 139.148438 " clip-rule="evenodd"/></clipPath><clipPath id="118f744ca9"><path d="M 138 168 L 162 168 L 162 191 L 138 191 Z M 138 168 " clip-rule="nonzero"/></clipPath><clipPath id="3ef2af3e52"><path d="M 37.132812 29.519531 L 200.035156 51.714844 L 158.621094 359.007812 L -4.28125 336.8125 Z M 37.132812 29.519531 " clip-rule="nonzero"/></clipPath><clipPath id="f969f5b37a"><path d="M 176.703125 139.148438 C 174.867188 132.585938 159.351562 120.679688 162.203125 102.394531 C 167.585938 67.878906 148.265625 36.261719 122.40625 43.792969 C 107.664062 48.085938 105.070312 72.722656 98.199219 82.390625 C 86.6875 98.589844 51.535156 148.101562 44.277344 185.453125 C 32.117188 248.058594 -5.289062 304.785156 -1.203125 325.394531 C 4.171875 352.519531 59.308594 333.585938 104.175781 318.890625 C 122.234375 312.976562 139.90625 321.5 149.273438 312.609375 C 181.671875 281.855469 180.933594 154.269531 176.703125 139.148438 Z M 176.703125 139.148438 " clip-rule="evenodd"/></clipPath><clipPath id="a089e6f5f0"><path d="M 147 167 L 171 167 L 171 191 L 147 191 Z M 147 167 " clip-rule="nonzero"/></clipPath><clipPath id="fc978e3c86"><path d="M 37.132812 29.519531 L 200.035156 51.714844 L 158.621094 359.007812 L -4.28125 336.8125 Z M 37.132812 29.519531 " clip-rule="nonzero"/></clipPath><clipPath id="8f202ea755"><path d="M 176.703125 139.148438 C 174.867188 132.585938 159.351562 120.679688 162.203125 102.394531 C 167.585938 67.878906 148.265625 36.261719 122.40625 43.792969 C 107.664062 48.085938 105.070312 72.722656 98.199219 82.390625 C 86.6875 98.589844 51.535156 148.101562 44.277344 185.453125 C 32.117188 248.058594 -5.289062 304.785156 -1.203125 325.394531 C 4.171875 352.519531 59.308594 333.585938 104.175781 318.890625 C 122.234375 312.976562 139.90625 321.5 149.273438 312.609375 C 181.671875 281.855469 180.933594 154.269531 176.703125 139.148438 Z M 176.703125 139.148438 " clip-rule="evenodd"/></clipPath><clipPath id="0e2335d26b"><path d="M 152 180 L 163 180 L 163 206 L 152 206 Z M 152 180 " clip-rule="nonzero"/></clipPath><clipPath id="8a882e03f3"><path d="M 37.132812 29.519531 L 200.035156 51.714844 L 158.621094 359.007812 L -4.28125 336.8125 Z M 37.132812 29.519531 " clip-rule="nonzero"/></clipPath><clipPath id="b6f650f2cd"><path d="M 176.703125 139.148438 C 174.867188 132.585938 159.351562 120.679688 162.203125 102.394531 C 167.585938 67.878906 148.265625 36.261719 122.40625 43.792969 C 107.664062 48.085938 105.070312 72.722656 98.199219 82.390625 C 86.6875 98.589844 51.535156 148.101562 44.277344 185.453125 C 32.117188 248.058594 -5.289062 304.785156 -1.203125 325.394531 C 4.171875 352.519531 59.308594 333.585938 104.175781 318.890625 C 122.234375 312.976562 139.90625 321.5 149.273438 312.609375 C 181.671875 281.855469 180.933594 154.269531 176.703125 139.148438 Z M 176.703125 139.148438 " clip-rule="evenodd"/></clipPath><clipPath id="1405386cb6"><path d="M 200 187 L 289 187 L 289 262 L 200 262 Z M 200 187 " clip-rule="nonzero"/></clipPath><clipPath id="a48475a1e9"><path d="M 338.257812 29.519531 L 175.359375 51.714844 L 216.773438 359.007812 L 379.675781 336.8125 Z M 338.257812 29.519531 " clip-rule="nonzero"/></clipPath><clipPath id="13a034d078"><path d="M 198.691406 139.148438 C 200.527344 132.585938 216.039062 120.679688 213.1875 102.394531 C 207.808594 67.878906 227.128906 36.261719 252.984375 43.792969 C 267.730469 48.085938 270.324219 72.722656 277.191406 82.390625 C 288.707031 98.589844 323.859375 148.101562 331.117188 185.453125 C 343.277344 248.058594 380.679688 304.785156 376.597656 325.394531 C 371.21875 352.519531 316.085938 333.585938 271.214844 318.890625 C 253.160156 312.976562 235.484375 321.5 226.121094 312.609375 C 193.71875 281.855469 194.460938 154.269531 198.691406 139.148438 Z M 198.691406 139.148438 " clip-rule="evenodd"/></clipPath><clipPath id="8589395ea5"><path d="M 232 178 L 306 178 L 306 261 L 232 261 Z M 232 178 " clip-rule="nonzero"/></clipPath><clipPath id="21bf0c4f18"><path d="M 338.257812 29.519531 L 175.359375 51.714844 L 216.773438 359.007812 L 379.675781 336.8125 Z M 338.257812 29.519531 " clip-rule="nonzero"/></clipPath><clipPath id="8a396a3cfe"><path d="M 198.691406 139.148438 C 200.527344 132.585938 216.039062 120.679688 213.1875 102.394531 C 207.808594 67.878906 227.128906 36.261719 252.984375 43.792969 C 267.730469 48.085938 270.324219 72.722656 277.191406 82.390625 C 288.707031 98.589844 323.859375 148.101562 331.117188 185.453125 C 343.277344 248.058594 380.679688 304.785156 376.597656 325.394531 C 371.21875 352.519531 316.085938 333.585938 271.214844 318.890625 C 253.160156 312.976562 235.484375 321.5 226.121094 312.609375 C 193.71875 281.855469 194.460938 154.269531 198.691406 139.148438 Z M 198.691406 139.148438 " clip-rule="evenodd"/></clipPath><clipPath id="d01d9ae16f"><path d="M 238 226 L 276 226 L 276 322 L 238 322 Z M 238 226 " clip-rule="nonzero"/></clipPath><clipPath id="2c8d861643"><path d="M 338.257812 29.519531 L 175.359375 51.714844 L 216.773438 359.007812 L 379.675781 336.8125 Z M 338.257812 29.519531 " clip-rule="nonzero"/></clipPath><clipPath id="f802e3357e"><path d="M 198.691406 139.148438 C 200.527344 132.585938 216.039062 120.679688 213.1875 102.394531 C 207.808594 67.878906 227.128906 36.261719 252.984375 43.792969 C 267.730469 48.085938 270.324219 72.722656 277.191406 82.390625 C 288.707031 98.589844 323.859375 148.101562 331.117188 185.453125 C 343.277344 248.058594 380.679688 304.785156 376.597656 325.394531 C 371.21875 352.519531 316.085938 333.585938 271.214844 318.890625 C 253.160156 312.976562 235.484375 321.5 226.121094 312.609375 C 193.71875 281.855469 194.460938 154.269531 198.691406 139.148438 Z M 198.691406 139.148438 " clip-rule="evenodd"/></clipPath><clipPath id="6c048656a4"><path d="M 198 262 L 239 262 L 239 300 L 198 300 Z M 198 262 " clip-rule="nonzero"/></clipPath><clipPath id="9f904c21e3"><path d="M 338.257812 29.519531 L 175.359375 51.714844 L 216.773438 359.007812 L 379.675781 336.8125 Z M 338.257812 29.519531 " clip-rule="nonzero"/></clipPath><clipPath id="b714793fed"><path d="M 198.691406 139.148438 C 200.527344 132.585938 216.039062 120.679688 213.1875 102.394531 C 207.808594 67.878906 227.128906 36.261719 252.984375 43.792969 C 267.730469 48.085938 270.324219 72.722656 277.191406 82.390625 C 288.707031 98.589844 323.859375 148.101562 331.117188 185.453125 C 343.277344 248.058594 380.679688 304.785156 376.597656 325.394531 C 371.21875 352.519531 316.085938 333.585938 271.214844 318.890625 C 253.160156 312.976562 235.484375 321.5 226.121094 312.609375 C 193.71875 281.855469 194.460938 154.269531 198.691406 139.148438 Z M 198.691406 139.148438 " clip-rule="evenodd"/></clipPath><clipPath id="9d6087ff02"><path d="M 212 265 L 252 265 L 252 299 L 212 299 Z M 212 265 " clip-rule="nonzero"/></clipPath><clipPath id="df56ecdf94"><path d="M 338.257812 29.519531 L 175.359375 51.714844 L 216.773438 359.007812 L 379.675781 336.8125 Z M 338.257812 29.519531 " clip-rule="nonzero"/></clipPath><clipPath id="7b2ba8229d"><path d="M 198.691406 139.148438 C 200.527344 132.585938 216.039062 120.679688 213.1875 102.394531 C 207.808594 67.878906 227.128906 36.261719 252.984375 43.792969 C 267.730469 48.085938 270.324219 72.722656 277.191406 82.390625 C 288.707031 98.589844 323.859375 148.101562 331.117188 185.453125 C 343.277344 248.058594 380.679688 304.785156 376.597656 325.394531 C 371.21875 352.519531 316.085938 333.585938 271.214844 318.890625 C 253.160156 312.976562 235.484375 321.5 226.121094 312.609375 C 193.71875 281.855469 194.460938 154.269531 198.691406 139.148438 Z M 198.691406 139.148438 " clip-rule="evenodd"/></clipPath><clipPath id="65a2b6dba5"><path d="M 214 283 L 233 283 L 233 326 L 214 326 Z M 214 283 " clip-rule="nonzero"/></clipPath><clipPath id="56e28aa488"><path d="M 338.257812 29.519531 L 175.359375 51.714844 L 216.773438 359.007812 L 379.675781 336.8125 Z M 338.257812 29.519531 " clip-rule="nonzero"/></clipPath><clipPath id="e139bc30a3"><path d="M 198.691406 139.148438 C 200.527344 132.585938 216.039062 120.679688 213.1875 102.394531 C 207.808594 67.878906 227.128906 36.261719 252.984375 43.792969 C 267.730469 48.085938 270.324219 72.722656 277.191406 82.390625 C 288.707031 98.589844 323.859375 148.101562 331.117188 185.453125 C 343.277344 248.058594 380.679688 304.785156 376.597656 325.394531 C 371.21875 352.519531 316.085938 333.585938 271.214844 318.890625 C 253.160156 312.976562 235.484375 321.5 226.121094 312.609375 C 193.71875 281.855469 194.460938 154.269531 198.691406 139.148438 Z M 198.691406 139.148438 " clip-rule="evenodd"/></clipPath><clipPath id="58dbe909d8"><path d="M 329 286 L 371 286 L 371 325 L 329 325 Z M 329 286 " clip-rule="nonzero"/></clipPath><clipPath id="416fe5d083"><path d="M 338.257812 29.519531 L 175.359375 51.714844 L 216.773438 359.007812 L 379.675781 336.8125 Z M 338.257812 29.519531 " clip-rule="nonzero"/></clipPath><clipPath id="332318a069"><path d="M 198.691406 139.148438 C 200.527344 132.585938 216.039062 120.679688 213.1875 102.394531 C 207.808594 67.878906 227.128906 36.261719 252.984375 43.792969 C 267.730469 48.085938 270.324219 72.722656 277.191406 82.390625 C 288.707031 98.589844 323.859375 148.101562 331.117188 185.453125 C 343.277344 248.058594 380.679688 304.785156 376.597656 325.394531 C 371.21875 352.519531 316.085938 333.585938 271.214844 318.890625 C 253.160156 312.976562 235.484375 321.5 226.121094 312.609375 C 193.71875 281.855469 194.460938 154.269531 198.691406 139.148438 Z M 198.691406 139.148438 " clip-rule="evenodd"/></clipPath><clipPath id="9eb27c1980"><path d="M 318 288 L 357 288 L 357 321 L 318 321 Z M 318 288 " clip-rule="nonzero"/></clipPath><clipPath id="306e3b91b2"><path d="M 338.257812 29.519531 L 175.359375 51.714844 L 216.773438 359.007812 L 379.675781 336.8125 Z M 338.257812 29.519531 " clip-rule="nonzero"/></clipPath><clipPath id="c699d7f27b"><path d="M 198.691406 139.148438 C 200.527344 132.585938 216.039062 120.679688 213.1875 102.394531 C 207.808594 67.878906 227.128906 36.261719 252.984375 43.792969 C 267.730469 48.085938 270.324219 72.722656 277.191406 82.390625 C 288.707031 98.589844 323.859375 148.101562 331.117188 185.453125 C 343.277344 248.058594 380.679688 304.785156 376.597656 325.394531 C 371.21875 352.519531 316.085938 333.585938 271.214844 318.890625 C 253.160156 312.976562 235.484375 321.5 226.121094 312.609375 C 193.71875 281.855469 194.460938 154.269531 198.691406 139.148438 Z M 198.691406 139.148438 " clip-rule="evenodd"/></clipPath><clipPath id="778ecba761"><path d="M 337 307 L 354 307 L 354 340 L 337 340 Z M 337 307 " clip-rule="nonzero"/></clipPath><clipPath id="25b06b06db"><path d="M 338.257812 29.519531 L 175.359375 51.714844 L 216.773438 359.007812 L 379.675781 336.8125 Z M 338.257812 29.519531 " clip-rule="nonzero"/></clipPath><clipPath id="fd4d3f08fb"><path d="M 198.691406 139.148438 C 200.527344 132.585938 216.039062 120.679688 213.1875 102.394531 C 207.808594 67.878906 227.128906 36.261719 252.984375 43.792969 C 267.730469 48.085938 270.324219 72.722656 277.191406 82.390625 C 288.707031 98.589844 323.859375 148.101562 331.117188 185.453125 C 343.277344 248.058594 380.679688 304.785156 376.597656 325.394531 C 371.21875 352.519531 316.085938 333.585938 271.214844 318.890625 C 253.160156 312.976562 235.484375 321.5 226.121094 312.609375 C 193.71875 281.855469 194.460938 154.269531 198.691406 139.148438 Z M 198.691406 139.148438 " clip-rule="evenodd"/></clipPath><clipPath id="9ce5ca9fca"><path d="M 224 51 L 264 51 L 264 82 L 224 82 Z M 224 51 " clip-rule="nonzero"/></clipPath><clipPath id="7941b8c191"><path d="M 338.257812 29.519531 L 175.359375 51.714844 L 216.773438 359.007812 L 379.675781 336.8125 Z M 338.257812 29.519531 " clip-rule="nonzero"/></clipPath><clipPath id="dcca74a8c6"><path d="M 198.691406 139.148438 C 200.527344 132.585938 216.039062 120.679688 213.1875 102.394531 C 207.808594 67.878906 227.128906 36.261719 252.984375 43.792969 C 267.730469 48.085938 270.324219 72.722656 277.191406 82.390625 C 288.707031 98.589844 323.859375 148.101562 331.117188 185.453125 C 343.277344 248.058594 380.679688 304.785156 376.597656 325.394531 C 371.21875 352.519531 316.085938 333.585938 271.214844 318.890625 C 253.160156 312.976562 235.484375 321.5 226.121094 312.609375 C 193.71875 281.855469 194.460938 154.269531 198.691406 139.148438 Z M 198.691406 139.148438 " clip-rule="evenodd"/></clipPath><clipPath id="03cfe8448f"><path d="M 238 67 L 254 67 L 254 101 L 238 101 Z M 238 67 " clip-rule="nonzero"/></clipPath><clipPath id="14c0857b5d"><path d="M 338.257812 29.519531 L 175.359375 51.714844 L 216.773438 359.007812 L 379.675781 336.8125 Z M 338.257812 29.519531 " clip-rule="nonzero"/></clipPath><clipPath id="9c76c0d0d7"><path d="M 198.691406 139.148438 C 200.527344 132.585938 216.039062 120.679688 213.1875 102.394531 C 207.808594 67.878906 227.128906 36.261719 252.984375 43.792969 C 267.730469 48.085938 270.324219 72.722656 277.191406 82.390625 C 288.707031 98.589844 323.859375 148.101562 331.117188 185.453125 C 343.277344 248.058594 380.679688 304.785156 376.597656 325.394531 C 371.21875 352.519531 316.085938 333.585938 271.214844 318.890625 C 253.160156 312.976562 235.484375 321.5 226.121094 312.609375 C 193.71875 281.855469 194.460938 154.269531 198.691406 139.148438 Z M 198.691406 139.148438 " clip-rule="evenodd"/></clipPath><clipPath id="feb9128800"><path d="M 259 107 L 281 107 L 281 127 L 259 127 Z M 259 107 " clip-rule="nonzero"/></clipPath><clipPath id="c8c176adef"><path d="M 338.257812 29.519531 L 175.359375 51.714844 L 216.773438 359.007812 L 379.675781 336.8125 Z M 338.257812 29.519531 " clip-rule="nonzero"/></clipPath><clipPath id="d4e1af9881"><path d="M 198.691406 139.148438 C 200.527344 132.585938 216.039062 120.679688 213.1875 102.394531 C 207.808594 67.878906 227.128906 36.261719 252.984375 43.792969 C 267.730469 48.085938 270.324219 72.722656 277.191406 82.390625 C 288.707031 98.589844 323.859375 148.101562 331.117188 185.453125 C 343.277344 248.058594 380.679688 304.785156 376.597656 325.394531 C 371.21875 352.519531 316.085938 333.585938 271.214844 318.890625 C 253.160156 312.976562 235.484375 321.5 226.121094 312.609375 C 193.71875 281.855469 194.460938 154.269531 198.691406 139.148438 Z M 198.691406 139.148438 " clip-rule="evenodd"/></clipPath><clipPath id="c67dcdae7f"><path d="M 266 119 L 275 119 L 275 139 L 266 139 Z M 266 119 " clip-rule="nonzero"/></clipPath><clipPath id="d53ab85887"><path d="M 338.257812 29.519531 L 175.359375 51.714844 L 216.773438 359.007812 L 379.675781 336.8125 Z M 338.257812 29.519531 " clip-rule="nonzero"/></clipPath><clipPath id="c689b86917"><path d="M 198.691406 139.148438 C 200.527344 132.585938 216.039062 120.679688 213.1875 102.394531 C 207.808594 67.878906 227.128906 36.261719 252.984375 43.792969 C 267.730469 48.085938 270.324219 72.722656 277.191406 82.390625 C 288.707031 98.589844 323.859375 148.101562 331.117188 185.453125 C 343.277344 248.058594 380.679688 304.785156 376.597656 325.394531 C 371.21875 352.519531 316.085938 333.585938 271.214844 318.890625 C 253.160156 312.976562 235.484375 321.5 226.121094 312.609375 C 193.71875 281.855469 194.460938 154.269531 198.691406 139.148438 Z M 198.691406 139.148438 " clip-rule="evenodd"/></clipPath><clipPath id="662f3d712a"><path d="M 279 287 L 311 287 L 311 313 L 279 313 Z M 279 287 " clip-rule="nonzero"/></clipPath><clipPath id="0e9e7e9f28"><path d="M 338.257812 29.519531 L 175.359375 51.714844 L 216.773438 359.007812 L 379.675781 336.8125 Z M 338.257812 29.519531 " clip-rule="nonzero"/></clipPath><clipPath id="a570a9a5c8"><path d="M 198.691406 139.148438 C 200.527344 132.585938 216.039062 120.679688 213.1875 102.394531 C 207.808594 67.878906 227.128906 36.261719 252.984375 43.792969 C 267.730469 48.085938 270.324219 72.722656 277.191406 82.390625 C 288.707031 98.589844 323.859375 148.101562 331.117188 185.453125 C 343.277344 248.058594 380.679688 304.785156 376.597656 325.394531 C 371.21875 352.519531 316.085938 333.585938 271.214844 318.890625 C 253.160156 312.976562 235.484375 321.5 226.121094 312.609375 C 193.71875 281.855469 194.460938 154.269531 198.691406 139.148438 Z M 198.691406 139.148438 " clip-rule="evenodd"/></clipPath><clipPath id="df52ac34f4"><path d="M 290 302 L 302 302 L 302 328 L 290 328 Z M 290 302 " clip-rule="nonzero"/></clipPath><clipPath id="d3192185a2"><path d="M 338.257812 29.519531 L 175.359375 51.714844 L 216.773438 359.007812 L 379.675781 336.8125 Z M 338.257812 29.519531 " clip-rule="nonzero"/></clipPath><clipPath id="0f7150a665"><path d="M 198.691406 139.148438 C 200.527344 132.585938 216.039062 120.679688 213.1875 102.394531 C 207.808594 67.878906 227.128906 36.261719 252.984375 43.792969 C 267.730469 48.085938 270.324219 72.722656 277.191406 82.390625 C 288.707031 98.589844 323.859375 148.101562 331.117188 185.453125 C 343.277344 248.058594 380.679688 304.785156 376.597656 325.394531 C 371.21875 352.519531 316.085938 333.585938 271.214844 318.890625 C 253.160156 312.976562 235.484375 321.5 226.121094 312.609375 C 193.71875 281.855469 194.460938 154.269531 198.691406 139.148438 Z M 198.691406 139.148438 " clip-rule="evenodd"/></clipPath><clipPath id="cb46a6fe67"><path d="M 222 113 L 240 113 L 240 130 L 222 130 Z M 222 113 " clip-rule="nonzero"/></clipPath><clipPath id="cd376d3146"><path d="M 338.257812 29.519531 L 175.359375 51.714844 L 216.773438 359.007812 L 379.675781 336.8125 Z M 338.257812 29.519531 " clip-rule="nonzero"/></clipPath><clipPath id="7da8faa16b"><path d="M 198.691406 139.148438 C 200.527344 132.585938 216.039062 120.679688 213.1875 102.394531 C 207.808594 67.878906 227.128906 36.261719 252.984375 43.792969 C 267.730469 48.085938 270.324219 72.722656 277.191406 82.390625 C 288.707031 98.589844 323.859375 148.101562 331.117188 185.453125 C 343.277344 248.058594 380.679688 304.785156 376.597656 325.394531 C 371.21875 352.519531 316.085938 333.585938 271.214844 318.890625 C 253.160156 312.976562 235.484375 321.5 226.121094 312.609375 C 193.71875 281.855469 194.460938 154.269531 198.691406 139.148438 Z M 198.691406 139.148438 " clip-rule="evenodd"/></clipPath><clipPath id="833995a930"><path d="M 228 113 L 244 113 L 244 129 L 228 129 Z M 228 113 " clip-rule="nonzero"/></clipPath><clipPath id="e89a5f572a"><path d="M 338.257812 29.519531 L 175.359375 51.714844 L 216.773438 359.007812 L 379.675781 336.8125 Z M 338.257812 29.519531 " clip-rule="nonzero"/></clipPath><clipPath id="05d7ea728e"><path d="M 198.691406 139.148438 C 200.527344 132.585938 216.039062 120.679688 213.1875 102.394531 C 207.808594 67.878906 227.128906 36.261719 252.984375 43.792969 C 267.730469 48.085938 270.324219 72.722656 277.191406 82.390625 C 288.707031 98.589844 323.859375 148.101562 331.117188 185.453125 C 343.277344 248.058594 380.679688 304.785156 376.597656 325.394531 C 371.21875 352.519531 316.085938 333.585938 271.214844 318.890625 C 253.160156 312.976562 235.484375 321.5 226.121094 312.609375 C 193.71875 281.855469 194.460938 154.269531 198.691406 139.148438 Z M 198.691406 139.148438 " clip-rule="evenodd"/></clipPath><clipPath id="a994d0901e"><path d="M 229 121 L 238 121 L 238 141 L 229 141 Z M 229 121 " clip-rule="nonzero"/></clipPath><clipPath id="bb20620d36"><path d="M 338.257812 29.519531 L 175.359375 51.714844 L 216.773438 359.007812 L 379.675781 336.8125 Z M 338.257812 29.519531 " clip-rule="nonzero"/></clipPath><clipPath id="20ddd2342b"><path d="M 198.691406 139.148438 C 200.527344 132.585938 216.039062 120.679688 213.1875 102.394531 C 207.808594 67.878906 227.128906 36.261719 252.984375 43.792969 C 267.730469 48.085938 270.324219 72.722656 277.191406 82.390625 C 288.707031 98.589844 323.859375 148.101562 331.117188 185.453125 C 343.277344 248.058594 380.679688 304.785156 376.597656 325.394531 C 371.21875 352.519531 316.085938 333.585938 271.214844 318.890625 C 253.160156 312.976562 235.484375 321.5 226.121094 312.609375 C 193.71875 281.855469 194.460938 154.269531 198.691406 139.148438 Z M 198.691406 139.148438 " clip-rule="evenodd"/></clipPath><clipPath id="c00eec0d2b"><path d="M 279 152 L 299 152 L 299 170 L 279 170 Z M 279 152 " clip-rule="nonzero"/></clipPath><clipPath id="22ef12ea8f"><path d="M 338.257812 29.519531 L 175.359375 51.714844 L 216.773438 359.007812 L 379.675781 336.8125 Z M 338.257812 29.519531 " clip-rule="nonzero"/></clipPath><clipPath id="326b85502d"><path d="M 198.691406 139.148438 C 200.527344 132.585938 216.039062 120.679688 213.1875 102.394531 C 207.808594 67.878906 227.128906 36.261719 252.984375 43.792969 C 267.730469 48.085938 270.324219 72.722656 277.191406 82.390625 C 288.707031 98.589844 323.859375 148.101562 331.117188 185.453125 C 343.277344 248.058594 380.679688 304.785156 376.597656 325.394531 C 371.21875 352.519531 316.085938 333.585938 271.214844 318.890625 C 253.160156 312.976562 235.484375 321.5 226.121094 312.609375 C 193.71875 281.855469 194.460938 154.269531 198.691406 139.148438 Z M 198.691406 139.148438 " clip-rule="evenodd"/></clipPath><clipPath id="0e8d934b25"><path d="M 287 151 L 304 151 L 304 168 L 287 168 Z M 287 151 " clip-rule="nonzero"/></clipPath><clipPath id="017d744039"><path d="M 338.257812 29.519531 L 175.359375 51.714844 L 216.773438 359.007812 L 379.675781 336.8125 Z M 338.257812 29.519531 " clip-rule="nonzero"/></clipPath><clipPath id="8b643be624"><path d="M 198.691406 139.148438 C 200.527344 132.585938 216.039062 120.679688 213.1875 102.394531 C 207.808594 67.878906 227.128906 36.261719 252.984375 43.792969 C 267.730469 48.085938 270.324219 72.722656 277.191406 82.390625 C 288.707031 98.589844 323.859375 148.101562 331.117188 185.453125 C 343.277344 248.058594 380.679688 304.785156 376.597656 325.394531 C 371.21875 352.519531 316.085938 333.585938 271.214844 318.890625 C 253.160156 312.976562 235.484375 321.5 226.121094 312.609375 C 193.71875 281.855469 194.460938 154.269531 198.691406 139.148438 Z M 198.691406 139.148438 " clip-rule="evenodd"/></clipPath><clipPath id="9f5ea65741"><path d="M 288 160 L 296 160 L 296 179 L 288 179 Z M 288 160 " clip-rule="nonzero"/></clipPath><clipPath id="c5e05103db"><path d="M 338.257812 29.519531 L 175.359375 51.714844 L 216.773438 359.007812 L 379.675781 336.8125 Z M 338.257812 29.519531 " clip-rule="nonzero"/></clipPath><clipPath id="96b28047a3"><path d="M 198.691406 139.148438 C 200.527344 132.585938 216.039062 120.679688 213.1875 102.394531 C 207.808594 67.878906 227.128906 36.261719 252.984375 43.792969 C 267.730469 48.085938 270.324219 72.722656 277.191406 82.390625 C 288.707031 98.589844 323.859375 148.101562 331.117188 185.453125 C 343.277344 248.058594 380.679688 304.785156 376.597656 325.394531 C 371.21875 352.519531 316.085938 333.585938 271.214844 318.890625 C 253.160156 312.976562 235.484375 321.5 226.121094 312.609375 C 193.71875 281.855469 194.460938 154.269531 198.691406 139.148438 Z M 198.691406 139.148438 " clip-rule="evenodd"/></clipPath></defs><path fill="#d5e18a" d="M 176.703125 139.148438 C 174.867188 132.585938 159.351562 120.679688 162.203125 102.394531 C 167.585938 67.878906 148.265625 36.261719 122.40625 43.792969 C 107.664062 48.085938 105.070312 72.722656 98.199219 82.390625 C 86.6875 98.589844 51.535156 148.101562 44.277344 185.453125 C 32.117188 248.058594 -5.289062 304.785156 -1.203125 325.394531 C 4.171875 352.519531 59.308594 333.585938 104.175781 318.890625 C 122.234375 312.976562 139.90625 321.5 149.273438 312.609375 C 181.671875 281.855469 180.933594 154.269531 176.703125 139.148438 Z M 176.703125 139.148438 " fill-opacity="1" fill-rule="evenodd"/><g clip-path="url(#ac67e13027)"><g clip-path="url(#3046e4d23e)"><g clip-path="url(#dca56b7977)"><path fill="#8bb150" d="M 39.335938 286.101562 C 42.332031 292.828125 45.90625 282.898438 49.738281 285.859375 C 53.808594 289.007812 48.742188 292.507812 50.941406 295.132812 C 59.210938 305 45.269531 320.636719 39.226562 308.003906 C 38.65625 306.816406 36.332031 302.359375 35.167969 304.058594 C 34.515625 305.007812 29.390625 316.34375 25.371094 307.148438 C 23.582031 303.0625 21.308594 314.414062 17.902344 315.316406 C 8.546875 317.804688 5.992188 305.242188 8.914062 303.210938 C 15.621094 298.546875 14.292969 298.410156 12.847656 295.492188 C 9.582031 288.902344 25.394531 291.152344 22.941406 288.621094 C 16.519531 282.003906 35.21875 276.867188 39.335938 286.101562 Z M 39.335938 286.101562 " fill-opacity="1" fill-rule="evenodd"/></g></g></g><g clip-path="url(#3a0420f38f)"><g clip-path="url(#3655c553a7)"><g clip-path="url(#5ae697b211)"><path fill="#8bb150" d="M 34.730469 311.839844 C 35.191406 310.21875 36.683594 305.355469 38.855469 303.019531 C 40.617188 301.125 41.253906 299.847656 41.058594 299.710938 C 40.257812 299.136719 38.117188 301.6875 36.898438 303.03125 C 35.914062 304.121094 36.058594 298.339844 34.933594 299.535156 C 34.066406 300.449219 35.355469 303.570312 34.757812 305.636719 C 34.09375 307.949219 31.480469 315.164062 31.320312 315.035156 C 29.742188 313.75 25.277344 303.371094 24.34375 303.570312 C 23.25 303.800781 27.414062 311.742188 27.667969 312.492188 C 30.960938 322.25 26.953125 335.871094 27.535156 340.46875 C 27.683594 341.652344 30.878906 341.222656 31.167969 340.066406 C 32.367188 335.292969 30.304688 327.457031 34.730469 311.839844 Z M 34.730469 311.839844 " fill-opacity="1" fill-rule="evenodd"/></g></g></g><g clip-path="url(#ee7624fda6)"><g clip-path="url(#e804f244f3)"><g clip-path="url(#bd13c5114c)"><path fill="#8bb150" d="M 67.191406 196.546875 C 83.488281 202.207031 98.898438 216.339844 100.292969 233.671875 C 100.722656 239.003906 117.996094 245.144531 119.304688 255.777344 C 120.09375 262.179688 105.445312 272.449219 99.824219 271.164062 C 83.214844 267.371094 76.832031 268.890625 69.59375 270.941406 C 56.113281 274.761719 59.9375 252.675781 52.917969 254.316406 C 38.886719 257.601562 31.902344 254.113281 32.609375 241.058594 C 33.210938 229.960938 66.5 234.769531 58.25 228.503906 C 42.65625 216.660156 51.25 191.011719 67.191406 196.546875 Z M 67.191406 196.546875 " fill-opacity="1" fill-rule="evenodd"/></g></g></g><g clip-path="url(#4cb385d03a)"><g clip-path="url(#ae52d8e169)"><g clip-path="url(#9588c19c41)"><path fill="#8bb150" d="M 99.695312 200.882812 C 93.957031 187.695312 116.355469 202.292969 126.386719 195.109375 C 137.824219 186.925781 126.039062 214.324219 137.453125 214.320312 C 152.613281 214.3125 133.183594 232.210938 140.410156 243.960938 C 152.472656 263.582031 129.886719 247.246094 130.558594 268.300781 C 131.03125 283.117188 108.023438 267.21875 101.476562 256.6875 C 99.707031 253.835938 93.578125 242.582031 90.769531 247.027344 C 80.316406 263.550781 54.632812 257.847656 63.21875 238.140625 C 66.96875 229.539062 75.925781 228.683594 69.433594 222.46875 C 57.671875 211.210938 79.875 191.085938 91.015625 197.636719 C 96.863281 201.078125 102.851562 208.148438 99.695312 200.882812 Z M 99.695312 200.882812 " fill-opacity="1" fill-rule="evenodd"/></g></g></g><g clip-path="url(#6cc0781b1d)"><g clip-path="url(#bbdf281356)"><g clip-path="url(#b61646eaf9)"><path fill="#8bb150" d="M 91.546875 265.183594 C 92.554688 261.007812 94.894531 250.03125 100.199219 243.882812 C 104.507812 238.882812 106.003906 235.582031 105.492188 235.242188 C 103.394531 233.859375 98.191406 240.554688 95.21875 244.09375 C 92.808594 246.960938 92.621094 232.238281 89.867188 235.382812 C 87.753906 237.789062 91.335938 245.617188 90.019531 250.929688 C 88.542969 256.878906 83.910156 264.855469 83.488281 264.539062 C 79.335938 261.421875 70.832031 245.976562 68.472656 246.566406 C 65.710938 247.257812 77.023438 266.917969 77.546875 268.875 C 82.132812 286.019531 75.972656 330.78125 75.972656 330.78125 L 84.527344 329.273438 C 84.527344 329.273438 86.5 286.042969 91.546875 265.183594 Z M 91.546875 265.183594 " fill-opacity="1" fill-rule="evenodd"/></g></g></g><g clip-path="url(#590ee64b41)"><g clip-path="url(#a812150a52)"><g clip-path="url(#fdb6734dad)"><path fill="#8bb150" d="M 123.398438 271.335938 C 132.535156 274.125 141.351562 281.621094 142.480469 291.175781 C 142.824219 294.117188 152.507812 297.15625 153.453125 303.007812 C 154.019531 306.53125 146.121094 312.515625 142.984375 311.921875 C 133.714844 310.167969 130.402344 312.054688 126.25 312.429688 C 122.476562 312.769531 122.03125 309.644531 118.53125 311.558594 C 109.492188 316.5 101.335938 310.3125 107.59375 306.671875 C 110.851562 304.777344 99.257812 297.921875 101.214844 293.144531 C 104.125 286.039062 111.898438 288.453125 110.730469 285.703125 C 107.433594 277.964844 114.464844 268.605469 123.398438 271.335938 Z M 123.398438 271.335938 " fill-opacity="1" fill-rule="evenodd"/></g></g></g><g clip-path="url(#79b2555b9b)"><g clip-path="url(#6442a8b208)"><g clip-path="url(#94e7687fe1)"><path fill="#8bb150" d="M 138.734375 265.597656 C 143.691406 267.800781 153.296875 266.738281 159 270.503906 C 165.058594 274.5 160.804688 282.023438 164.175781 285.484375 C 176.847656 298.5 153.421875 321.027344 143.59375 303.890625 C 142.671875 302.277344 138.933594 296.253906 137.46875 298.769531 C 132.023438 308.125 117.691406 305.503906 122.042969 294.429688 C 123.941406 289.59375 128.878906 288.933594 125.160156 285.632812 C 115.433594 276.996094 125.691406 259.792969 138.734375 265.597656 Z M 138.734375 265.597656 " fill-opacity="1" fill-rule="evenodd"/></g></g></g><g clip-path="url(#25819fa7ff)"><g clip-path="url(#f9a4153e06)"><g clip-path="url(#3b1eb4c57e)"><path fill="#8bb150" d="M 138.28125 308.847656 C 138.800781 306.53125 139.824219 300.398438 142.628906 296.886719 C 144.910156 294.03125 145.671875 292.175781 145.382812 292 C 144.191406 291.277344 141.453125 295.085938 139.878906 297.105469 C 138.605469 298.738281 138.199219 290.597656 136.738281 292.394531 C 135.621094 293.769531 137.761719 298.027344 137.140625 300.996094 C 136.449219 304.316406 134.046875 308.824219 133.808594 308.660156 C 131.449219 307.019531 126.425781 298.644531 125.132812 299.019531 C 123.617188 299.457031 130.171875 310.144531 130.609375 311.175781 C 136.273438 324.550781 132.53125 338.6875 134.226562 344.070312 C 134.871094 346.117188 140.535156 345.609375 140.777344 343.476562 C 141.453125 337.609375 133.28125 331.003906 138.28125 308.847656 Z M 138.28125 308.847656 " fill-opacity="1" fill-rule="evenodd"/></g></g></g><g clip-path="url(#cb6236f968)"><g clip-path="url(#ed97e308ce)"><g clip-path="url(#72d8fdd05d)"><path fill="#8bb150" d="M 98.332031 110.769531 C 101.378906 112.230469 104.0625 115.316406 103.949219 118.710938 C 103.914062 119.757812 107.140625 121.335938 107.160156 123.425781 C 107.167969 124.6875 104.085938 126.355469 103.019531 125.980469 C 99.871094 124.875 98.609375 125.355469 97.136719 125.265625 C 95.800781 125.183594 95.8125 124.070312 94.484375 124.550781 C 91.058594 125.792969 88.53125 123.199219 90.917969 122.261719 C 92.15625 121.773438 88.464844 118.761719 89.40625 117.199219 C 90.800781 114.875 93.394531 116.132812 93.128906 115.109375 C 92.390625 112.234375 95.347656 109.339844 98.332031 110.769531 Z M 98.332031 110.769531 " fill-opacity="1" fill-rule="evenodd"/></g></g></g><g clip-path="url(#8d5985b0de)"><g clip-path="url(#9261e532bd)"><g clip-path="url(#8da55f2293)"><path fill="#8bb150" d="M 103.996094 109.582031 C 105.613281 110.617188 109.03125 110.757812 110.824219 112.375 C 112.730469 114.09375 110.84375 116.492188 111.839844 117.878906 C 115.578125 123.097656 106.179688 129.714844 103.65625 123.207031 C 103.417969 122.597656 102.429688 120.292969 101.785156 121.09375 C 99.378906 124.070312 94.503906 122.390625 96.617188 118.757812 C 97.539062 117.171875 99.304688 117.203125 98.175781 115.851562 C 95.234375 112.320312 99.738281 106.863281 103.996094 109.582031 Z M 103.996094 109.582031 " fill-opacity="1" fill-rule="evenodd"/></g></g></g><g clip-path="url(#cd7be0dd5d)"><g clip-path="url(#5507e3f7f1)"><g clip-path="url(#7098e32f3f)"><path fill="#8bb150" d="M 101.511719 124.671875 C 101.804688 123.886719 102.503906 121.804688 103.671875 120.730469 C 104.621094 119.859375 104.984375 119.25 104.894531 119.171875 C 104.515625 118.855469 103.355469 120.039062 102.699219 120.660156 C 102.164062 121.160156 102.457031 118.300781 101.851562 118.847656 C 101.386719 119.265625 101.910156 120.867188 101.535156 121.871094 C 101.113281 122.992188 100.035156 124.4375 99.960938 124.367188 C 99.222656 123.664062 97.914062 120.476562 97.441406 120.535156 C 96.886719 120.609375 98.65625 124.679688 98.707031 125.074219 C 99.125 128.257812 97.699219 134.5625 97.84375 136.542969 C 97.882812 137.121094 99.394531 137.519531 99.566406 136.96875 C 100.175781 134.992188 99.996094 128.726562 101.511719 124.671875 Z M 101.511719 124.671875 " fill-opacity="1" fill-rule="evenodd"/></g></g></g><g clip-path="url(#328787d26a)"><g clip-path="url(#24f8cb8c3b)"><g clip-path="url(#488874c7ba)"><path fill="#8bb150" d="M 126.65625 65.621094 C 130.660156 59.371094 132.703125 67.488281 134.246094 67.585938 C 136.066406 67.703125 139.222656 64.226562 140.101562 66.898438 C 140.386719 67.761719 140.542969 69.582031 141.003906 69.808594 C 142.511719 70.546875 145.011719 67.476562 146.835938 70.105469 C 147.675781 71.308594 148.625 75.191406 148.203125 78.929688 C 147.871094 81.84375 140.753906 81.921875 141.066406 83.488281 C 141.472656 85.53125 137.996094 91.09375 135.164062 88.90625 C 130.816406 85.550781 127.84375 89.253906 125.433594 89.5625 C 123.242188 89.839844 121.039062 87.609375 118.824219 88.324219 C 114.847656 89.609375 118.699219 81.808594 115.257812 83.046875 C 114.261719 83.40625 112.363281 82.496094 112.339844 81.375 C 112.304688 79.632812 113.289062 75.160156 115.652344 75.730469 C 119.589844 76.6875 118.597656 71.914062 117.132812 70.730469 C 114.355469 68.488281 119.433594 64.875 121.90625 65.957031 C 123.394531 66.609375 125.855469 66.871094 126.65625 65.621094 Z M 126.65625 65.621094 " fill-opacity="1" fill-rule="evenodd"/></g></g></g><g clip-path="url(#a877de0ba6)"><g clip-path="url(#d54522b695)"><g clip-path="url(#74089f9151)"><path fill="#8bb150" d="M 132.367188 87.199219 C 132.535156 85.824219 133.078125 82.242188 134.636719 80.136719 C 135.902344 78.429688 136.304688 77.328125 136.132812 77.234375 C 135.421875 76.835938 133.910156 79.117188 133.039062 80.324219 C 132.332031 81.304688 131.917969 76.570312 131.105469 77.648438 C 130.484375 78.472656 131.828125 80.90625 131.53125 82.648438 C 131.199219 84.597656 129.898438 87.273438 129.757812 87.183594 C 128.347656 86.277344 125.238281 81.507812 124.492188 81.753906 C 123.621094 82.042969 127.671875 88.125 127.949219 88.71875 C 131.542969 96.386719 127.964844 105.21875 127.253906 108.359375 C 126.808594 110.347656 130.652344 109.015625 130.9375 107.832031 C 131.789062 104.308594 131.292969 95.894531 132.367188 87.199219 Z M 132.367188 87.199219 " fill-opacity="1" fill-rule="evenodd"/></g></g></g><g clip-path="url(#118f744ca9)"><g clip-path="url(#3ef2af3e52)"><g clip-path="url(#f969f5b37a)"><path fill="#8bb150" d="M 151.386719 168.933594 C 155.371094 171.445312 158.59375 176.152344 157.894531 180.851562 C 157.675781 182.296875 161.890625 184.992188 161.582031 187.902344 C 161.394531 189.65625 156.859375 191.484375 155.445312 190.796875 C 151.261719 188.761719 149.441406 189.234375 147.417969 188.875 C 145.578125 188.550781 144.359375 186.191406 142.390625 186.214844 C 137.570312 186.261719 137.914062 182.394531 138.910156 178.964844 C 139.753906 176.046875 143.878906 176.941406 143.492188 174.140625 C 142.929688 170.027344 147.488281 166.480469 151.386719 168.933594 Z M 151.386719 168.933594 " fill-opacity="1" fill-rule="evenodd"/></g></g></g><g clip-path="url(#a089e6f5f0)"><g clip-path="url(#fc978e3c86)"><g clip-path="url(#8f202ea755)"><path fill="#8bb150" d="M 165.800781 184.191406 C 160.757812 183.230469 165.027344 189.234375 161.808594 190.246094 C 158.386719 191.324219 158.394531 187.027344 156.019531 187.242188 C 147.078125 188.046875 143.660156 173.835938 153.300781 175.40625 C 154.207031 175.554688 157.679688 175.996094 157.171875 174.652344 C 155.269531 169.648438 160.734375 164.96875 163.636719 170.085938 C 164.902344 172.324219 163.621094 174.421875 166.042969 174.023438 C 172.386719 172.984375 172.726562 185.515625 165.800781 184.191406 Z M 165.800781 184.191406 " fill-opacity="1" fill-rule="evenodd"/></g></g></g><g clip-path="url(#0e2335d26b)"><g clip-path="url(#8a882e03f3)"><g clip-path="url(#b6f650f2cd)"><path fill="#8bb150" d="M 158.085938 188.550781 C 158.601562 187.492188 159.539062 184.5625 161.199219 183.085938 C 162.546875 181.882812 163.070312 181.042969 162.945312 180.933594 C 162.425781 180.480469 160.773438 182.113281 159.839844 182.964844 C 159.085938 183.65625 159.5625 179.660156 158.703125 180.414062 C 158.042969 180.988281 158.734375 183.238281 158.183594 184.632812 C 157.570312 186.191406 156.027344 188.1875 155.925781 188.089844 C 154.910156 187.09375 153.15625 182.605469 152.496094 182.679688 C 151.722656 182.769531 154.171875 188.496094 154.15625 189.050781 C 154 194.359375 152.265625 202.179688 152.695312 204.871094 C 152.902344 206.167969 156.722656 205.195312 156.722656 205.195312 C 156.722656 205.195312 152.941406 199.089844 158.085938 188.550781 Z M 158.085938 188.550781 " fill-opacity="1" fill-rule="evenodd"/></g></g></g><path fill="#d5e18a" d="M 198.691406 139.148438 C 200.527344 132.585938 216.039062 120.679688 213.1875 102.394531 C 207.808594 67.878906 227.128906 36.261719 252.984375 43.792969 C 267.730469 48.085938 270.324219 72.722656 277.191406 82.390625 C 288.707031 98.589844 323.859375 148.101562 331.117188 185.453125 C 343.277344 248.058594 380.679688 304.785156 376.597656 325.394531 C 371.21875 352.519531 316.085938 333.585938 271.214844 318.890625 C 253.160156 312.976562 235.484375 321.5 226.121094 312.609375 C 193.71875 281.855469 194.460938 154.269531 198.691406 139.148438 Z M 198.691406 139.148438 " fill-opacity="1" fill-rule="evenodd"/><g clip-path="url(#1405386cb6)"><g clip-path="url(#a48475a1e9)"><g clip-path="url(#13a034d078)"><path fill="#8bb150" d="M 239.746094 188.085938 C 255.34375 194.160156 269.773438 208.410156 270.5 225.25 C 270.722656 230.433594 287.25 237.007812 288.132812 247.359375 C 288.664062 253.589844 274.085938 263.011719 268.683594 261.5625 C 252.71875 257.285156 257.046875 259.726562 239.378906 260.25 C 227.859375 260.59375 229.769531 241.363281 223.21875 247.339844 C 210.570312 258.878906 195.105469 241.3125 203 231.421875 C 205.507812 228.277344 216.359375 226.261719 214.757812 221.941406 C 211.265625 212.527344 211.722656 204.492188 218.023438 204.546875 C 231.175781 204.667969 224.492188 182.144531 239.746094 188.085938 Z M 239.746094 188.085938 " fill-opacity="1" fill-rule="evenodd"/></g></g></g><g clip-path="url(#8589395ea5)"><g clip-path="url(#21bf0c4f18)"><g clip-path="url(#8a396a3cfe)"><path fill="#8bb150" d="M 261.859375 178.542969 C 277.109375 176.800781 276.730469 194.25 291.605469 183.675781 C 299.179688 178.292969 308.722656 193.925781 300.296875 206.097656 C 297.480469 210.167969 298.695312 216.070312 300.707031 219.554688 C 316.621094 247.109375 285.738281 278.8125 270.796875 247.582031 C 269.394531 244.648438 263.652344 233.632812 260.765625 237.835938 C 250.027344 253.464844 225.332031 247.011719 234.371094 228.230469 C 238.320312 220.03125 247.035156 219.523438 240.964844 213.269531 C 225.09375 196.910156 245.308594 180.433594 261.859375 178.542969 Z M 261.859375 178.542969 " fill-opacity="1" fill-rule="evenodd"/></g></g></g><g clip-path="url(#d01d9ae16f)"><g clip-path="url(#2c8d861643)"><g clip-path="url(#f802e3357e)"><path fill="#8bb150" d="M 260.875 255.550781 C 261.0625 251.386719 264.671875 240.980469 270.035156 235.203125 C 274.390625 230.511719 275.960938 227.363281 275.480469 227.019531 C 273.496094 225.601562 268.210938 231.910156 265.199219 235.230469 C 262.757812 237.925781 263.109375 223.644531 260.324219 226.59375 C 258.191406 228.851562 261.378906 236.570312 259.910156 241.675781 C 258.265625 247.390625 253.484375 254.957031 253.085938 254.636719 C 249.175781 251.464844 241.488281 236.183594 239.179688 236.671875 C 236.476562 237.242188 246.542969 256.765625 247.171875 258.625 C 255.328125 282.730469 253.582031 306.339844 248.484375 317.378906 C 246.804688 321.015625 260.707031 323.769531 259.890625 320.03125 C 257.039062 306.980469 259.660156 282.785156 260.875 255.550781 Z M 260.875 255.550781 " fill-opacity="1" fill-rule="evenodd"/></g></g></g><g clip-path="url(#6c048656a4)"><g clip-path="url(#9f904c21e3)"><g clip-path="url(#b714793fed)"><path fill="#8bb150" d="M 226.25 262.355469 C 233.453125 265.152344 229.929688 275.21875 230.265625 282.992188 C 230.367188 285.386719 238 288.414062 238.40625 293.195312 C 238.652344 296.070312 231.917969 300.425781 229.421875 299.757812 C 222.050781 297.789062 219.261719 299.109375 215.890625 299.164062 C 212.824219 299.210938 210.128906 295.800781 206.964844 296.445312 C 199.210938 298.027344 198.558594 291.695312 199.09375 285.867188 C 199.546875 280.910156 206.46875 281.066406 204.976562 276.675781 C 203.773438 273.152344 210.867188 262.695312 215.496094 266.84375 C 220.488281 271.3125 223.0625 261.113281 226.25 262.355469 Z M 226.25 262.355469 " fill-opacity="1" fill-rule="evenodd"/></g></g></g><g clip-path="url(#9d6087ff02)"><g clip-path="url(#df56ecdf94)"><g clip-path="url(#7b2ba8229d)"><path fill="#8bb150" d="M 230.542969 268.320312 C 230.015625 260.242188 234.351562 270.082031 242.421875 268.035156 C 251.238281 265.796875 244.027344 278.210938 246.664062 279.339844 C 261.878906 285.855469 237.300781 307.726562 230.402344 293.3125 C 229.753906 291.957031 227.105469 286.875 225.769531 288.816406 C 220.8125 296.035156 209.40625 293.066406 213.582031 284.390625 C 215.40625 280.601562 219.429688 280.367188 216.628906 277.480469 C 209.300781 269.933594 231.289062 279.832031 230.542969 268.320312 Z M 230.542969 268.320312 " fill-opacity="1" fill-rule="evenodd"/></g></g></g><g clip-path="url(#65a2b6dba5)"><g clip-path="url(#56e28aa488)"><g clip-path="url(#e139bc30a3)"><path fill="#8bb150" d="M 225.773438 297.058594 C 226.335938 295.21875 227.535156 290.328125 230.015625 287.660156 C 232.03125 285.492188 232.757812 284.039062 232.535156 283.878906 C 231.621094 283.222656 229.175781 286.136719 227.78125 287.671875 C 226.652344 288.917969 226.824219 282.320312 225.535156 283.683594 C 224.546875 284.726562 226.015625 288.292969 225.335938 290.648438 C 224.570312 293.289062 222.359375 296.785156 222.175781 296.636719 C 220.371094 295.171875 216.828125 288.113281 215.757812 288.335938 C 214.507812 288.601562 219.148438 297.621094 219.441406 298.480469 C 223.195312 309.617188 214.8125 319.984375 214.730469 324.269531 C 214.703125 325.640625 218.417969 325.46875 218.9375 324.195312 C 220.777344 319.660156 220.386719 314.648438 225.773438 297.058594 Z M 225.773438 297.058594 " fill-opacity="1" fill-rule="evenodd"/></g></g></g><g clip-path="url(#58dbe909d8)"><g clip-path="url(#416fe5d083)"><g clip-path="url(#332318a069)"><path fill="#8bb150" d="M 346.679688 286.859375 C 339.136719 288.558594 341.117188 299.039062 339.621094 306.679688 C 339.160156 309.03125 331.160156 310.894531 330.042969 315.5625 C 329.367188 318.371094 335.375 323.679688 337.941406 323.390625 C 345.527344 322.535156 348.085938 324.253906 351.414062 324.808594 C 354.4375 325.3125 357.613281 322.335938 360.648438 323.445312 C 368.078125 326.15625 369.671875 319.992188 370.015625 314.148438 C 370.308594 309.175781 363.441406 308.300781 365.574219 304.183594 C 367.289062 300.875 361.84375 289.476562 356.644531 292.894531 C 351.035156 296.578125 350.019531 286.105469 346.679688 286.859375 Z M 346.679688 286.859375 " fill-opacity="1" fill-rule="evenodd"/></g></g></g><g clip-path="url(#9eb27c1980)"><g clip-path="url(#306e3b91b2)"><g clip-path="url(#c699d7f27b)"><path fill="#8bb150" d="M 341.542969 292.117188 C 343.269531 284.207031 337.507812 293.296875 329.835938 290.074219 C 321.453125 286.550781 326.722656 299.902344 323.949219 300.628906 C 307.925781 304.8125 328.957031 330.097656 337.9375 316.863281 C 338.78125 315.617188 342.164062 310.984375 343.191406 313.101562 C 347.011719 320.980469 358.738281 319.734375 355.90625 310.53125 C 354.671875 306.515625 350.726562 305.683594 353.929688 303.246094 C 362.304688 296.867188 339.078125 303.394531 341.542969 292.117188 Z M 341.542969 292.117188 " fill-opacity="1" fill-rule="evenodd"/></g></g></g><g clip-path="url(#778ecba761)"><g clip-path="url(#25b06b06db)"><g clip-path="url(#fd4d3f08fb)"><path fill="#8bb150" d="M 341.9375 321.140625 C 341.660156 319.238281 341.210938 314.230469 339.160156 311.226562 C 337.496094 308.785156 336.996094 307.238281 337.238281 307.113281 C 338.242188 306.605469 340.222656 309.847656 341.367188 311.570312 C 342.296875 312.964844 343.121094 306.425781 344.1875 307.960938 C 345.007812 309.140625 343.019531 312.445312 343.335938 314.875 C 343.695312 317.59375 345.355469 321.378906 345.558594 321.257812 C 347.5625 320.082031 352.128906 313.636719 353.148438 314.015625 C 354.34375 314.460938 348.402344 322.679688 347.984375 323.484375 C 342.597656 333.925781 349.320312 345.414062 348.757812 349.65625 C 348.578125 351.015625 344.933594 350.292969 344.613281 348.953125 C 343.476562 344.203125 344.617188 339.3125 341.9375 321.140625 Z M 341.9375 321.140625 " fill-opacity="1" fill-rule="evenodd"/></g></g></g><g clip-path="url(#9ce5ca9fca)"><g clip-path="url(#7941b8c191)"><g clip-path="url(#dcca74a8c6)"><path fill="#8bb150" d="M 237.625 52.8125 C 239.117188 49.566406 246.828125 52.609375 246.851562 55.117188 C 246.90625 60.765625 249.855469 58.546875 251.261719 57.332031 C 257.230469 52.195312 257.902344 57.726562 259.917969 63.097656 C 260.324219 64.175781 263.996094 64.9375 263.722656 70.265625 C 263.476562 75.117188 256.355469 69.417969 257.617188 75.992188 C 258.871094 82.507812 252.003906 81.421875 249.953125 80.816406 C 243.894531 79.03125 241.535156 79.96875 238.734375 79.898438 C 236.1875 79.832031 234.058594 77.074219 231.410156 77.472656 C 224.921875 78.445312 224.578125 73.476562 225.207031 68.941406 C 225.742188 65.085938 231.484375 65.4375 230.382812 61.960938 C 228.765625 56.855469 235.140625 58.226562 237.625 52.8125 Z M 237.625 52.8125 " fill-opacity="1" fill-rule="evenodd"/></g></g></g><g clip-path="url(#03cfe8448f)"><g clip-path="url(#14c0857b5d)"><g clip-path="url(#9c76c0d0d7)"><path fill="#8bb150" d="M 247.082031 78.496094 C 247.605469 77.074219 248.75 73.300781 250.890625 71.296875 C 252.628906 69.671875 253.277344 68.5625 253.097656 68.429688 C 252.355469 67.890625 250.238281 70.082031 249.035156 71.234375 C 248.058594 72.167969 248.402344 67.027344 247.289062 68.046875 C 246.4375 68.828125 247.550781 71.660156 246.914062 73.476562 C 246.199219 75.511719 244.253906 78.167969 244.109375 78.046875 C 242.652344 76.84375 239.925781 71.21875 239.035156 71.359375 C 237.988281 71.523438 241.566406 78.714844 241.78125 79.394531 C 244.5625 88.210938 241.632812 100.476562 242.519531 100.324219 C 243.011719 100.242188 244.21875 101.09375 244.824219 96.46875 C 245.300781 92.820312 244.875 84.46875 247.082031 78.496094 Z M 247.082031 78.496094 " fill-opacity="1" fill-rule="evenodd"/></g></g></g><g clip-path="url(#feb9128800)"><g clip-path="url(#c8c176adef)"><g clip-path="url(#d4e1af9881)"><path fill="#8bb150" d="M 272.570312 111.929688 C 274.644531 109.996094 277.125 110.613281 278.996094 112.226562 C 280.980469 113.941406 278.671875 116.503906 279.71875 117.898438 C 283.660156 123.148438 276.117188 130.71875 273.386719 124.125 C 273.132812 123.503906 271.480469 122.34375 270.785156 123.132812 C 267.351562 127.023438 262.746094 126.445312 260.3125 122.898438 C 257.253906 118.4375 263.019531 115.589844 261.839844 114.234375 C 259.964844 112.085938 261.59375 107.957031 266.363281 107.421875 C 269.679688 107.050781 270.945312 113.4375 272.570312 111.929688 Z M 272.570312 111.929688 " fill-opacity="1" fill-rule="evenodd"/></g></g></g><g clip-path="url(#c67dcdae7f)"><g clip-path="url(#d53ab85887)"><g clip-path="url(#c689b86917)"><path fill="#8bb150" d="M 271.265625 125.703125 C 271.5625 124.894531 272.207031 122.742188 273.375 121.613281 C 274.324219 120.695312 274.683594 120.0625 274.585938 119.984375 C 274.195312 119.671875 273.035156 120.914062 272.378906 121.5625 C 271.847656 122.089844 272.078125 119.152344 271.472656 119.726562 C 271.007812 120.171875 271.578125 121.796875 271.222656 122.832031 C 270.820312 123.992188 269.753906 125.5 269.675781 125.429688 C 268.902344 124.730469 267.492188 121.496094 267.011719 121.570312 C 266.445312 121.65625 268.304688 125.796875 268.414062 126.183594 C 269.824219 131.246094 267.578125 137.628906 268.195312 138.15625 C 270.769531 140.371094 268.457031 133.425781 271.265625 125.703125 Z M 271.265625 125.703125 " fill-opacity="1" fill-rule="evenodd"/></g></g></g><g clip-path="url(#662f3d712a)"><g clip-path="url(#0e9e7e9f28)"><g clip-path="url(#a570a9a5c8)"><path fill="#8bb150" d="M 298.707031 293.082031 C 301.738281 290.625 305.390625 291.4375 308.164062 293.519531 C 311.105469 295.734375 307.738281 299 309.296875 300.800781 C 315.15625 307.566406 304.144531 317.199219 300.054688 308.722656 C 299.667969 307.925781 297.226562 306.421875 296.210938 307.425781 C 291.207031 312.386719 284.421875 311.605469 280.804688 307.035156 C 276.25 301.292969 284.699219 297.695312 282.949219 295.945312 C 280.164062 293.171875 282.511719 287.894531 289.519531 287.253906 C 294.398438 286.808594 296.332031 295.003906 298.707031 293.082031 Z M 298.707031 293.082031 " fill-opacity="1" fill-rule="evenodd"/></g></g></g><g clip-path="url(#df52ac34f4)"><g clip-path="url(#d3192185a2)"><g clip-path="url(#0f7150a665)"><path fill="#8bb150" d="M 296.875 310.648438 C 297.300781 309.617188 298.234375 306.867188 299.945312 305.433594 C 301.332031 304.265625 301.855469 303.460938 301.714844 303.363281 C 301.132812 302.957031 299.4375 304.535156 298.476562 305.359375 C 297.699219 306.03125 298.011719 302.273438 297.125 303.003906 C 296.445312 303.566406 297.300781 305.652344 296.78125 306.972656 C 296.199219 308.453125 294.640625 310.371094 294.523438 310.28125 C 293.382812 309.378906 291.273438 305.226562 290.566406 305.320312 C 289.738281 305.425781 292.507812 310.734375 292.671875 311.234375 C 294.800781 317.722656 291.546875 325.863281 292.457031 326.546875 C 296.269531 329.402344 292.800781 320.496094 296.875 310.648438 Z M 296.875 310.648438 " fill-opacity="1" fill-rule="evenodd"/></g></g></g><g clip-path="url(#cb46a6fe67)"><g clip-path="url(#cd376d3146)"><g clip-path="url(#7da8faa16b)"><path fill="#8bb150" d="M 230.652344 113.773438 C 233.761719 115.230469 236.519531 118.347656 236.4375 121.800781 C 236.410156 122.867188 239.703125 124.4375 239.742188 126.570312 C 239.765625 127.851562 236.652344 129.578125 235.566406 129.207031 C 232.355469 128.113281 231.082031 128.613281 229.585938 128.535156 C 228.222656 128.464844 227.128906 126.871094 225.707031 127.0625 C 222.222656 127.527344 222.121094 124.703125 222.535156 122.136719 C 222.882812 119.953125 225.945312 120.230469 225.414062 118.242188 C 224.632812 115.320312 227.609375 112.351562 230.652344 113.773438 Z M 230.652344 113.773438 " fill-opacity="1" fill-rule="evenodd"/></g></g></g><g clip-path="url(#833995a930)"><g clip-path="url(#e89a5f572a)"><g clip-path="url(#05d7ea728e)"><path fill="#8bb150" d="M 236.996094 115.304688 C 238.285156 118.804688 240.433594 113.90625 242.273438 115.535156 C 244.226562 117.265625 241.539062 118.863281 242.5625 120.265625 C 246.414062 125.539062 238.820312 132.972656 236.191406 126.375 C 235.945312 125.753906 234.921875 123.421875 234.269531 124.242188 C 231.859375 127.292969 226.890625 125.632812 229 121.914062 C 229.921875 120.292969 231.710938 120.308594 230.554688 118.945312 C 227.53125 115.378906 235.226562 110.492188 236.996094 115.304688 Z M 236.996094 115.304688 " fill-opacity="1" fill-rule="evenodd"/></g></g></g><g clip-path="url(#a994d0901e)"><g clip-path="url(#bb20620d36)"><g clip-path="url(#20ddd2342b)"><path fill="#8bb150" d="M 234.023438 127.863281 C 234.324219 127.066406 235 124.9375 236.175781 123.828125 C 237.132812 122.929688 237.496094 122.308594 237.402344 122.230469 C 237.015625 121.914062 235.847656 123.128906 235.1875 123.769531 C 234.652344 124.285156 234.921875 121.371094 234.308594 121.933594 C 233.84375 122.367188 234.386719 123.988281 234.015625 125.011719 C 233.601562 126.160156 232.519531 127.640625 232.441406 127.570312 C 231.6875 126.867188 230.328125 123.636719 229.847656 123.703125 C 229.285156 123.78125 231.074219 127.914062 231.175781 128.304688 C 232.511719 133.34375 230.460938 138.183594 230.792969 140.183594 C 230.917969 140.941406 232.957031 141.050781 233.152344 140.304688 C 233.691406 138.25 231.121094 135.488281 234.023438 127.863281 Z M 234.023438 127.863281 " fill-opacity="1" fill-rule="evenodd"/></g></g></g><g clip-path="url(#c00eec0d2b)"><g clip-path="url(#22ef12ea8f)"><g clip-path="url(#326b85502d)"><path fill="#8bb150" d="M 288.726562 153.265625 C 291.753906 154.449219 294.546875 157.222656 294.679688 160.5 C 294.722656 161.507812 297.925781 162.789062 298.09375 164.800781 C 298.195312 166.015625 295.359375 167.847656 294.3125 167.5625 C 291.210938 166.730469 290.417969 169.03125 289 169.054688 C 287.710938 169.074219 285.109375 168.953125 283.777344 169.222656 C 280.515625 169.882812 279.203125 164.292969 279.433594 161.835938 C 279.632812 159.75 283.875 157.402344 283.25 155.550781 C 282.335938 152.835938 285.769531 152.109375 288.726562 153.265625 Z M 288.726562 153.265625 " fill-opacity="1" fill-rule="evenodd"/></g></g></g><g clip-path="url(#0e8d934b25)"><g clip-path="url(#017d744039)"><g clip-path="url(#8b643be624)"><path fill="#8bb150" d="M 294.914062 151.75 C 298.816406 150.367188 297.972656 152.785156 299.808594 154.207031 C 301.761719 155.722656 301.648438 157.996094 302.699219 159.257812 C 306.660156 164.003906 297.617188 170.933594 294.730469 164.855469 C 294.460938 164.285156 293.351562 162.140625 292.789062 162.957031 C 290.695312 166 285.902344 164.742188 287.667969 161.085938 C 288.4375 159.492188 290.128906 159.394531 288.957031 158.175781 C 285.882812 154.992188 290.332031 153.375 294.914062 151.75 Z M 294.914062 151.75 " fill-opacity="1" fill-rule="evenodd"/></g></g></g><g clip-path="url(#9f5ea65741)"><g clip-path="url(#c5e05103db)"><g clip-path="url(#96b28047a3)"><path fill="#8bb150" d="M 292.832031 166.398438 C 293.070312 165.625 293.574219 163.570312 294.621094 162.453125 C 295.46875 161.546875 295.777344 160.9375 295.683594 160.867188 C 295.296875 160.589844 294.265625 161.8125 293.679688 162.453125 C 293.203125 162.976562 293.277344 160.203125 292.734375 160.773438 C 292.320312 161.210938 292.9375 162.710938 292.648438 163.703125 C 292.324219 164.808594 291.394531 166.277344 291.316406 166.210938 C 290.554688 165.59375 289.066406 162.617188 288.617188 162.710938 C 288.09375 162.820312 290.042969 166.621094 290.164062 166.980469 C 291.738281 171.671875 290.535156 178.238281 290.535156 178.238281 C 290.535156 178.238281 292.640625 178.929688 292.777344 178.214844 C 293.160156 176.238281 290.554688 173.78125 292.832031 166.398438 Z M 292.832031 166.398438 " fill-opacity="1" fill-rule="evenodd"/></g></g></g><path fill="#5d824d" d="M 200.992188 3.988281 L 174.398438 3.988281 C 174.398438 3.988281 173.070312 73.363281 173.5 120.109375 C 173.527344 123.347656 167.363281 130.339844 157.988281 139 C 157.246094 139.6875 132.488281 138.929688 111.433594 141.867188 C 92.351562 144.527344 69.164062 145.421875 68.425781 146.078125 C 67.433594 146.957031 96.066406 146.863281 115.003906 145.566406 C 132.746094 144.355469 148.503906 147.417969 147.488281 148.277344 C 136.699219 157.480469 123.867188 167.578125 111.660156 176.714844 C 110.121094 177.867188 108.59375 179 107.082031 180.117188 C 106.75 180.363281 92.179688 181.46875 78.253906 180.832031 C 63.078125 180.140625 46.816406 189.746094 46.457031 190.007812 C 46.007812 190.339844 62.058594 181.871094 76.503906 183.164062 C 89.601562 184.332031 102.824219 183.203125 102.441406 183.519531 C 88.195312 195.339844 72.847656 212.371094 63.40625 224.570312 C 62.929688 225.191406 57.648438 222.582031 49.714844 225.273438 C 43.195312 227.484375 35.914062 230.964844 35.539062 231.46875 C 35.039062 232.140625 44.625 228.183594 50.300781 226.828125 C 54.621094 225.792969 62.171875 226.859375 61.75 227.449219 C 43.773438 252.464844 35.394531 273.699219 33.609375 277.230469 C 32.933594 278.570312 40.175781 265.761719 50.789062 249.550781 C 51.050781 249.148438 53.328125 255.261719 55.667969 261.574219 C 58.15625 268.296875 60.347656 300.851562 60.636719 300.414062 C 60.894531 300.027344 59.503906 267.460938 57.683594 260.320312 C 55.761719 252.777344 53.777344 245.03125 54.054688 244.617188 C 65.234375 227.929688 79.296875 208.941406 91.773438 198.214844 C 92.207031 197.839844 89.695312 211.734375 92.179688 223.617188 C 95.007812 237.160156 102.863281 248.914062 103.375 248.480469 C 103.835938 248.09375 96.128906 235.925781 94.371094 222.160156 C 92.667969 208.820312 96.910156 193.871094 97.367188 193.496094 C 100.152344 191.222656 103.074219 188.957031 106.101562 186.761719 C 113.183594 181.632812 120.8125 176.675781 128.546875 172.085938 C 129.175781 171.710938 125.507812 189.933594 126.285156 206.425781 C 127.085938 223.542969 132.332031 238.953125 132.984375 238.574219 C 133.582031 238.230469 128.296875 220.722656 128.746094 203.472656 C 128.945312 195.738281 130.230469 188.046875 131.671875 181.796875 C 131.792969 181.269531 138.09375 189.863281 145.253906 196.429688 C 152.148438 202.757812 159.910156 207.066406 160.03125 206.597656 C 160.125 206.21875 152.964844 201.367188 146.527344 194.433594 C 139.390625 186.742188 132.898438 176.902344 133.003906 176.515625 C 134.445312 171.296875 135.757812 167.921875 136.023438 167.773438 C 156.21875 156.476562 176.121094 148.101562 187.765625 146.144531 C 197.3125 144.539062 216.796875 154.589844 236.824219 167.605469 C 237.359375 167.953125 238.226562 184.707031 235.320312 200.398438 C 232.121094 217.648438 225.117188 233.980469 225.707031 234.375 C 226.511719 234.90625 233.492188 218.839844 238.265625 201.691406 C 242.097656 187.925781 243.902344 172.304688 244.542969 172.746094 C 254.039062 179.210938 265.21875 188.34375 273.414062 194.714844 C 274.097656 195.25 270.589844 213.929688 269.234375 230.539062 C 267.753906 248.644531 265.757812 272.851562 266.449219 273.453125 C 266.921875 273.867188 270.183594 246.429688 272.050781 228.6875 C 273.773438 212.289062 277.710938 198.410156 278.113281 198.8125 C 314.089844 234.898438 336.003906 261.667969 335.089844 260.472656 C 333.875 258.886719 326.269531 236.464844 276.105469 189.492188 C 264.777344 178.886719 249.324219 167.523438 235.964844 156.269531 C 235.433594 155.824219 251.726562 154.921875 264.363281 152.785156 C 280.101562 150.128906 292.894531 146.148438 292.25 145.601562 C 291.789062 145.207031 277.039062 149.089844 260.714844 150.738281 C 246.398438 152.179688 230.25 151.417969 229.851562 151.078125 C 213.886719 137.378906 201.453125 125.480469 201.488281 120.710938 C 201.855469 73.679688 200.992188 3.988281 200.992188 3.988281 Z M 200.992188 3.988281 " fill-opacity="1" fill-rule="evenodd"/><path fill="#abb850" d="M 201.125 4.589844 C 201.125 4.882812 201.039062 5.179688 200.867188 5.46875 C 200.695312 5.757812 200.441406 6.042969 200.105469 6.316406 C 199.773438 6.589844 199.359375 6.847656 198.875 7.097656 C 198.386719 7.34375 197.832031 7.570312 197.214844 7.78125 C 196.59375 7.988281 195.917969 8.175781 195.191406 8.339844 C 194.460938 8.507812 193.691406 8.644531 192.882812 8.757812 C 192.074219 8.871094 191.238281 8.957031 190.378906 9.015625 C 189.519531 9.074219 188.648438 9.101562 187.773438 9.101562 C 186.898438 9.101562 186.027344 9.074219 185.167969 9.015625 C 184.308594 8.957031 183.476562 8.871094 182.664062 8.757812 C 181.855469 8.644531 181.085938 8.507812 180.355469 8.339844 C 179.628906 8.175781 178.953125 7.988281 178.335938 7.78125 C 177.714844 7.570312 177.160156 7.34375 176.675781 7.097656 C 176.1875 6.847656 175.777344 6.589844 175.441406 6.316406 C 175.105469 6.042969 174.851562 5.757812 174.679688 5.46875 C 174.507812 5.179688 174.425781 4.882812 174.425781 4.589844 C 174.425781 4.292969 174.507812 3.996094 174.679688 3.707031 C 174.851562 3.417969 175.105469 3.132812 175.441406 2.859375 C 175.777344 2.585938 176.1875 2.328125 176.675781 2.078125 C 177.160156 1.832031 177.714844 1.605469 178.335938 1.394531 C 178.953125 1.1875 179.628906 1 180.355469 0.835938 C 181.085938 0.667969 181.855469 0.53125 182.664062 0.417969 C 183.476562 0.304688 184.308594 0.21875 185.167969 0.160156 C 186.027344 0.101562 186.898438 0.0742188 187.773438 0.0742188 C 188.648438 0.0742188 189.519531 0.101562 190.378906 0.160156 C 191.238281 0.21875 192.074219 0.304688 192.882812 0.417969 C 193.691406 0.53125 194.460938 0.667969 195.191406 0.835938 C 195.917969 1 196.59375 1.1875 197.214844 1.394531 C 197.832031 1.605469 198.386719 1.832031 198.875 2.078125 C 199.359375 2.328125 199.773438 2.585938 200.105469 2.859375 C 200.441406 3.132812 200.695312 3.417969 200.867188 3.707031 C 201.039062 3.996094 201.125 4.292969 201.125 4.589844 Z M 201.125 4.589844 " fill-opacity="1" fill-rule="nonzero"/></svg>