<svg xmlns="http://www.w3.org/2000/svg" xmlns:xlink="http://www.w3.org/1999/xlink" width="500" zoomAndPan="magnify" viewBox="0 0 375 374.999991" height="500" preserveAspectRatio="xMidYMid meet" version="1.0"><defs><clipPath id="634b5150ac"><path d="M 90 346 L 233 346 L 233 373.5 L 90 373.5 Z M 90 346 " clip-rule="nonzero"/></clipPath><clipPath id="90b65be16f"><path d="M 282 169 L 374.84375 169 L 374.84375 220 L 282 220 Z M 282 169 " clip-rule="nonzero"/></clipPath></defs><path fill="#d6f0ff" d="M 313.863281 190.558594 C 313.863281 192.734375 313.808594 194.90625 313.703125 197.078125 C 313.597656 199.25 313.4375 201.417969 313.222656 203.582031 C 313.011719 205.746094 312.746094 207.90625 312.425781 210.054688 C 312.105469 212.207031 311.734375 214.347656 311.3125 216.480469 C 310.886719 218.613281 310.410156 220.738281 309.882812 222.847656 C 309.355469 224.957031 308.777344 227.050781 308.144531 229.132812 C 307.515625 231.214844 306.832031 233.277344 306.101562 235.324219 C 305.371094 237.371094 304.585938 239.402344 303.753906 241.410156 C 302.925781 243.417969 302.042969 245.40625 301.113281 247.371094 C 300.1875 249.339844 299.210938 251.28125 298.183594 253.199219 C 297.160156 255.117188 296.089844 257.007812 294.972656 258.875 C 293.855469 260.738281 292.691406 262.574219 291.484375 264.382812 C 290.277344 266.191406 289.027344 267.96875 287.734375 269.714844 C 286.4375 271.464844 285.101562 273.175781 283.722656 274.859375 C 282.34375 276.539062 280.925781 278.183594 279.46875 279.796875 C 278.007812 281.40625 276.507812 282.984375 274.972656 284.519531 C 273.4375 286.058594 271.863281 287.558594 270.253906 289.019531 C 268.644531 290.476562 266.996094 291.898438 265.316406 293.277344 C 263.636719 294.65625 261.925781 295.996094 260.179688 297.289062 C 258.433594 298.585938 256.660156 299.835938 254.851562 301.046875 C 253.046875 302.253906 251.210938 303.417969 249.347656 304.535156 C 247.480469 305.652344 245.59375 306.726562 243.675781 307.75 C 241.757812 308.773438 239.820312 309.753906 237.855469 310.683594 C 235.890625 311.613281 233.902344 312.492188 231.894531 313.324219 C 229.890625 314.15625 227.863281 314.941406 225.816406 315.671875 C 223.769531 316.40625 221.707031 317.085938 219.628906 317.71875 C 217.546875 318.351562 215.453125 318.929688 213.347656 319.457031 C 211.238281 319.988281 209.121094 320.464844 206.988281 320.886719 C 204.855469 321.3125 202.714844 321.683594 200.566406 322.003906 C 198.417969 322.320312 196.261719 322.585938 194.097656 322.800781 C 191.9375 323.015625 189.769531 323.175781 187.597656 323.28125 C 185.429688 323.386719 183.257812 323.441406 181.085938 323.441406 C 178.910156 323.441406 176.738281 323.386719 174.570312 323.28125 C 172.398438 323.175781 170.230469 323.015625 168.070312 322.800781 C 165.90625 322.585938 163.75 322.320312 161.601562 322.003906 C 159.453125 321.683594 157.3125 321.3125 155.179688 320.886719 C 153.050781 320.464844 150.929688 319.988281 148.820312 319.457031 C 146.714844 318.929688 144.621094 318.351562 142.539062 317.71875 C 140.460938 317.085938 138.398438 316.40625 136.351562 315.671875 C 134.304688 314.941406 132.28125 314.15625 130.273438 313.324219 C 128.265625 312.492188 126.277344 311.613281 124.3125 310.683594 C 122.347656 309.753906 120.410156 308.773438 118.492188 307.75 C 116.574219 306.726562 114.6875 305.652344 112.820312 304.535156 C 110.957031 303.417969 109.121094 302.253906 107.316406 301.046875 C 105.507812 299.835938 103.734375 298.585938 101.988281 297.289062 C 100.242188 295.996094 98.53125 294.65625 96.851562 293.277344 C 95.171875 291.898438 93.523438 290.476562 91.914062 289.019531 C 90.304688 287.558594 88.730469 286.058594 87.195312 284.519531 C 85.660156 282.984375 84.160156 281.40625 82.703125 279.796875 C 81.242188 278.183594 79.824219 276.539062 78.445312 274.859375 C 77.066406 273.175781 75.730469 271.464844 74.433594 269.714844 C 73.140625 267.96875 71.890625 266.191406 70.683594 264.382812 C 69.476562 262.574219 68.3125 260.738281 67.195312 258.875 C 66.078125 257.007812 65.007812 255.117188 63.984375 253.199219 C 62.960938 251.28125 61.980469 249.339844 61.054688 247.371094 C 60.125 245.40625 59.242188 243.417969 58.414062 241.410156 C 57.582031 239.402344 56.800781 237.371094 56.066406 235.324219 C 55.335938 233.277344 54.652344 231.214844 54.023438 229.132812 C 53.390625 227.050781 52.8125 224.957031 52.285156 222.847656 C 51.757812 220.738281 51.28125 218.613281 50.855469 216.480469 C 50.433594 214.347656 50.0625 212.207031 49.742188 210.054688 C 49.421875 207.90625 49.15625 205.746094 48.945312 203.582031 C 48.730469 201.417969 48.570312 199.25 48.464844 197.078125 C 48.359375 194.90625 48.304688 192.734375 48.304688 190.558594 C 48.304688 188.382812 48.359375 186.210938 48.464844 184.039062 C 48.570312 181.867188 48.730469 179.699219 48.945312 177.535156 C 49.15625 175.367188 49.421875 173.210938 49.742188 171.058594 C 50.0625 168.910156 50.433594 166.765625 50.855469 164.632812 C 51.28125 162.5 51.757812 160.378906 52.285156 158.269531 C 52.8125 156.160156 53.390625 154.066406 54.023438 151.984375 C 54.652344 149.902344 55.335938 147.839844 56.066406 145.792969 C 56.800781 143.742188 57.582031 141.714844 58.414062 139.707031 C 59.242188 137.695312 60.125 135.710938 61.054688 133.742188 C 61.980469 131.777344 62.960938 129.835938 63.984375 127.917969 C 65.007812 126 66.078125 124.109375 67.195312 122.242188 C 68.3125 120.378906 69.476562 118.539062 70.683594 116.730469 C 71.890625 114.925781 73.140625 113.148438 74.433594 111.398438 C 75.730469 109.652344 77.066406 107.9375 78.445312 106.257812 C 79.824219 104.578125 81.242188 102.929688 82.703125 101.320312 C 84.160156 99.707031 85.660156 98.132812 87.195312 96.597656 C 88.730469 95.058594 90.304688 93.558594 91.914062 92.097656 C 93.523438 90.636719 95.171875 89.21875 96.851562 87.839844 C 98.53125 86.457031 100.242188 85.121094 101.988281 83.824219 C 103.734375 82.53125 105.507812 81.277344 107.316406 80.070312 C 109.121094 78.863281 110.957031 77.699219 112.820312 76.582031 C 114.6875 75.460938 116.574219 74.390625 118.492188 73.367188 C 120.410156 72.339844 122.347656 71.363281 124.3125 70.433594 C 126.277344 69.503906 128.265625 68.621094 130.273438 67.789062 C 132.28125 66.957031 134.304688 66.175781 136.351562 65.441406 C 138.398438 64.710938 140.460938 64.027344 142.539062 63.398438 C 144.621094 62.765625 146.714844 62.1875 148.820312 61.65625 C 150.929688 61.128906 153.050781 60.652344 155.179688 60.230469 C 157.3125 59.804688 159.453125 59.433594 161.601562 59.113281 C 163.75 58.792969 165.90625 58.527344 168.070312 58.316406 C 170.230469 58.101562 172.398438 57.941406 174.570312 57.835938 C 176.738281 57.730469 178.910156 57.675781 181.085938 57.675781 C 183.257812 57.675781 185.429688 57.730469 187.597656 57.835938 C 189.769531 57.941406 191.9375 58.101562 194.097656 58.316406 C 196.261719 58.527344 198.417969 58.792969 200.566406 59.113281 C 202.714844 59.433594 204.855469 59.804688 206.988281 60.230469 C 209.121094 60.652344 211.238281 61.128906 213.347656 61.65625 C 215.453125 62.1875 217.546875 62.765625 219.628906 63.398438 C 221.707031 64.027344 223.769531 64.710938 225.816406 65.441406 C 227.863281 66.175781 229.890625 66.957031 231.894531 67.789062 C 233.902344 68.621094 235.890625 69.503906 237.855469 70.433594 C 239.820312 71.363281 241.757812 72.339844 243.675781 73.367188 C 245.59375 74.390625 247.480469 75.460938 249.347656 76.582031 C 251.210938 77.699219 253.046875 78.863281 254.851562 80.070312 C 256.660156 81.277344 258.433594 82.53125 260.179688 83.824219 C 261.925781 85.121094 263.636719 86.457031 265.316406 87.839844 C 266.996094 89.21875 268.644531 90.636719 270.253906 92.097656 C 271.863281 93.558594 273.4375 95.058594 274.972656 96.597656 C 276.507812 98.132812 278.007812 99.707031 279.46875 101.320312 C 280.925781 102.929688 282.34375 104.578125 283.722656 106.257812 C 285.101562 107.9375 286.4375 109.652344 287.734375 111.398438 C 289.027344 113.148438 290.277344 114.925781 291.484375 116.730469 C 292.691406 118.539062 293.855469 120.378906 294.972656 122.242188 C 296.089844 124.109375 297.160156 126 298.183594 127.917969 C 299.210938 129.835938 300.1875 131.777344 301.113281 133.742188 C 302.042969 135.710938 302.925781 137.695312 303.753906 139.707031 C 304.585938 141.714844 305.371094 143.742188 306.101562 145.792969 C 306.832031 147.839844 307.515625 149.902344 308.144531 151.984375 C 308.777344 154.066406 309.355469 156.160156 309.882812 158.269531 C 310.410156 160.378906 310.886719 162.5 311.3125 164.632812 C 311.734375 166.765625 312.105469 168.910156 312.425781 171.058594 C 312.746094 173.210938 313.011719 175.367188 313.222656 177.535156 C 313.4375 179.699219 313.597656 181.867188 313.703125 184.039062 C 313.808594 186.210938 313.863281 188.382812 313.863281 190.558594 Z M 313.863281 190.558594 " fill-opacity="1" fill-rule="nonzero"/><g clip-path="url(#634b5150ac)"><path fill="#15308a" d="M 181.082031 373.441406 C 177.425781 373.441406 173.726562 373.332031 170.089844 373.113281 C 169.042969 373.050781 168.246094 372.152344 168.308594 371.105469 C 168.371094 370.058594 169.269531 369.265625 170.3125 369.324219 C 173.878906 369.535156 177.5 369.644531 181.085938 369.644531 C 184.242188 369.644531 187.4375 369.558594 190.585938 369.394531 C 191.628906 369.339844 192.523438 370.144531 192.578125 371.191406 C 192.632812 372.238281 191.828125 373.132812 190.785156 373.1875 C 187.574219 373.355469 184.308594 373.441406 181.082031 373.441406 Z M 211.039062 370.957031 C 210.128906 370.957031 209.324219 370.300781 209.167969 369.375 C 208.996094 368.339844 209.691406 367.359375 210.726562 367.1875 C 217.371094 366.074219 224.019531 364.566406 230.488281 362.703125 C 231.492188 362.414062 232.542969 362.996094 232.835938 364.003906 C 233.125 365.011719 232.542969 366.0625 231.535156 366.351562 C 224.929688 368.253906 218.140625 369.796875 211.351562 370.933594 C 211.246094 370.949219 211.140625 370.957031 211.039062 370.957031 Z M 149.859375 370.742188 C 149.75 370.742188 149.640625 370.730469 149.53125 370.710938 C 142.753906 369.527344 135.972656 367.9375 129.378906 365.988281 C 128.375 365.691406 127.800781 364.632812 128.097656 363.628906 C 128.394531 362.621094 129.449219 362.046875 130.453125 362.34375 C 136.910156 364.253906 143.546875 365.8125 150.183594 366.972656 C 151.214844 367.152344 151.90625 368.136719 151.726562 369.167969 C 151.566406 370.089844 150.765625 370.742188 149.859375 370.742188 Z M 110.636719 359.144531 C 110.390625 359.144531 110.140625 359.097656 109.898438 358.992188 C 103.574219 356.304688 97.328125 353.222656 91.339844 349.828125 C 90.425781 349.3125 90.105469 348.152344 90.621094 347.242188 C 91.136719 346.328125 92.296875 346.007812 93.207031 346.523438 C 99.074219 349.847656 105.1875 352.867188 111.378906 355.496094 C 112.34375 355.90625 112.792969 357.023438 112.386719 357.988281 C 112.078125 358.710938 111.375 359.144531 110.636719 359.144531 Z M 110.636719 359.144531 " fill-opacity="1" fill-rule="nonzero"/></g><path fill="#15308a" d="M 357.035156 150.5625 C 356.175781 150.5625 355.398438 149.976562 355.191406 149.101562 C 353.574219 142.308594 351.535156 135.539062 349.128906 128.980469 C 348.769531 127.996094 349.273438 126.90625 350.257812 126.546875 C 351.238281 126.183594 352.332031 126.6875 352.691406 127.671875 C 355.148438 134.371094 357.234375 141.285156 358.882812 148.222656 C 359.125 149.246094 358.496094 150.269531 357.476562 150.511719 C 357.328125 150.546875 357.179688 150.5625 357.035156 150.5625 Z M 342.429688 110.753906 C 341.738281 110.753906 341.070312 110.375 340.738281 109.714844 C 337.578125 103.492188 334.011719 97.382812 330.136719 91.5625 C 329.558594 90.6875 329.792969 89.507812 330.664062 88.929688 C 331.539062 88.347656 332.714844 88.582031 333.296875 89.457031 C 337.253906 95.402344 340.894531 101.636719 344.121094 107.992188 C 344.59375 108.929688 344.222656 110.070312 343.289062 110.546875 C 343.011719 110.6875 342.71875 110.753906 342.429688 110.753906 Z M 318.9375 75.4375 C 318.402344 75.4375 317.867188 75.210938 317.492188 74.769531 C 312.96875 69.441406 308.085938 64.324219 302.976562 59.558594 C 302.210938 58.847656 302.167969 57.644531 302.882812 56.878906 C 303.597656 56.109375 304.796875 56.066406 305.5625 56.78125 C 310.78125 61.648438 315.765625 66.871094 320.382812 72.308594 C 321.0625 73.109375 320.964844 74.308594 320.164062 74.988281 C 319.808594 75.289062 319.371094 75.4375 318.9375 75.4375 Z M 287.914062 46.511719 C 287.527344 46.511719 287.132812 46.390625 286.792969 46.144531 C 281.160156 42 275.226562 38.152344 269.160156 34.703125 C 268.246094 34.1875 267.929688 33.027344 268.445312 32.117188 C 268.964844 31.203125 270.121094 30.882812 271.03125 31.402344 C 277.226562 34.921875 283.289062 38.851562 289.039062 43.082031 C 289.886719 43.703125 290.066406 44.890625 289.445312 45.738281 C 289.074219 46.242188 288.5 46.511719 287.914062 46.511719 Z M 251.039062 25.5625 C 250.792969 25.5625 250.546875 25.515625 250.304688 25.414062 C 243.863281 22.699219 237.195312 20.34375 230.488281 18.414062 C 229.480469 18.121094 228.898438 17.070312 229.1875 16.0625 C 229.476562 15.054688 230.527344 14.472656 231.535156 14.761719 C 238.386719 16.734375 245.199219 19.140625 251.777344 21.914062 C 252.742188 22.320312 253.195312 23.433594 252.789062 24.402344 C 252.484375 25.125 251.78125 25.5625 251.039062 25.5625 Z M 251.039062 25.5625 " fill-opacity="1" fill-rule="nonzero"/><path fill="#15308a" d="M 0.34375 198.609375 C -0.675781 198.609375 -1.515625 197.800781 -1.550781 196.777344 C -1.621094 194.714844 -1.65625 192.625 -1.65625 190.558594 C -1.65625 185.949219 -1.480469 181.292969 -1.136719 176.714844 C -1.058594 175.667969 -0.152344 174.882812 0.898438 174.964844 C 1.941406 175.042969 2.726562 175.953125 2.648438 177 C 2.308594 181.480469 2.140625 186.042969 2.140625 190.558594 C 2.140625 192.582031 2.171875 194.628906 2.242188 196.648438 C 2.277344 197.695312 1.457031 198.574219 0.410156 198.609375 C 0.386719 198.609375 0.363281 198.609375 0.34375 198.609375 Z M 3.328125 159.0625 C 3.214844 159.0625 3.097656 159.054688 2.976562 159.03125 C 1.949219 158.839844 1.269531 157.847656 1.460938 156.816406 C 2.691406 150.253906 4.300781 143.691406 6.242188 137.308594 C 6.546875 136.308594 7.609375 135.742188 8.609375 136.046875 C 9.613281 136.351562 10.179688 137.414062 9.871094 138.417969 C 7.96875 144.664062 6.394531 151.089844 5.191406 157.515625 C 5.019531 158.425781 4.222656 159.0625 3.328125 159.0625 Z M 14.890625 121.105469 C 14.640625 121.105469 14.382812 121.054688 14.140625 120.949219 C 13.175781 120.535156 12.734375 119.417969 13.148438 118.457031 C 15.78125 112.335938 18.789062 106.289062 22.085938 100.480469 C 22.601562 99.570312 23.761719 99.25 24.671875 99.769531 C 25.582031 100.289062 25.902344 101.445312 25.382812 102.359375 C 22.15625 108.042969 19.210938 113.964844 16.632812 119.957031 C 16.324219 120.675781 15.625 121.105469 14.890625 121.105469 Z M 34.46875 86.613281 C 34.085938 86.613281 33.695312 86.496094 33.359375 86.25 C 32.511719 85.636719 32.320312 84.449219 32.933594 83.601562 C 36.839844 78.199219 41.085938 72.953125 45.558594 68.003906 C 46.261719 67.226562 47.460938 67.167969 48.238281 67.871094 C 49.015625 68.574219 49.074219 69.773438 48.371094 70.550781 C 43.992188 75.398438 39.832031 80.535156 36.007812 85.824219 C 35.636719 86.339844 35.058594 86.613281 34.46875 86.613281 Z M 61.058594 57.191406 C 60.535156 57.191406 60.011719 56.976562 59.636719 56.554688 C 58.941406 55.773438 59.011719 54.570312 59.796875 53.875 C 64.777344 49.441406 70.054688 45.238281 75.484375 41.378906 C 76.335938 40.773438 77.523438 40.972656 78.128906 41.828125 C 78.734375 42.683594 78.535156 43.867188 77.679688 44.476562 C 72.363281 48.253906 67.195312 52.371094 62.316406 56.714844 C 61.957031 57.035156 61.503906 57.191406 61.058594 57.191406 Z M 93.359375 34.230469 C 92.695312 34.230469 92.046875 33.878906 91.703125 33.253906 C 91.191406 32.335938 91.519531 31.179688 92.433594 30.671875 C 98.261719 27.421875 104.328125 24.464844 110.464844 21.882812 C 111.429688 21.476562 112.542969 21.929688 112.949219 22.898438 C 113.355469 23.863281 112.902344 24.976562 111.933594 25.382812 C 105.925781 27.914062 99.988281 30.808594 94.28125 33.988281 C 93.988281 34.152344 93.671875 34.230469 93.359375 34.230469 Z M 93.359375 34.230469 " fill-opacity="1" fill-rule="nonzero"/><path fill="#a1ffea" d="M 103.835938 126.386719 L 103.835938 87.679688 C 103.835938 86.765625 104.234375 85.882812 104.949219 85.316406 C 109.980469 81.328125 117.308594 81.660156 121.957031 86.3125 L 123.824219 88.269531 Z M 103.835938 126.386719 " fill-opacity="1" fill-rule="nonzero"/><path fill="#15308a" d="M 103.835938 128.285156 C 102.785156 128.285156 101.9375 127.4375 101.9375 126.386719 L 101.9375 87.679688 C 101.9375 86.179688 102.621094 84.738281 103.773438 83.828125 C 109.621094 79.191406 118.015625 79.683594 123.296875 84.96875 C 123.308594 84.976562 123.316406 84.988281 123.328125 85 L 125.199219 86.960938 C 125.921875 87.71875 125.894531 88.921875 125.136719 89.644531 C 124.378906 90.367188 123.175781 90.339844 122.453125 89.582031 L 120.597656 87.636719 C 116.679688 83.730469 110.460938 83.371094 106.128906 86.804688 C 105.878906 87 105.730469 87.328125 105.730469 87.679688 L 105.730469 126.386719 C 105.730469 127.4375 104.882812 128.285156 103.835938 128.285156 Z M 103.835938 128.285156 " fill-opacity="1" fill-rule="nonzero"/><path fill="#a1ffea" d="M 258.023438 86.34375 C 262.671875 81.695312 270 81.363281 275.027344 85.347656 C 275.746094 85.917969 276.144531 86.800781 276.144531 87.714844 L 276.109375 126.390625 Z M 258.023438 86.34375 " fill-opacity="1" fill-rule="nonzero"/><path fill="#15308a" d="M 276.109375 128.289062 C 275.0625 128.289062 274.210938 127.4375 274.214844 126.390625 L 274.246094 87.714844 C 274.246094 87.359375 274.101562 87.035156 273.851562 86.839844 C 269.511719 83.398438 263.285156 83.765625 259.367188 87.6875 C 258.625 88.429688 257.425781 88.429688 256.683594 87.6875 C 255.941406 86.945312 255.941406 85.742188 256.683594 85 C 261.964844 79.714844 270.359375 79.226562 276.207031 83.859375 C 277.355469 84.769531 278.042969 86.210938 278.042969 87.71875 L 278.007812 126.394531 C 278.007812 127.441406 277.15625 128.289062 276.109375 128.289062 Z M 276.109375 128.289062 " fill-opacity="1" fill-rule="nonzero"/><path fill="#ffffff" d="M 120.128906 110.605469 L 128.324219 70.152344 L 146.914062 33.203125 L 164.804688 19.730469 C 165.648438 18.910156 166.3125 17.925781 166.761719 16.839844 L 174.304688 5.375 C 175.472656 2.535156 178.867188 1.375 181.527344 2.910156 L 202.121094 14.792969 C 203.761719 15.738281 205.042969 17.199219 205.769531 18.949219 L 218.464844 42.746094 C 219.300781 44.761719 220.871094 46.386719 222.859375 47.285156 L 238.957031 54.574219 C 241.019531 55.507812 242.628906 57.21875 243.4375 59.335938 L 265.820312 108.519531 Z M 120.128906 110.605469 " fill-opacity="1" fill-rule="nonzero"/><path fill="#15308a" d="M 120.128906 112.503906 C 120.003906 112.503906 119.878906 112.492188 119.75 112.464844 C 118.722656 112.257812 118.0625 111.253906 118.269531 110.226562 L 126.464844 69.777344 C 126.5 69.609375 126.554688 69.449219 126.628906 69.300781 L 145.21875 32.347656 C 145.351562 32.085938 145.539062 31.859375 145.773438 31.683594 L 163.5625 18.289062 C 164.183594 17.664062 164.671875 16.933594 165.007812 16.117188 C 165.054688 16.003906 165.109375 15.894531 165.175781 15.792969 L 172.628906 4.46875 C 173.414062 2.699219 174.90625 1.332031 176.746094 0.703125 C 178.644531 0.0546875 180.734375 0.257812 182.472656 1.261719 L 203.070312 13.144531 C 205.03125 14.277344 206.597656 16.046875 207.484375 18.128906 L 220.140625 41.851562 C 220.167969 41.90625 220.195312 41.960938 220.21875 42.019531 C 220.871094 43.597656 222.085938 44.851562 223.640625 45.554688 L 239.738281 52.84375 C 242.253906 53.984375 244.1875 56.023438 245.1875 58.597656 L 267.546875 107.734375 C 267.980469 108.6875 267.558594 109.8125 266.605469 110.25 C 265.652344 110.683594 264.527344 110.261719 264.09375 109.308594 L 241.710938 60.121094 C 241.695312 60.085938 241.679688 60.050781 241.664062 60.011719 C 241.03125 58.351562 239.792969 57.035156 238.175781 56.304688 L 222.078125 49.015625 C 219.671875 47.925781 217.78125 45.992188 216.75 43.5625 L 204.09375 19.839844 C 204.066406 19.785156 204.039062 19.730469 204.015625 19.671875 C 203.453125 18.320312 202.445312 17.167969 201.175781 16.4375 L 180.578125 4.554688 C 179.773438 4.089844 178.847656 4 177.96875 4.296875 C 177.089844 4.597656 176.414062 5.238281 176.058594 6.097656 C 176.011719 6.210938 175.957031 6.316406 175.890625 6.417969 L 168.441406 17.738281 C 167.894531 19.003906 167.117188 20.128906 166.128906 21.089844 C 166.070312 21.148438 166.011719 21.199219 165.949219 21.246094 L 148.410156 34.453125 L 130.132812 70.78125 L 121.988281 110.980469 C 121.804688 111.882812 121.015625 112.503906 120.128906 112.503906 Z M 120.128906 112.503906 " fill-opacity="1" fill-rule="nonzero"/><path fill="#15308a" d="M 170.761719 111.460938 C 166.832031 111.460938 163.140625 109.929688 160.359375 107.148438 C 160.351562 107.140625 160.347656 107.136719 160.339844 107.128906 L 159.160156 105.90625 C 154.910156 101.667969 148.015625 101.664062 143.761719 105.890625 L 142.667969 107.085938 C 142.648438 107.109375 142.628906 107.128906 142.609375 107.148438 C 136.871094 112.890625 127.539062 112.890625 121.804688 107.148438 C 121.796875 107.140625 121.789062 107.132812 121.78125 107.128906 L 120.59375 105.894531 C 119.863281 105.140625 119.882812 103.941406 120.636719 103.210938 C 121.390625 102.480469 122.589844 102.5 123.320312 103.253906 L 124.496094 104.476562 C 128.746094 108.714844 135.640625 108.71875 139.894531 104.492188 L 140.988281 103.292969 C 141.007812 103.273438 141.027344 103.253906 141.050781 103.234375 C 146.785156 97.492188 156.117188 97.492188 161.851562 103.234375 C 161.859375 103.238281 161.867188 103.246094 161.875 103.253906 L 163.054688 104.472656 C 165.113281 106.53125 167.851562 107.664062 170.761719 107.664062 C 173.664062 107.664062 176.394531 106.539062 178.453125 104.492188 L 179.546875 103.292969 C 179.566406 103.273438 179.585938 103.253906 179.605469 103.234375 C 185.339844 97.492188 194.671875 97.492188 200.410156 103.234375 C 200.414062 103.238281 200.421875 103.246094 200.429688 103.253906 L 201.609375 104.472656 C 203.671875 106.53125 206.40625 107.664062 209.320312 107.664062 C 212.222656 107.664062 214.949219 106.539062 217.007812 104.492188 L 218.101562 103.292969 C 218.121094 103.273438 218.140625 103.253906 218.160156 103.234375 C 223.898438 97.492188 233.230469 97.492188 238.964844 103.234375 C 238.972656 103.242188 238.980469 103.246094 238.988281 103.253906 L 240.164062 104.476562 C 244.414062 108.710938 251.308594 108.71875 255.5625 104.492188 L 256.621094 103.332031 C 257.328125 102.554688 258.527344 102.5 259.304688 103.207031 C 260.078125 103.910156 260.132812 105.113281 259.425781 105.886719 L 258.335938 107.085938 C 258.316406 107.105469 258.296875 107.128906 258.277344 107.148438 C 255.410156 110.019531 251.640625 111.453125 247.875 111.453125 C 244.105469 111.453125 240.339844 110.019531 237.472656 107.148438 C 237.464844 107.140625 237.457031 107.132812 237.449219 107.125 L 236.269531 105.90625 C 232.023438 101.667969 225.128906 101.664062 220.875 105.890625 L 219.78125 107.085938 C 219.761719 107.109375 219.742188 107.128906 219.71875 107.148438 C 213.984375 112.890625 204.652344 112.890625 198.917969 107.148438 C 198.910156 107.140625 198.902344 107.132812 198.894531 107.128906 L 197.714844 105.90625 C 193.46875 101.667969 186.574219 101.664062 182.316406 105.890625 L 181.222656 107.085938 C 181.203125 107.109375 181.183594 107.128906 181.164062 107.148438 C 178.386719 109.929688 174.691406 111.460938 170.761719 111.460938 Z M 170.761719 111.460938 " fill-opacity="1" fill-rule="nonzero"/><path fill="#a1ffea" d="M 272.054688 132.417969 L 107.890625 132.417969 C 105.648438 132.417969 103.835938 130.597656 103.835938 128.359375 L 103.835938 104.578125 C 108.839844 99.566406 116.953125 99.566406 121.957031 104.574219 L 123.144531 105.808594 C 128.148438 110.816406 136.261719 110.816406 141.265625 105.808594 L 142.390625 104.574219 C 147.394531 99.566406 155.507812 99.566406 160.511719 104.574219 L 161.703125 105.808594 C 166.707031 110.816406 174.820312 110.816406 179.824219 105.808594 L 180.945312 104.574219 C 185.949219 99.566406 194.0625 99.566406 199.066406 104.574219 L 200.257812 105.808594 C 205.261719 110.816406 213.375 110.816406 218.378906 105.808594 L 219.503906 104.574219 C 224.507812 99.566406 232.617188 99.566406 237.625 104.574219 L 238.8125 105.808594 C 243.816406 110.816406 251.929688 110.816406 256.933594 105.808594 L 258.023438 104.609375 C 263.027344 99.601562 271.140625 99.601562 276.144531 104.609375 L 276.109375 128.363281 C 276.109375 130.601562 274.292969 132.417969 272.054688 132.417969 Z M 272.054688 132.417969 " fill-opacity="1" fill-rule="nonzero"/><path fill="#15308a" d="M 272.054688 134.316406 L 107.890625 134.316406 C 104.605469 134.316406 101.9375 131.644531 101.9375 128.359375 L 101.9375 104.578125 C 101.9375 104.074219 102.136719 103.589844 102.492188 103.234375 C 105.269531 100.453125 108.964844 98.921875 112.894531 98.921875 C 116.824219 98.921875 120.519531 100.453125 123.296875 103.234375 C 123.304688 103.242188 123.3125 103.25 123.320312 103.253906 L 124.496094 104.476562 C 126.558594 106.53125 129.296875 107.664062 132.207031 107.664062 C 135.109375 107.664062 137.835938 106.539062 139.894531 104.492188 L 140.988281 103.292969 C 141.007812 103.273438 141.027344 103.253906 141.046875 103.234375 C 143.828125 100.453125 147.519531 98.921875 151.449219 98.921875 C 155.378906 98.921875 159.074219 100.453125 161.851562 103.234375 C 161.859375 103.242188 161.867188 103.246094 161.875 103.253906 L 163.054688 104.472656 C 165.113281 106.53125 167.851562 107.664062 170.761719 107.664062 C 173.664062 107.664062 176.394531 106.539062 178.453125 104.492188 L 179.546875 103.296875 C 179.566406 103.273438 179.585938 103.253906 179.605469 103.234375 C 185.339844 97.492188 194.671875 97.492188 200.40625 103.234375 C 200.414062 103.242188 200.421875 103.25 200.429688 103.253906 L 201.609375 104.476562 C 205.855469 108.714844 212.753906 108.71875 217.007812 104.492188 L 218.101562 103.296875 C 218.121094 103.273438 218.140625 103.253906 218.160156 103.234375 C 223.894531 97.492188 233.226562 97.492188 238.964844 103.234375 C 238.972656 103.242188 238.980469 103.25 238.984375 103.253906 L 240.164062 104.476562 C 244.414062 108.714844 251.308594 108.71875 255.5625 104.492188 L 256.621094 103.328125 C 256.640625 103.308594 256.664062 103.289062 256.683594 103.265625 C 262.417969 97.527344 271.75 97.527344 277.488281 103.265625 C 277.84375 103.625 278.042969 104.109375 278.042969 104.613281 L 278.007812 128.363281 C 278.003906 131.644531 275.335938 134.316406 272.054688 134.316406 Z M 105.730469 105.398438 L 105.730469 128.359375 C 105.730469 129.550781 106.699219 130.519531 107.890625 130.519531 L 272.054688 130.519531 C 273.242188 130.519531 274.210938 129.550781 274.214844 128.359375 L 274.246094 105.433594 C 269.972656 101.710938 263.472656 101.875 259.394531 105.921875 L 258.335938 107.085938 C 258.316406 107.109375 258.296875 107.128906 258.277344 107.148438 C 252.539062 112.890625 243.207031 112.890625 237.472656 107.148438 C 237.464844 107.140625 237.457031 107.136719 237.449219 107.128906 L 236.273438 105.910156 C 232.023438 101.667969 225.128906 101.664062 220.871094 105.890625 L 219.777344 107.085938 C 219.757812 107.109375 219.738281 107.128906 219.71875 107.148438 C 216.851562 110.019531 213.085938 111.453125 209.316406 111.453125 C 205.550781 111.453125 201.785156 110.019531 198.914062 107.148438 C 198.910156 107.140625 198.902344 107.132812 198.894531 107.128906 L 197.714844 105.90625 C 193.464844 101.667969 186.570312 101.664062 182.316406 105.890625 L 181.222656 107.089844 C 181.203125 107.109375 181.183594 107.128906 181.164062 107.148438 C 175.429688 112.890625 166.09375 112.890625 160.359375 107.148438 C 160.351562 107.140625 160.347656 107.136719 160.339844 107.128906 L 159.160156 105.910156 C 157.097656 103.851562 154.359375 102.71875 151.449219 102.71875 C 148.546875 102.71875 145.820312 103.84375 143.761719 105.890625 L 142.664062 107.089844 C 142.644531 107.109375 142.625 107.128906 142.605469 107.148438 C 139.828125 109.929688 136.132812 111.460938 132.207031 111.460938 C 128.277344 111.460938 124.582031 109.929688 121.804688 107.148438 C 121.796875 107.140625 121.789062 107.136719 121.78125 107.128906 L 120.601562 105.910156 C 118.542969 103.851562 115.804688 102.71875 112.894531 102.71875 C 110.234375 102.71875 107.71875 103.664062 105.730469 105.398438 Z M 105.730469 105.398438 " fill-opacity="1" fill-rule="nonzero"/><path fill="#a1ffea" d="M 167.035156 95.460938 C 175.777344 95.460938 181.242188 85.988281 176.871094 78.410156 L 169.472656 65.589844 C 168.390625 63.710938 165.679688 63.710938 164.597656 65.589844 L 157.199219 78.410156 C 152.828125 85.988281 158.292969 95.460938 167.035156 95.460938 Z M 167.035156 95.460938 " fill-opacity="1" fill-rule="nonzero"/><path fill="#15308a" d="M 167.035156 97.359375 C 162.246094 97.359375 157.953125 94.878906 155.558594 90.726562 C 153.160156 86.574219 153.160156 81.613281 155.558594 77.460938 L 162.957031 64.636719 C 163.808594 63.164062 165.332031 62.28125 167.035156 62.28125 C 168.738281 62.28125 170.265625 63.160156 171.117188 64.636719 L 178.515625 77.460938 C 180.910156 81.613281 180.910156 86.574219 178.515625 90.726562 C 176.117188 94.878906 171.828125 97.359375 167.035156 97.359375 Z M 167.035156 66.078125 C 166.875 66.078125 166.480469 66.125 166.242188 66.535156 L 158.84375 79.359375 C 157.132812 82.324219 157.132812 85.863281 158.84375 88.828125 C 160.554688 91.792969 163.617188 93.5625 167.035156 93.5625 C 170.457031 93.5625 173.519531 91.792969 175.230469 88.828125 C 176.9375 85.863281 176.9375 82.324219 175.230469 79.359375 L 167.832031 66.539062 C 167.589844 66.121094 167.195312 66.078125 167.035156 66.078125 Z M 167.035156 66.078125 " fill-opacity="1" fill-rule="nonzero"/><path fill="#a1ffea" d="M 139.789062 74.304688 C 153.476562 74.304688 162.035156 59.472656 155.1875 47.609375 L 143.605469 27.527344 C 141.910156 24.589844 137.667969 24.589844 135.972656 27.527344 L 124.386719 47.609375 C 117.542969 59.472656 126.097656 74.304688 139.789062 74.304688 Z M 139.789062 74.304688 " fill-opacity="1" fill-rule="nonzero"/><path fill="#15308a" d="M 139.789062 76.203125 C 132.675781 76.203125 126.300781 72.519531 122.746094 66.355469 C 119.1875 60.1875 119.1875 52.824219 122.746094 46.65625 L 134.328125 26.578125 C 135.46875 24.605469 137.507812 23.425781 139.789062 23.425781 C 142.066406 23.425781 144.109375 24.605469 145.25 26.578125 L 156.832031 46.65625 C 160.390625 52.824219 160.390625 60.1875 156.832031 66.355469 C 153.273438 72.519531 146.902344 76.203125 139.789062 76.203125 Z M 139.789062 27.222656 C 139.351562 27.222656 138.269531 27.34375 137.613281 28.480469 L 126.03125 48.558594 C 123.160156 53.535156 123.160156 59.476562 126.03125 64.457031 C 128.902344 69.433594 134.046875 72.40625 139.789062 72.40625 C 145.53125 72.40625 150.675781 69.433594 153.546875 64.457031 C 156.417969 59.476562 156.417969 53.535156 153.546875 48.558594 L 141.964844 28.476562 C 141.308594 27.34375 140.222656 27.222656 139.789062 27.222656 Z M 139.789062 27.222656 " fill-opacity="1" fill-rule="nonzero"/><path fill="#15308a" d="M 220.414062 105.640625 C 219.574219 105.640625 218.804688 105.078125 218.582031 104.230469 L 206.484375 58.671875 C 205.949219 56.65625 204.191406 55.210938 202.113281 55.074219 L 199.390625 54.894531 C 195.007812 54.609375 191.542969 51.085938 191.320312 46.699219 L 189.085938 8.496094 C 189.023438 7.449219 189.820312 6.550781 190.867188 6.488281 C 191.914062 6.429688 192.8125 7.226562 192.871094 8.273438 L 195.109375 46.488281 C 195.109375 46.492188 195.109375 46.496094 195.109375 46.503906 C 195.230469 48.96875 197.179688 50.945312 199.636719 51.105469 L 202.359375 51.285156 C 206.066406 51.527344 209.199219 54.105469 210.152344 57.699219 L 222.246094 103.253906 C 222.515625 104.265625 221.914062 105.308594 220.902344 105.578125 C 220.738281 105.621094 220.574219 105.640625 220.414062 105.640625 Z M 220.414062 105.640625 " fill-opacity="1" fill-rule="nonzero"/><path fill="#ffffff" d="M 253.277344 337.226562 L 194.199219 337.226562 L 209.945312 245.664062 L 237.53125 245.664062 Z M 253.277344 337.226562 " fill-opacity="1" fill-rule="nonzero"/><path fill="#15308a" d="M 253.277344 339.125 L 194.199219 339.125 C 193.640625 339.125 193.109375 338.875 192.746094 338.449219 C 192.386719 338.019531 192.234375 337.453125 192.328125 336.902344 L 208.074219 245.339844 C 208.230469 244.429688 209.023438 243.765625 209.945312 243.765625 L 237.53125 243.765625 C 238.457031 243.765625 239.246094 244.429688 239.402344 245.339844 L 255.148438 336.902344 C 255.242188 337.457031 255.089844 338.019531 254.730469 338.449219 C 254.371094 338.875 253.839844 339.125 253.277344 339.125 Z M 196.449219 335.328125 L 251.027344 335.328125 L 235.933594 247.5625 L 211.542969 247.5625 Z M 196.449219 335.328125 " fill-opacity="1" fill-rule="nonzero"/><path fill="#a1ffea" d="M 239.710938 245.664062 L 207.632812 245.664062 C 205.792969 245.664062 204.300781 244.171875 204.300781 242.328125 L 204.300781 236.527344 C 204.300781 234.6875 205.792969 233.191406 207.632812 233.191406 L 239.710938 233.191406 C 241.550781 233.191406 243.042969 234.6875 243.042969 236.527344 L 243.042969 242.328125 C 243.042969 244.171875 241.550781 245.664062 239.710938 245.664062 Z M 239.710938 245.664062 " fill-opacity="1" fill-rule="nonzero"/><path fill="#15308a" d="M 239.710938 247.5625 L 207.632812 247.5625 C 204.75 247.5625 202.402344 245.214844 202.402344 242.328125 L 202.402344 236.527344 C 202.402344 233.640625 204.75 231.292969 207.632812 231.292969 L 239.710938 231.292969 C 242.59375 231.292969 244.941406 233.640625 244.941406 236.527344 L 244.941406 242.328125 C 244.941406 245.214844 242.59375 247.5625 239.710938 247.5625 Z M 207.632812 235.09375 C 206.84375 235.09375 206.199219 235.734375 206.199219 236.527344 L 206.199219 242.328125 C 206.199219 243.121094 206.84375 243.765625 207.632812 243.765625 L 239.710938 243.765625 C 240.503906 243.765625 241.148438 243.121094 241.148438 242.328125 L 241.148438 236.527344 C 241.148438 235.734375 240.503906 235.09375 239.710938 235.09375 Z M 207.632812 235.09375 " fill-opacity="1" fill-rule="nonzero"/><path fill="#15308a" d="M 194.199219 339.128906 C 193.675781 339.128906 193.15625 338.914062 192.78125 338.492188 C 192.082031 337.707031 192.152344 336.507812 192.9375 335.808594 L 241.824219 292.277344 L 206.726562 257.96875 C 205.976562 257.238281 205.964844 256.035156 206.695312 255.285156 C 207.429688 254.535156 208.628906 254.519531 209.378906 255.253906 L 245.933594 290.984375 C 246.308594 291.351562 246.515625 291.859375 246.503906 292.386719 C 246.492188 292.914062 246.261719 293.410156 245.867188 293.761719 L 195.457031 338.648438 C 195.097656 338.96875 194.648438 339.128906 194.199219 339.128906 Z M 194.199219 339.128906 " fill-opacity="1" fill-rule="nonzero"/><path fill="#15308a" d="M 253.273438 339.128906 C 252.828125 339.128906 252.375 338.96875 252.015625 338.648438 L 201.578125 293.761719 C 201.1875 293.410156 200.957031 292.914062 200.945312 292.386719 C 200.929688 291.859375 201.136719 291.351562 201.515625 290.984375 L 238.09375 255.242188 C 238.84375 254.507812 240.046875 254.523438 240.777344 255.273438 C 241.511719 256.023438 241.496094 257.226562 240.746094 257.957031 L 205.621094 292.277344 L 254.535156 335.808594 C 255.320312 336.507812 255.390625 337.707031 254.695312 338.492188 C 254.320312 338.910156 253.796875 339.128906 253.273438 339.128906 Z M 253.273438 339.128906 " fill-opacity="1" fill-rule="nonzero"/><path fill="#ffffff" d="M 329.449219 337.226562 L 270.371094 337.226562 L 286.117188 245.664062 L 313.703125 245.664062 Z M 329.449219 337.226562 " fill-opacity="1" fill-rule="nonzero"/><path fill="#15308a" d="M 329.449219 339.125 L 270.371094 339.125 C 269.8125 339.125 269.28125 338.875 268.917969 338.449219 C 268.558594 338.019531 268.40625 337.453125 268.5 336.902344 L 284.246094 245.339844 C 284.402344 244.429688 285.191406 243.765625 286.117188 243.765625 L 313.703125 243.765625 C 314.628906 243.765625 315.417969 244.429688 315.574219 245.339844 L 331.320312 336.902344 C 331.414062 337.457031 331.261719 338.019531 330.902344 338.449219 C 330.542969 338.875 330.011719 339.125 329.449219 339.125 Z M 272.621094 335.328125 L 327.199219 335.328125 L 312.105469 247.5625 L 287.714844 247.5625 Z M 272.621094 335.328125 " fill-opacity="1" fill-rule="nonzero"/><path fill="#a1ffea" d="M 315.882812 245.664062 L 283.804688 245.664062 C 281.964844 245.664062 280.472656 244.171875 280.472656 242.328125 L 280.472656 236.527344 C 280.472656 234.6875 281.964844 233.191406 283.804688 233.191406 L 315.882812 233.191406 C 317.722656 233.191406 319.214844 234.6875 319.214844 236.527344 L 319.214844 242.328125 C 319.214844 244.171875 317.722656 245.664062 315.882812 245.664062 Z M 315.882812 245.664062 " fill-opacity="1" fill-rule="nonzero"/><path fill="#15308a" d="M 315.882812 247.5625 L 283.804688 247.5625 C 280.921875 247.5625 278.574219 245.214844 278.574219 242.328125 L 278.574219 236.527344 C 278.574219 233.640625 280.921875 231.292969 283.804688 231.292969 L 315.882812 231.292969 C 318.765625 231.292969 321.113281 233.640625 321.113281 236.527344 L 321.113281 242.328125 C 321.113281 245.214844 318.765625 247.5625 315.882812 247.5625 Z M 283.804688 235.09375 C 283.011719 235.09375 282.371094 235.734375 282.371094 236.527344 L 282.371094 242.328125 C 282.371094 243.121094 283.011719 243.765625 283.804688 243.765625 L 315.882812 243.765625 C 316.675781 243.765625 317.316406 243.121094 317.316406 242.328125 L 317.316406 236.527344 C 317.316406 235.734375 316.675781 235.09375 315.882812 235.09375 Z M 283.804688 235.09375 " fill-opacity="1" fill-rule="nonzero"/><path fill="#15308a" d="M 270.371094 339.128906 C 269.847656 339.128906 269.328125 338.914062 268.953125 338.492188 C 268.253906 337.707031 268.324219 336.507812 269.109375 335.808594 L 317.996094 292.277344 L 282.898438 257.96875 C 282.148438 257.238281 282.136719 256.035156 282.867188 255.285156 C 283.597656 254.535156 284.800781 254.519531 285.550781 255.253906 L 322.105469 290.984375 C 322.480469 291.351562 322.6875 291.859375 322.675781 292.386719 C 322.664062 292.914062 322.433594 293.410156 322.039062 293.761719 L 271.628906 338.648438 C 271.269531 338.96875 270.816406 339.128906 270.371094 339.128906 Z M 270.371094 339.128906 " fill-opacity="1" fill-rule="nonzero"/><path fill="#15308a" d="M 329.445312 339.128906 C 329 339.128906 328.546875 338.96875 328.1875 338.648438 L 277.75 293.761719 C 277.359375 293.410156 277.128906 292.914062 277.113281 292.386719 C 277.101562 291.859375 277.308594 291.351562 277.6875 290.984375 L 314.265625 255.242188 C 315.015625 254.507812 316.21875 254.523438 316.949219 255.273438 C 317.679688 256.023438 317.667969 257.226562 316.917969 257.957031 L 281.792969 292.277344 L 330.707031 335.808594 C 331.492188 336.507812 331.5625 337.707031 330.863281 338.492188 C 330.492188 338.910156 329.96875 339.128906 329.445312 339.128906 Z M 329.445312 339.128906 " fill-opacity="1" fill-rule="nonzero"/><path fill="#a1ffea" d="M 340.292969 349.597656 L 182.609375 349.597656 C 180.804688 349.597656 179.34375 348.136719 179.34375 346.332031 L 179.34375 340.492188 C 179.34375 338.6875 180.804688 337.226562 182.609375 337.226562 L 340.292969 337.226562 C 342.097656 337.226562 343.558594 338.6875 343.558594 340.492188 L 343.558594 346.332031 C 343.558594 348.136719 342.097656 349.597656 340.292969 349.597656 Z M 340.292969 349.597656 " fill-opacity="1" fill-rule="nonzero"/><path fill="#15308a" d="M 340.292969 351.496094 L 182.609375 351.496094 C 179.761719 351.496094 177.445312 349.179688 177.445312 346.332031 L 177.445312 340.492188 C 177.445312 337.644531 179.761719 335.328125 182.609375 335.328125 L 340.292969 335.328125 C 343.140625 335.328125 345.457031 337.644531 345.457031 340.492188 L 345.457031 346.332031 C 345.457031 349.179688 343.140625 351.496094 340.292969 351.496094 Z M 182.609375 339.125 C 181.855469 339.125 181.242188 339.738281 181.242188 340.492188 L 181.242188 346.332031 C 181.242188 347.085938 181.855469 347.699219 182.609375 347.699219 L 340.292969 347.699219 C 341.046875 347.699219 341.660156 347.085938 341.660156 346.332031 L 341.660156 340.492188 C 341.660156 339.738281 341.046875 339.125 340.292969 339.125 Z M 182.609375 339.125 " fill-opacity="1" fill-rule="nonzero"/><path fill="#ffd97a" d="M 279.890625 172.527344 L 270.910156 172.527344 C 270.910156 164.371094 264.304688 157.761719 256.160156 157.761719 C 248.011719 157.761719 241.40625 164.371094 241.40625 172.527344 L 232.429688 172.527344 C 227.382812 172.527344 223.289062 176.621094 223.289062 181.671875 C 223.289062 182.625 223.433594 183.539062 223.703125 184.398438 C 223.699219 184.402344 211.023438 184.402344 211.023438 184.402344 C 205.289062 184.402344 200.601562 189.09375 200.601562 194.832031 C 200.601562 198.339844 202.578125 201.976562 205.25 203.871094 L 267.679688 203.816406 C 270.519531 201.894531 272.433594 198.46875 272.433594 194.777344 C 272.433594 193.378906 272.160156 192.042969 271.667969 190.820312 L 279.890625 190.820312 C 284.9375 190.820312 289.03125 186.722656 289.03125 181.671875 C 289.03125 176.621094 284.9375 172.527344 279.890625 172.527344 Z M 279.890625 172.527344 " fill-opacity="1" fill-rule="nonzero"/><path fill="#15308a" d="M 205.25 205.769531 C 204.855469 205.769531 204.472656 205.648438 204.152344 205.421875 C 200.890625 203.109375 198.703125 198.855469 198.703125 194.832031 C 198.703125 188.035156 204.230469 182.503906 211.023438 182.503906 C 213.933594 182.503906 218.640625 182.503906 221.421875 182.5 C 221.402344 182.226562 221.390625 181.949219 221.390625 181.671875 C 221.390625 175.582031 226.34375 170.628906 232.429688 170.628906 L 239.617188 170.628906 C 240.5625 162.332031 247.621094 155.863281 256.160156 155.863281 C 264.699219 155.863281 271.757812 162.332031 272.703125 170.628906 L 279.890625 170.628906 C 285.976562 170.628906 290.925781 175.582031 290.925781 181.671875 C 290.925781 187.765625 285.976562 192.71875 279.890625 192.71875 L 274.160156 192.71875 C 274.273438 193.398438 274.332031 194.085938 274.332031 194.777344 C 274.332031 198.992188 272.1875 203.058594 268.738281 205.390625 C 268.425781 205.601562 268.058594 205.714844 267.679688 205.714844 Z M 232.429688 174.425781 C 228.433594 174.425781 225.1875 177.675781 225.1875 181.671875 C 225.1875 182.410156 225.296875 183.136719 225.511719 183.835938 C 225.8125 184.789062 225.316406 185.8125 224.382812 186.171875 C 224.054688 186.300781 224.054688 186.300781 221.71875 186.300781 L 211.023438 186.300781 C 206.320312 186.300781 202.496094 190.128906 202.496094 194.832031 C 202.496094 197.441406 203.871094 200.296875 205.890625 201.972656 L 267.0625 201.917969 C 269.21875 200.246094 270.535156 197.558594 270.535156 194.777344 C 270.535156 193.664062 270.324219 192.570312 269.90625 191.523438 C 269.675781 190.9375 269.746094 190.277344 270.097656 189.753906 C 270.453125 189.234375 271.039062 188.921875 271.667969 188.921875 L 279.890625 188.921875 C 283.882812 188.921875 287.132812 185.667969 287.132812 181.671875 C 287.132812 177.675781 283.882812 174.425781 279.890625 174.425781 L 270.910156 174.425781 C 269.863281 174.425781 269.015625 173.574219 269.015625 172.527344 C 269.015625 165.433594 263.246094 159.660156 256.160156 159.660156 C 249.070312 159.660156 243.304688 165.433594 243.304688 172.527344 C 243.304688 173.574219 242.457031 174.425781 241.40625 174.425781 Z M 232.429688 174.425781 " fill-opacity="1" fill-rule="nonzero"/><path fill="#ffd97a" d="M 363.808594 185.992188 L 354.828125 185.992188 C 354.828125 177.835938 348.222656 171.226562 340.078125 171.226562 C 331.929688 171.226562 325.324219 177.835938 325.324219 185.992188 L 316.347656 185.992188 C 311.296875 185.992188 307.207031 190.085938 307.207031 195.136719 C 307.207031 196.085938 307.351562 197.003906 307.617188 197.863281 C 307.613281 197.867188 294.9375 197.867188 294.9375 197.867188 C 289.207031 197.867188 284.515625 202.558594 284.515625 208.296875 C 284.515625 211.800781 286.496094 215.441406 289.167969 217.335938 L 351.59375 217.28125 C 354.4375 215.359375 356.351562 211.933594 356.351562 208.242188 C 356.351562 206.84375 356.074219 205.507812 355.585938 204.285156 L 363.808594 204.285156 C 368.855469 204.285156 372.945312 200.1875 372.945312 195.136719 C 372.945312 190.085938 368.855469 185.992188 363.808594 185.992188 Z M 363.808594 185.992188 " fill-opacity="1" fill-rule="nonzero"/><g clip-path="url(#90b65be16f)"><path fill="#15308a" d="M 289.167969 219.234375 C 288.773438 219.234375 288.390625 219.113281 288.070312 218.886719 C 284.808594 216.574219 282.621094 212.316406 282.621094 208.296875 C 282.621094 201.496094 288.144531 195.964844 294.9375 195.964844 C 297.851562 195.964844 302.558594 195.964844 305.339844 195.964844 C 305.320312 195.691406 305.308594 195.414062 305.308594 195.136719 C 305.308594 189.046875 310.261719 184.089844 316.347656 184.089844 L 323.535156 184.089844 C 324.480469 175.796875 331.539062 169.328125 340.078125 169.328125 C 348.617188 169.328125 355.671875 175.796875 356.617188 184.089844 L 363.808594 184.089844 C 369.894531 184.089844 374.84375 189.046875 374.84375 195.136719 C 374.84375 201.226562 369.894531 206.183594 363.808594 206.183594 L 358.078125 206.183594 C 358.191406 206.859375 358.246094 207.546875 358.246094 208.242188 C 358.246094 212.457031 356.105469 216.523438 352.65625 218.855469 C 352.34375 219.066406 351.972656 219.179688 351.597656 219.179688 Z M 316.34375 187.890625 C 312.351562 187.890625 309.101562 191.140625 309.101562 195.136719 C 309.101562 195.875 309.214844 196.601562 309.429688 197.300781 C 309.722656 198.246094 309.242188 199.257812 308.324219 199.625 C 307.984375 199.761719 307.984375 199.761719 305.636719 199.761719 L 294.9375 199.765625 C 290.238281 199.765625 286.414062 203.589844 286.414062 208.296875 C 286.414062 210.90625 287.789062 213.757812 289.808594 215.4375 L 350.980469 215.382812 C 353.136719 213.710938 354.453125 211.023438 354.453125 208.242188 C 354.453125 207.128906 354.242188 206.035156 353.824219 204.988281 C 353.589844 204.402344 353.664062 203.738281 354.015625 203.21875 C 354.367188 202.695312 354.957031 202.386719 355.585938 202.386719 L 363.808594 202.386719 C 367.800781 202.386719 371.050781 199.132812 371.050781 195.136719 C 371.050781 191.140625 367.800781 187.890625 363.808594 187.890625 L 354.828125 187.890625 C 353.78125 187.890625 352.929688 187.039062 352.929688 185.988281 C 352.929688 178.898438 347.164062 173.125 340.074219 173.125 C 332.988281 173.125 327.222656 178.898438 327.222656 185.988281 C 327.222656 187.039062 326.371094 187.890625 325.324219 187.890625 Z M 316.34375 187.890625 " fill-opacity="1" fill-rule="nonzero"/></g><path fill="#ffffff" d="M 96.910156 294.417969 L 82.511719 294.417969 L 82.511719 207.558594 C 82.511719 203.578125 85.734375 200.351562 89.710938 200.351562 C 93.6875 200.351562 96.910156 203.578125 96.910156 207.558594 Z M 96.910156 294.417969 " fill-opacity="1" fill-rule="nonzero"/><path fill="#15308a" d="M 96.910156 296.316406 L 82.511719 296.316406 C 81.464844 296.316406 80.613281 295.464844 80.613281 294.417969 L 80.613281 207.558594 C 80.613281 202.539062 84.695312 198.453125 89.710938 198.453125 C 94.726562 198.453125 98.804688 202.539062 98.804688 207.558594 L 98.804688 294.417969 C 98.804688 295.464844 97.957031 296.316406 96.910156 296.316406 Z M 84.410156 292.519531 L 95.011719 292.519531 L 95.011719 207.558594 C 95.011719 204.632812 92.632812 202.253906 89.710938 202.253906 C 86.789062 202.253906 84.410156 204.632812 84.410156 207.558594 Z M 84.410156 292.519531 " fill-opacity="1" fill-rule="nonzero"/><path fill="#ffd97a" d="M 130.0625 327.4375 L 49.355469 327.4375 L 49.355469 322.238281 C 49.355469 306.425781 62.164062 293.609375 77.964844 293.609375 L 101.457031 293.609375 C 117.253906 293.609375 130.0625 306.425781 130.0625 322.238281 Z M 130.0625 327.4375 " fill-opacity="1" fill-rule="nonzero"/><path fill="#15308a" d="M 130.0625 329.335938 L 49.355469 329.335938 C 48.308594 329.335938 47.460938 328.484375 47.460938 327.4375 L 47.460938 322.238281 C 47.460938 305.40625 61.144531 291.710938 77.964844 291.710938 L 101.457031 291.710938 C 118.277344 291.710938 131.960938 305.40625 131.960938 322.238281 L 131.960938 327.4375 C 131.960938 328.484375 131.113281 329.335938 130.0625 329.335938 Z M 51.253906 325.539062 L 128.167969 325.539062 L 128.167969 322.238281 C 128.167969 307.5 116.183594 295.507812 101.457031 295.507812 L 77.964844 295.507812 C 63.238281 295.507812 51.253906 307.5 51.253906 322.238281 Z M 51.253906 325.539062 " fill-opacity="1" fill-rule="nonzero"/><path fill="#15308a" d="M 29.648438 223.046875 C 29.1875 223.046875 28.730469 222.878906 28.371094 222.554688 L 13.898438 209.390625 C 13.121094 208.6875 13.0625 207.484375 13.769531 206.710938 C 14.472656 205.933594 15.675781 205.875 16.449219 206.582031 L 29.964844 218.871094 L 44.488281 211.617188 C 44.753906 211.488281 45.042969 211.417969 45.335938 211.417969 L 72.183594 211.417969 C 73.230469 211.417969 74.082031 212.269531 74.082031 213.316406 C 74.082031 214.367188 73.230469 215.214844 72.183594 215.214844 L 45.785156 215.214844 L 30.496094 222.847656 C 30.226562 222.980469 29.9375 223.046875 29.648438 223.046875 Z M 29.648438 223.046875 " fill-opacity="1" fill-rule="nonzero"/><path fill="#15308a" d="M 51.480469 260.46875 C 50.828125 260.46875 50.191406 260.132812 49.839844 259.527344 L 29.648438 224.914062 L 9.457031 259.527344 C 8.929688 260.433594 7.765625 260.738281 6.863281 260.210938 C 5.957031 259.683594 5.652344 258.519531 6.179688 257.613281 L 28.011719 220.191406 C 28.351562 219.609375 28.972656 219.25 29.648438 219.25 C 30.324219 219.25 30.945312 219.609375 31.285156 220.191406 L 53.117188 257.613281 C 53.644531 258.519531 53.339844 259.679688 52.433594 260.210938 C 52.132812 260.386719 51.804688 260.46875 51.480469 260.46875 Z M 51.480469 260.46875 " fill-opacity="1" fill-rule="nonzero"/><path fill="#a1ffea" d="M 29.648438 292.867188 C 13.832031 292.867188 1.011719 280.035156 1.011719 264.207031 L 1.011719 258.570312 L 58.285156 258.570312 L 58.285156 264.207031 C 58.285156 280.035156 45.464844 292.867188 29.648438 292.867188 Z M 29.648438 292.867188 " fill-opacity="1" fill-rule="nonzero"/><path fill="#15308a" d="M 29.648438 294.765625 C 12.8125 294.765625 -0.886719 281.058594 -0.886719 264.207031 L -0.886719 258.570312 C -0.886719 257.523438 -0.0351562 256.671875 1.011719 256.671875 L 58.285156 256.671875 C 59.332031 256.671875 60.183594 257.523438 60.183594 258.570312 L 60.183594 264.207031 C 60.183594 281.058594 46.484375 294.765625 29.648438 294.765625 Z M 2.910156 260.46875 L 2.910156 264.207031 C 2.910156 278.964844 14.902344 290.96875 29.648438 290.96875 C 44.394531 290.96875 56.386719 278.964844 56.386719 264.207031 L 56.386719 260.46875 Z M 2.910156 260.46875 " fill-opacity="1" fill-rule="nonzero"/><path fill="#15308a" d="M 149.773438 223.046875 C 149.484375 223.046875 149.191406 222.980469 148.925781 222.847656 L 133.636719 215.214844 L 107.238281 215.214844 C 106.191406 215.214844 105.339844 214.367188 105.339844 213.316406 C 105.339844 212.269531 106.1875 211.417969 107.238281 211.417969 L 134.085938 211.417969 C 134.378906 211.417969 134.667969 211.488281 134.929688 211.617188 L 149.71875 219 L 163.316406 211.347656 C 164.230469 210.835938 165.386719 211.160156 165.902344 212.074219 C 166.414062 212.988281 166.089844 214.144531 165.175781 214.660156 L 150.703125 222.804688 C 150.414062 222.964844 150.09375 223.046875 149.773438 223.046875 Z M 149.773438 223.046875 " fill-opacity="1" fill-rule="nonzero"/><path fill="#15308a" d="M 127.941406 260.46875 C 127.617188 260.46875 127.285156 260.386719 126.984375 260.210938 C 126.082031 259.683594 125.777344 258.519531 126.304688 257.613281 L 148.132812 220.191406 C 148.472656 219.609375 149.097656 219.25 149.773438 219.25 C 150.449219 219.25 151.070312 219.609375 151.410156 220.191406 L 173.242188 257.613281 C 173.769531 258.519531 173.464844 259.679688 172.558594 260.210938 C 171.652344 260.738281 170.492188 260.433594 169.964844 259.527344 L 149.773438 224.914062 L 129.582031 259.527344 C 129.226562 260.132812 128.59375 260.46875 127.941406 260.46875 Z M 127.941406 260.46875 " fill-opacity="1" fill-rule="nonzero"/><path fill="#a1ffea" d="M 149.773438 292.867188 C 165.589844 292.867188 178.410156 280.035156 178.410156 264.207031 L 178.410156 258.570312 L 121.136719 258.570312 L 121.136719 264.207031 C 121.136719 280.035156 133.957031 292.867188 149.773438 292.867188 Z M 149.773438 292.867188 " fill-opacity="1" fill-rule="nonzero"/><path fill="#15308a" d="M 149.773438 294.765625 C 132.9375 294.765625 119.238281 281.058594 119.238281 264.207031 L 119.238281 258.570312 C 119.238281 257.523438 120.085938 256.671875 121.136719 256.671875 L 178.410156 256.671875 C 179.457031 256.671875 180.308594 257.523438 180.308594 258.570312 L 180.308594 264.207031 C 180.308594 281.058594 166.609375 294.765625 149.773438 294.765625 Z M 123.03125 260.46875 L 123.03125 264.207031 C 123.03125 278.964844 135.027344 290.96875 149.773438 290.96875 C 164.515625 290.96875 176.511719 278.964844 176.511719 264.207031 L 176.511719 260.46875 Z M 123.03125 260.46875 " fill-opacity="1" fill-rule="nonzero"/><path fill="#a1ffea" d="M 54.671875 174.269531 C 68.039062 179.203125 104.308594 196.253906 90.589844 232.28125 C 89.976562 233.886719 88.34375 234.871094 86.636719 234.675781 C 76.976562 233.589844 46.640625 226.300781 49.554688 177.609375 C 49.707031 175.058594 52.277344 173.386719 54.671875 174.269531 Z M 54.671875 174.269531 " fill-opacity="1" fill-rule="nonzero"/><path fill="#15308a" d="M 87.066406 236.601562 C 86.851562 236.601562 86.636719 236.589844 86.421875 236.5625 C 81.078125 235.960938 70.804688 233.707031 62.070312 225.367188 C 57.148438 220.667969 53.410156 214.664062 50.964844 207.53125 C 48.082031 199.113281 46.96875 189.007812 47.660156 177.496094 C 47.769531 175.675781 48.703125 174.0625 50.226562 173.066406 C 51.753906 172.066406 53.613281 171.855469 55.328125 172.488281 C 60.109375 174.253906 67.285156 177.351562 74.285156 182.089844 C 82.871094 187.902344 88.945312 194.640625 92.347656 202.128906 C 96.589844 211.46875 96.59375 221.839844 92.359375 232.957031 C 91.519531 235.167969 89.398438 236.601562 87.066406 236.601562 Z M 53.347656 175.929688 C 52.980469 175.929688 52.621094 176.035156 52.304688 176.246094 C 51.796875 176.578125 51.484375 177.117188 51.445312 177.722656 C 48.632812 224.800781 77.832031 231.773438 86.847656 232.789062 C 87.703125 232.886719 88.511719 232.398438 88.816406 231.605469 C 92.675781 221.472656 92.699219 212.082031 88.890625 203.699219 C 81.613281 187.675781 62.074219 179.027344 54.011719 176.050781 C 53.796875 175.96875 53.570312 175.929688 53.347656 175.929688 Z M 53.347656 175.929688 " fill-opacity="1" fill-rule="nonzero"/><path fill="#ffffff" d="M 89.207031 234.363281 L 61.058594 190.152344 Z M 89.207031 234.363281 " fill-opacity="1" fill-rule="nonzero"/><path fill="#15308a" d="M 89.210938 236.261719 C 88.582031 236.261719 87.96875 235.949219 87.609375 235.382812 L 59.460938 191.171875 C 58.898438 190.289062 59.15625 189.113281 60.039062 188.550781 C 60.925781 187.988281 62.097656 188.246094 62.660156 189.132812 L 90.808594 233.339844 C 91.371094 234.226562 91.113281 235.398438 90.226562 235.960938 C 89.910156 236.164062 89.558594 236.261719 89.210938 236.261719 Z M 89.210938 236.261719 " fill-opacity="1" fill-rule="nonzero"/><path fill="#ffffff" d="M 72.070312 209.578125 L 58.257812 204.492188 Z M 72.070312 209.578125 " fill-opacity="1" fill-rule="nonzero"/><path fill="#15308a" d="M 72.066406 211.476562 C 71.851562 211.476562 71.628906 211.441406 71.414062 211.359375 L 57.601562 206.273438 C 56.621094 205.910156 56.117188 204.820312 56.476562 203.835938 C 56.839844 202.851562 57.929688 202.347656 58.914062 202.710938 L 72.722656 207.796875 C 73.707031 208.160156 74.210938 209.25 73.847656 210.234375 C 73.566406 211.003906 72.839844 211.476562 72.066406 211.476562 Z M 72.066406 211.476562 " fill-opacity="1" fill-rule="nonzero"/><path fill="#a1ffea" d="M 126.171875 155.207031 C 130.242188 172.96875 137.367188 223.714844 89.269531 234.203125 C 87.121094 234.671875 84.929688 233.609375 83.945312 231.644531 C 78.359375 220.546875 64.949219 182.972656 119.027344 152.0625 C 121.859375 150.445312 125.445312 152.027344 126.171875 155.207031 Z M 126.171875 155.207031 " fill-opacity="1" fill-rule="nonzero"/><path fill="#15308a" d="M 88.25 236.210938 C 85.753906 236.210938 83.410156 234.808594 82.25 232.5 C 76.601562 221.277344 62.492188 182.191406 118.085938 150.414062 C 119.960938 149.34375 122.167969 149.226562 124.144531 150.09375 C 126.125 150.964844 127.539062 152.671875 128.023438 154.78125 C 129.472656 161.109375 131.164062 170.910156 130.992188 181.664062 C 130.785156 194.816406 127.855469 205.941406 122.28125 214.730469 C 115.339844 225.675781 104.367188 232.851562 89.671875 236.058594 C 89.195312 236.160156 88.71875 236.210938 88.25 236.210938 Z M 121.429688 153.320312 C 120.925781 153.320312 120.425781 153.449219 119.96875 153.710938 C 67.277344 183.828125 80.371094 220.324219 85.636719 230.789062 C 86.242188 231.988281 87.566406 232.628906 88.863281 232.347656 C 102.535156 229.367188 112.699219 222.753906 119.078125 212.695312 C 131.222656 193.539062 126.792969 166.40625 124.324219 155.632812 C 124.109375 154.703125 123.488281 153.953125 122.621094 153.570312 C 122.234375 153.402344 121.832031 153.320312 121.429688 153.320312 Z M 121.429688 153.320312 " fill-opacity="1" fill-rule="nonzero"/><path fill="#ffffff" d="M 86.078125 234.179688 L 113.660156 173.148438 Z M 86.078125 234.179688 " fill-opacity="1" fill-rule="nonzero"/><path fill="#15308a" d="M 86.078125 236.078125 C 85.816406 236.078125 85.550781 236.023438 85.296875 235.910156 C 84.34375 235.476562 83.917969 234.351562 84.351562 233.398438 L 111.933594 172.367188 C 112.363281 171.410156 113.488281 170.988281 114.441406 171.417969 C 115.398438 171.851562 115.820312 172.976562 115.390625 173.929688 L 87.808594 234.960938 C 87.492188 235.664062 86.800781 236.078125 86.078125 236.078125 Z M 86.078125 236.078125 " fill-opacity="1" fill-rule="nonzero"/><path fill="#ffffff" d="M 117.546875 194.515625 L 102.808594 198.867188 Z M 117.546875 194.515625 " fill-opacity="1" fill-rule="nonzero"/><path fill="#15308a" d="M 102.808594 200.765625 C 101.988281 200.765625 101.234375 200.230469 100.992188 199.402344 C 100.695312 198.398438 101.269531 197.34375 102.273438 197.046875 L 117.011719 192.691406 C 118.015625 192.394531 119.070312 192.96875 119.367188 193.976562 C 119.664062 194.980469 119.089844 196.039062 118.085938 196.335938 L 103.347656 200.6875 C 103.167969 200.742188 102.988281 200.765625 102.808594 200.765625 Z M 102.808594 200.765625 " fill-opacity="1" fill-rule="nonzero"/><path fill="#ffffff" d="M 94.164062 216.285156 L 89.953125 197.945312 Z M 94.164062 216.285156 " fill-opacity="1" fill-rule="nonzero"/><path fill="#15308a" d="M 94.164062 218.183594 C 93.300781 218.183594 92.519531 217.589844 92.316406 216.710938 L 88.101562 198.371094 C 87.867188 197.351562 88.503906 196.332031 89.527344 196.09375 C 90.546875 195.859375 91.566406 196.5 91.800781 197.519531 L 96.015625 215.859375 C 96.25 216.882812 95.613281 217.902344 94.589844 218.136719 C 94.449219 218.167969 94.304688 218.183594 94.164062 218.183594 Z M 94.164062 218.183594 " fill-opacity="1" fill-rule="nonzero"/></svg>