<svg xmlns="http://www.w3.org/2000/svg" xmlns:xlink="http://www.w3.org/1999/xlink" width="500" zoomAndPan="magnify" viewBox="0 0 375 374.999991" height="500" preserveAspectRatio="xMidYMid meet" version="1.0"><defs><clipPath id="3828a99df2"><path d="M 2 7.5 L 324 7.5 L 324 367.5 L 2 367.5 Z M 2 7.5 " clip-rule="nonzero"/></clipPath><clipPath id="6d605c0580"><path d="M 223 53 L 373 53 L 373 367.5 L 223 367.5 Z M 223 53 " clip-rule="nonzero"/></clipPath></defs><g clip-path="url(#3828a99df2)"><path fill="#80cc28" d="M 109.425781 367.472656 C 131.835938 305.253906 146.410156 210.351562 140.011719 167.707031 C 132.988281 120.914062 103.105469 85.347656 80.90625 66.089844 C 53.964844 42.714844 86.171875 19.511719 99.554688 41.742188 C 105.75 52.035156 113.90625 65.496094 122.226562 79.621094 C 135.703125 102.503906 157.332031 119.285156 182.597656 126.796875 C 171.5625 117.523438 160.675781 100.003906 164.222656 81.480469 C 168.292969 60.226562 188.203125 45.875 209.523438 49.570312 C 230.84375 53.269531 245.695312 73.65625 241.433594 94.871094 C 236.984375 117.015625 222.214844 128.339844 209.21875 132.226562 C 234.578125 134.425781 273.324219 124.332031 320.226562 34.898438 C 321.164062 33.109375 322.171875 31.496094 323.230469 30.035156 C 303.195312 15.542969 278.320312 7.5625 251.007812 7.5625 C 225.84375 7.5625 204.464844 15.285156 187.5 25.042969 C 170.535156 15.285156 149.160156 7.5625 123.992188 7.5625 C 75.867188 7.5625 35.292969 32.34375 15.457031 73.855469 C 3.414062 99.058594 -0.00390625 128.289062 5.578125 158.390625 C 10.886719 187.027344 24.34375 215.355469 44.5 240.316406 C 59.429688 258.808594 85.007812 284.246094 114.609375 307.597656 C 114.03125 320.101562 112.417969 349.707031 109.425781 367.472656 " fill-opacity="1" fill-rule="nonzero"/></g><g clip-path="url(#6d605c0580)"><path fill="#36ab9c" d="M 359.542969 73.855469 C 356.070312 66.589844 351.964844 59.839844 347.292969 53.644531 C 305.871094 107.371094 283.128906 125.171875 242.972656 171.605469 C 203.679688 217.039062 232.359375 315.773438 257.238281 367.46875 C 253.285156 349.515625 250.5 325.964844 249.421875 316.011719 C 283.613281 290.539062 313.757812 261.058594 330.5 240.316406 C 350.65625 215.355469 364.117188 187.027344 369.421875 158.390625 C 375.003906 128.289062 371.589844 99.058594 359.542969 73.855469 " fill-opacity="1" fill-rule="nonzero"/></g><path fill="#36ab9c" d="M 148.683594 332.132812 C 151.953125 334.261719 155.238281 336.332031 158.539062 338.332031 L 187.5 355.898438 L 216.460938 338.332031 C 216.9375 338.042969 217.414062 337.742188 217.886719 337.449219 C 199.292969 276.570312 172.359375 266.273438 148.683594 332.132812 " fill-opacity="1" fill-rule="nonzero"/></svg>