<svg xmlns="http://www.w3.org/2000/svg" xmlns:xlink="http://www.w3.org/1999/xlink" width="1920" zoomAndPan="magnify" viewBox="0 0 1440 809.999993" height="1080" preserveAspectRatio="xMidYMid meet" version="1.0"><defs><clipPath id="dcbbdfb1be"><path d="M 243.019531 24 L 1041 24 L 1041 810 L 243.019531 810 Z M 243.019531 24 " clip-rule="nonzero"/></clipPath></defs><g clip-path="url(#dcbbdfb1be)"><path fill="#5271ff" d="M 271.722656 81.875 C 256.355469 81.875 243.207031 68.722656 243.207031 52.632812 C 243.207031 37.285156 256.355469 24.136719 271.722656 24.136719 L 311.1875 24.136719 C 311.914062 24.136719 313.386719 24.136719 314.109375 24.136719 C 340.425781 24.863281 363.820312 29.984375 383.5625 42.390625 C 421.816406 66.636719 428.613281 101.261719 438.394531 140.355469 L 755.289062 140.355469 C 751.507812 157.601562 749.515625 175.5 749.515625 193.882812 L 749.535156 197.382812 L 454.464844 197.382812 L 519.539062 442.277344 L 980.8125 442.277344 L 980.925781 441.867188 C 986.585938 442.257812 992.304688 442.464844 998.078125 442.464844 C 1012.457031 442.464844 1026.554688 441.234375 1040.261719 438.886719 L 1030.523438 478.109375 C 1027.597656 491.257812 1015.902344 500.03125 1002.753906 500.03125 L 534.886719 500.03125 C 545.113281 538.042969 555.355469 558.511719 569.25 568.03125 C 586.046875 578.980469 615.308594 579.707031 664.269531 578.980469 L 995.433594 578.980469 C 1011.527344 578.980469 1023.949219 592.148438 1023.949219 607.496094 C 1023.949219 623.585938 1010.78125 636.007812 995.433594 636.007812 L 665.015625 636.007812 C 604.335938 636.734375 567.050781 635.265625 537.066406 615.542969 C 506.371094 595.074219 490.300781 559.984375 474.207031 496.382812 L 376.242188 125.734375 C 376.242188 125.007812 376.242188 125.007812 375.515625 124.28125 C 371.140625 108.191406 363.820312 97.238281 353.59375 91.390625 C 343.351562 84.796875 329.457031 81.875 313.386719 81.875 C 312.640625 81.875 311.914062 81.875 311.1875 81.875 Z M 698.148438 262.363281 C 698.148438 253.351562 707.050781 246.050781 718.023438 246.050781 C 729.011719 246.050781 737.914062 253.351562 737.914062 262.363281 L 737.914062 372.621094 C 737.914062 381.636719 729.011719 388.9375 718.023438 388.9375 C 707.050781 388.9375 698.148438 381.636719 698.148438 372.621094 Z M 579.0625 262.363281 C 579.0625 253.351562 587.964844 246.050781 598.9375 246.050781 C 609.925781 246.050781 618.828125 253.351562 618.828125 262.363281 L 618.828125 372.621094 C 618.828125 381.636719 609.925781 388.9375 598.9375 388.9375 C 587.964844 388.9375 579.0625 381.636719 579.0625 372.621094 Z M 909.910156 669.625 C 948.648438 669.625 980.085938 701.066406 980.085938 739.824219 C 980.085938 778.5625 948.648438 810 909.910156 810 C 871.171875 810 839.734375 778.5625 839.734375 739.824219 C 839.734375 701.066406 871.171875 669.625 909.910156 669.625 Z M 602.140625 669.625 C 640.878906 669.625 672.316406 701.066406 672.316406 739.824219 C 672.316406 778.5625 640.878906 810 602.140625 810 C 563.402344 810 531.960938 778.5625 531.960938 739.824219 C 531.960938 701.066406 563.402344 669.625 602.140625 669.625 Z M 602.140625 669.625 " fill-opacity="1" fill-rule="nonzero"/></g><path fill="#00a912" d="M 998.078125 0 C 1052.945312 0 1102.617188 22.257812 1138.582031 58.203125 C 1174.546875 94.164062 1196.785156 143.835938 1196.785156 198.707031 C 1196.785156 253.554688 1174.546875 303.246094 1138.582031 339.191406 C 1102.617188 375.152344 1052.945312 397.410156 998.078125 397.410156 C 943.230469 397.410156 893.539062 375.152344 857.574219 339.191406 C 821.628906 303.246094 799.375 253.554688 799.375 198.707031 C 799.375 143.835938 821.628906 94.164062 857.574219 58.203125 C 893.539062 22.257812 943.230469 0 998.078125 0 Z M 998.078125 0 " fill-opacity="1" fill-rule="nonzero"/><path fill="#00a912" d="M 936.75 161.941406 L 973.792969 196.9375 L 1054.289062 115.25 C 1061.550781 107.890625 1066.09375 101.96875 1075.035156 111.1875 L 1104.070312 140.933594 C 1113.605469 150.355469 1113.121094 155.886719 1104.128906 164.660156 L 990.367188 276.460938 C 971.410156 295.050781 974.707031 296.1875 955.484375 277.113281 L 887.878906 209.878906 C 883.875 205.558594 884.300781 201.164062 888.695312 196.84375 L 922.390625 161.882812 C 927.492188 156.519531 931.550781 156.984375 936.75 161.941406 Z M 936.75 161.941406 " fill-opacity="1" fill-rule="evenodd"/><path fill="#3f1e10" d="M 1130.269531 273.660156 C 1127.347656 272.15625 1124.59375 270.730469 1124.296875 268.6875 C 1123.394531 262.363281 1116.96875 259.480469 1108.835938 255.835938 L 1107.46875 255.222656 C 1102.15625 252.835938 1099.148438 244.621094 1096.492188 237.375 C 1094.9375 233.121094 1093.589844 229.453125 1091.921875 227.292969 C 1089.269531 223.835938 1084.609375 223.714844 1080.871094 223.613281 C 1077.847656 223.53125 1076 223.40625 1075.769531 222.347656 C 1074.6875 217.484375 1067.722656 216.808594 1060.351562 216.808594 C 1055.859375 216.808594 1054.214844 212.558594 1052.3125 207.632812 C 1051.207031 204.777344 1050.070312 201.824219 1048.25 199.515625 C 1044.777344 195.097656 1037.457031 194.484375 1030.382812 193.894531 C 1026.964844 193.609375 1023.429688 193.316406 1020.421875 192.59375 C 1017.136719 191.808594 1014.816406 189.121094 1012.140625 186.007812 C 1007.757812 180.925781 1002.328125 174.621094 990.003906 173.347656 C 987.714844 156 985.191406 127.339844 986.335938 120.753906 C 987.734375 112.792969 997.664062 101.199219 1004.019531 96.515625 C 1008.972656 101.058594 1016.820312 103.609375 1025.660156 103.609375 C 1026.886719 103.609375 1028.136719 103.5625 1029.402344 103.460938 C 1034.015625 103.09375 1038.582031 102.074219 1042.949219 100.425781 C 1049.042969 98.140625 1054.453125 94.761719 1059.035156 90.390625 C 1063.738281 85.90625 1067.421875 80.484375 1069.980469 74.277344 L 1070.230469 73.683594 L 1069.734375 73.269531 C 1065.234375 69.519531 1059.074219 66.566406 1052.402344 64.953125 C 1046.058594 63.421875 1039.550781 63.164062 1033.574219 64.214844 C 1028.3125 65.140625 1023.542969 67.050781 1019.386719 69.871094 L 1019.34375 69.820312 C 1019.214844 69.925781 1019.113281 70.027344 1019.027344 70.113281 C 1013.039062 74.289062 1008.488281 80.304688 1005.484375 87.992188 C 999.933594 90.414062 993.234375 95.433594 987.496094 101.433594 C 988.28125 93.355469 989.613281 80.988281 990.453125 77.75 C 997.972656 75.113281 1005.425781 68.828125 1011.015625 60.386719 L 1011.28125 59.984375 C 1014.28125 55.378906 1016.613281 50.347656 1018.226562 45.042969 C 1020.488281 37.65625 1021.21875 30.121094 1020.414062 22.648438 C 1019.601562 14.980469 1017.160156 7.59375 1013.167969 0.703125 L 1012.84375 0.152344 L 1012.210938 0.292969 C 1005.429688 1.8125 998.195312 5.46875 991.847656 10.578125 C 985.8125 15.425781 980.863281 21.359375 977.523438 27.746094 C 974.597656 33.339844 972.949219 39.179688 972.601562 45.113281 L 972.511719 45.113281 C 972.511719 45.296875 972.527344 45.5 972.566406 45.6875 C 972.054688 56.765625 976.058594 67.730469 984.453125 78.269531 C 981.453125 87.75 978.191406 107.289062 977.820312 122.335938 C 972.15625 115.515625 962.042969 114.976562 960.085938 114.929688 C 951.859375 108.203125 943.257812 104.9375 934.515625 105.230469 C 934.378906 105.207031 934.242188 105.191406 934.089844 105.183594 L 934.082031 105.25 C 929.453125 105.457031 924.886719 106.667969 920.5 108.859375 L 920.304688 108.953125 C 915.261719 111.503906 910.539062 115.335938 906.648438 120.03125 C 902.558594 124.988281 899.613281 130.640625 898.363281 135.945312 L 898.214844 136.574219 L 898.769531 136.90625 C 904.15625 140.109375 909.941406 142.09375 915.972656 142.816406 C 917.679688 143.023438 919.398438 143.125 921.121094 143.125 C 925.292969 143.125 929.476562 142.523438 933.617188 141.324219 C 937.800781 140.109375 941.785156 138.324219 945.445312 136.007812 C 951.65625 132.082031 956.410156 126.976562 958.902344 121.582031 C 962.386719 122.160156 965.671875 122.761719 968.710938 125.230469 C 972.398438 128.230469 975.261719 133.769531 977.464844 142.167969 C 980.191406 152.535156 980.851562 163.820312 980.898438 171.746094 C 966.105469 172.359375 963.140625 181.230469 960.761719 188.394531 C 959.476562 192.257812 958.359375 195.605469 955.664062 196.953125 C 948.226562 196.375 944.757812 200.390625 943.71875 203.117188 C 941.683594 203.066406 935.71875 203.191406 932.453125 206.066406 C 931.316406 207.0625 930.613281 208.285156 930.347656 209.714844 C 914.988281 209.121094 913.902344 219.21875 913.375 224.113281 C 913.28125 225.007812 913.164062 226.09375 912.992188 226.496094 C 909.777344 226.28125 906.28125 232.300781 902.988281 238.886719 C 901.1875 242.484375 895.410156 249.59375 890.007812 247.285156 C 886.703125 245.867188 883.140625 245.949219 880.21875 247.503906 C 877.316406 249.050781 875.347656 251.863281 874.679688 255.417969 C 873.695312 260.671875 868.257812 262.789062 862.5 265.027344 C 861.15625 265.550781 859.765625 266.089844 858.429688 266.675781 C 853.28125 268.917969 848.316406 276.390625 849.71875 279.769531 C 850.125 280.746094 851.34375 282.125 854.980469 280.996094 C 855.40625 283.164062 856.390625 284.816406 857.921875 285.925781 C 860.28125 287.644531 863.238281 287.535156 864.515625 287.378906 C 865.195312 288.382812 866.9375 290.464844 870.117188 291.359375 C 874.121094 292.488281 878.917969 291.378906 884.382812 288.054688 C 891.777344 283.554688 896.464844 282.046875 900.039062 283.003906 C 902.550781 283.675781 904.675781 285.65625 906.53125 289.046875 C 909.90625 295.222656 915.8125 292.625 920.558594 290.527344 C 924.035156 289 927.320312 287.546875 929.199219 289.269531 C 933.289062 293.015625 941.023438 292.382812 946.667969 291.917969 C 948.785156 291.738281 950.609375 291.589844 951.769531 291.703125 C 952.507812 291.78125 953.902344 291.980469 955.664062 292.234375 C 964.566406 293.527344 983.09375 296.222656 990.964844 293.417969 C 1000.453125 290.039062 1019.132812 285.199219 1037.605469 290.78125 C 1048.796875 294.167969 1055.617188 292.847656 1060.128906 291.980469 C 1063.378906 291.355469 1065.339844 290.976562 1067.203125 292.40625 C 1069.785156 294.386719 1076.023438 295.4375 1083.25 295.4375 C 1091.886719 295.4375 1101.925781 293.9375 1108.804688 290.742188 C 1114.492188 288.101562 1119.984375 289.140625 1124.824219 290.054688 C 1130.339844 291.101562 1135.542969 292.082031 1137.929688 285.855469 C 1140.570312 278.96875 1134.855469 276.027344 1130.269531 273.660156 Z M 1130.269531 273.660156 " fill-opacity="1" fill-rule="nonzero"/><path fill="#099602" d="M 1069.171875 73.953125 C 1064.789062 72.796875 1053.410156 74.421875 1041.21875 77.714844 C 1041.464844 77.414062 1049.339844 67.777344 1052.195312 65.832031 L 1052.195312 65.820312 C 1058.855469 67.429688 1064.855469 70.363281 1069.171875 73.953125 Z M 1069.171875 73.953125 " fill-opacity="1" fill-rule="nonzero"/><path fill="#099602" d="M 1041.21875 77.714844 C 1053.410156 74.421875 1064.789062 72.796875 1069.171875 73.953125 C 1066.527344 80.355469 1062.804688 85.589844 1058.429688 89.765625 C 1058.425781 89.765625 1045.367188 80.484375 1041.21875 77.714844 C 1041.210938 77.722656 1041.210938 77.722656 1041.21875 77.714844 Z M 1041.21875 77.714844 " fill-opacity="1" fill-rule="nonzero"/><path fill="#099602" d="M 1052.195312 65.820312 L 1052.195312 65.832031 C 1049.339844 67.777344 1041.464844 77.421875 1041.21875 77.714844 C 1035.753906 79.1875 1030.117188 81.003906 1024.878906 83.066406 L 1033.726562 65.09375 L 1033.726562 65.089844 C 1039.917969 64.007812 1046.3125 64.398438 1052.195312 65.820312 Z M 1052.195312 65.820312 " fill-opacity="1" fill-rule="nonzero"/><path fill="#099602" d="M 1042.636719 99.605469 C 1038.230469 101.269531 1033.710938 102.242188 1029.324219 102.59375 L 1029.324219 102.585938 C 1026.113281 100.476562 1012.914062 88.660156 1012.914062 88.660156 L 1012.914062 88.652344 C 1016.414062 86.664062 1020.511719 84.78125 1024.871094 83.066406 L 1024.867188 83.074219 Z M 1042.636719 99.605469 " fill-opacity="1" fill-rule="nonzero"/><path fill="#099602" d="M 1024.878906 83.066406 C 1030.117188 81.003906 1035.753906 79.1875 1041.21875 77.714844 C 1041.210938 77.722656 1041.210938 77.722656 1041.210938 77.722656 C 1045.371094 80.484375 1058.425781 89.765625 1058.425781 89.765625 C 1053.726562 94.246094 1048.28125 97.496094 1042.636719 99.609375 L 1042.636719 99.605469 Z M 1024.878906 83.066406 " fill-opacity="1" fill-rule="nonzero"/><path fill="#099602" d="M 1033.726562 65.089844 L 1024.878906 83.066406 C 1020.515625 84.78125 1016.417969 86.664062 1012.921875 88.652344 C 1013.007812 87.554688 1016.773438 73.78125 1019.605469 70.792969 C 1023.9375 67.789062 1028.761719 65.964844 1033.726562 65.089844 Z M 1033.726562 65.089844 " fill-opacity="1" fill-rule="nonzero"/><path fill="#099602" d="M 988.863281 49.554688 L 1017.382812 44.796875 C 1015.757812 50.148438 1013.394531 55.125 1010.539062 59.511719 L 1010.53125 59.511719 C 1006.207031 61.015625 985.460938 64.882812 985.460938 64.882812 C 986.117188 60.144531 987.3125 54.914062 988.863281 49.554688 Z M 988.863281 49.554688 " fill-opacity="1" fill-rule="nonzero"/><path fill="#099602" d="M 1012.914062 88.652344 C 1012.914062 88.660156 1026.121094 100.476562 1029.324219 102.585938 L 1029.324219 102.59375 C 1019.042969 103.40625 1009.515625 100.773438 1004.082031 95.394531 C 1006.082031 93.058594 1009.148438 90.796875 1012.914062 88.652344 Z M 1012.914062 88.652344 " fill-opacity="1" fill-rule="nonzero"/><path fill="#099602" d="M 1012.40625 1.148438 C 1016.539062 8.285156 1018.777344 15.601562 1019.539062 22.753906 C 1019.539062 22.753906 1001.304688 28.339844 995.671875 30.253906 C 995.671875 30.253906 995.671875 30.253906 995.664062 30.25 L 995.664062 30.242188 C 1001.40625 16.351562 1008.136719 4.445312 1012.40625 1.148438 Z M 1012.40625 1.148438 " fill-opacity="1" fill-rule="nonzero"/><path fill="#099602" d="M 1004.089844 95.394531 C 1004.667969 92.988281 1005.367188 90.746094 1006.167969 88.660156 C 1009.3125 80.4375 1014.054688 74.644531 1019.605469 70.792969 C 1016.773438 73.78125 1013.007812 87.554688 1012.921875 88.652344 C 1009.148438 90.796875 1006.082031 93.058594 1004.089844 95.394531 Z M 1004.089844 95.394531 " fill-opacity="1" fill-rule="nonzero"/><path fill="#099602" d="M 985.46875 64.886719 C 985.46875 64.886719 1006.210938 61.019531 1010.539062 59.519531 C 1004.910156 68.179688 997.363281 74.5625 989.726562 77.089844 C 988.292969 77.5625 986.851562 77.90625 985.425781 78.101562 C 984.671875 74.53125 984.757812 69.984375 985.46875 64.886719 Z M 985.46875 64.886719 " fill-opacity="1" fill-rule="nonzero"/><path fill="#099602" d="M 1012.40625 1.148438 C 1008.136719 4.441406 1001.40625 16.351562 995.664062 30.242188 C 995.566406 29.804688 992.171875 15.367188 992.410156 11.265625 L 992.402344 11.261719 C 998.757812 6.148438 1005.878906 2.613281 1012.40625 1.148438 Z M 1012.40625 1.148438 " fill-opacity="1" fill-rule="nonzero"/><path fill="#099602" d="M 995.671875 30.253906 C 1001.304688 28.339844 1019.539062 22.753906 1019.539062 22.753906 C 1020.367188 30.445312 1019.480469 37.933594 1017.382812 44.796875 L 988.863281 49.554688 C 990.71875 43.117188 993.09375 36.480469 995.671875 30.253906 Z M 995.671875 30.253906 " fill-opacity="1" fill-rule="nonzero"/><path fill="#099602" d="M 978.308594 28.152344 C 981.773438 21.519531 986.785156 15.773438 992.402344 11.261719 L 992.410156 11.265625 C 992.171875 15.367188 995.570312 29.804688 995.664062 30.242188 L 995.664062 30.25 C 993.09375 36.480469 990.71875 43.117188 988.863281 49.554688 Z M 978.308594 28.152344 " fill-opacity="1" fill-rule="nonzero"/><path fill="#099602" d="M 978.308594 28.152344 L 988.867188 49.554688 C 987.320312 54.914062 986.125 60.144531 985.476562 64.882812 C 984.527344 64.039062 974.25 50.5 973.453125 45.632812 C 973.742188 39.355469 975.527344 33.472656 978.308594 28.152344 Z M 978.308594 28.152344 " fill-opacity="1" fill-rule="nonzero"/><path fill="#099602" d="M 985.425781 78.09375 C 976.28125 66.761719 972.953125 55.699219 973.445312 45.632812 C 974.242188 50.5 984.523438 64.039062 985.46875 64.882812 C 984.757812 69.984375 984.671875 74.53125 985.425781 78.09375 Z M 985.425781 78.09375 " fill-opacity="1" fill-rule="nonzero"/><path fill="#82523a" d="M 955.824219 197.855469 C 964.644531 193.894531 958.367188 173.050781 981.773438 172.601562 L 981.78125 172.601562 C 981.785156 179.0625 981.40625 183.371094 981.40625 183.371094 C 981.40625 183.371094 986.585938 181.425781 990.695312 183.371094 C 990.292969 181.644531 989.777344 178.359375 989.214844 174.15625 C 1009.496094 175.898438 1010.957031 191.246094 1020.21875 193.449219 C 1029.484375 195.652344 1042.710938 193.894531 1047.566406 200.058594 C 1052.417969 206.226562 1052.417969 217.6875 1060.359375 217.6875 C 1068.296875 217.6875 1074.03125 218.570312 1074.910156 222.539062 C 1075.792969 226.5 1086.820312 222.089844 1091.226562 227.824219 C 1095.636719 233.554688 1098.285156 252.0625 1107.109375 256.023438 C 1115.929688 259.996094 1122.542969 262.640625 1123.425781 268.804688 C 1124.304688 274.972656 1141.070312 275.203125 1137.097656 285.554688 C 1133.125 295.902344 1121.21875 284.019531 1108.425781 289.957031 C 1095.636719 295.902344 1072.90625 295.691406 1067.734375 291.722656 C 1062.5625 287.753906 1056.824219 295.691406 1037.855469 289.957031 C 1018.890625 284.226562 999.925781 289.304688 990.664062 292.601562 C 981.402344 295.898438 956.261719 291.277344 951.851562 290.839844 C 947.441406 290.398438 935.085938 293.480469 929.796875 288.632812 C 924.507812 283.785156 912.601562 298.332031 907.304688 288.632812 C 902.007812 278.933594 894.792969 280.707031 883.925781 287.308594 C 869.808594 295.898438 864.957031 286.429688 864.957031 286.429688 C 864.957031 286.429688 856.574219 288.191406 855.695312 279.816406 C 845.550781 283.785156 851.722656 270.558594 858.785156 267.476562 C 865.839844 264.386719 874.21875 262.628906 875.542969 255.578125 C 876.867188 248.53125 883.484375 245.441406 889.660156 248.085938 C 895.832031 250.726562 902.007812 242.800781 903.777344 239.277344 C 905.539062 235.75 909.949219 226.933594 913.039062 227.382812 C 916.125 227.824219 909.949219 209.308594 931.121094 210.632812 C 931.570312 203.144531 944.355469 204.023438 944.355469 204.023438 C 944.355469 204.023438 946.117188 196.976562 955.824219 197.855469 Z M 955.824219 197.855469 " fill-opacity="1" fill-rule="nonzero"/><path fill="#92af2b" d="M 959.765625 115.808594 C 959.765625 115.808594 973.390625 115.714844 978.664062 125.117188 C 978.664062 109.757812 982.277344 87.773438 985.433594 78.101562 C 986.859375 77.90625 988.300781 77.570312 989.730469 77.089844 C 988.542969 80.652344 986.378906 103.960938 986.378906 103.960938 C 991.917969 97.742188 999.5625 91.441406 1006.175781 88.660156 C 1005.371094 90.746094 1004.679688 92.984375 1004.09375 95.394531 C 998.019531 99.605469 987.027344 111.730469 985.476562 120.613281 C 984.238281 127.675781 987.042969 157.859375 989.222656 174.160156 C 989.785156 178.367188 990.304688 181.652344 990.699219 183.375 C 986.59375 181.433594 981.414062 183.375 981.414062 183.375 C 981.414062 183.375 981.792969 179.070312 981.785156 172.609375 C 981.773438 164.394531 981.140625 152.691406 978.316406 141.957031 C 975.796875 132.359375 972.683594 127.34375 969.265625 124.5625 C 965.847656 121.78125 962.132812 121.242188 958.382812 120.613281 C 959.050781 119.011719 959.53125 117.40625 959.765625 115.808594 Z M 959.765625 115.808594 " fill-opacity="1" fill-rule="nonzero"/><path fill="#099602" d="M 959.765625 115.808594 C 956.976562 115.183594 953.414062 115.214844 949.40625 115.710938 C 948.714844 114.929688 938.234375 106.792969 934.445312 106.117188 C 942.328125 105.835938 950.972656 108.546875 959.765625 115.808594 Z M 959.765625 115.808594 " fill-opacity="1" fill-rule="nonzero"/><path fill="#099602" d="M 959.765625 115.808594 L 958.371094 120.613281 C 956.046875 126.050781 951.253906 131.300781 944.964844 135.277344 L 944.960938 135.269531 C 946.175781 131.910156 949.410156 115.714844 949.410156 115.714844 L 949.40625 115.710938 C 953.40625 115.207031 956.976562 115.179688 959.765625 115.808594 Z M 959.765625 115.808594 " fill-opacity="1" fill-rule="nonzero"/><path fill="#099602" d="M 949.40625 115.710938 C 949.410156 115.714844 946.171875 131.910156 944.960938 135.269531 L 944.964844 135.277344 C 941.5 137.46875 937.578125 139.269531 933.363281 140.484375 L 933.363281 140.480469 L 937.371094 118.21875 L 937.359375 118.214844 C 941.570312 117.054688 945.679688 116.175781 949.40625 115.710938 Z M 949.40625 115.710938 " fill-opacity="1" fill-rule="nonzero"/><path fill="#099602" d="M 934.445312 106.117188 C 938.234375 106.785156 948.714844 114.929688 949.40625 115.710938 C 945.679688 116.175781 941.570312 117.0625 937.359375 118.214844 L 920.707031 109.75 C 924.890625 107.628906 929.519531 106.289062 934.445312 106.117188 Z M 934.445312 106.117188 " fill-opacity="1" fill-rule="nonzero"/><path fill="#099602" d="M 922.160156 123.351562 C 927.070312 121.402344 932.292969 119.613281 937.359375 118.21875 L 937.371094 118.226562 L 933.363281 140.484375 L 933.363281 140.492188 C 927.957031 142.054688 922.082031 142.683594 916.070312 141.957031 C 916.070312 141.957031 920.621094 127.738281 922.175781 123.359375 C 922.175781 123.359375 922.171875 123.359375 922.160156 123.351562 Z M 922.160156 123.351562 " fill-opacity="1" fill-rule="nonzero"/><path fill="#099602" d="M 922.160156 123.351562 C 922.171875 123.359375 922.175781 123.359375 922.175781 123.359375 C 920.621094 127.738281 916.070312 141.957031 916.070312 141.957031 C 910.480469 141.289062 904.761719 139.464844 899.210938 136.164062 C 901.835938 132.847656 911.222656 127.703125 922.160156 123.351562 Z M 922.160156 123.351562 " fill-opacity="1" fill-rule="nonzero"/><path fill="#099602" d="M 907.328125 120.617188 C 910.519531 120.476562 921.644531 123.222656 922.160156 123.351562 C 911.222656 127.703125 901.835938 132.855469 899.210938 136.164062 C 900.417969 131.070312 903.257812 125.53125 907.328125 120.617188 Z M 907.328125 120.617188 " fill-opacity="1" fill-rule="nonzero"/><path fill="#099602" d="M 907.324219 120.613281 C 910.917969 116.269531 915.460938 112.402344 920.699219 109.757812 C 920.699219 109.757812 920.699219 109.757812 920.707031 109.757812 L 937.359375 118.21875 C 932.292969 119.613281 927.070312 121.410156 922.160156 123.351562 C 921.644531 123.222656 910.519531 120.476562 907.324219 120.613281 Z M 907.324219 120.613281 " fill-opacity="1" fill-rule="nonzero"/><path fill="#3f1e10" d="M 1033.796875 214.164062 C 1032.253906 213.453125 1030.128906 213.601562 1028.242188 214.554688 L 1029.035156 216.125 C 1030.429688 215.421875 1032.007812 215.28125 1033.058594 215.765625 C 1033.710938 216.066406 1034.113281 216.574219 1034.300781 217.324219 L 1036.015625 216.902344 C 1035.695312 215.628906 1034.933594 214.683594 1033.796875 214.164062 Z M 1033.796875 214.164062 " fill-opacity="1" fill-rule="nonzero"/><path fill="#3f1e10" d="M 1026.617188 255.5 C 1022.152344 257.324219 1020.15625 265.121094 1019.539062 268.101562 C 1015.964844 267.671875 1012.957031 268.375 1010.359375 270.234375 L 1011.390625 271.664062 C 1013.785156 269.945312 1016.636719 269.390625 1020.109375 269.964844 L 1020.972656 270.105469 L 1021.125 269.25 C 1021.964844 264.484375 1024.085938 258.445312 1027.289062 257.136719 C 1028.613281 256.59375 1030.050781 256.898438 1031.695312 258.0625 L 1032.714844 256.628906 C 1030.566406 255.097656 1028.515625 254.71875 1026.617188 255.5 Z M 1026.617188 255.5 " fill-opacity="1" fill-rule="nonzero"/><path fill="#3f1e10" d="M 917.082031 269.214844 C 915.484375 269.082031 913.835938 268.949219 912.277344 268.363281 C 910.640625 267.75 909.847656 266.792969 908.746094 265.476562 C 908.109375 264.703125 907.382812 263.828125 906.371094 262.90625 C 901.511719 258.464844 895.835938 258.328125 889.027344 262.503906 L 889.949219 264.003906 C 896.167969 260.195312 900.867188 260.253906 905.183594 264.207031 C 906.105469 265.042969 906.761719 265.835938 907.394531 266.597656 C 908.515625 267.949219 909.582031 269.230469 911.660156 270.011719 C 913.453125 270.683594 915.226562 270.824219 916.945312 270.96875 C 919.996094 271.214844 922.625 271.429688 924.910156 274.441406 L 926.316406 273.378906 C 923.550781 269.738281 920.261719 269.46875 917.082031 269.214844 Z M 917.082031 269.214844 " fill-opacity="1" fill-rule="nonzero"/><path fill="#3f1e10" d="M 974.980469 197.9375 C 976.105469 198.011719 976.96875 198.808594 977.484375 200.242188 L 979.144531 199.652344 C 978.398438 197.5625 976.925781 196.296875 975.09375 196.179688 C 973.039062 196.050781 970.910156 197.402344 969.820312 199.546875 L 971.394531 200.34375 C 972.15625 198.84375 973.628906 197.851562 974.980469 197.9375 Z M 974.980469 197.9375 " fill-opacity="1" fill-rule="nonzero"/><path fill="#3f1e10" d="M 961.433594 212.136719 C 964.011719 212.296875 966.371094 213.921875 968.25 216.828125 L 968.828125 217.71875 L 969.597656 216.988281 C 970.886719 215.757812 972.84375 215.21875 974.460938 215.640625 C 975.300781 215.859375 976.402344 216.4375 976.875 217.960938 L 978.558594 217.441406 C 978.003906 215.644531 976.707031 214.40625 974.90625 213.9375 C 973.03125 213.453125 970.84375 213.902344 969.175781 215.074219 C 967.085938 212.21875 964.402344 210.566406 961.546875 210.390625 C 958.417969 210.195312 955.296875 211.753906 952.757812 214.777344 L 954.105469 215.910156 C 956.277344 213.320312 958.875 211.972656 961.433594 212.136719 Z M 961.433594 212.136719 " fill-opacity="1" fill-rule="nonzero"/><path fill="#3f1e10" d="M 1092.785156 272.496094 C 1089.503906 271.476562 1085.433594 272.296875 1083.109375 274.441406 L 1084.304688 275.734375 C 1086.164062 274.015625 1089.589844 273.347656 1092.265625 274.175781 C 1093.425781 274.535156 1094.890625 275.328125 1095.285156 277.050781 L 1097.007812 276.660156 C 1096.550781 274.683594 1095.050781 273.199219 1092.785156 272.496094 Z M 1092.785156 272.496094 " fill-opacity="1" fill-rule="nonzero"/><path fill="#3f1e10" d="M 1086.414062 259.367188 L 1088.105469 258.867188 C 1086.964844 255.027344 1084.648438 252.292969 1081.394531 250.957031 C 1077.421875 249.328125 1072.226562 249.90625 1067.023438 252.546875 C 1065.640625 249.613281 1063.539062 246.015625 1060.445312 244.75 C 1058.121094 243.804688 1055.757812 244.21875 1053.464844 244.625 C 1050.519531 245.144531 1047.980469 245.59375 1045.875 243.160156 L 1044.550781 244.308594 C 1047.304688 247.503906 1050.746094 246.894531 1053.777344 246.355469 C 1055.914062 245.980469 1057.933594 245.625 1059.785156 246.375 C 1062.59375 247.519531 1064.566406 251.34375 1065.808594 254.113281 L 1066.199219 254.984375 L 1067.039062 254.523438 C 1072.042969 251.777344 1077.03125 251.0625 1080.726562 252.582031 C 1083.464844 253.710938 1085.433594 256.054688 1086.414062 259.367188 Z M 1086.414062 259.367188 " fill-opacity="1" fill-rule="nonzero"/><path fill="#3f1e10" d="M 985.488281 234.921875 C 983.6875 237.480469 981.992188 239.890625 979.71875 241.066406 C 978.257812 241.816406 976.703125 241.855469 975.054688 241.898438 C 972.554688 241.964844 969.714844 242.035156 967.050781 244.78125 C 965.910156 245.960938 965.339844 246.9375 964.890625 247.722656 C 964.210938 248.898438 963.90625 249.433594 961.996094 249.8125 C 960.613281 250.082031 959.4375 250.238281 958.300781 250.390625 C 955.40625 250.769531 953.121094 251.070312 950 253.046875 L 950.949219 254.535156 C 953.738281 252.765625 955.746094 252.5 958.53125 252.140625 C 959.644531 251.992188 960.902344 251.824219 962.339844 251.542969 C 964.902344 251.035156 965.558594 250.09375 966.417969 248.605469 C 966.84375 247.867188 967.320312 247.035156 968.316406 246.007812 C 970.476562 243.777344 972.71875 243.722656 975.09375 243.664062 C 976.867188 243.621094 978.699219 243.574219 980.519531 242.636719 C 983.1875 241.265625 985.085938 238.5625 986.921875 235.9375 C 990.257812 231.195312 993.140625 227.097656 999.890625 229.765625 L 1000.542969 228.132812 C 992.492188 224.941406 988.773438 230.246094 985.488281 234.921875 Z M 985.488281 234.921875 " fill-opacity="1" fill-rule="nonzero"/><path fill="#3f1e10" d="M 1130.269531 273.660156 C 1127.347656 272.15625 1124.59375 270.730469 1124.296875 268.6875 C 1123.394531 262.363281 1116.96875 259.480469 1108.835938 255.835938 L 1107.46875 255.222656 C 1102.15625 252.835938 1099.148438 244.621094 1096.492188 237.375 C 1094.9375 233.121094 1093.589844 229.453125 1091.921875 227.292969 C 1089.269531 223.835938 1084.609375 223.714844 1080.871094 223.613281 C 1077.847656 223.53125 1076 223.40625 1075.769531 222.347656 C 1074.6875 217.484375 1067.722656 216.808594 1060.351562 216.808594 C 1055.859375 216.808594 1054.214844 212.558594 1052.3125 207.632812 C 1051.207031 204.777344 1050.070312 201.824219 1048.25 199.515625 C 1044.777344 195.097656 1037.457031 194.484375 1030.382812 193.894531 C 1026.964844 193.609375 1023.429688 193.316406 1020.421875 192.59375 C 1017.136719 191.808594 1014.816406 189.121094 1012.140625 186.007812 C 1007.757812 180.925781 1002.328125 174.621094 990.003906 173.347656 C 987.714844 156 985.191406 127.339844 986.335938 120.753906 C 987.734375 112.792969 997.664062 101.199219 1004.019531 96.515625 C 1008.972656 101.058594 1016.820312 103.609375 1025.660156 103.609375 C 1026.886719 103.609375 1028.136719 103.5625 1029.402344 103.460938 C 1034.015625 103.09375 1038.582031 102.074219 1042.949219 100.425781 C 1049.042969 98.140625 1054.453125 94.761719 1059.035156 90.390625 C 1063.738281 85.90625 1067.421875 80.484375 1069.980469 74.277344 L 1070.230469 73.683594 L 1069.734375 73.269531 C 1065.234375 69.519531 1059.074219 66.566406 1052.402344 64.953125 C 1046.058594 63.421875 1039.550781 63.164062 1033.574219 64.214844 C 1028.3125 65.140625 1023.542969 67.050781 1019.386719 69.871094 L 1019.34375 69.820312 C 1019.214844 69.925781 1019.113281 70.027344 1019.027344 70.113281 C 1013.039062 74.289062 1008.488281 80.304688 1005.484375 87.992188 C 999.933594 90.414062 993.234375 95.433594 987.496094 101.433594 C 988.28125 93.355469 989.613281 80.988281 990.453125 77.75 C 997.972656 75.113281 1005.425781 68.828125 1011.015625 60.386719 L 1011.28125 59.984375 C 1014.28125 55.378906 1016.613281 50.347656 1018.226562 45.042969 C 1020.488281 37.65625 1021.21875 30.121094 1020.414062 22.648438 C 1019.601562 14.980469 1017.160156 7.59375 1013.167969 0.703125 L 1012.84375 0.152344 L 1012.210938 0.292969 C 1005.429688 1.8125 998.195312 5.46875 991.847656 10.578125 C 985.8125 15.425781 980.863281 21.359375 977.523438 27.746094 C 974.597656 33.339844 972.949219 39.179688 972.601562 45.113281 L 972.511719 45.113281 C 972.511719 45.296875 972.527344 45.5 972.566406 45.6875 C 972.054688 56.765625 976.058594 67.730469 984.453125 78.269531 C 981.453125 87.75 978.191406 107.289062 977.820312 122.335938 C 972.15625 115.515625 962.042969 114.976562 960.085938 114.929688 C 951.859375 108.203125 943.257812 104.9375 934.515625 105.230469 C 934.378906 105.207031 934.242188 105.191406 934.089844 105.183594 L 934.082031 105.25 C 929.453125 105.457031 924.886719 106.667969 920.5 108.859375 L 920.304688 108.953125 C 915.261719 111.503906 910.539062 115.335938 906.648438 120.03125 C 902.558594 124.988281 899.613281 130.640625 898.363281 135.945312 L 898.214844 136.574219 L 898.769531 136.90625 C 904.15625 140.109375 909.941406 142.09375 915.972656 142.816406 C 917.679688 143.023438 919.398438 143.125 921.121094 143.125 C 925.292969 143.125 929.476562 142.523438 933.617188 141.324219 C 937.800781 140.109375 941.785156 138.324219 945.445312 136.007812 C 951.65625 132.082031 956.410156 126.976562 958.902344 121.582031 C 962.386719 122.160156 965.671875 122.761719 968.710938 125.230469 C 972.398438 128.230469 975.261719 133.769531 977.464844 142.167969 C 980.191406 152.535156 980.851562 163.820312 980.898438 171.746094 C 966.105469 172.359375 963.140625 181.230469 960.761719 188.394531 C 959.476562 192.257812 958.359375 195.605469 955.664062 196.953125 C 948.226562 196.375 944.757812 200.390625 943.71875 203.117188 C 941.683594 203.066406 935.71875 203.191406 932.453125 206.066406 C 931.316406 207.0625 930.613281 208.285156 930.347656 209.714844 C 914.988281 209.121094 913.902344 219.21875 913.375 224.113281 C 913.28125 225.007812 913.164062 226.09375 912.992188 226.496094 C 909.777344 226.28125 906.28125 232.300781 902.988281 238.886719 C 901.1875 242.484375 895.410156 249.59375 890.007812 247.285156 C 886.703125 245.867188 883.140625 245.949219 880.21875 247.503906 C 877.316406 249.050781 875.347656 251.863281 874.679688 255.417969 C 873.695312 260.671875 868.257812 262.789062 862.5 265.027344 C 861.15625 265.550781 859.765625 266.089844 858.429688 266.675781 C 853.28125 268.917969 848.316406 276.390625 849.71875 279.769531 C 850.125 280.746094 851.34375 282.125 854.980469 280.996094 C 855.40625 283.164062 856.390625 284.816406 857.921875 285.925781 C 860.28125 287.644531 863.238281 287.535156 864.515625 287.378906 C 865.195312 288.382812 866.9375 290.464844 870.117188 291.359375 C 874.121094 292.488281 878.917969 291.378906 884.382812 288.054688 C 891.777344 283.554688 896.464844 282.046875 900.039062 283.003906 C 902.550781 283.675781 904.675781 285.65625 906.53125 289.046875 C 909.90625 295.222656 915.8125 292.625 920.558594 290.527344 C 924.035156 289 927.320312 287.546875 929.199219 289.269531 C 933.289062 293.015625 941.023438 292.382812 946.667969 291.917969 C 948.785156 291.738281 950.609375 291.589844 951.769531 291.703125 C 952.507812 291.78125 953.902344 291.980469 955.664062 292.234375 C 964.566406 293.527344 983.09375 296.222656 990.964844 293.417969 C 1000.453125 290.039062 1019.132812 285.199219 1037.605469 290.78125 C 1048.796875 294.167969 1055.617188 292.847656 1060.128906 291.980469 C 1063.378906 291.355469 1065.339844 290.976562 1067.203125 292.40625 C 1069.785156 294.386719 1076.023438 295.4375 1083.25 295.4375 C 1091.886719 295.4375 1101.925781 293.9375 1108.804688 290.742188 C 1114.492188 288.101562 1119.984375 289.140625 1124.824219 290.054688 C 1130.339844 291.101562 1135.542969 292.082031 1137.929688 285.855469 C 1140.570312 278.96875 1134.855469 276.027344 1130.269531 273.660156 Z M 1005.332031 95.339844 C 1007.066406 93.503906 1009.574219 91.625 1012.808594 89.742188 C 1014.835938 91.554688 1022.648438 98.488281 1026.859375 101.835938 C 1018.046875 102.074219 1010.183594 99.714844 1005.332031 95.339844 Z M 1020.191406 71.460938 C 1023.726562 69.023438 1027.738281 67.292969 1032.148438 66.304688 L 1024.234375 82.371094 C 1020.503906 83.847656 1017.140625 85.382812 1014.203125 86.941406 C 1015.25 82.953125 1018.109375 73.789062 1020.191406 71.460938 Z M 1052.394531 66.777344 C 1057.460938 68.046875 1062.191406 70.113281 1066.039062 72.714844 C 1060.984375 72.59375 1052.855469 73.835938 1043.648438 76.167969 C 1046.898438 72.300781 1050.582031 68.183594 1052.394531 66.777344 Z M 1041.050781 78.671875 C 1044.769531 81.171875 1054.097656 87.773438 1057.023438 89.847656 C 1052.914062 93.578125 1048.152344 96.519531 1042.832031 98.582031 L 1026.5 83.386719 C 1031.03125 81.660156 1036.019531 80.042969 1041.050781 78.671875 Z M 1014.425781 88.824219 C 1017.394531 87.214844 1020.835938 85.625 1024.675781 84.09375 L 1040.988281 99.265625 C 1037.28125 100.542969 1033.449219 101.351562 1029.570312 101.683594 C 1026.640625 99.640625 1017.390625 91.460938 1014.425781 88.824219 Z M 1058.328125 88.613281 C 1056.023438 86.976562 1047.738281 81.105469 1043.304688 78.070312 C 1053.980469 75.3125 1063.449219 73.984375 1067.921875 74.605469 C 1065.582031 79.941406 1062.355469 84.644531 1058.328125 88.613281 Z M 1050.253906 66.300781 C 1047.265625 69.070312 1042.535156 74.726562 1040.714844 76.941406 C 1035.878906 78.253906 1031.066406 79.796875 1026.65625 81.441406 L 1034.320312 65.890625 C 1039.390625 65.066406 1044.851562 65.207031 1050.253906 66.300781 Z M 1016.550781 74.386719 C 1014.453125 79.1875 1012.535156 86.097656 1012.121094 88.105469 C 1009.609375 89.558594 1007.492188 91.023438 1005.796875 92.476562 C 1006.164062 91.265625 1006.558594 90.089844 1006.992188 88.980469 C 1009.253906 83.050781 1012.464844 78.164062 1016.550781 74.386719 Z M 989.445312 76.25 C 988.339844 76.617188 987.230469 76.894531 986.140625 77.089844 C 985.628906 74.046875 985.667969 70.203125 986.261719 65.632812 C 989.316406 65.058594 1002.304688 62.589844 1008.429688 61.03125 C 1003.089844 68.496094 996.273438 73.988281 989.445312 76.25 Z M 987.921875 49.644531 C 986.554688 54.40625 985.535156 58.835938 984.882812 62.84375 C 981.980469 59.152344 975.054688 49.421875 974.332031 45.574219 C 974.59375 40.324219 975.933594 35.144531 978.308594 30.148438 Z M 984.546875 65.171875 C 984.050781 68.875 983.90625 72.140625 984.113281 74.933594 C 978.234375 66.894531 974.976562 58.640625 974.386719 50.3125 C 977.371094 55.933594 983.027344 63.386719 984.546875 65.171875 Z M 1010.066406 58.632812 L 1009.976562 58.773438 C 1005.914062 60.082031 990.90625 62.960938 986.527344 63.789062 C 987.152344 59.730469 988.171875 55.214844 989.566406 50.328125 L 1016.105469 45.898438 C 1014.617188 50.402344 1012.589844 54.675781 1010.066406 58.632812 Z M 1016.699219 44.023438 L 990.109375 48.457031 C 991.78125 42.839844 993.914062 36.835938 996.328125 30.964844 C 1001.429688 29.25 1014.9375 25.09375 1018.765625 23.910156 C 1019.351562 30.621094 1018.652344 37.378906 1016.699219 44.023438 Z M 993.277344 11.699219 C 998.359375 7.664062 1003.996094 4.597656 1009.460938 2.867188 C 1005.578125 7.488281 1000.605469 16.453125 995.917969 27.378906 C 994.570312 21.320312 993.269531 14.472656 993.277344 11.699219 Z M 1018.578125 22.128906 C 1015.53125 23.0625 1003.289062 26.828125 997.214844 28.8125 C 1002.480469 16.40625 1008.273438 6.222656 1012.15625 2.519531 C 1015.597656 8.722656 1017.753906 15.308594 1018.578125 22.128906 Z M 991.582031 13.09375 C 991.972656 17.882812 994 26.929688 994.75 30.171875 C 992.414062 35.855469 990.328125 41.671875 988.660156 47.152344 L 979.304688 28.175781 C 982.257812 22.640625 986.472656 17.460938 991.582031 13.09375 Z M 944.21875 134.691406 C 941.175781 136.582031 937.90625 138.105469 934.484375 139.214844 L 938.136719 118.917969 C 941.816406 117.925781 945.226562 117.199219 948.300781 116.75 C 947.546875 120.441406 945.261719 131.539062 944.21875 134.691406 Z M 934.371094 107.003906 C 937.226562 107.582031 944.296875 112.691406 947.347656 115.113281 C 944.328125 115.585938 941.011719 116.3125 937.453125 117.273438 L 922.699219 109.773438 C 926.492188 108.085938 930.410156 107.15625 934.371094 107.003906 Z M 949.707031 114.789062 C 948.265625 113.523438 943.15625 109.585938 938.972656 107.167969 C 944.960938 107.84375 950.882812 110.300781 956.652344 114.503906 C 954.625 114.390625 952.300781 114.488281 949.707031 114.789062 Z M 920.710938 110.742188 L 934.964844 117.984375 C 930.800781 119.210938 926.402344 120.730469 922.101562 122.425781 C 920.574219 122.050781 913.269531 120.285156 909.160156 119.832031 C 912.554688 116.050781 916.507812 112.933594 920.710938 110.742188 Z M 915.457031 140.976562 C 910.277344 140.261719 905.289062 138.578125 900.609375 135.945312 C 903.617188 133.003906 911.332031 128.757812 920.71875 124.886719 C 919.109375 129.625 916.277344 138.425781 915.457031 140.976562 Z M 907.742188 121.492188 C 910.058594 121.539062 915.546875 122.695312 919.292969 123.570312 C 911.308594 126.90625 904.6875 130.445312 900.96875 133.320312 C 902.394531 129.3125 904.726562 125.210938 907.742188 121.492188 Z M 917.242188 141.183594 C 918.289062 137.929688 921.503906 127.941406 922.882812 124.019531 C 927.367188 122.253906 931.949219 120.6875 936.253906 119.449219 L 932.59375 139.78125 C 927.496094 141.1875 922.34375 141.660156 917.242188 141.183594 Z M 946.480469 133.191406 C 947.742188 128.320312 949.640625 119.027344 950.148438 116.511719 C 953.519531 116.136719 956.378906 116.121094 958.648438 116.496094 L 957.539062 120.308594 C 955.515625 125.011719 951.628906 129.523438 946.480469 133.191406 Z M 969.816406 123.878906 C 966.554688 121.21875 963.03125 120.503906 959.589844 119.921875 C 959.992188 118.839844 960.292969 117.765625 960.492188 116.714844 C 963.308594 116.859375 973.617188 117.917969 977.890625 125.550781 L 979.539062 128.492188 L 979.539062 125.117188 C 979.539062 110.417969 982.96875 88.855469 986.101562 78.878906 C 986.898438 78.75 987.703125 78.578125 988.511719 78.359375 C 987.296875 84.589844 985.570312 103.011719 985.492188 103.875 L 985.242188 106.542969 L 987.027344 104.542969 C 992.449219 98.453125 999.015625 93.183594 1004.625 90.347656 C 1004.140625 91.785156 1003.703125 93.296875 1003.316406 94.859375 C 997.484375 99.03125 986.230469 111.160156 984.601562 120.457031 C 983.300781 127.910156 986.296875 158.984375 988.339844 174.28125 C 988.785156 177.570312 989.179688 180.199219 989.519531 182.011719 C 986.785156 181.277344 983.96875 181.757812 982.378906 182.164062 C 982.488281 180.410156 982.660156 176.984375 982.660156 172.609375 C 982.648438 164.550781 982.035156 152.652344 979.160156 141.730469 C 976.828125 132.835938 973.851562 127.167969 969.816406 123.878906 Z M 1136.28125 285.242188 C 1134.5 289.878906 1131.238281 289.496094 1125.148438 288.34375 C 1120.304688 287.425781 1114.265625 286.28125 1108.0625 289.164062 C 1095.285156 295.101562 1072.996094 294.652344 1068.277344 291.03125 C 1065.785156 289.121094 1063.140625 289.628906 1059.796875 290.273438 C 1055.195312 291.160156 1048.894531 292.378906 1038.121094 289.121094 C 1019.164062 283.394531 1000.070312 288.332031 990.382812 291.78125 C 982.914062 294.4375 964 291.6875 955.925781 290.515625 C 954.070312 290.246094 952.734375 290.050781 951.953125 289.972656 C 950.632812 289.835938 948.738281 289.996094 946.53125 290.179688 C 941.210938 290.617188 933.921875 291.21875 930.398438 287.996094 C 927.667969 285.496094 923.695312 287.246094 919.855469 288.941406 C 914.316406 291.378906 910.503906 292.648438 908.085938 288.226562 C 905.988281 284.386719 903.511719 282.128906 900.507812 281.328125 C 896.363281 280.214844 891.433594 281.734375 883.476562 286.570312 C 878.46875 289.617188 874.148438 290.671875 870.644531 289.695312 C 867.199219 288.738281 865.761719 286.0625 865.75 286.039062 L 865.441406 285.441406 L 864.785156 285.578125 C 864.75 285.585938 861.375 286.269531 858.96875 284.523438 C 857.609375 283.535156 856.804688 281.921875 856.574219 279.738281 L 856.457031 278.59375 L 855.382812 279.011719 C 853.1875 279.867188 851.679688 279.902344 851.355469 279.113281 C 850.5 277.039062 854.472656 270.339844 859.148438 268.304688 C 860.445312 267.738281 861.820312 267.199219 863.144531 266.6875 C 869.09375 264.371094 875.25 261.980469 876.414062 255.757812 C 876.980469 252.742188 878.625 250.363281 881.046875 249.074219 C 883.488281 247.773438 886.503906 247.714844 889.3125 248.921875 C 895.921875 251.742188 902.441406 243.925781 904.5625 239.6875 C 909.425781 229.957031 911.792969 228.113281 912.914062 228.273438 C 913.328125 228.332031 913.71875 228.230469 914.03125 227.984375 C 914.789062 227.394531 914.925781 226.171875 915.125 224.320312 C 915.675781 219.199219 916.601562 210.632812 931.0625 211.527344 L 931.941406 211.582031 L 931.996094 210.703125 C 932.074219 209.367188 932.605469 208.285156 933.609375 207.40625 C 936.960938 204.460938 944.21875 204.921875 944.292969 204.921875 L 945.019531 204.96875 L 945.203125 204.257812 C 945.265625 204 946.957031 197.945312 955.742188 198.742188 L 955.972656 198.761719 L 956.183594 198.664062 C 959.730469 197.070312 961.039062 193.132812 962.425781 188.960938 C 964.742188 181.988281 967.375 174.109375 980.894531 173.523438 C 980.863281 179.359375 980.53125 183.261719 980.527344 183.304688 L 980.410156 184.691406 L 981.714844 184.207031 C 981.761719 184.191406 986.605469 182.425781 990.316406 184.179688 L 991.960938 184.957031 L 991.550781 183.1875 C 991.207031 181.703125 990.753906 178.941406 990.234375 175.160156 C 1001.558594 176.453125 1006.460938 182.140625 1010.796875 187.179688 C 1013.675781 190.519531 1016.164062 193.410156 1020.007812 194.324219 C 1023.148438 195.070312 1026.746094 195.371094 1030.226562 195.664062 C 1036.929688 196.226562 1043.851562 196.804688 1046.855469 200.621094 C 1048.511719 202.722656 1049.605469 205.550781 1050.65625 208.285156 C 1052.613281 213.355469 1054.636719 218.585938 1060.339844 218.585938 C 1069.289062 218.585938 1073.386719 219.832031 1074.035156 222.746094 C 1074.585938 225.21875 1077.613281 225.300781 1080.816406 225.386719 C 1084.355469 225.480469 1088.375 225.585938 1090.515625 228.375 C 1092.019531 230.320312 1093.382812 234.042969 1094.824219 237.988281 C 1097.597656 245.558594 1100.742188 254.148438 1106.738281 256.839844 L 1108.101562 257.453125 C 1116.039062 261.011719 1121.773438 263.578125 1122.542969 268.949219 C 1122.960938 271.890625 1126.113281 273.511719 1129.449219 275.238281 C 1134.839844 277.996094 1138.214844 280.191406 1136.28125 285.242188 Z M 1136.28125 285.242188 " fill-opacity="1" fill-rule="nonzero"/></svg>