<svg xmlns="http://www.w3.org/2000/svg" xmlns:xlink="http://www.w3.org/1999/xlink" width="500" zoomAndPan="magnify" viewBox="0 0 375 374.999991" height="500" preserveAspectRatio="xMidYMid meet" version="1.0"><defs><g/><clipPath id="6f9857ff0b"><path d="M 18.046875 0 L 347 0 L 347 368 L 18.046875 368 Z M 18.046875 0 " clip-rule="nonzero"/></clipPath></defs><path fill="#000000" d="M 193.769531 375.039062 C 184.363281 375.039062 175.191406 373.234375 166.507812 369.671875 L 91.894531 338.195312 L 56.855469 346.761719 C 55.523438 346.976562 54.195312 347.074219 52.875 347.074219 C 46.675781 347.074219 40.671875 344.851562 35.976562 340.820312 C 30.234375 335.902344 26.929688 328.726562 26.929688 321.144531 L 26.929688 249.335938 C 26.929688 237.101562 35.628906 226.421875 47.613281 223.941406 L 98.691406 209.246094 C 103.9375 208.144531 109.355469 207.582031 114.746094 207.582031 C 119.34375 207.582031 123.894531 207.984375 128.378906 208.777344 C 135.570312 195.410156 148.933594 185.832031 164.628906 183.878906 C 142.429688 180.96875 122.960938 173.402344 106.5625 161.261719 C 72.257812 135.878906 54.863281 93.027344 54.863281 33.910156 C 54.863281 24.335938 60.105469 15.578125 68.550781 11.054688 C 72.335938 9.035156 76.558594 7.980469 80.800781 7.980469 C 85.941406 7.980469 90.917969 9.484375 95.191406 12.335938 C 104.816406 18.75 121.058594 20.96875 138.257812 23.3125 C 178.089844 28.75 235.472656 36.585938 250.605469 111.800781 C 252.773438 108.414062 255.242188 105.207031 257.996094 102.179688 C 281.289062 76.574219 315.546875 75.832031 319.375 75.832031 C 332.289062 75.832031 343.339844 85.480469 345.078125 98.273438 C 348.9375 126.644531 343.007812 149.640625 327.449219 166.621094 C 315.199219 179.984375 299.660156 186.21875 287.046875 189.101562 C 293.855469 194.210938 287.851562 203.46875 291.175781 211.457031 C 303.34375 216.492188 312.316406 223.742188 317 236.066406 C 319.277344 237.183594 333.546875 238.753906 335.609375 240.246094 C 345.742188 247.578125 352.199219 258.445312 353.792969 270.855469 C 356.25 290.035156 346.199219 308.566406 328.777344 316.960938 L 225.160156 367.835938 C 215.34375 372.570312 204.535156 375.039062 193.769531 375.039062 Z M 193.769531 375.039062 " fill-opacity="0.35" fill-rule="nonzero"/><g clip-path="url(#6f9857ff0b)"><path fill="#f2f2f2" d="M 185.785156 367.0625 C 176.382812 367.0625 167.210938 365.253906 158.527344 361.691406 L 83.914062 330.214844 L 48.875 338.785156 C 47.542969 338.996094 46.210938 339.097656 44.894531 339.097656 C 38.695312 339.097656 32.691406 336.875 27.996094 332.839844 C 22.253906 327.925781 18.949219 320.75 18.949219 313.164062 L 18.949219 241.355469 C 18.949219 229.121094 27.648438 218.441406 39.632812 215.964844 L 90.710938 201.265625 C 95.957031 200.167969 101.371094 199.605469 106.765625 199.605469 C 111.359375 199.605469 115.914062 200.007812 120.398438 200.800781 C 127.589844 187.433594 140.953125 177.855469 156.648438 175.898438 C 134.449219 172.992188 114.980469 165.421875 98.582031 153.285156 C 64.277344 127.898438 46.882812 85.050781 46.882812 25.929688 C 46.882812 16.355469 52.125 7.601562 60.570312 3.074219 C 64.351562 1.058594 68.578125 0 72.820312 0 C 77.960938 0 82.9375 1.503906 87.210938 4.355469 C 96.835938 10.769531 113.078125 12.988281 130.277344 15.335938 C 170.109375 20.773438 227.492188 28.609375 242.625 103.824219 C 244.792969 100.4375 247.261719 97.230469 250.011719 94.199219 C 273.308594 68.597656 307.5625 67.855469 311.394531 67.855469 C 324.308594 67.855469 335.359375 77.5 337.097656 90.296875 C 340.957031 118.667969 335.027344 141.664062 319.46875 158.640625 C 307.21875 172.003906 291.679688 178.242188 279.0625 181.121094 C 285.875 186.230469 291.304688 193.109375 294.628906 201.097656 C 306.792969 206.128906 316.421875 216.03125 321.109375 228.351562 C 323.382812 229.46875 325.566406 230.777344 327.628906 232.265625 C 337.761719 239.597656 344.214844 250.464844 345.8125 262.871094 C 348.269531 282.050781 338.21875 300.582031 320.796875 308.980469 L 217.179688 359.855469 C 207.363281 364.589844 196.554688 367.0625 185.785156 367.0625 Z M 185.785156 367.0625 " fill-opacity="1" fill-rule="nonzero"/></g><path fill="#d47f56" d="M 320.082031 266.179688 C 318.675781 255.246094 308.335938 247.980469 297.769531 250.011719 C 298.097656 248.507812 298.28125 246.949219 298.28125 245.347656 C 298.28125 233.226562 288.457031 223.402344 276.335938 223.402344 C 274.8125 223.402344 273.328125 223.558594 271.894531 223.855469 C 272.1875 222.417969 272.34375 220.933594 272.34375 219.414062 C 272.34375 207.296875 262.519531 197.472656 250.398438 197.472656 C 242.582031 197.472656 235.738281 201.570312 231.847656 207.71875 C 229.210938 195.035156 217.972656 185.503906 204.507812 185.503906 C 191.242188 185.503906 180.164062 194.757812 177.308594 207.148438 C 173.417969 203.625 168.269531 201.460938 162.605469 201.460938 C 150.484375 201.460938 140.660156 211.285156 140.660156 223.402344 C 140.660156 227.691406 141.90625 231.679688 144.035156 235.0625 L 126.265625 229.308594 C 116.648438 225.457031 106.109375 224.539062 95.96875 226.660156 L 44.886719 241.355469 L 251.425781 295.214844 L 309.53125 285.625 C 316.871094 282.089844 321.121094 274.257812 320.082031 266.179688 Z M 320.082031 266.179688 " fill-opacity="1" fill-rule="nonzero"/><path fill="#ffb789" d="M 141.488281 282.714844 L 180.140625 293.019531 C 183.277344 293.855469 186.59375 293.714844 189.648438 292.621094 L 220.976562 281.375 C 227.855469 278.902344 232.441406 272.386719 232.441406 265.078125 C 232.441406 254.621094 223.238281 246.550781 212.867188 247.910156 L 170.320312 251.121094 L 121.289062 232.835938 C 111.671875 228.984375 106.109375 224.535156 95.96875 226.65625 L 44.886719 241.355469 L 44.886719 313.164062 L 80.3125 304.558594 C 84.691406 303.835938 89.1875 304.347656 93.296875 306.03125 L 168.375 337.707031 C 180.429688 342.648438 194.011719 342.242188 205.746094 336.585938 L 309.535156 285.625 C 316.875 282.085938 321.125 274.257812 320.085938 266.179688 C 318.597656 254.59375 311.851562 252.058594 300.660156 255.417969 L 229.175781 275.191406 " fill-opacity="1" fill-rule="nonzero"/><path fill="#96c362" d="M 72.820312 25.929688 C 120.707031 57.847656 220.46875 13.578125 220.46875 145.613281 C 220.46875 145.613281 72.820312 190.683594 72.820312 25.929688 Z M 72.820312 25.929688 " fill-opacity="1" fill-rule="nonzero"/><path fill="#ffe8d9" d="M 223.269531 264.34375 C 223.269531 264.914062 223.214844 265.476562 223.101562 266.035156 C 222.992188 266.59375 222.828125 267.136719 222.609375 267.660156 C 222.390625 268.1875 222.125 268.6875 221.808594 269.160156 C 221.492188 269.636719 221.132812 270.074219 220.730469 270.476562 C 220.324219 270.878906 219.886719 271.238281 219.414062 271.554688 C 218.941406 271.871094 218.441406 272.136719 217.914062 272.355469 C 217.386719 272.574219 216.84375 272.738281 216.285156 272.847656 C 215.726562 272.960938 215.164062 273.015625 214.59375 273.015625 C 214.023438 273.015625 213.460938 272.960938 212.902344 272.847656 C 212.34375 272.738281 211.800781 272.574219 211.273438 272.355469 C 210.75 272.136719 210.25 271.871094 209.773438 271.554688 C 209.300781 271.238281 208.863281 270.878906 208.460938 270.476562 C 208.058594 270.074219 207.699219 269.636719 207.382812 269.160156 C 207.066406 268.6875 206.796875 268.1875 206.578125 267.660156 C 206.359375 267.136719 206.195312 266.59375 206.085938 266.035156 C 205.972656 265.476562 205.917969 264.914062 205.917969 264.34375 C 205.917969 263.773438 205.972656 263.210938 206.085938 262.652344 C 206.195312 262.09375 206.359375 261.550781 206.578125 261.023438 C 206.796875 260.496094 207.066406 260 207.382812 259.523438 C 207.699219 259.050781 208.058594 258.613281 208.460938 258.210938 C 208.863281 257.808594 209.300781 257.449219 209.773438 257.132812 C 210.25 256.816406 210.75 256.546875 211.273438 256.332031 C 211.800781 256.113281 212.34375 255.949219 212.902344 255.835938 C 213.460938 255.726562 214.023438 255.671875 214.59375 255.671875 C 215.164062 255.671875 215.726562 255.726562 216.285156 255.835938 C 216.84375 255.949219 217.386719 256.113281 217.914062 256.332031 C 218.441406 256.546875 218.941406 256.816406 219.414062 257.132812 C 219.886719 257.449219 220.324219 257.808594 220.730469 258.210938 C 221.132812 258.613281 221.492188 259.050781 221.808594 259.523438 C 222.125 260 222.390625 260.496094 222.609375 261.023438 C 222.828125 261.550781 222.992188 262.09375 223.101562 262.652344 C 223.214844 263.210938 223.269531 263.773438 223.269531 264.34375 Z M 223.269531 264.34375 " fill-opacity="1" fill-rule="nonzero"/><path fill="#ffb789" d="M 210.300781 252.453125 C 210.300781 252.453125 208.597656 257.445312 210.105469 265.183594 C 211.574219 272.726562 217.453125 279.1875 217.453125 279.1875 L 199.917969 278.695312 L 201.582031 258.425781 Z M 210.300781 252.453125 " fill-opacity="1" fill-rule="nonzero"/><path fill="#40396e" d="M 217.257812 291.953125 C 228.324219 287.5 229.378906 275.128906 229.378906 275.128906 C 228.074219 276.695312 226.636719 277.855469 225.402344 278.375 L 195.667969 285.484375 C 181.460938 288.308594 145.171875 285.75 145.171875 285.75 L 182.425781 296.886719 C 185.179688 297.585938 188.027344 297.9375 190.894531 297.9375 C 193.359375 297.9375 195.847656 297.679688 198.304688 297.15625 L 216.621094 292.140625 C 216.835938 292.09375 217.050781 292.039062 217.257812 291.953125 Z M 217.257812 291.953125 " fill-opacity="0.35" fill-rule="nonzero"/><path stroke-linecap="round" transform="matrix(3.990465, 0, 0, 3.989362, -16.964463, -15.957447)" fill="none" stroke-linejoin="round" d="M 84.462966 70.722376 C 84.110563 67.981689 81.519426 66.160439 78.871512 66.669605 C 78.953739 66.292626 78.999747 65.901939 78.999747 65.50048 C 78.999747 62.462126 76.537824 59.999522 73.50031 59.999522 C 73.11854 59.999522 72.74656 60.038689 72.387305 60.113105 C 72.460722 59.752772 72.499878 59.380689 72.499878 58.999793 C 72.499878 55.962418 70.037955 53.499813 67.00044 53.499813 C 65.041669 53.499813 63.326644 54.526959 62.351663 56.068168 C 61.690908 52.888813 58.874625 50.499647 55.50037 50.499647 C 52.176039 50.499647 49.39989 52.819293 48.684318 55.925209 C 47.709337 55.042001 46.419152 54.499543 44.999753 54.499543 C 41.962239 54.499543 39.500315 56.962147 39.500315 59.999522 C 39.500315 61.074647 39.812583 62.074376 40.346082 62.922334 L 35.893084 61.480022 C 33.483042 60.514564 30.84198 60.284459 28.300766 60.816147 L 15.499744 64.499772 L 15.499744 82.499793 L 24.377351 80.342689 C 25.474694 80.161543 26.601403 80.289814 27.631202 80.711835 L 46.445582 88.651897 C 49.466455 89.890543 52.870077 89.78871 55.81068 88.370877 L 81.819947 75.596668 C 83.658313 74.710522 84.723352 72.747293 84.462966 70.722376 Z M 84.462966 70.722376 " stroke="#40396e" stroke-width="3" stroke-opacity="1" stroke-miterlimit="10"/><path stroke-linecap="round" transform="matrix(3.990465, 0, 0, 3.989362, -16.964463, -15.957447)" fill="none" stroke-linejoin="round" d="M 59.289677 40.28498 C 61.216144 44.186959 62.351663 49.233584 62.351663 56.069147 C 62.351663 56.069147 64.831207 48.630418 68.989557 43.132397 " stroke="#40396e" stroke-width="3" stroke-opacity="1" stroke-miterlimit="10"/><path fill="#96c362" d="M 311.394531 93.789062 C 311.394531 93.789062 250.761719 93.789062 256.824219 157.617188 C 256.824219 157.617188 320.488281 160.65625 311.394531 93.789062 Z M 311.394531 93.789062 " fill-opacity="1" fill-rule="nonzero"/><path fill="#739f4d" d="M 258.339844 156.109375 L 309.878906 95.433594 L 312.910156 116.667969 L 303.816406 137.902344 L 282.597656 153.074219 L 261.371094 159.140625 Z M 258.339844 156.109375 " fill-opacity="1" fill-rule="nonzero"/><path stroke-linecap="round" transform="matrix(3.990465, 0, 0, 3.989362, -16.964463, -15.957447)" fill="none" stroke-linejoin="round" d="M 82.285901 27.509792 C 82.285901 27.509792 67.091478 27.509792 68.610724 43.509376 C 68.610724 43.509376 84.564771 44.271167 82.285901 27.509792 Z M 82.285901 27.509792 " stroke="#40396e" stroke-width="3" stroke-opacity="1" stroke-miterlimit="10"/><path fill="#739f4d" d="M 78.460938 29.226562 C 78.460938 87.015625 190.765625 76.246094 218.074219 148.757812 L 167.628906 151.25 L 117.59375 137.835938 L 85.210938 95.4375 L 72.820312 48.273438 C 72.820312 48.273438 78.460938 24.773438 78.460938 29.226562 Z M 78.460938 29.226562 " fill-opacity="1" fill-rule="nonzero"/><path stroke-linecap="round" transform="matrix(3.990465, 0, 0, 3.989362, -16.964463, -15.957447)" fill="none" stroke-linejoin="round" d="M 22.499829 10.499708 C 34.500115 18.500479 59.500139 7.403583 59.500139 40.500397 C 59.500139 40.500397 22.499829 51.798022 22.499829 10.499708 Z M 22.499829 10.499708 " stroke="#40396e" stroke-width="3" stroke-opacity="1" stroke-miterlimit="10"/><g fill="#000000" fill-opacity="1"><g transform="translate(37.500002, 312.78347)"><g><path d="M 3.703125 0.125 C 3.234375 0.125 2.820312 0.03125 2.46875 -0.15625 C 2.113281 -0.351562 1.84375 -0.613281 1.65625 -0.9375 C 1.46875 -1.269531 1.375 -1.648438 1.375 -2.078125 C 1.375 -2.492188 1.46875 -2.867188 1.65625 -3.203125 C 1.84375 -3.535156 2.113281 -3.796875 2.46875 -3.984375 C 2.820312 -4.171875 3.234375 -4.265625 3.703125 -4.265625 C 4.171875 -4.265625 4.582031 -4.171875 4.9375 -3.984375 C 5.289062 -3.796875 5.5625 -3.535156 5.75 -3.203125 C 5.9375 -2.878906 6.03125 -2.503906 6.03125 -2.078125 C 6.03125 -1.441406 5.816406 -0.914062 5.390625 -0.5 C 4.972656 -0.0820312 4.410156 0.125 3.703125 0.125 Z M 3.703125 0.125 "/></g></g></g></svg>