<svg xmlns="http://www.w3.org/2000/svg" xmlns:xlink="http://www.w3.org/1999/xlink" width="500" zoomAndPan="magnify" viewBox="0 0 375 374.999991" height="500" preserveAspectRatio="xMidYMid meet" version="1.0"><defs><g/><clipPath id="ef2726d2bf"><path d="M 171 186 L 201 186 L 201 248.25 L 171 248.25 Z M 171 186 " clip-rule="nonzero"/></clipPath><clipPath id="73547dc750"><path d="M 125 186 L 156 186 L 156 248.25 L 125 248.25 Z M 125 186 " clip-rule="nonzero"/></clipPath><clipPath id="91affb768a"><path d="M 217 186 L 247 186 L 247 248.25 L 217 248.25 Z M 217 186 " clip-rule="nonzero"/></clipPath><clipPath id="35fd66366d"><path d="M 66.589844 37.5 L 311.839844 37.5 L 311.839844 194 L 66.589844 194 Z M 66.589844 37.5 " clip-rule="nonzero"/></clipPath><clipPath id="3174817f28"><path d="M 36.425781 0 L 337.5 0 L 337.5 301.074219 L 36.425781 301.074219 Z M 36.425781 0 " clip-rule="nonzero"/></clipPath><clipPath id="dbf5771725"><path d="M 186.960938 0 C 270.101562 0 337.5 67.398438 337.5 150.539062 C 337.5 233.675781 270.101562 301.074219 186.960938 301.074219 C 103.824219 301.074219 36.425781 233.675781 36.425781 150.539062 C 36.425781 67.398438 103.824219 0 186.960938 0 L 186.960938 24.085938 C 117.125 24.085938 60.511719 80.699219 60.511719 150.539062 C 60.511719 220.375 117.125 276.988281 186.960938 276.988281 C 256.800781 276.988281 313.414062 220.375 313.414062 150.539062 C 313.414062 80.699219 256.800781 24.085938 186.960938 24.085938 Z M 186.960938 0 " clip-rule="nonzero"/></clipPath><clipPath id="c7de6c16ed"><path d="M 178 0 L 338 0 L 338 301.074219 L 178 301.074219 Z M 178 0 " clip-rule="nonzero"/></clipPath><clipPath id="6d741a5a2f"><path d="M 200.050781 0.570312 C 279.636719 7.515625 339.933594 75.417969 337.425781 155.265625 C 334.917969 235.113281 270.472656 299.09375 190.609375 301.03125 C 183.960938 301.191406 178.441406 295.933594 178.277344 289.285156 C 178.117188 282.632812 183.378906 277.113281 190.027344 276.953125 C 257.113281 275.328125 311.242188 221.582031 313.351562 154.511719 C 315.460938 87.4375 264.808594 30.398438 197.957031 24.566406 C 191.332031 23.988281 186.429688 18.144531 187.007812 11.519531 C 187.585938 4.894531 193.425781 -0.0078125 200.050781 0.570312 Z M 200.050781 0.570312 " clip-rule="nonzero"/></clipPath><clipPath id="98bf5a79de"><path d="M 271 311.601562 L 298.785156 311.601562 L 298.785156 363.351562 L 271 363.351562 Z M 271 311.601562 " clip-rule="nonzero"/></clipPath><clipPath id="8ad678d177"><path d="M 80 311.601562 L 107 311.601562 L 107 363.351562 L 80 363.351562 Z M 80 311.601562 " clip-rule="nonzero"/></clipPath></defs><g clip-path="url(#ef2726d2bf)"><path fill="#d9d9d9" d="M 191.554688 186.714844 L 180.765625 186.714844 C 180.382812 186.714844 180.066406 187.027344 180.066406 187.414062 L 180.066406 222.019531 C 180.066406 222.40625 179.753906 222.71875 179.371094 222.71875 L 172.183594 222.71875 C 171.648438 222.71875 171.3125 223.300781 171.582031 223.765625 L 185.554688 247.96875 C 185.824219 248.433594 186.496094 248.433594 186.765625 247.96875 L 200.738281 223.765625 C 201.007812 223.300781 200.671875 222.71875 200.136719 222.71875 L 192.949219 222.71875 C 192.5625 222.71875 192.25 222.40625 192.25 222.019531 L 192.25 187.414062 C 192.25 187.027344 191.9375 186.714844 191.554688 186.714844 " fill-opacity="1" fill-rule="nonzero"/></g><g clip-path="url(#73547dc750)"><path fill="#d9d9d9" d="M 145.800781 186.714844 L 135.011719 186.714844 C 134.628906 186.714844 134.316406 187.027344 134.316406 187.414062 L 134.316406 222.019531 C 134.316406 222.40625 134.003906 222.71875 133.617188 222.71875 L 126.429688 222.71875 C 125.894531 222.71875 125.558594 223.300781 125.828125 223.765625 L 139.800781 247.96875 C 140.070312 248.433594 140.742188 248.433594 141.007812 247.96875 L 154.984375 223.765625 C 155.253906 223.300781 154.917969 222.71875 154.382812 222.71875 L 147.195312 222.71875 C 146.8125 222.71875 146.496094 222.40625 146.496094 222.019531 L 146.496094 187.414062 C 146.496094 187.027344 146.183594 186.714844 145.800781 186.714844 " fill-opacity="1" fill-rule="nonzero"/></g><g clip-path="url(#91affb768a)"><path fill="#d9d9d9" d="M 238.007812 222.019531 L 238.003906 187.414062 C 238.003906 187.027344 237.691406 186.714844 237.308594 186.714844 L 226.519531 186.714844 C 226.136719 186.714844 225.824219 187.027344 225.824219 187.414062 L 225.824219 222.019531 C 225.824219 222.40625 225.511719 222.71875 225.125 222.71875 L 217.9375 222.71875 C 217.402344 222.71875 217.066406 223.300781 217.335938 223.765625 L 231.308594 247.96875 C 231.578125 248.433594 232.25 248.433594 232.519531 247.96875 L 246.492188 223.765625 C 246.761719 223.300781 246.425781 222.71875 245.890625 222.71875 L 238.703125 222.71875 C 238.316406 222.71875 238.007812 222.40625 238.007812 222.019531 " fill-opacity="1" fill-rule="nonzero"/></g><g clip-path="url(#35fd66366d)"><path fill="#d9d9d9" d="M 267.066406 178.964844 L 120.765625 178.964844 C 99.503906 178.964844 82.273438 161.730469 82.273438 140.476562 C 82.273438 119.785156 98.601562 102.914062 119.074219 102.027344 C 119.050781 101.355469 119.023438 100.675781 119.023438 99.996094 C 119.023438 73.390625 140.59375 51.824219 167.199219 51.824219 C 184.351562 51.824219 199.402344 60.796875 207.9375 74.296875 C 213.539062 71.140625 220 69.332031 226.886719 69.332031 C 248.253906 69.332031 265.574219 86.652344 265.574219 108.019531 C 265.574219 112.332031 264.859375 116.472656 263.558594 120.34375 C 264.707031 120.207031 265.875 120.128906 267.066406 120.128906 C 283.308594 120.128906 296.480469 133.300781 296.480469 149.546875 C 296.480469 165.792969 283.308594 178.964844 267.066406 178.964844 Z M 280.226562 109.230469 C 280.242188 108.753906 280.25 108.28125 280.25 107.804688 C 280.25 78.984375 256.800781 55.539062 227.984375 55.539062 C 222.722656 55.539062 217.5 56.339844 212.507812 57.882812 C 200.855469 44.976562 184.320312 37.519531 166.550781 37.519531 C 135.265625 37.519531 109.320312 60.800781 105.117188 90.945312 C 82.851562 96.925781 66.699219 117.179688 66.699219 141.207031 C 66.699219 169.914062 90.054688 193.269531 118.757812 193.269531 L 269.332031 193.269531 C 292.890625 193.269531 312.058594 174.101562 312.058594 150.542969 C 312.058594 130.75 298.527344 114.058594 280.226562 109.230469 " fill-opacity="1" fill-rule="nonzero"/></g><path fill="#d9d9d9" d="M 158.75 151.128906 C 153.917969 151.128906 149.714844 150.140625 146.136719 148.164062 C 142.558594 146.1875 139.796875 143.378906 137.855469 139.738281 C 135.90625 136.101562 134.933594 131.832031 134.933594 126.9375 C 134.933594 123.234375 135.484375 119.921875 136.582031 117.003906 C 137.679688 114.089844 139.265625 111.609375 141.335938 109.570312 C 143.40625 107.53125 145.917969 105.960938 148.867188 104.859375 C 151.816406 103.765625 155.109375 103.214844 158.75 103.214844 C 160.824219 103.214844 163.066406 103.496094 165.480469 104.0625 C 167.898438 104.628906 170.171875 105.566406 172.304688 106.886719 C 173.3125 107.515625 173.96875 108.269531 174.285156 109.144531 C 174.597656 110.023438 174.660156 110.917969 174.472656 111.828125 C 174.285156 112.738281 173.890625 113.523438 173.292969 114.179688 C 172.699219 114.839844 171.960938 115.25 171.082031 115.40625 C 170.203125 115.5625 169.230469 115.355469 168.164062 114.792969 C 166.785156 113.980469 165.371094 113.367188 163.925781 112.957031 C 162.484375 112.550781 161.105469 112.34375 159.785156 112.34375 C 157.714844 112.34375 155.894531 112.675781 154.328125 113.335938 C 152.757812 113.992188 151.421875 114.933594 150.324219 116.15625 C 149.226562 117.382812 148.394531 118.90625 147.828125 120.722656 C 147.265625 122.546875 146.984375 124.648438 146.984375 127.03125 C 146.984375 131.675781 148.097656 135.332031 150.324219 137.996094 C 152.550781 140.664062 155.707031 142 159.785156 142 C 161.105469 142 162.46875 141.808594 163.878906 141.433594 C 165.292969 141.058594 166.722656 140.460938 168.164062 139.644531 C 169.230469 139.078125 170.1875 138.890625 171.035156 139.078125 C 171.882812 139.269531 172.585938 139.691406 173.152344 140.351562 C 173.71875 141.007812 174.0625 141.796875 174.1875 142.703125 C 174.3125 143.613281 174.203125 144.507812 173.859375 145.386719 C 173.515625 146.265625 172.871094 146.988281 171.929688 147.554688 C 169.859375 148.808594 167.660156 149.714844 165.339844 150.28125 C 163.019531 150.847656 160.824219 151.128906 158.75 151.128906 " fill-opacity="1" fill-rule="nonzero"/><path fill="#d9d9d9" d="M 201.957031 142.1875 C 204.277344 142.1875 206.316406 141.621094 208.078125 140.492188 C 209.832031 139.363281 211.199219 137.683594 212.171875 135.453125 C 213.144531 133.230469 213.628906 130.449219 213.628906 127.125 C 213.628906 122.105469 212.5625 118.355469 210.429688 115.875 C 208.292969 113.398438 205.46875 112.15625 201.957031 112.15625 C 199.636719 112.15625 197.59375 112.707031 195.839844 113.804688 C 194.082031 114.902344 192.714844 116.566406 191.746094 118.792969 C 190.769531 121.023438 190.285156 123.796875 190.285156 127.125 C 190.285156 132.082031 191.351562 135.832031 193.484375 138.375 C 195.617188 140.914062 198.441406 142.1875 201.957031 142.1875 Z M 201.957031 151.128906 C 197.1875 151.128906 193.046875 150.15625 189.53125 148.210938 C 186.015625 146.265625 183.289062 143.488281 181.339844 139.878906 C 179.398438 136.273438 178.425781 132.019531 178.425781 127.125 C 178.425781 123.425781 178.972656 120.113281 180.070312 117.191406 C 181.167969 114.277344 182.753906 111.765625 184.824219 109.664062 C 186.894531 107.5625 189.375 105.960938 192.261719 104.859375 C 195.148438 103.765625 198.378906 103.214844 201.957031 103.214844 C 206.726562 103.214844 210.867188 104.1875 214.382812 106.132812 C 217.898438 108.078125 220.628906 110.839844 222.570312 114.417969 C 224.519531 117.996094 225.488281 122.230469 225.488281 127.125 C 225.488281 130.828125 224.941406 134.152344 223.84375 137.101562 C 222.742188 140.050781 221.160156 142.578125 219.089844 144.683594 C 217.019531 146.78125 214.539062 148.386719 211.652344 149.480469 C 208.765625 150.578125 205.535156 151.128906 201.957031 151.128906 " fill-opacity="1" fill-rule="nonzero"/><path fill="#d9d9d9" d="M 231.171875 159.742188 C 230.171875 159.742188 229.453125 159.507812 229.011719 159.046875 C 228.570312 158.582031 228.347656 157.894531 228.347656 156.988281 C 228.347656 156.355469 228.488281 155.785156 228.773438 155.289062 C 229.058594 154.789062 229.421875 154.300781 229.878906 153.828125 L 235.828125 147.605469 C 236.710938 146.652344 237.339844 145.835938 237.714844 145.15625 C 238.089844 144.476562 238.277344 143.796875 238.277344 143.117188 C 238.277344 142.257812 237.992188 141.609375 237.425781 141.179688 C 236.859375 140.75 236.042969 140.535156 234.976562 140.535156 C 234.433594 140.535156 233.855469 140.605469 233.246094 140.753906 C 232.632812 140.902344 231.972656 141.15625 231.269531 141.519531 C 230.660156 141.789062 230.109375 141.871094 229.625 141.757812 C 229.136719 141.644531 228.726562 141.394531 228.398438 141.007812 C 228.070312 140.625 227.867188 140.179688 227.789062 139.683594 C 227.707031 139.183594 227.78125 138.691406 228.007812 138.203125 C 228.234375 137.71875 228.644531 137.316406 229.230469 137 C 230.277344 136.433594 231.359375 136.023438 232.476562 135.773438 C 233.601562 135.527344 234.726562 135.398438 235.863281 135.398438 C 237.71875 135.398438 239.277344 135.671875 240.535156 136.214844 C 241.796875 136.761719 242.753906 137.546875 243.410156 138.578125 C 244.066406 139.609375 244.394531 140.882812 244.394531 142.402344 C 244.394531 143.355469 244.253906 144.285156 243.972656 145.191406 C 243.6875 146.097656 243.234375 147.003906 242.609375 147.910156 C 241.988281 148.816406 241.15625 149.78125 240.109375 150.800781 L 234.601562 156.242188 L 234.601562 154.675781 L 243.003906 154.675781 C 243.839844 154.675781 244.480469 154.890625 244.921875 155.324219 C 245.367188 155.753906 245.585938 156.375 245.585938 157.191406 C 245.585938 158.007812 245.367188 158.636719 244.921875 159.082031 C 244.480469 159.523438 243.839844 159.742188 243.003906 159.742188 L 231.171875 159.742188 " fill-opacity="1" fill-rule="nonzero"/><g clip-path="url(#3174817f28)"><g clip-path="url(#dbf5771725)"><path fill="#d9d9d9" d="M 36.425781 0 L 337.5 0 L 337.5 301.074219 L 36.425781 301.074219 Z M 36.425781 0 " fill-opacity="1" fill-rule="nonzero"/></g></g><g clip-path="url(#c7de6c16ed)"><g clip-path="url(#6d741a5a2f)"><path fill="#41b8d5" d="M 36.425781 0 L 337.5 0 L 337.5 301.074219 L 36.425781 301.074219 Z M 36.425781 0 " fill-opacity="1" fill-rule="nonzero"/></g></g><path fill="#ffffff" d="M 106.085938 312.089844 L 272.507812 312.089844 C 273.335938 312.089844 274.167969 312.132812 274.992188 312.214844 C 275.820312 312.292969 276.640625 312.417969 277.457031 312.578125 C 278.269531 312.742188 279.078125 312.941406 279.871094 313.183594 C 280.667969 313.425781 281.449219 313.703125 282.214844 314.023438 C 282.984375 314.339844 283.734375 314.695312 284.464844 315.085938 C 285.199219 315.476562 285.910156 315.90625 286.601562 316.367188 C 287.292969 316.828125 287.960938 317.320312 288.601562 317.847656 C 289.246094 318.375 289.859375 318.933594 290.445312 319.519531 C 291.035156 320.109375 291.589844 320.722656 292.117188 321.363281 C 292.644531 322.007812 293.140625 322.675781 293.601562 323.363281 C 294.0625 324.054688 294.492188 324.765625 294.882812 325.5 C 295.273438 326.234375 295.628906 326.984375 295.945312 327.75 C 296.265625 328.519531 296.542969 329.300781 296.785156 330.09375 C 297.027344 330.890625 297.226562 331.695312 297.390625 332.507812 C 297.550781 333.324219 297.675781 334.144531 297.753906 334.972656 C 297.835938 335.796875 297.878906 336.625 297.878906 337.457031 C 297.878906 338.289062 297.835938 339.117188 297.753906 339.945312 C 297.675781 340.769531 297.550781 341.589844 297.390625 342.40625 C 297.226562 343.222656 297.027344 344.027344 296.785156 344.820312 C 296.542969 345.617188 296.265625 346.398438 295.945312 347.164062 C 295.628906 347.933594 295.273438 348.683594 294.882812 349.414062 C 294.492188 350.148438 294.0625 350.859375 293.601562 351.550781 C 293.140625 352.242188 292.644531 352.90625 292.117188 353.550781 C 291.589844 354.191406 291.035156 354.808594 290.445312 355.394531 C 289.859375 355.980469 289.246094 356.539062 288.601562 357.066406 C 287.960938 357.59375 287.292969 358.085938 286.601562 358.550781 C 285.910156 359.011719 285.199219 359.4375 284.464844 359.828125 C 283.734375 360.21875 282.984375 360.574219 282.214844 360.894531 C 281.449219 361.210938 280.667969 361.492188 279.871094 361.730469 C 279.078125 361.972656 278.269531 362.175781 277.457031 362.335938 C 276.640625 362.5 275.820312 362.621094 274.992188 362.703125 C 274.167969 362.785156 273.335938 362.824219 272.507812 362.824219 L 106.085938 362.824219 C 105.253906 362.824219 104.425781 362.785156 103.597656 362.703125 C 102.769531 362.621094 101.949219 362.5 101.136719 362.335938 C 100.320312 362.175781 99.515625 361.972656 98.71875 361.730469 C 97.925781 361.492188 97.144531 361.210938 96.375 360.894531 C 95.609375 360.574219 94.855469 360.21875 94.125 359.828125 C 93.390625 359.4375 92.679688 359.011719 91.988281 358.550781 C 91.296875 358.085938 90.632812 357.59375 89.988281 357.066406 C 89.347656 356.539062 88.730469 355.980469 88.144531 355.394531 C 87.558594 354.808594 87 354.191406 86.472656 353.550781 C 85.945312 352.90625 85.449219 352.242188 84.988281 351.550781 C 84.527344 350.859375 84.101562 350.148438 83.710938 349.414062 C 83.316406 348.683594 82.960938 347.933594 82.644531 347.164062 C 82.328125 346.398438 82.046875 345.617188 81.804688 344.820312 C 81.566406 344.027344 81.363281 343.222656 81.199219 342.40625 C 81.039062 341.589844 80.917969 340.769531 80.835938 339.945312 C 80.753906 339.117188 80.714844 338.289062 80.714844 337.457031 C 80.714844 336.625 80.753906 335.796875 80.835938 334.972656 C 80.917969 334.144531 81.039062 333.324219 81.199219 332.507812 C 81.363281 331.695312 81.566406 330.890625 81.804688 330.09375 C 82.046875 329.300781 82.328125 328.519531 82.644531 327.75 C 82.960938 326.984375 83.316406 326.234375 83.710938 325.5 C 84.101562 324.765625 84.527344 324.054688 84.988281 323.363281 C 85.449219 322.675781 85.945312 322.007812 86.472656 321.363281 C 87 320.722656 87.558594 320.109375 88.144531 319.519531 C 88.730469 318.933594 89.347656 318.375 89.988281 317.847656 C 90.632812 317.320312 91.296875 316.828125 91.988281 316.367188 C 92.679688 315.90625 93.390625 315.476562 94.125 315.085938 C 94.855469 314.695312 95.609375 314.339844 96.375 314.023438 C 97.144531 313.703125 97.925781 313.425781 98.71875 313.183594 C 99.515625 312.941406 100.320312 312.742188 101.136719 312.578125 C 101.949219 312.417969 102.769531 312.292969 103.597656 312.214844 C 104.425781 312.132812 105.253906 312.089844 106.085938 312.089844 Z M 106.085938 312.089844 " fill-opacity="1" fill-rule="nonzero"/><g clip-path="url(#98bf5a79de)"><path fill="#0058aa" d="M 272.507812 363.339844 C 272.222656 363.339844 271.996094 363.113281 271.996094 362.828125 C 271.996094 362.546875 272.226562 362.316406 272.507812 362.316406 C 286.214844 362.316406 297.363281 351.167969 297.363281 337.464844 C 297.363281 323.757812 286.214844 312.609375 272.507812 312.609375 C 272.222656 312.609375 271.996094 312.382812 271.996094 312.101562 C 271.996094 311.816406 272.226562 311.589844 272.507812 311.589844 C 286.777344 311.589844 298.386719 323.199219 298.386719 337.46875 C 298.386719 351.738281 286.777344 363.347656 272.507812 363.347656 Z M 272.507812 363.339844 " fill-opacity="1" fill-rule="nonzero"/></g><g clip-path="url(#8ad678d177)"><path fill="#0058aa" d="M 106.082031 363.339844 C 91.808594 363.339844 80.199219 351.726562 80.199219 337.460938 C 80.199219 323.191406 91.808594 311.582031 106.082031 311.582031 C 106.363281 311.582031 106.589844 311.808594 106.589844 312.089844 C 106.589844 312.375 106.359375 312.601562 106.082031 312.601562 C 92.375 312.601562 81.222656 323.75 81.222656 337.457031 C 81.222656 351.160156 92.375 362.308594 106.082031 362.308594 C 106.363281 362.308594 106.589844 362.535156 106.589844 362.820312 C 106.589844 363.105469 106.359375 363.332031 106.082031 363.332031 Z M 106.082031 363.339844 " fill-opacity="1" fill-rule="nonzero"/></g><g fill="#41b8d5" fill-opacity="1"><g transform="translate(110.634657, 352.499977)"><g><path d="M 0.984375 -13.484375 L 0.984375 -16.84375 L 4.8125 -16.84375 L 4.8125 -24.484375 L 4.515625 -24.5625 C 3.984375 -24.28125 3.445312 -24.054688 2.90625 -23.890625 C 2.375 -23.734375 1.789062 -23.609375 1.15625 -23.515625 L 1.15625 -26.875 C 1.90625 -27.007812 2.648438 -27.222656 3.390625 -27.515625 C 4.140625 -27.816406 4.8125 -28.171875 5.40625 -28.578125 L 8.90625 -28.578125 L 8.90625 -16.84375 L 12.3125 -16.84375 L 12.3125 -13.484375 Z M 10.390625 0 L 5.625 0 L 5.546875 -0.40625 L 24.65625 -28.5625 L 29.40625 -28.5625 L 29.484375 -28.140625 Z M 23.046875 -1.59375 C 23.046875 -2.46875 23.144531 -3.210938 23.34375 -3.828125 C 23.539062 -4.453125 23.847656 -5.007812 24.265625 -5.5 C 24.679688 -6 25.25 -6.507812 25.96875 -7.03125 L 28.25 -8.703125 C 28.832031 -9.117188 29.238281 -9.476562 29.46875 -9.78125 C 29.707031 -10.082031 29.828125 -10.421875 29.828125 -10.796875 C 29.828125 -11.191406 29.691406 -11.5 29.421875 -11.71875 C 29.148438 -11.945312 28.738281 -12.0625 28.1875 -12.0625 C 27.550781 -12.0625 26.96875 -11.910156 26.4375 -11.609375 C 25.914062 -11.304688 25.488281 -10.90625 25.15625 -10.40625 L 24.75 -10.375 L 22.703125 -12.734375 C 23.234375 -13.515625 23.992188 -14.164062 24.984375 -14.6875 C 25.984375 -15.21875 27.179688 -15.484375 28.578125 -15.484375 C 30.441406 -15.484375 31.828125 -15.085938 32.734375 -14.296875 C 33.640625 -13.515625 34.09375 -12.484375 34.09375 -11.203125 C 34.09375 -10.515625 33.960938 -9.898438 33.703125 -9.359375 C 33.453125 -8.816406 33.082031 -8.304688 32.59375 -7.828125 C 32.101562 -7.347656 31.445312 -6.804688 30.625 -6.203125 L 28.75 -4.828125 C 28.375 -4.546875 28.101562 -4.296875 27.9375 -4.078125 C 27.78125 -3.867188 27.703125 -3.628906 27.703125 -3.359375 L 33.828125 -3.359375 L 33.828125 0 L 23.046875 0 Z M 23.046875 -1.59375 "/></g></g></g><g fill="#41b8d5" fill-opacity="1"><g transform="translate(145.924183, 352.499977)"><g/></g></g><g fill="#41b8d5" fill-opacity="1"><g transform="translate(155.356861, 352.499977)"><g><path d="M 14.859375 -5.140625 L 16.265625 -1.140625 C 15.679688 -0.648438 14.945312 -0.269531 14.0625 0 C 13.175781 0.269531 12.175781 0.40625 11.0625 0.40625 C 8.726562 0.40625 6.953125 -0.226562 5.734375 -1.5 C 4.523438 -2.769531 3.921875 -4.613281 3.921875 -7.03125 L 3.921875 -17.265625 L 0.640625 -17.265625 L 0.640625 -21.5625 L 3.921875 -21.5625 L 3.921875 -25.765625 L 9.34375 -26.640625 L 9.34375 -21.5625 L 15.453125 -21.5625 L 15.453125 -17.265625 L 9.34375 -17.265625 L 9.34375 -7.421875 C 9.34375 -6.359375 9.5625 -5.582031 10 -5.09375 C 10.445312 -4.601562 11.09375 -4.359375 11.9375 -4.359375 C 12.894531 -4.359375 13.734375 -4.617188 14.453125 -5.140625 Z M 14.859375 -5.140625 "/></g></g></g><g fill="#41b8d5" fill-opacity="1"><g transform="translate(172.093511, 352.499977)"><g><path d="M 15.609375 0.40625 C 12.972656 0.40625 10.648438 -0.140625 8.640625 -1.234375 C 6.640625 -2.328125 5.070312 -3.96875 3.9375 -6.15625 C 2.8125 -8.351562 2.25 -11.0625 2.25 -14.28125 C 2.25 -17.5 2.8125 -20.203125 3.9375 -22.390625 C 5.070312 -24.585938 6.640625 -26.234375 8.640625 -27.328125 C 10.648438 -28.421875 12.972656 -28.96875 15.609375 -28.96875 C 18.359375 -28.96875 20.691406 -28.429688 22.609375 -27.359375 C 24.523438 -26.285156 25.894531 -24.644531 26.71875 -22.4375 L 22.59375 -19.921875 L 22.109375 -19.9375 C 21.492188 -21.425781 20.660156 -22.492188 19.609375 -23.140625 C 18.566406 -23.785156 17.234375 -24.109375 15.609375 -24.109375 C 13.234375 -24.109375 11.378906 -23.320312 10.046875 -21.75 C 8.722656 -20.175781 8.0625 -17.6875 8.0625 -14.28125 C 8.0625 -10.882812 8.722656 -8.398438 10.046875 -6.828125 C 11.378906 -5.253906 13.234375 -4.46875 15.609375 -4.46875 C 19.316406 -4.46875 21.585938 -6.273438 22.421875 -9.890625 L 22.90625 -9.890625 L 27.078125 -7.71875 C 26.296875 -5.007812 24.957031 -2.976562 23.0625 -1.625 C 21.175781 -0.269531 18.691406 0.40625 15.609375 0.40625 Z M 15.609375 0.40625 "/></g></g></g><g fill="#41b8d5" fill-opacity="1"><g transform="translate(200.098587, 352.499977)"><g><path d="M 15.5625 0.40625 C 12.945312 0.40625 10.640625 -0.125 8.640625 -1.1875 C 6.640625 -2.257812 5.070312 -3.890625 3.9375 -6.078125 C 2.8125 -8.273438 2.25 -11.007812 2.25 -14.28125 C 2.25 -17.550781 2.8125 -20.28125 3.9375 -22.46875 C 5.070312 -24.664062 6.640625 -26.296875 8.640625 -27.359375 C 10.640625 -28.429688 12.945312 -28.96875 15.5625 -28.96875 C 18.1875 -28.96875 20.492188 -28.4375 22.484375 -27.375 C 24.472656 -26.3125 26.03125 -24.679688 27.15625 -22.484375 C 28.28125 -20.285156 28.84375 -17.550781 28.84375 -14.28125 C 28.84375 -11.007812 28.28125 -8.273438 27.15625 -6.078125 C 26.03125 -3.878906 24.472656 -2.25 22.484375 -1.1875 C 20.492188 -0.125 18.1875 0.40625 15.5625 0.40625 Z M 15.5625 -4.5 C 17.988281 -4.5 19.835938 -5.273438 21.109375 -6.828125 C 22.390625 -8.378906 23.03125 -10.863281 23.03125 -14.28125 C 23.03125 -17.6875 22.390625 -20.171875 21.109375 -21.734375 C 19.835938 -23.296875 17.988281 -24.078125 15.5625 -24.078125 C 13.132812 -24.078125 11.273438 -23.296875 9.984375 -21.734375 C 8.703125 -20.171875 8.0625 -17.6875 8.0625 -14.28125 C 8.0625 -10.863281 8.703125 -8.378906 9.984375 -6.828125 C 11.273438 -5.273438 13.132812 -4.5 15.5625 -4.5 Z M 15.5625 -4.5 "/></g></g></g><g fill="#41b8d5" fill-opacity="1"><g transform="translate(231.208833, 352.499977)"><g><path d="M 1.1875 0.84375 C 1.1875 -0.03125 1.285156 -0.773438 1.484375 -1.390625 C 1.679688 -2.015625 1.988281 -2.570312 2.40625 -3.0625 C 2.820312 -3.5625 3.390625 -4.070312 4.109375 -4.59375 L 6.390625 -6.265625 C 6.972656 -6.679688 7.378906 -7.039062 7.609375 -7.34375 C 7.847656 -7.644531 7.96875 -7.984375 7.96875 -8.359375 C 7.96875 -8.753906 7.832031 -9.0625 7.5625 -9.28125 C 7.289062 -9.507812 6.878906 -9.625 6.328125 -9.625 C 5.691406 -9.625 5.109375 -9.472656 4.578125 -9.171875 C 4.054688 -8.867188 3.628906 -8.46875 3.296875 -7.96875 L 2.890625 -7.9375 L 0.84375 -10.296875 C 1.375 -11.078125 2.132812 -11.726562 3.125 -12.25 C 4.125 -12.78125 5.320312 -13.046875 6.71875 -13.046875 C 8.582031 -13.046875 9.96875 -12.648438 10.875 -11.859375 C 11.78125 -11.078125 12.234375 -10.046875 12.234375 -8.765625 C 12.234375 -8.078125 12.101562 -7.460938 11.84375 -6.921875 C 11.59375 -6.378906 11.222656 -5.867188 10.734375 -5.390625 C 10.242188 -4.910156 9.585938 -4.367188 8.765625 -3.765625 L 6.890625 -2.390625 C 6.515625 -2.109375 6.242188 -1.859375 6.078125 -1.640625 C 5.921875 -1.429688 5.84375 -1.191406 5.84375 -0.921875 L 11.96875 -0.921875 L 11.96875 2.4375 L 1.1875 2.4375 Z M 1.1875 0.84375 "/></g></g></g><g fill="#41b8d5" fill-opacity="1"><g transform="translate(244.64502, 352.499977)"><g><path d="M 21.296875 -9.546875 L 7.4375 -9.546875 C 7.59375 -7.671875 8.125 -6.304688 9.03125 -5.453125 C 9.945312 -4.609375 11.195312 -4.1875 12.78125 -4.1875 C 14.007812 -4.1875 15.007812 -4.414062 15.78125 -4.875 C 16.550781 -5.332031 17.171875 -6.03125 17.640625 -6.96875 L 18.046875 -6.96875 L 21.640625 -4.671875 C 20.941406 -3.160156 19.878906 -1.9375 18.453125 -1 C 17.035156 -0.0625 15.144531 0.40625 12.78125 0.40625 C 10.550781 0.40625 8.625 -0.015625 7 -0.859375 C 5.382812 -1.703125 4.132812 -2.960938 3.25 -4.640625 C 2.375 -6.316406 1.9375 -8.359375 1.9375 -10.765625 C 1.9375 -13.210938 2.394531 -15.273438 3.3125 -16.953125 C 4.238281 -18.628906 5.488281 -19.878906 7.0625 -20.703125 C 8.644531 -21.535156 10.421875 -21.953125 12.390625 -21.953125 C 15.429688 -21.953125 17.757812 -21.144531 19.375 -19.53125 C 21 -17.914062 21.8125 -15.546875 21.8125 -12.421875 C 21.8125 -11.285156 21.773438 -10.40625 21.703125 -9.78125 Z M 16.640625 -13.046875 C 16.585938 -14.691406 16.207031 -15.882812 15.5 -16.625 C 14.789062 -17.375 13.753906 -17.75 12.390625 -17.75 C 9.648438 -17.75 8.039062 -16.179688 7.5625 -13.046875 Z M 16.640625 -13.046875 "/></g></g></g></svg>