<svg xmlns="http://www.w3.org/2000/svg" xmlns:xlink="http://www.w3.org/1999/xlink" width="500" zoomAndPan="magnify" viewBox="0 0 375 374.999991" height="500" preserveAspectRatio="xMidYMid meet" version="1.0"><defs><clipPath id="f21735231c"><path d="M 267 6 L 351.515625 6 L 351.515625 130 L 267 130 Z M 267 6 " clip-rule="nonzero"/></clipPath><clipPath id="0d7a19df78"><path d="M 262.914062 265.710938 L 362.664062 265.710938 L 362.664062 365.460938 L 262.914062 365.460938 Z M 262.914062 265.710938 " clip-rule="nonzero"/></clipPath><clipPath id="aaf34c42a5"><path d="M 298.949219 292.640625 L 362.664062 292.640625 L 362.664062 365.460938 L 298.949219 365.460938 Z M 298.949219 292.640625 " clip-rule="nonzero"/></clipPath><clipPath id="bd69289c71"><path d="M 362.664062 315.585938 C 362.664062 343.128906 340.335938 365.460938 312.789062 365.460938 C 285.246094 365.460938 262.914062 343.128906 262.914062 315.585938 C 262.914062 288.039062 285.246094 265.710938 312.789062 265.710938 C 340.335938 265.710938 362.664062 288.039062 362.664062 315.585938 Z M 362.664062 315.585938 " clip-rule="nonzero"/></clipPath></defs><path fill="#ebd2c0" d="M 257.691406 128.179688 L 314.894531 1.457031 L 322.140625 38.867188 L 266.578125 131.808594 Z M 257.691406 128.179688 " fill-opacity="1" fill-rule="nonzero"/><path fill="#ebd2c0" d="M 263.519531 128.179688 L 333.011719 1.457031 L 333.011719 42.492188 L 271.414062 131.808594 Z M 263.519531 128.179688 " fill-opacity="1" fill-rule="nonzero"/><path fill="#f5e8df" d="M 93.847656 42.492188 L 137.328125 15.945312 L 255.707031 128.195312 L 268.988281 128.195312 L 349.925781 7.503906 L 341.476562 44.914062 L 295.570312 174.0625 C 295.570312 174.0625 114.390625 176.472656 113.183594 174.0625 C 111.964844 171.640625 93.847656 42.492188 93.847656 42.492188 Z M 93.847656 42.492188 " fill-opacity="1" fill-rule="nonzero"/><path fill="#688e1f" d="M 85.210938 40.972656 L 15.640625 258.640625 C 14.753906 261.40625 15.878906 264.421875 18.355469 265.945312 L 171.484375 359.507812 C 178.265625 363.648438 186.359375 365.132812 194.171875 363.636719 C 202.636719 362.019531 210.078125 357.085938 214.847656 349.914062 L 287.398438 240.773438 C 288.007812 239.742188 288.5 238.628906 288.828125 237.464844 L 346.5625 40.679688 C 347.144531 38.707031 344.480469 37.492188 343.355469 39.199219 L 285.308594 127.558594 C 285.308594 127.558594 272.023438 152.902344 241.824219 139.628906 L 94.828125 37.703125 C 91.34375 35.28125 86.496094 36.921875 85.210938 40.972656 Z M 85.210938 40.972656 " fill-opacity="1" fill-rule="nonzero"/><path fill="#000000" d="M 177.113281 363.542969 C 176.980469 363.542969 176.847656 363.53125 176.71875 363.476562 C 176.015625 363.25 175.632812 362.511719 175.855469 361.808594 L 245.996094 142.25 C 246.222656 141.546875 246.964844 141.164062 247.667969 141.390625 C 248.367188 141.613281 248.753906 142.355469 248.527344 143.054688 L 178.371094 362.628906 C 178.1875 363.183594 177.671875 363.542969 177.113281 363.542969 Z M 177.113281 363.542969 " fill-opacity="1" fill-rule="nonzero"/><path fill="#000000" d="M 208.597656 357.613281 C 208.464844 357.613281 208.316406 357.585938 208.183594 357.546875 C 207.484375 357.324219 207.113281 356.582031 207.324219 355.878906 L 278.59375 135.011719 C 278.816406 134.308594 279.558594 133.9375 280.261719 134.148438 C 280.960938 134.375 281.332031 135.117188 281.121094 135.816406 L 209.855469 356.6875 C 209.683594 357.257812 209.164062 357.613281 208.597656 357.613281 Z M 208.597656 357.613281 " fill-opacity="1" fill-rule="nonzero"/><path fill="#000000" d="M 250.871094 131.925781 C 250.566406 131.925781 250.277344 131.820312 250.023438 131.621094 L 123.195312 25.410156 C 122.640625 24.945312 122.5625 24.097656 123.039062 23.542969 C 123.515625 22.988281 124.347656 22.90625 124.90625 23.382812 L 251.734375 129.597656 C 252.289062 130.0625 252.367188 130.90625 251.890625 131.464844 C 251.625 131.753906 251.253906 131.925781 250.871094 131.925781 Z M 250.871094 131.925781 " fill-opacity="1" fill-rule="nonzero"/><path fill="#000000" d="M 246.039062 136.742188 C 245.757812 136.742188 245.496094 136.664062 245.257812 136.480469 L 107.554688 35.109375 C 106.960938 34.671875 106.839844 33.851562 107.277344 33.257812 C 107.714844 32.660156 108.550781 32.542969 109.132812 32.976562 L 246.832031 134.363281 C 247.429688 134.796875 247.546875 135.617188 247.109375 136.214844 C 246.859375 136.558594 246.449219 136.742188 246.039062 136.742188 Z M 246.039062 136.742188 " fill-opacity="1" fill-rule="nonzero"/><path fill="#6eb428" d="M 114.363281 94.582031 L 99.066406 144.804688 C 98.496094 146.667969 99.238281 148.679688 100.878906 149.738281 L 176.757812 198.730469 C 179.207031 200.320312 182.492188 199.101562 183.3125 196.296875 L 197.472656 148.414062 C 198 146.601562 197.3125 144.65625 195.761719 143.585938 L 121.023438 92.253906 C 118.589844 90.585938 115.222656 91.761719 114.363281 94.582031 Z M 114.363281 94.582031 " fill-opacity="1" fill-rule="nonzero"/><g clip-path="url(#f21735231c)"><path fill="#000000" d="M 268.988281 129.503906 C 268.738281 129.503906 268.488281 129.4375 268.25 129.28125 C 267.640625 128.871094 267.480469 128.050781 267.890625 127.441406 L 348.824219 6.75 C 349.238281 6.140625 350.058594 5.980469 350.667969 6.390625 C 351.277344 6.800781 351.433594 7.621094 351.023438 8.230469 L 270.089844 128.921875 C 269.835938 129.304688 269.425781 129.503906 268.988281 129.503906 Z M 268.988281 129.503906 " fill-opacity="1" fill-rule="nonzero"/></g><path fill="#000000" d="M 263.519531 129.503906 C 263.308594 129.503906 263.082031 129.453125 262.882812 129.347656 C 262.25 128.988281 262.011719 128.195312 262.355469 127.546875 L 331.847656 0.820312 C 332.191406 0.183594 333 -0.0546875 333.648438 0.292969 C 334.285156 0.648438 334.523438 1.441406 334.179688 2.089844 L 264.683594 128.816406 C 264.433594 129.253906 263.984375 129.503906 263.519531 129.503906 Z M 263.519531 129.503906 " fill-opacity="1" fill-rule="nonzero"/><path fill="#000000" d="M 257.691406 129.503906 C 257.359375 129.503906 257.03125 129.386719 256.792969 129.148438 L 136.429688 16.914062 C 135.898438 16.410156 135.871094 15.574219 136.363281 15.046875 C 136.867188 14.515625 137.699219 14.492188 138.230469 14.980469 L 257.242188 125.972656 L 313.6875 0.925781 C 313.992188 0.265625 314.773438 -0.0390625 315.4375 0.265625 C 316.097656 0.570312 316.402344 1.351562 316.097656 2.011719 L 258.898438 128.722656 C 258.726562 129.109375 258.367188 129.398438 257.957031 129.476562 C 257.863281 129.503906 257.785156 129.503906 257.691406 129.503906 Z M 257.691406 129.503906 " fill-opacity="1" fill-rule="nonzero"/><path fill="#6eb428" d="M 169.339844 231.988281 C 169.007812 231.988281 168.664062 231.894531 168.359375 231.695312 L 86.828125 179.199219 C 85.980469 178.65625 85.742188 177.53125 86.285156 176.695312 C 86.828125 175.847656 87.953125 175.609375 88.789062 176.152344 L 170.320312 228.652344 C 171.167969 229.195312 171.40625 230.320312 170.863281 231.152344 C 170.519531 231.695312 169.9375 231.988281 169.339844 231.988281 Z M 169.339844 231.988281 " fill-opacity="1" fill-rule="nonzero"/><path fill="#6eb428" d="M 162.09375 260.941406 C 161.765625 260.941406 161.421875 260.847656 161.117188 260.652344 L 79.582031 208.152344 C 78.734375 207.609375 78.496094 206.484375 79.039062 205.652344 C 79.582031 204.804688 80.710938 204.566406 81.542969 205.109375 L 163.074219 257.605469 C 163.921875 258.148438 164.160156 259.273438 163.617188 260.109375 C 163.273438 260.652344 162.691406 260.941406 162.09375 260.941406 Z M 162.09375 260.941406 " fill-opacity="1" fill-rule="nonzero"/><g clip-path="url(#0d7a19df78)"><path fill="#7ac943" d="M 362.664062 315.585938 C 362.664062 343.128906 340.335938 365.460938 312.789062 365.460938 C 285.246094 365.460938 262.914062 343.128906 262.914062 315.585938 C 262.914062 288.039062 285.246094 265.710938 312.789062 265.710938 C 340.335938 265.710938 362.664062 288.039062 362.664062 315.585938 " fill-opacity="1" fill-rule="nonzero"/></g><g clip-path="url(#aaf34c42a5)"><g clip-path="url(#bd69289c71)"><path fill="#69ad3a" d="M 384.859375 332.976562 L 344.597656 292.710938 L 298.976562 338.582031 L 335.503906 375.105469 L 384.859375 332.976562 " fill-opacity="1" fill-rule="nonzero"/></g></g><path fill="#ffffff" d="M 344.597656 292.710938 C 343.265625 291.378906 341.496094 290.648438 339.609375 290.648438 C 337.726562 290.648438 335.957031 291.378906 334.625 292.710938 L 303.847656 323.488281 L 290.957031 310.597656 C 289.625 309.265625 287.855469 308.535156 285.96875 308.535156 C 284.085938 308.535156 282.316406 309.265625 280.984375 310.597656 C 278.234375 313.347656 278.234375 317.824219 280.984375 320.574219 L 298.792969 338.386719 C 298.8125 338.40625 298.835938 338.425781 298.859375 338.453125 C 299.195312 338.789062 299.570312 339.09375 299.964844 339.355469 C 301.121094 340.117188 302.464844 340.523438 303.851562 340.523438 C 305.738281 340.523438 307.507812 339.789062 308.839844 338.457031 C 308.902344 338.394531 343.140625 304.144531 344.597656 302.6875 C 345.929688 301.355469 346.664062 299.585938 346.664062 297.699219 C 346.664062 295.816406 345.929688 294.042969 344.597656 292.710938 " fill-opacity="1" fill-rule="nonzero"/></svg>