<svg xmlns="http://www.w3.org/2000/svg" xmlns:xlink="http://www.w3.org/1999/xlink" width="500" zoomAndPan="magnify" viewBox="0 0 375 374.999991" height="500" preserveAspectRatio="xMidYMid meet" version="1.0"><defs><g/><clipPath id="63503b0bb2"><path d="M 231 0 L 364.1875 0 L 364.1875 158 L 231 158 Z M 231 0 " clip-rule="nonzero"/></clipPath></defs><g fill="#000000" fill-opacity="1"><g transform="translate(184.462492, 195.374987)"><g><path d="M 3.03125 0.09375 C 2.644531 0.09375 2.304688 0.0195312 2.015625 -0.125 C 1.734375 -0.28125 1.515625 -0.492188 1.359375 -0.765625 C 1.203125 -1.046875 1.125 -1.359375 1.125 -1.703125 C 1.125 -2.046875 1.203125 -2.351562 1.359375 -2.625 C 1.515625 -2.894531 1.734375 -3.109375 2.015625 -3.265625 C 2.304688 -3.421875 2.644531 -3.5 3.03125 -3.5 C 3.414062 -3.5 3.753906 -3.421875 4.046875 -3.265625 C 4.335938 -3.117188 4.554688 -2.90625 4.703125 -2.625 C 4.859375 -2.351562 4.9375 -2.046875 4.9375 -1.703125 C 4.9375 -1.179688 4.765625 -0.75 4.421875 -0.40625 C 4.078125 -0.0703125 3.613281 0.09375 3.03125 0.09375 Z M 3.03125 0.09375 "/></g></g></g><path fill="#d8ecfe" d="M 299.253906 156.214844 C 298.816406 156.433594 298.378906 156.582031 297.867188 156.582031 C 297.355469 156.582031 296.914062 156.433594 296.476562 156.214844 C 260.28125 137.578125 238.34375 108.339844 233.375 72.960938 C 213.335938 63.164062 190.816406 57.683594 167.050781 57.683594 C 83.402344 57.683594 15.617188 125.441406 15.617188 209.0625 C 15.617188 292.683594 83.402344 360.441406 167.050781 360.441406 C 250.703125 360.441406 318.488281 292.683594 318.488281 209.0625 C 318.488281 188.816406 314.464844 169.445312 307.226562 151.757812 C 304.667969 153.292969 302.035156 154.753906 299.253906 156.214844 Z M 299.253906 156.214844 " fill-opacity="1" fill-rule="nonzero"/><path fill="#c4e2ff" d="M 42.820312 250.800781 C 44.9375 248.679688 48.375 248.679688 50.496094 250.800781 L 52.691406 252.992188 C 48.449219 239.105469 46.183594 224.265625 46.183594 208.988281 C 46.183594 130.558594 105.847656 66.089844 182.335938 58.414062 C 177.289062 57.902344 172.242188 57.683594 167.050781 57.683594 C 83.402344 57.683594 15.617188 125.441406 15.617188 209.0625 C 15.617188 229.457031 19.640625 248.898438 26.949219 266.660156 Z M 42.820312 250.800781 " fill-opacity="1" fill-rule="nonzero"/><path fill="#ffe5c2" d="M 235.492188 263.445312 C 227.085938 271.851562 215.96875 276.457031 204.125 276.457031 C 203.613281 276.457031 203.027344 276.457031 202.515625 276.457031 L 191.765625 276.089844 C 191.183594 276.089844 190.671875 276.089844 190.085938 276.089844 C 181.75 276.089844 173.777344 278.285156 166.832031 282.449219 L 210.046875 325.648438 L 277.976562 257.742188 L 259.695312 239.46875 Z M 235.492188 263.445312 " fill-opacity="1" fill-rule="nonzero"/><path fill="#fed2a4" d="M 202.441406 277.113281 L 191.695312 276.75 C 183.066406 276.457031 174.582031 278.574219 167.269531 282.890625 L 209.390625 324.992188 L 232.859375 301.527344 L 208.292969 276.96875 C 206.316406 277.113281 204.417969 277.1875 202.441406 277.113281 Z M 202.441406 277.113281 " fill-opacity="1" fill-rule="nonzero"/><path fill="#fe646f" d="M 228.914062 372.722656 L 199.152344 342.972656 C 197.03125 340.851562 197.03125 337.417969 199.152344 335.296875 L 283.609375 250.800781 C 285.726562 248.679688 289.164062 248.679688 291.285156 250.800781 L 321.046875 280.550781 C 323.167969 282.667969 323.167969 286.105469 321.046875 288.226562 L 236.589844 372.722656 C 234.46875 374.84375 231.035156 374.84375 228.914062 372.722656 Z M 228.914062 372.722656 " fill-opacity="1" fill-rule="nonzero"/><path fill="#fd4755" d="M 230.742188 342.972656 C 228.621094 340.851562 228.621094 337.417969 230.742188 335.296875 L 303.277344 262.789062 L 291.285156 250.800781 C 289.164062 248.679688 285.726562 248.679688 283.609375 250.800781 L 199.152344 335.296875 C 197.03125 337.417969 197.03125 340.851562 199.152344 342.972656 L 228.914062 372.722656 C 231.035156 374.84375 234.46875 374.84375 236.589844 372.722656 L 248.582031 360.734375 Z M 230.742188 342.972656 " fill-opacity="1" fill-rule="nonzero"/><path fill="#d88a55" d="M 287.484375 190.277344 C 282.292969 184.722656 274.246094 183.625 267.886719 187.0625 C 267.226562 187.425781 266.570312 186.695312 266.863281 186.109375 C 270.152344 179.972656 269.203125 172.148438 264.011719 166.960938 C 258.820312 161.769531 250.996094 160.820312 244.851562 164.109375 C 244.195312 164.476562 243.535156 163.746094 243.902344 163.160156 C 247.191406 157.019531 246.242188 149.199219 241.050781 144.007812 C 235.859375 138.820312 228.035156 137.867188 221.894531 141.15625 C 221.234375 141.523438 220.578125 140.792969 220.941406 140.132812 C 224.304688 133.847656 223.210938 125.734375 217.652344 120.546875 C 211.21875 114.550781 201.054688 114.988281 194.765625 121.203125 L 193.300781 122.664062 L 192.058594 122.882812 L 172.316406 142.621094 L 172.464844 143.496094 L 184.382812 155.410156 C 187.453125 158.480469 189.355469 162.722656 189.207031 167.105469 C 189.0625 171.347656 187.304688 175.292969 184.164062 178.144531 C 181.382812 180.703125 177.726562 182.089844 173.851562 182.089844 C 169.539062 182.089844 165.371094 180.335938 162.300781 177.265625 L 161.273438 178.289062 L 165.664062 182.675781 C 168.585938 185.597656 170.414062 189.472656 170.488281 193.566406 C 170.5625 198.683594 168.222656 203.433594 163.980469 206.578125 C 162.007812 208.039062 159.667969 208.988281 157.179688 209.28125 C 152.207031 210.011719 147.382812 208.332031 143.945312 204.898438 L 136.414062 197.367188 L 135.390625 198.390625 C 139.046875 202.046875 140.65625 207.164062 139.632812 212.5 C 139.265625 214.324219 138.609375 216.078125 137.582031 217.613281 C 134.367188 222.660156 128.808594 225.363281 122.960938 224.851562 C 119.230469 224.558594 115.792969 222.730469 113.160156 220.101562 L 104.386719 211.328125 L 103.363281 212.351562 C 106.582031 215.640625 108.1875 220.027344 107.824219 224.632812 C 107.605469 227.484375 106.507812 230.261719 104.753906 232.597656 C 101.753906 236.546875 97.222656 238.8125 92.320312 238.8125 C 88.226562 238.8125 84.351562 237.203125 81.425781 234.355469 L 57.222656 258.546875 L 123.324219 324.625 L 158.132812 289.832031 C 166.980469 280.988281 179.191406 276.164062 191.695312 276.675781 L 202.441406 277.113281 C 214.945312 277.554688 227.15625 272.800781 236.003906 263.957031 L 286.824219 213.15625 C 293.039062 206.941406 293.550781 196.78125 287.484375 190.277344 Z M 287.484375 190.277344 " fill-opacity="1" fill-rule="nonzero"/><path fill="#c57a44" d="M 185.257812 155.191406 C 188.039062 157.96875 189.574219 161.476562 189.9375 165.058594 L 222.84375 132.167969 C 222.769531 128.074219 221.234375 123.980469 218.089844 120.835938 C 211.730469 114.476562 201.417969 114.476562 195.058594 120.835938 L 173.046875 142.839844 Z M 185.257812 155.191406 " fill-opacity="1" fill-rule="nonzero"/><path fill="#c57a44" d="M 108.847656 246.121094 L 130.417969 224.558594 C 124.566406 226.824219 117.695312 225.582031 113.015625 220.90625 L 104.019531 211.914062 C 110.382812 218.347656 110.308594 228.726562 103.800781 235.011719 C 97.441406 241.152344 87.347656 241.078125 81.0625 234.867188 L 57.808594 258.109375 L 123.910156 324.1875 L 144.75 303.355469 L 108.847656 267.464844 C 102.925781 261.546875 102.925781 252.042969 108.847656 246.121094 Z M 108.847656 246.121094 " fill-opacity="1" fill-rule="nonzero"/><path fill="#ffe5c2" d="M 185.257812 155.191406 L 147.601562 117.476562 C 141.238281 111.117188 130.929688 111.117188 124.566406 117.476562 C 118.207031 123.835938 118.207031 134.140625 124.566406 140.5 C 118.207031 134.140625 107.898438 134.140625 101.535156 140.5 C 95.171875 146.859375 95.171875 157.164062 101.535156 163.523438 C 95.171875 157.164062 84.863281 157.164062 78.5 163.523438 C 72.140625 169.882812 72.140625 180.191406 78.5 186.550781 L 85.519531 193.566406 C 79.160156 187.207031 68.851562 187.207031 62.488281 193.566406 C 56.125 199.925781 56.125 210.234375 62.488281 216.589844 L 80.839844 234.9375 C 87.128906 241.226562 97.292969 241.296875 103.65625 235.085938 C 110.164062 228.796875 110.238281 218.347656 103.800781 211.914062 L 112.867188 220.976562 C 119.15625 227.261719 129.320312 227.335938 135.683594 221.125 C 142.191406 214.835938 142.265625 204.386719 135.828125 197.953125 L 143.359375 205.480469 C 149.648438 211.765625 159.8125 211.839844 166.175781 205.628906 C 172.683594 199.339844 172.753906 188.890625 166.320312 182.457031 L 161.714844 177.851562 C 167.929688 184.066406 178.09375 184.648438 184.527344 178.730469 C 191.621094 172.371094 191.765625 161.699219 185.257812 155.191406 Z M 185.257812 155.191406 " fill-opacity="1" fill-rule="nonzero"/><path fill="#ffbd86" d="M 177.582031 110.457031 L 148.550781 110.457031 C 143.652344 110.457031 139.632812 114.476562 139.632812 119.375 L 139.632812 123.101562 C 139.632812 134.140625 148.550781 143.058594 159.59375 143.058594 L 173.046875 142.984375 L 193.375 122.664062 C 191.546875 115.648438 185.1875 110.457031 177.582031 110.457031 Z M 177.582031 110.457031 " fill-opacity="1" fill-rule="nonzero"/><path fill="#fed2a4" d="M 175.972656 171.199219 L 138.609375 133.847656 C 132.832031 128.074219 132.320312 119.082031 137 112.722656 C 132.539062 112.429688 127.933594 114.039062 124.496094 117.476562 C 118.132812 123.835938 118.132812 134.140625 124.496094 140.5 L 161.859375 177.851562 C 168.074219 184.066406 178.238281 184.648438 184.675781 178.730469 C 185.550781 177.925781 186.28125 177.121094 186.941406 176.171875 C 182.992188 175.878906 178.96875 174.195312 175.972656 171.199219 Z M 175.972656 171.199219 " fill-opacity="1" fill-rule="nonzero"/><path fill="#fed2a4" d="M 159.300781 197.515625 L 117.328125 155.558594 C 111.992188 150.222656 111.1875 142.035156 114.84375 135.820312 C 110.089844 135.308594 105.191406 136.84375 101.609375 140.5 C 95.246094 146.859375 95.246094 157.164062 101.609375 163.523438 L 143.578125 205.480469 C 149.867188 211.765625 160.03125 211.839844 166.394531 205.628906 C 167.492188 204.605469 168.367188 203.433594 169.097656 202.191406 C 165.441406 201.753906 162.007812 200.21875 159.300781 197.515625 Z M 159.300781 197.515625 " fill-opacity="1" fill-rule="nonzero"/><path fill="#fed2a4" d="M 128.371094 213.300781 L 93.929688 178.875 C 88.445312 173.394531 87.714844 165.058594 91.664062 158.773438 C 86.984375 158.335938 82.15625 159.871094 78.574219 163.453125 C 72.214844 169.8125 72.214844 180.117188 78.574219 186.476562 L 113.015625 220.90625 C 119.304688 227.191406 129.46875 227.261719 135.828125 221.050781 C 136.78125 220.101562 137.582031 219.078125 138.316406 217.980469 C 134.660156 217.613281 131.148438 216.078125 128.371094 213.300781 Z M 128.371094 213.300781 " fill-opacity="1" fill-rule="nonzero"/><path fill="#fed2a4" d="M 96.417969 227.261719 L 78.0625 208.917969 C 72.578125 203.433594 71.847656 195.101562 75.796875 188.816406 C 71.042969 188.304688 66.21875 189.839844 62.5625 193.492188 C 56.199219 199.851562 56.199219 210.160156 62.5625 216.519531 L 80.914062 234.867188 C 87.203125 241.152344 97.367188 241.226562 103.730469 235.011719 C 104.679688 234.0625 105.484375 233.039062 106.214844 231.941406 C 102.632812 231.578125 99.195312 230.042969 96.417969 227.261719 Z M 96.417969 227.261719 " fill-opacity="1" fill-rule="nonzero"/><path fill="#97d729" d="M 135.023438 342.972656 L 105.191406 372.722656 C 103.070312 374.84375 99.632812 374.84375 97.511719 372.722656 L 13.058594 288.296875 C 10.9375 286.179688 10.9375 282.742188 13.058594 280.621094 L 42.820312 250.800781 C 44.9375 248.679688 48.375 248.679688 50.496094 250.800781 L 135.023438 335.296875 C 137.144531 337.417969 137.144531 340.851562 135.023438 342.972656 Z M 135.023438 342.972656 " fill-opacity="1" fill-rule="nonzero"/><path fill="#8bc727" d="M 44.0625 288.296875 C 41.941406 286.179688 41.941406 282.742188 44.0625 280.621094 L 62.121094 262.496094 L 50.496094 250.800781 C 48.375 248.679688 44.9375 248.679688 42.820312 250.800781 L 13.058594 280.621094 C 10.9375 282.742188 10.9375 286.179688 13.058594 288.296875 L 97.585938 372.796875 C 99.707031 374.914062 103.144531 374.914062 105.265625 372.796875 L 116.890625 361.171875 Z M 44.0625 288.296875 " fill-opacity="1" fill-rule="nonzero"/><g clip-path="url(#63503b0bb2)"><path fill="#fed402" d="M 297.867188 0.0859375 C 278.195312 0.0859375 259.625 19.675781 243.316406 14.339844 C 241.417969 13.679688 239.296875 14.777344 238.636719 16.675781 C 234.105469 29.324219 231.617188 42.992188 231.617188 57.246094 C 231.617188 103.515625 257.796875 136.992188 296.183594 156.800781 C 297.28125 157.386719 298.523438 157.386719 299.621094 156.800781 C 338.011719 136.992188 364.1875 103.515625 364.1875 57.246094 C 364.1875 42.992188 361.703125 29.394531 357.167969 16.675781 C 356.507812 14.777344 354.390625 13.679688 352.488281 14.339844 C 336.109375 19.675781 317.535156 0.0859375 297.867188 0.0859375 Z M 297.867188 0.0859375 " fill-opacity="1" fill-rule="nonzero"/></g><path fill="#fac600" d="M 288.066406 114.332031 C 268.179688 109.875 253.335938 92.109375 253.335938 70.914062 C 253.335938 59.949219 257.355469 49.863281 263.9375 42.042969 C 264.375 30.566406 266.351562 19.453125 269.789062 9.003906 C 260.5 13.316406 251.582031 17.042969 243.246094 14.339844 C 241.34375 13.679688 239.222656 14.777344 238.566406 16.675781 C 234.03125 29.324219 231.546875 42.992188 231.546875 57.246094 C 231.546875 103.515625 257.722656 136.992188 296.113281 156.800781 C 297.207031 157.386719 298.453125 157.386719 299.546875 156.800781 C 307.664062 152.632812 315.195312 147.808594 322.070312 142.402344 C 308.90625 134.796875 297.355469 125.441406 288.066406 114.332031 Z M 288.066406 114.332031 " fill-opacity="1" fill-rule="nonzero"/><path fill="#97d729" d="M 336.914062 70.914062 C 336.914062 72.191406 336.851562 73.46875 336.726562 74.738281 C 336.601562 76.011719 336.414062 77.273438 336.164062 78.527344 C 335.914062 79.78125 335.601562 81.019531 335.230469 82.246094 C 334.859375 83.46875 334.429688 84.667969 333.941406 85.851562 C 333.453125 87.03125 332.90625 88.1875 332.300781 89.3125 C 331.699219 90.441406 331.042969 91.535156 330.332031 92.597656 C 329.621094 93.660156 328.859375 94.6875 328.050781 95.675781 C 327.238281 96.664062 326.378906 97.609375 325.476562 98.515625 C 324.574219 99.417969 323.625 100.277344 322.636719 101.085938 C 321.648438 101.898438 320.621094 102.65625 319.558594 103.367188 C 318.496094 104.078125 317.402344 104.734375 316.273438 105.335938 C 315.144531 105.941406 313.992188 106.484375 312.808594 106.976562 C 311.628906 107.464844 310.425781 107.894531 309.199219 108.265625 C 307.976562 108.636719 306.738281 108.945312 305.484375 109.195312 C 304.230469 109.445312 302.964844 109.632812 301.695312 109.757812 C 300.421875 109.882812 299.144531 109.945312 297.867188 109.945312 C 296.585938 109.945312 295.3125 109.882812 294.039062 109.757812 C 292.765625 109.632812 291.503906 109.445312 290.25 109.195312 C 288.996094 108.945312 287.753906 108.636719 286.53125 108.265625 C 285.308594 107.894531 284.105469 107.464844 282.921875 106.976562 C 281.742188 106.484375 280.585938 105.941406 279.460938 105.335938 C 278.332031 104.734375 277.234375 104.078125 276.171875 103.367188 C 275.109375 102.65625 274.082031 101.898438 273.09375 101.085938 C 272.105469 100.277344 271.160156 99.417969 270.257812 98.515625 C 269.351562 97.609375 268.492188 96.664062 267.683594 95.675781 C 266.871094 94.6875 266.109375 93.660156 265.398438 92.597656 C 264.6875 91.535156 264.03125 90.441406 263.429688 89.3125 C 262.828125 88.1875 262.28125 87.03125 261.792969 85.851562 C 261.300781 84.667969 260.871094 83.46875 260.5 82.246094 C 260.128906 81.019531 259.820312 79.78125 259.570312 78.527344 C 259.320312 77.273438 259.132812 76.011719 259.007812 74.738281 C 258.882812 73.46875 258.820312 72.191406 258.820312 70.914062 C 258.820312 69.636719 258.882812 68.359375 259.007812 67.089844 C 259.132812 65.816406 259.320312 64.550781 259.570312 63.300781 C 259.820312 62.046875 260.128906 60.804688 260.5 59.582031 C 260.871094 58.359375 261.300781 57.15625 261.792969 55.976562 C 262.28125 54.796875 262.828125 53.640625 263.429688 52.515625 C 264.03125 51.386719 264.691406 50.292969 265.398438 49.226562 C 266.109375 48.164062 266.871094 47.140625 267.683594 46.152344 C 268.492188 45.164062 269.351562 44.21875 270.257812 43.3125 C 271.160156 42.410156 272.105469 41.550781 273.09375 40.742188 C 274.082031 39.929688 275.109375 39.167969 276.171875 38.460938 C 277.234375 37.75 278.332031 37.09375 279.460938 36.488281 C 280.585938 35.886719 281.742188 35.339844 282.921875 34.851562 C 284.105469 34.363281 285.308594 33.933594 286.53125 33.5625 C 287.753906 33.191406 288.996094 32.878906 290.25 32.632812 C 291.503906 32.382812 292.765625 32.195312 294.039062 32.070312 C 295.3125 31.945312 296.585938 31.882812 297.867188 31.882812 C 299.144531 31.882812 300.421875 31.945312 301.695312 32.070312 C 302.964844 32.195312 304.230469 32.382812 305.484375 32.632812 C 306.738281 32.878906 307.976562 33.191406 309.199219 33.5625 C 310.425781 33.933594 311.628906 34.363281 312.808594 34.851562 C 313.992188 35.339844 315.144531 35.886719 316.273438 36.488281 C 317.402344 37.09375 318.496094 37.75 319.558594 38.460938 C 320.621094 39.167969 321.648438 39.929688 322.636719 40.742188 C 323.625 41.550781 324.574219 42.410156 325.476562 43.3125 C 326.378906 44.21875 327.238281 45.164062 328.050781 46.152344 C 328.859375 47.140625 329.621094 48.164062 330.332031 49.226562 C 331.042969 50.292969 331.699219 51.386719 332.300781 52.515625 C 332.90625 53.640625 333.453125 54.796875 333.941406 55.976562 C 334.429688 57.15625 334.859375 58.359375 335.230469 59.582031 C 335.601562 60.804688 335.914062 62.046875 336.164062 63.300781 C 336.414062 64.550781 336.601562 65.816406 336.726562 67.089844 C 336.851562 68.359375 336.914062 69.636719 336.914062 70.914062 Z M 336.914062 70.914062 " fill-opacity="1" fill-rule="nonzero"/><path fill="#8bc727" d="M 286.53125 70.914062 C 286.53125 54.25 296.988281 39.996094 311.757812 34.367188 C 307.445312 32.757812 302.765625 31.808594 297.9375 31.808594 C 276.367188 31.808594 258.890625 49.277344 258.890625 70.839844 C 258.890625 92.402344 276.367188 109.875 297.9375 109.875 C 302.839844 109.875 307.445312 108.996094 311.757812 107.316406 C 296.988281 101.832031 286.53125 87.578125 286.53125 70.914062 Z M 286.53125 70.914062 " fill-opacity="1" fill-rule="nonzero"/><path fill="#e8b800" d="M 297.867188 115.429688 C 273.296875 115.429688 253.335938 95.472656 253.335938 70.914062 C 253.335938 46.355469 273.296875 26.398438 297.867188 26.398438 C 322.433594 26.398438 342.398438 46.355469 342.398438 70.914062 C 342.398438 95.472656 322.433594 115.429688 297.867188 115.429688 Z M 297.867188 37.289062 C 279.367188 37.289062 264.304688 52.347656 264.304688 70.839844 C 264.304688 89.332031 279.367188 104.390625 297.867188 104.390625 C 316.367188 104.390625 331.429688 89.332031 331.429688 70.839844 C 331.429688 52.347656 316.4375 37.289062 297.867188 37.289062 Z M 297.867188 37.289062 " fill-opacity="1" fill-rule="nonzero"/><path fill="#ffffff" d="M 295.234375 88.089844 C 293.769531 88.089844 292.382812 87.507812 291.359375 86.484375 L 275.199219 70.328125 C 273.078125 68.210938 273.078125 64.699219 275.199219 62.582031 C 277.320312 60.460938 280.828125 60.460938 282.949219 62.582031 L 295.234375 74.859375 L 312.78125 57.316406 C 314.902344 55.199219 318.414062 55.199219 320.535156 57.316406 C 322.65625 59.4375 322.65625 62.945312 320.535156 65.066406 L 299.109375 86.484375 C 298.085938 87.507812 296.695312 88.089844 295.234375 88.089844 Z M 295.234375 88.089844 " fill-opacity="1" fill-rule="nonzero"/></svg>